<svg width="30" height="30" viewBox="0 0 30 30" fill="none" xmlns="http://www.w3.org/2000/svg">
<path d="M25 8.75H22.8275C23.5343 8.12699 24.0953 7.3561 24.4707 6.492C24.8462 5.6279 25.0269 4.69176 25 3.75C25 3.41848 24.8683 3.10054 24.6339 2.86612C24.3995 2.6317 24.0815 2.5 23.75 2.5C23.4185 2.5 23.1005 2.6317 22.8661 2.86612C22.6317 3.10054 22.5 3.41848 22.5 3.75C22.5 7.0275 19.5363 8.1625 17.2825 8.55125C18.1144 7.07632 18.6151 5.43796 18.75 3.75C18.75 2.75544 18.3549 1.80161 17.6517 1.09835C16.9484 0.395088 15.9946 0 15 0C14.0054 0 13.0516 0.395088 12.3483 1.09835C11.6451 1.80161 11.25 2.75544 11.25 3.75C11.3849 5.43796 11.8856 7.07632 12.7175 8.55125C10.4637 8.1625 7.5 7.0275 7.5 3.75C7.5 3.41848 7.3683 3.10054 7.13388 2.86612C6.89946 2.6317 6.58152 2.5 6.25 2.5C5.91848 2.5 5.60054 2.6317 5.36612 2.86612C5.1317 3.10054 5 3.41848 5 3.75C4.97314 4.69176 5.15384 5.6279 5.52929 6.492C5.90475 7.3561 6.46575 8.12699 7.1725 8.75H5C3.67392 8.75 2.40215 9.27678 1.46447 10.2145C0.526784 11.1521 0 12.4239 0 13.75L0 15C0 15.663 0.263392 16.2989 0.732233 16.7678C1.20107 17.2366 1.83696 17.5 2.5 17.5V23.75C2.50198 25.407 3.1611 26.9956 4.33278 28.1672C5.50445 29.3389 7.09301 29.998 8.75 30H21.25C22.907 29.998 24.4956 29.3389 25.6672 28.1672C26.8389 26.9956 27.498 25.407 27.5 23.75V17.5C28.163 17.5 28.7989 17.2366 29.2678 16.7678C29.7366 16.2989 30 15.663 30 15V13.75C30 12.4239 29.4732 11.1521 28.5355 10.2145C27.5979 9.27678 26.3261 8.75 25 8.75ZM15 2.5C15.3315 2.5 15.6495 2.6317 15.8839 2.86612C16.1183 3.10054 16.25 3.41848 16.25 3.75C16.0991 5.07854 15.6734 6.36114 15 7.51625C14.3266 6.36114 13.9009 5.07854 13.75 3.75C13.75 3.41848 13.8817 3.10054 14.1161 2.86612C14.3505 2.6317 14.6685 2.5 15 2.5ZM2.5 13.75C2.5 13.087 2.76339 12.4511 3.23223 11.9822C3.70107 11.5134 4.33696 11.25 5 11.25H13.75V15H2.5V13.75ZM5 23.75V17.5H13.75V27.5H8.75C7.75544 27.5 6.80161 27.1049 6.09835 26.4017C5.39509 25.6984 5 24.7446 5 23.75ZM25 23.75C25 24.7446 24.6049 25.6984 23.9017 26.4017C23.1984 27.1049 22.2446 27.5 21.25 27.5H16.25V17.5H25V23.75ZM16.25 15V11.25H25C25.663 11.25 26.2989 11.5134 26.7678 11.9822C27.2366 12.4511 27.5 13.087 27.5 13.75V15H16.25Z" fill="black"/>
</svg>
