<svg width="31" height="31" viewBox="0 0 31 31" fill="none" xmlns="http://www.w3.org/2000/svg">
<path d="M28.9359 11.7308H29.3269C29.9682 11.7308 30.5 11.199 30.5 10.5577V7.42949C30.5 7.24179 30.4531 7.06974 30.3749 6.89769L28.5449 3.23769C27.5438 1.23564 25.5418 0 23.3051 0H7.19487C4.9582 0 2.95615 1.23564 1.95513 3.23769L0.125128 6.89769C0.046923 7.0541 0 7.24179 0 7.42949V10.5577C0 11.199 0.531795 11.7308 1.17308 11.7308H1.5641V28.1538H1.17308C0.531795 28.1538 0 28.6856 0 29.3269C0 29.9682 0.531795 30.5 1.17308 30.5H29.3269C29.9682 30.5 30.5 29.9682 30.5 29.3269C30.5 28.6856 29.9682 28.1538 29.3269 28.1538H28.9359V11.7308ZM26.5897 18.7692H13.2949V11.7308H26.5897V18.7692ZM2.34615 7.71103L4.05103 4.30128C4.64538 3.09692 5.84974 2.36179 7.19487 2.36179H23.2895C24.6346 2.36179 25.839 3.11256 26.4333 4.30128L28.1382 7.71103V9.38461H2.34615V7.71103ZM3.91026 11.7308H10.9487V28.1538H3.91026V11.7308ZM13.2949 28.1538V21.1154H26.5897V28.1538H13.2949Z" fill="black"/>
</svg>
