<svg width="34" height="32" viewBox="0 0 34 32" fill="none" xmlns="http://www.w3.org/2000/svg">
<path d="M26.9167 5.66667H24.0833V4.25C24.0833 3.12283 23.6356 2.04183 22.8385 1.2448C22.0415 0.447767 20.9605 0 19.8333 0H4.25C3.12283 0 2.04183 0.447767 1.2448 1.2448C0.447767 2.04183 0 3.12283 0 4.25L0 25.5H2.89142C2.85497 25.7344 2.83555 25.9711 2.83333 26.2083C2.83333 27.5234 3.35573 28.7845 4.2856 29.7144C5.21546 30.6443 6.47663 31.1667 7.79167 31.1667C9.1067 31.1667 10.3679 30.6443 11.2977 29.7144C12.2276 28.7845 12.75 27.5234 12.75 26.2083C12.7478 25.9711 12.7284 25.7344 12.6919 25.5H21.3081C21.2716 25.7344 21.2522 25.9711 21.25 26.2083C21.25 27.5234 21.7724 28.7845 22.7023 29.7144C23.6321 30.6443 24.8933 31.1667 26.2083 31.1667C27.5234 31.1667 28.7845 30.6443 29.7144 29.7144C30.6443 28.7845 31.1667 27.5234 31.1667 26.2083C31.1644 25.9711 31.145 25.7344 31.1086 25.5H34V12.75C33.9977 10.8721 33.2508 9.07171 31.9229 7.74381C30.595 6.41592 28.7946 5.66892 26.9167 5.66667ZM26.9167 8.5C28.0438 8.5 29.1248 8.94777 29.9219 9.7448C30.7189 10.5418 31.1667 11.6228 31.1667 12.75V14.1667H24.0833V8.5H26.9167ZM9.91667 26.2083C9.91667 26.7719 9.69278 27.3124 9.29427 27.7109C8.89575 28.1094 8.35525 28.3333 7.79167 28.3333C7.22808 28.3333 6.68758 28.1094 6.28906 27.7109C5.89055 27.3124 5.66667 26.7719 5.66667 26.2083C5.66754 25.9662 5.71217 25.7262 5.79842 25.5H9.78492C9.87116 25.7262 9.9158 25.9662 9.91667 26.2083ZM21.25 22.6667H2.83333V4.25C2.83333 3.87428 2.98259 3.51394 3.24827 3.24827C3.51394 2.98259 3.87428 2.83333 4.25 2.83333H19.8333C20.2091 2.83333 20.5694 2.98259 20.8351 3.24827C21.1007 3.51394 21.25 3.87428 21.25 4.25V22.6667ZM28.3333 26.2083C28.3333 26.7719 28.1094 27.3124 27.7109 27.7109C27.3124 28.1094 26.7719 28.3333 26.2083 28.3333C25.6447 28.3333 25.1042 28.1094 24.7057 27.7109C24.3072 27.3124 24.0833 26.7719 24.0833 26.2083C24.084 25.9662 24.1286 25.7262 24.2151 25.5H28.2016C28.2881 25.7262 28.3327 25.9662 28.3333 26.2083ZM24.0833 22.6667V17H31.1667V22.6667H24.0833Z" fill="black"/>
</svg>
