<svg width="30" height="29" viewBox="0 0 30 29" fill="none" xmlns="http://www.w3.org/2000/svg">
<path fill-rule="evenodd" clip-rule="evenodd" d="M13.3697 28.6933H6.35987C2.85355 28.6933 0 25.8398 0 22.3306V6.36418C0 2.85498 2.85355 0 6.35987 0H13.3539C16.8631 0 19.718 2.85498 19.718 6.36418V7.70129C19.718 8.29524 19.236 8.77729 18.642 8.77729C18.0481 8.77729 17.566 8.29524 17.566 7.70129V6.36418C17.566 4.04002 15.6766 2.152 13.3539 2.152H6.35987C4.04002 2.152 2.152 4.04002 2.152 6.36418V22.3306C2.152 24.6533 4.04002 26.5413 6.35987 26.5413H13.3697C15.6823 26.5413 17.566 24.659 17.566 22.3464V20.9935C17.566 20.3995 18.0481 19.9175 18.642 19.9175C19.236 19.9175 19.718 20.3995 19.718 20.9935V22.3464C19.718 25.8469 16.8688 28.6933 13.3697 28.6933Z" fill="black"/>
<mask id="mask0_8_1933" style="mask-type:luminance" maskUnits="userSpaceOnUse" x="10" y="13" width="20" height="3">
<path fill-rule="evenodd" clip-rule="evenodd" d="M10.0366 13.2706H29.4633V15.4226H10.0366V13.2706Z" fill="white"/>
</mask>
<g mask="url(#mask0_8_1933)">
<path fill-rule="evenodd" clip-rule="evenodd" d="M28.3874 15.4226H11.1126C10.5187 15.4226 10.0366 14.9406 10.0366 14.3466C10.0366 13.7527 10.5187 13.2706 11.1126 13.2706H28.3874C28.9814 13.2706 29.4634 13.7527 29.4634 14.3466C29.4634 14.9406 28.9814 15.4226 28.3874 15.4226Z" fill="black"/>
</g>
<mask id="mask1_8_1933" style="mask-type:luminance" maskUnits="userSpaceOnUse" x="23" y="9" width="7" height="11">
<path fill-rule="evenodd" clip-rule="evenodd" d="M23.1115 9.08887H29.4633V19.606H23.1115V9.08887Z" fill="white"/>
</mask>
<g mask="url(#mask1_8_1933)">
<path fill-rule="evenodd" clip-rule="evenodd" d="M24.1872 19.606C23.9117 19.606 23.6348 19.5013 23.4254 19.289C23.0064 18.8672 23.0079 18.1872 23.4282 17.7682L26.8628 14.3466L23.4282 10.9263C23.0079 10.5074 23.005 9.82736 23.4254 9.40557C23.8443 8.98378 24.5243 8.98378 24.9461 9.4027L29.1468 13.5848C29.3505 13.7856 29.4639 14.0611 29.4639 14.3466C29.4639 14.6321 29.3505 14.9075 29.1468 15.1084L24.9461 19.2919C24.7366 19.5013 24.4612 19.606 24.1872 19.606Z" fill="black"/>
</g>
</svg>
