<svg width="27" height="31" viewBox="0 0 27 31" fill="none" xmlns="http://www.w3.org/2000/svg">
<path fill-rule="evenodd" clip-rule="evenodd" d="M2.88474 10.1401C2.88615 10.1699 2.88758 10.1958 2.88889 10.2173V15.3231L0.43934 17.7727L0 18.212V18.8333V23.1667V24.6667H1.5H7.22222V25.9444C7.22222 28.4297 9.23694 30.4444 11.7222 30.4444H14.3889C16.8742 30.4444 18.8889 28.4297 18.8889 25.9444V24.6667H24.6111H26.1111V23.1667V18.8333V18.212L25.6718 17.7727L23.2222 15.3231V10.2174C23.2235 10.1958 23.225 10.1699 23.2264 10.1401C23.2303 10.0575 23.2341 9.94373 23.2349 9.8032C23.2366 9.52275 23.2265 9.13217 23.1813 8.66735C23.0917 7.74587 22.8598 6.48788 22.2733 5.20835C21.6818 3.91779 20.7219 2.59139 19.1869 1.59572C17.6505 0.599104 15.6397 0 13.0556 0C10.4714 0 8.46062 0.599104 6.92416 1.59572C5.38918 2.59139 4.4293 3.91779 3.83779 5.20835C3.25134 6.48788 3.01937 7.74587 2.92978 8.66735C2.88459 9.13217 2.87455 9.52275 2.87622 9.8032C2.87706 9.94373 2.88084 10.0575 2.88474 10.1401ZM15.8889 24.6667H10.2222V25.9444C10.2222 26.7729 10.8938 27.4444 11.7222 27.4444H14.3889C15.2173 27.4444 15.8889 26.7729 15.8889 25.9444V24.6667ZM18.8889 21.6667H23.1111V19.4547L20.6616 17.0051L20.2222 16.5658V15.9444V10.1667V10.1043L20.2269 10.0486L20.2269 10.0485L20.227 10.047L20.2272 10.0432C20.2277 10.0358 20.2287 10.0207 20.2297 9.99858C20.2318 9.95423 20.2344 9.88179 20.2349 9.78534C20.2361 9.59183 20.2292 9.30532 20.1954 8.95765C20.127 8.25412 19.9527 7.34545 19.5461 6.45832C19.1446 5.58221 18.5246 4.74194 17.5544 4.11261C16.5856 3.48423 15.1659 3 13.0556 3C10.9453 3 9.52549 3.48423 8.55674 4.11261C7.58651 4.74194 6.96654 5.58221 6.56499 6.45832C6.15838 7.34545 5.9841 8.25412 5.9157 8.95765C5.8819 9.30532 5.87502 9.59183 5.87617 9.78534C5.87674 9.88179 5.87931 9.95423 5.8814 9.99858C5.88245 10.0207 5.88337 10.0358 5.88386 10.0432L5.88412 10.047L5.88889 10.1043V10.1667V15.9444V16.5658L5.44955 17.0051L3 19.4547V21.6667H7.22222H8.72222H17.3889H18.8889Z" fill="black"/>
</svg>
