<svg width="29" height="36" viewBox="0 0 29 36" fill="none" xmlns="http://www.w3.org/2000/svg">
<path d="M28.3866 13.8415C27.0669 7.86126 23.9479 3.62361 21.5686 1.10875C20.5689 0.0592404 19.1293 -0.277394 17.7897 0.237459C16.4501 0.732511 15.5503 1.99984 15.5103 3.42559C15.4903 4.37609 15.4104 5.3662 15.2704 6.3365C14.8505 9.40582 13.8908 12.3959 12.4112 15.2078C12.2913 15.4256 12.0913 15.4653 11.9714 15.4653C11.8714 15.4653 11.6715 15.4454 11.5515 15.2276C11.2116 14.6138 10.8317 13.9603 10.3718 13.3068C9.47211 12.0197 8.45241 10.8316 7.31274 9.76225C6.433 8.95037 5.21336 8.63354 4.0537 8.91077C2.91403 9.188 1.9943 9.99988 1.61441 11.1088C0.694683 13.7227 0.174835 16.4356 0.0348764 19.1682C-0.025106 20.2376 -0.00511186 21.3267 0.0748647 22.4158C0.594712 30.0198 6.79289 35.9802 14.3307 36H14.9105C21.8885 35.7822 27.7068 30.5148 28.7265 23.4851C29.1863 20.2376 29.0664 16.99 28.3666 13.8217L28.3866 13.8415ZM25.7673 23.0692C24.9476 28.6732 20.3489 32.8713 14.8305 33.0297H14.1907C8.37243 33.0297 3.49386 28.2772 3.07398 22.2376C3.014 21.2673 2.99401 20.2772 3.034 19.3267C3.15396 16.8712 3.63382 14.4355 4.45358 12.0989C4.51356 11.9207 4.67352 11.8415 4.77349 11.8217C4.79348 11.8217 4.85346 11.8217 4.91345 11.8217C5.01342 11.8217 5.15337 11.8415 5.27334 11.9603C6.25305 12.8712 7.15279 13.9009 7.91256 15.0098C8.29245 15.5643 8.63235 16.1187 8.93227 16.6534C9.55208 17.7623 10.6718 18.3762 12.0114 18.4356C13.311 18.4356 14.4906 17.7029 15.0905 16.5742C16.73 13.4652 17.7897 10.1385 18.2495 6.73254C18.3895 5.66323 18.4895 4.57411 18.5095 3.5048C18.5095 3.18797 18.7294 3.06916 18.8494 3.00975C19.0493 2.93054 19.2292 2.97014 19.3692 3.12856C21.4886 5.3662 24.2678 9.14839 25.4474 14.4751C26.0672 17.287 26.1872 20.1781 25.7673 23.0692Z" fill="black"/>
</svg>
