<svg width="26" height="32" viewBox="0 0 26 32" fill="none" xmlns="http://www.w3.org/2000/svg">
<path d="M25.3166 28.6667V32H22.5776V28.6667C22.5776 26.828 21.0424 25.3333 19.1539 25.3333H6.82834C4.94116 25.3333 3.40458 26.828 3.40458 28.6667V32H0.665578V28.6667C0.665578 25.3586 3.4306 22.6666 6.82834 22.6666H19.1539C22.5516 22.6666 25.3166 25.3586 25.3166 28.6667ZM14.1196 8.12658C15.8383 8.51191 17.2393 9.86525 17.646 11.5359C17.9213 12.6653 17.7707 13.7479 17.3201 14.6666H19.1087C19.7948 14.6666 20.3946 14.1759 20.4741 13.5119C20.5672 12.7293 20.5329 11.9093 20.3494 11.0706C19.7414 8.29858 17.431 6.06257 14.5797 5.4919C9.73579 4.52256 5.46021 8.11858 5.46021 12.6666C5.46021 14.6253 6.25315 16.4066 7.54185 17.7226C7.59663 16.5919 8.0157 15.5533 8.68675 14.7146C8.37451 14.0959 8.19921 13.3999 8.19921 12.6653C8.19921 9.73325 10.9903 7.42391 14.1209 8.12524L14.1196 8.12658ZM5.96692 5.37057C8.06089 3.45989 10.8026 2.51589 13.6772 2.68922C19.0511 3.02789 23.2624 7.58124 23.2624 13.0546C23.2624 15.4146 21.2917 17.3333 18.8676 17.3333H15.5849C15.2521 16.2253 14.2017 15.4146 12.9555 15.4146C11.4422 15.4146 10.2165 16.6079 10.2165 18.0813C10.2165 19.5546 11.4422 20.748 12.9555 20.748C13.6937 20.748 14.3647 20.4626 14.8564 20H18.8663C22.7995 20 26 16.8839 26 13.0546C26.0014 6.17857 20.6658 0.455881 13.8539 0.0278797C10.2055 -0.202788 6.7448 1.00388 4.09481 3.42523C1.64751 5.65857 0.176666 8.75325 0 12.0013H2.74311C2.91156 9.46391 4.0414 7.12924 5.96829 5.37057H5.96692Z" fill="black"/>
</svg>
