<svg width="31" height="30" viewBox="0 0 31 30" fill="none" xmlns="http://www.w3.org/2000/svg">
<path fill-rule="evenodd" clip-rule="evenodd" d="M29.3265 29.6223H17.9825C17.335 29.6223 16.8095 29.0968 16.8095 28.4493C16.8095 27.8018 17.335 27.2762 17.9825 27.2762H29.3265C29.974 27.2762 30.4995 27.8018 30.4995 28.4493C30.4995 29.0968 29.974 29.6223 29.3265 29.6223Z" fill="black"/>
<mask id="mask0_8_1925" style="mask-type:luminance" maskUnits="userSpaceOnUse" x="0" y="0" width="27" height="30">
<path fill-rule="evenodd" clip-rule="evenodd" d="M0 0H26.8711V29.6222H0V0Z" fill="white"/>
</mask>
<g mask="url(#mask0_8_1925)">
<path fill-rule="evenodd" clip-rule="evenodd" d="M17.3769 3.15415L2.65149 21.5707C2.38404 21.9054 2.2855 22.3371 2.38404 22.7516L3.44915 27.2638L8.20227 27.2044C8.65427 27.1997 9.07187 26.9979 9.34871 26.6539C14.3802 20.3586 23.9725 8.35615 24.2446 8.00424C24.5011 7.58821 24.6012 7.00013 24.4667 6.43394C24.3291 5.85369 23.9678 5.36101 23.447 5.04664C23.3359 4.97 20.7005 2.92424 20.6192 2.86011C19.6276 2.06558 18.1808 2.20322 17.3769 3.15415ZM2.52323 29.6224C1.9805 29.6224 1.50816 29.2501 1.38148 28.7199L0.100528 23.2911C-0.163795 22.1666 0.0989635 21.0061 0.819986 20.1052L15.5532 1.67766C15.5595 1.6714 15.5642 1.66358 15.5704 1.65732C17.1861 -0.274266 20.1077 -0.558921 22.0784 1.02232C22.1566 1.08332 24.7733 3.11657 24.7733 3.11657C25.7242 3.68276 26.4671 4.69469 26.7486 5.89274C27.0286 7.07829 26.8253 8.30137 26.1731 9.3352C26.1246 9.41183 26.0824 9.47752 11.1802 28.1209C10.4623 29.0155 9.38623 29.5363 8.23041 29.5504L2.53887 29.6224H2.52323Z" fill="black"/>
</g>
<path fill-rule="evenodd" clip-rule="evenodd" d="M22.2455 13.583C21.9952 13.583 21.745 13.5033 21.5307 13.3406L13.0035 6.79042C12.4905 6.39628 12.3936 5.66118 12.7877 5.14505C13.1834 4.63204 13.9185 4.53664 14.4331 4.93078L22.9618 11.4794C23.4748 11.8735 23.5718 12.6102 23.1761 13.1248C22.9461 13.4251 22.5974 13.583 22.2455 13.583Z" fill="black"/>
</svg>
