<svg width="81" height="81" viewBox="0 0 81 81" fill="none" xmlns="http://www.w3.org/2000/svg">
<path d="M69.7228 30.9498L49.0915 10.3237C48.5126 9.74447 47.8253 9.28496 47.0688 8.97146C46.3123 8.65795 45.5014 8.49658 44.6825 8.49658C43.8636 8.49658 43.0527 8.65795 42.2962 8.97146C41.5397 9.28496 40.8524 9.74447 40.2735 10.3237L1.07976 49.5175C0.387893 50.2189 0 51.1645 0 52.1497C0 53.1349 0.387893 54.0805 1.07976 54.7819L25.2541 78.9668C25.9541 79.6612 26.9003 80.0508 27.8863 80.0508C28.8723 80.0508 29.8185 79.6612 30.5185 78.9668L69.7176 39.773C70.2973 39.1941 70.7574 38.5066 71.0714 37.7498C71.3854 36.993 71.5473 36.1818 71.5478 35.3625C71.5483 34.5432 71.3874 33.7318 71.0742 32.9746C70.7611 32.2175 70.3019 31.5295 69.7228 30.9498Z" fill="#FE6366"/>
<path d="M78.6619 1.3794C77.3721 0.0685557 74.2134 -1.47393 71.1864 2.83765C68.1593 7.14923 65.4323 5.79101 63.9846 5.23297C62.658 4.75391 60.3732 5.43302 58.7781 7.78623L72.255 21.2632C74.6083 19.6839 75.2926 17.3833 74.8083 16.0567C74.2819 14.6142 72.892 11.9083 77.2036 8.86018C81.5152 5.81206 79.9727 2.69025 78.6619 1.3794Z" fill="#FE6366"/>
<path d="M73.2184 22.2265L57.8147 6.84375C57.3468 6.37633 56.7125 6.11377 56.0511 6.11377C55.3897 6.11377 54.7554 6.37633 54.2875 6.84375L49.9443 11.1711L68.87 30.1231L73.2184 25.7747C73.4531 25.5426 73.6393 25.2663 73.7664 24.9618C73.8935 24.6573 73.959 24.3306 73.959 24.0006C73.959 23.6706 73.8935 23.3439 73.7664 23.0393C73.6393 22.7348 73.4531 22.4585 73.2184 22.2265Z" fill="#F00106"/>
<path d="M50.3181 27.3383L52.1028 25.5747L45.4275 18.9204C45.1928 18.688 44.8759 18.5576 44.5457 18.5576C44.2154 18.5576 43.8985 18.688 43.6639 18.9204L10.9085 51.6758C10.6764 51.9095 10.5461 52.2256 10.5461 52.555C10.5461 52.8844 10.6764 53.2004 10.9085 53.4341L17.5628 60.0884L19.3264 58.3301L13.5355 52.5392L18.3208 47.7538L24.1117 53.5447L25.8753 51.7811L20.0844 45.9902L24.8751 41.1996L30.666 46.9905L32.4296 45.2269L26.6387 39.436L31.424 34.6506L37.2149 40.4415L38.9785 38.6726L33.1876 32.8818L37.973 28.0964L43.7639 33.8873L45.5328 32.1131L39.7419 26.3223L44.5483 21.5843L50.3181 27.3383Z" fill="#FFE0E1"/>
</svg>
