<svg width="101" height="94" viewBox="0 0 101 94" fill="none" xmlns="http://www.w3.org/2000/svg">
<path d="M101 72.8454C101 84.0928 78.3884 93.2103 50.5 93.2103C22.6116 93.2103 0 84.0928 0 72.8454C0 61.598 22.6116 52.4805 50.5069 52.4805C78.4021 52.4805 101 61.598 101 72.8454Z" fill="#FFE0E1"/>
<path d="M87.4028 66.4008C87.4028 74.6457 70.913 81.276 50.5069 81.276C30.1007 81.276 13.6041 74.6182 13.6041 66.4008C13.6041 58.1834 30.1282 51.5256 50.5069 51.5256C70.8855 51.5256 87.4028 58.1834 87.4028 66.4008Z" fill="#FE6366"/>
<path d="M87.4028 63.247C87.4028 71.4919 70.913 78.1222 50.5069 78.1222C30.1007 78.1222 13.6041 71.4576 13.6041 63.247C13.6041 55.0365 30.1282 48.365 50.5069 48.365C70.8855 48.365 87.4028 55.0434 87.4028 63.247Z" fill="#F00106"/>
<path d="M87.4028 57.7021C87.4028 65.947 70.913 72.5841 50.5069 72.5841C30.1007 72.5841 13.6041 65.9195 13.6041 57.7021C13.6041 49.4847 30.1282 42.8269 50.5069 42.8269C70.8855 42.8269 87.4028 49.4915 87.4028 57.7021Z" fill="#FFE0E1"/>
<path d="M87.4028 54.5488C87.4028 62.7937 70.913 69.4239 50.5069 69.4239C30.1007 69.4239 13.6041 62.7662 13.6041 54.5488C13.6041 46.3313 30.1282 39.6736 50.5069 39.6736C70.8855 39.6736 87.4028 46.3313 87.4028 54.5488Z" fill="#F00106"/>
<path d="M87.4028 49.0107C87.4028 57.2556 70.913 63.8858 50.5069 63.8858C30.1007 63.8858 13.6041 57.2281 13.6041 49.0107C13.6041 40.7933 30.1282 34.1355 50.5069 34.1355C70.8855 34.1355 87.4028 40.7933 87.4028 49.0107Z" fill="#FFE0E1"/>
<path d="M87.4028 45.8504C87.4028 54.0953 70.913 60.7324 50.5069 60.7324C30.1007 60.7324 13.6041 54.0678 13.6041 45.8504C13.6041 37.633 30.1282 30.9958 50.5069 30.9958C70.8855 30.9958 87.4028 37.633 87.4028 45.8504Z" fill="#F00106"/>
<path d="M87.4028 40.3195C87.4028 48.5301 70.913 55.1947 50.5069 55.1947C30.1007 55.1947 13.6041 48.5301 13.6041 40.3195C13.6041 32.109 30.1282 25.4375 50.5069 25.4375C70.8855 25.4375 87.4028 32.0953 87.4028 40.3195Z" fill="#FFE0E1"/>
<path d="M87.4028 37.1795C87.4028 45.4244 70.913 52.0546 50.5069 52.0546C30.1007 52.0546 13.6041 45.3763 13.6041 37.1795C13.6041 28.9827 30.1282 22.2837 50.5069 22.2837C70.8855 22.2837 87.4028 28.9346 87.4028 37.1795Z" fill="#F00106"/>
<path d="M87.4028 31.621C87.4028 39.8659 70.913 46.4962 50.5069 46.4962C30.1007 46.4962 13.6041 39.8316 13.6041 31.621C13.6041 23.4105 30.1282 16.7458 50.5069 16.7458C70.8855 16.7458 87.4028 23.438 87.4028 31.621Z" fill="#FFE0E1"/>
<path d="M87.4028 28.4606C87.4028 36.7055 70.913 43.3427 50.5069 43.3427C30.1007 43.3427 13.6041 36.678 13.6041 28.4606C13.6041 20.2432 30.1282 13.5854 50.5069 13.5854C70.8855 13.5854 87.4028 20.2501 87.4028 28.4606Z" fill="#F00106"/>
<path d="M87.4028 22.641C87.4028 30.8859 70.913 37.5162 50.5069 37.5162C30.1007 37.5162 13.6041 30.8585 13.6041 22.641C13.6041 14.4236 30.1282 7.76587 50.5069 7.76587C70.8855 7.76587 87.4028 14.4236 87.4028 22.641Z" fill="#FE6366"/>
<path d="M78.3265 33.3179V53.4011C78.3265 56.5822 75.9424 59.4405 72.7612 59.5847C71.9646 59.6248 71.1682 59.5025 70.4203 59.2255C69.6723 58.9484 68.9885 58.5222 68.4102 57.9729C67.832 57.4235 67.3714 56.7624 67.0563 56.0297C66.7413 55.297 66.5784 54.5079 66.5775 53.7103V49.0038C66.6059 47.5765 66.0921 46.1915 65.1396 45.1281C64.1871 44.0647 62.8669 43.402 61.4451 43.2736C60.7092 43.2354 59.9732 43.3472 59.2819 43.6023C58.5906 43.8575 57.9584 44.2505 57.4237 44.7575C56.889 45.2646 56.463 45.8751 56.1716 46.5519C55.8802 47.2287 55.7295 47.9577 55.7286 48.6946V56.5891C55.759 58.3701 55.1295 60.0994 53.9612 61.444C52.7929 62.7886 51.1685 63.6535 49.4007 63.8721C48.423 63.9732 47.435 63.8677 46.5007 63.5624C45.5664 63.2572 44.7066 62.759 43.9772 62.1002C43.2478 61.4414 42.665 60.6367 42.2665 59.7381C41.868 58.8396 41.6628 57.8674 41.6642 56.8845V40.3398C41.6915 39.3204 41.34 38.327 40.6776 37.5516C40.0152 36.7763 39.0889 36.274 38.0777 36.1418C37.5211 36.083 36.9583 36.1419 36.426 36.3147C35.8936 36.4876 35.4036 36.7704 34.9876 37.1449C34.5716 37.5194 34.2391 37.9772 34.0115 38.4885C33.7839 38.9999 33.6664 39.5533 33.6666 40.113V45.5203C33.6984 47.0082 33.163 48.4523 32.169 49.5599C31.175 50.6674 29.7969 51.3554 28.3143 51.4841C27.5479 51.5252 26.7811 51.4097 26.0607 51.1449C25.3403 50.88 24.6813 50.4712 24.124 49.9435C23.5667 49.4157 23.1226 48.78 22.8189 48.0751C22.5152 47.3702 22.3582 46.6108 22.3574 45.8432V33.1118C22.3604 32.0524 22.0947 31.0096 21.5852 30.0808C21.0758 29.152 20.3391 28.3675 19.4442 27.8007C15.7546 25.499 13.6041 22.7507 13.6041 19.7688C13.6041 11.5513 30.1282 4.88672 50.5069 4.88672C70.8855 4.88672 87.4028 11.5445 87.4028 19.7619C87.4028 22.7919 85.156 25.6089 81.2947 27.9587C80.3817 28.5222 79.6291 29.3113 79.1092 30.2498C78.5894 31.1884 78.3199 32.245 78.3265 33.3179Z" fill="#FE6366"/>
<path d="M58.3258 9.53829C58.1465 11.2203 57.4726 12.8115 56.3892 14.1106C55.3058 15.4097 53.8616 16.3584 52.2391 16.8368C50.6166 17.3152 48.8887 17.3018 47.2738 16.7984C45.6589 16.2949 44.2295 15.3239 43.1664 14.0082C42.1032 12.6924 41.454 11.0911 41.3009 9.40644C41.1477 7.72181 41.4975 6.02961 42.3059 4.54374C43.1144 3.05786 44.3452 1.84504 45.8429 1.0586C47.3405 0.272151 49.0377 -0.0526115 50.7198 0.125366C51.8375 0.243614 52.9209 0.580942 53.9081 1.11807C54.8953 1.6552 55.767 2.3816 56.4733 3.25577C57.1797 4.12993 57.7068 5.13471 58.0247 6.2127C58.3425 7.29069 58.4448 8.42075 58.3258 9.53829Z" fill="#FE6366"/>
<path d="M53.1452 18.8071C52.9672 20.4912 52.2936 22.0847 51.2097 23.386C50.1259 24.6872 48.6804 25.6378 47.0563 26.1174C45.4321 26.597 43.7021 26.5841 42.0853 26.0804C40.4684 25.5766 39.0373 24.6047 37.9729 23.2874C36.9086 21.9702 36.2588 20.3669 36.1058 18.6803C35.9528 16.9937 36.3035 15.2996 37.1135 13.8124C37.9234 12.3251 39.1563 11.1115 40.6562 10.3251C42.156 9.53861 43.8554 9.21466 45.5393 9.3942C46.657 9.51244 47.7403 9.84977 48.7276 10.3869C49.7148 10.924 50.5864 11.6504 51.2928 12.5246C51.9991 13.3988 52.5263 14.4035 52.8442 15.4815C53.162 16.5595 53.2643 17.6896 53.1452 18.8071Z" fill="#F00106"/>
<path d="M66.4745 17.6047C66.2951 19.287 65.6209 20.8783 64.5371 22.1774C63.4533 23.4765 62.0086 24.4251 60.3857 24.9031C58.7629 25.3812 57.0347 25.3673 55.4197 24.8631C53.8047 24.359 52.3755 23.3873 51.3128 22.0709C50.2501 20.7545 49.6016 19.1525 49.4493 17.4676C49.297 15.7826 49.6478 14.0903 50.4573 12.6047C51.2668 11.1192 52.4986 9.90696 53.997 9.12145C55.4955 8.33595 57.1932 8.01241 58.8754 8.19176C59.9928 8.30998 61.0759 8.64734 62.0628 9.18456C63.0497 9.72179 63.9209 10.4483 64.6267 11.3226C65.3325 12.1969 65.859 13.2017 66.1761 14.2797C66.4931 15.3576 66.5945 16.4875 66.4745 17.6047Z" fill="#FFE0E1"/>
</svg>
