<svg width="69" height="111" viewBox="0 0 69 111" fill="none" xmlns="http://www.w3.org/2000/svg">
<g clip-path="url(#clip0_37_522)">
<path d="M2.54681 52.5894L6.53811 73.4514C14.4295 78.3064 26.7911 78.2082 34.5 73.1569C42.2089 68.1056 54.6693 68.0075 62.5607 72.9229L66.4532 52.5894H2.54681Z" fill="#FF6A6D"/>
<path d="M40.0346 70.5897L37.0925 96.2614L33.6638 95.8914L36.4006 72.0998C35.7453 72.4233 35.1106 72.7864 34.5 73.187C26.7911 78.2383 14.4295 78.3365 6.53815 73.4815L13.1143 107.859C13.2904 108.779 13.7934 109.605 14.5316 110.187C15.2698 110.769 16.1941 111.068 17.136 111.03H51.8641C52.8059 111.068 53.7302 110.769 54.4684 110.187C55.2067 109.605 55.7097 108.779 55.8858 107.859L62.5607 72.953C56.3647 69.0569 47.3634 68.2867 40.0346 70.5897Z" fill="#F00106"/>
<path d="M46.4359 14.9425L62.4695 2.71818L60.3636 0L43.7522 12.6622C43.5686 12.8016 43.4153 12.9765 43.3016 13.1763C43.188 13.3762 43.1162 13.5968 43.0908 13.825L36.4006 72.0696C37.5661 71.4635 38.7819 70.9583 40.0346 70.5595L46.4359 14.9425Z" fill="#F00106"/>
<path d="M37.0924 96.2538L40.0346 70.582C38.7818 70.9808 37.566 71.4861 36.4006 72.0921L33.6637 95.8913L37.0924 96.2538Z" fill="#F00106"/>
<path d="M65.5485 44.0271H3.45152C2.99862 44.0261 2.54997 44.1139 2.13126 44.2853C1.71254 44.4567 1.33199 44.7085 1.01139 45.0262C0.690784 45.344 0.436426 45.7213 0.262878 46.1368C0.0893298 46.5523 -1.10351e-06 46.9977 0 47.4475L0 52.5894H69V47.4475C69 46.9977 68.9107 46.5523 68.7371 46.1368C68.5636 45.7213 68.3092 45.344 67.9886 45.0262C67.668 44.7085 67.2875 44.4567 66.8687 44.2853C66.45 44.1139 66.0014 44.0261 65.5485 44.0271Z" fill="#F00106"/>
<path d="M51.75 35.4873H17.25C14.9674 35.4873 12.7781 36.3863 11.1619 37.9871C9.54579 39.588 8.63482 41.76 8.62878 44.0269H60.3712C60.3631 41.7606 59.4515 39.5897 57.8358 37.9893C56.2201 36.3889 54.0319 35.4893 51.75 35.4873Z" fill="#FF6A6D"/>
</g>
<defs>
<clipPath id="clip0_37_522">
<rect width="69" height="111" fill="white"/>
</clipPath>
</defs>
</svg>
