<svg width="92" height="76" viewBox="0 0 92 76" fill="none" xmlns="http://www.w3.org/2000/svg">
<path d="M27.7629 13.7565C27.3648 13.0168 26.8719 12.3322 26.2967 11.7201C25.8695 11.2725 25.5207 10.7562 25.2649 10.1928C25.0301 9.71226 24.8764 9.19619 24.8101 8.66548C24.7063 7.79425 24.8523 6.91146 25.231 6.11999C25.6197 5.36079 26.1883 4.70826 26.8872 4.21935C27.3652 3.79898 27.6566 3.20595 27.6974 2.57073C27.7381 1.9355 27.5248 1.31011 27.1045 0.832136C26.6841 0.354159 26.0911 0.0627498 25.4558 0.0220139C24.8206 -0.0187219 24.1952 0.194553 23.7172 0.61492L23.4797 0.872864C23.2556 1.10562 23.047 1.35278 22.8552 1.61276C22.1351 2.53712 21.6025 3.59317 21.2871 4.72166C20.8455 6.29891 20.8691 7.97018 21.355 9.53435C21.6189 10.3811 22.0153 11.1807 22.5293 11.9034C23.0299 12.5993 23.6263 13.2209 24.301 13.7497C24.8101 14.1237 25.2667 14.5644 25.6586 15.0598C26.008 15.5308 26.2828 16.0528 26.4732 16.6074C26.8316 17.6388 26.8812 18.7523 26.6157 19.8114C26.4223 20.5919 26.0787 21.3274 25.6043 21.9767C25.4648 22.174 25.3129 22.3622 25.1495 22.5401L24.973 22.7438C24.883 22.8284 24.8303 22.9453 24.8265 23.0688C24.8227 23.1923 24.868 23.3122 24.9527 23.4022C25.0373 23.4922 25.1542 23.545 25.2777 23.5488C25.4011 23.5526 25.5211 23.5072 25.6111 23.4226L25.8147 23.2529C26.0171 23.0949 26.2098 22.9249 26.3917 22.7438C27.0939 22.0574 27.6564 21.2414 28.048 20.3408C28.6184 19.016 28.7929 17.5542 28.5503 16.1323C28.413 15.3042 28.1473 14.5027 27.7629 13.7565Z" fill="#F00106"/>
<path d="M48.2423 13.7565C47.8442 13.0168 47.3514 12.3322 46.7761 11.7201C46.3471 11.2726 45.996 10.7563 45.7375 10.1928C45.5079 9.71082 45.3566 9.19523 45.2895 8.66553C45.1823 7.79422 45.3284 6.91047 45.7104 6.12003C46.0991 5.36083 46.6677 4.70831 47.3666 4.21939C47.8446 3.79812 48.1357 3.20424 48.1758 2.56837C48.2159 1.93251 48.0017 1.30676 47.5805 0.828788C47.3719 0.592117 47.1187 0.39885 46.8354 0.260019C46.5521 0.121189 46.2443 0.0395146 45.9294 0.0196594C45.2936 -0.02044 44.6678 0.193698 44.1899 0.614966L43.9591 0.872909C43.7344 1.10699 43.5236 1.35405 43.3278 1.6128C42.6129 2.53946 42.0829 3.59491 41.7665 4.7217C41.3298 6.29232 41.351 7.95505 41.8276 9.51403C42.0967 10.3599 42.4952 11.1591 43.0088 11.883C43.514 12.5876 44.1175 13.2162 44.8008 13.7497C45.3082 14.1257 45.7646 14.5661 46.1584 15.0598C46.6689 15.727 47.022 16.5009 47.1913 17.3237C47.3605 18.1465 47.3416 18.9969 47.1359 19.8114C46.9394 20.5909 46.5961 21.3258 46.1244 21.9768C45.9851 22.176 45.8308 22.3644 45.6629 22.5402L45.4932 22.7438C45.4031 22.8284 45.3504 22.9454 45.3466 23.0688C45.3428 23.1923 45.3882 23.3123 45.4728 23.4023C45.5574 23.4923 45.6743 23.545 45.7978 23.5488C45.9213 23.5526 46.0412 23.5072 46.1312 23.4226L46.3349 23.2529C46.5358 23.0932 46.7283 22.9233 46.9118 22.7438C47.612 22.0557 48.1742 21.2401 48.5681 20.3409C49.1363 19.0154 49.3107 17.5543 49.0704 16.1323C48.9203 15.302 48.6408 14.5003 48.2423 13.7565Z" fill="#F00106"/>
<path d="M69.5159 16.105C69.3737 15.2859 69.1058 14.4936 68.7217 13.7563C68.3236 13.0166 67.8307 12.3321 67.2555 11.7199C66.8246 11.2739 66.4733 10.7573 66.2169 10.1926C65.9882 9.70975 65.8348 9.19468 65.7621 8.66535C65.6601 7.79345 65.8084 6.91053 66.1897 6.11985C66.5795 5.34358 67.1613 4.67994 67.88 4.19206C68.3543 3.76629 68.6401 3.16951 68.6745 2.53301C68.7089 1.89652 68.489 1.27243 68.0632 0.798058C67.6375 0.323682 67.0407 0.0378707 66.4042 0.00349984C65.7677 -0.0308711 65.1436 0.189014 64.6692 0.614782L64.4384 0.872726C64.2118 1.10504 64.0009 1.35222 63.8072 1.61262C63.0923 2.53927 62.5623 3.59473 62.2459 4.72152C61.8057 6.29169 61.8269 7.95541 62.307 9.51385C62.5761 10.3597 62.9745 11.1589 63.4881 11.8829C63.9868 12.5803 64.5835 13.2022 65.2598 13.7292C65.7673 14.1051 66.2236 14.5455 66.6174 15.0393C67.1279 15.7064 67.481 16.4803 67.6503 17.3031C67.8195 18.126 67.8006 18.9764 67.5949 19.7909C67.3964 20.5709 67.0509 21.3059 66.5767 21.9562C66.4393 22.1551 66.2873 22.3434 66.1219 22.5196L65.9522 22.7233C65.8806 22.805 65.8411 22.9099 65.8411 23.0186C65.8411 23.1272 65.8806 23.2321 65.9522 23.3138C65.991 23.3649 66.04 23.4072 66.0962 23.4383C66.1523 23.4693 66.2142 23.4883 66.2781 23.494C66.342 23.4998 66.4063 23.4922 66.4671 23.4716C66.5278 23.4511 66.5836 23.4182 66.631 23.3749L66.8346 23.2052C66.9636 23.0763 67.1604 22.9609 67.4048 22.6961C68.1095 22.0103 68.6743 21.1943 69.0679 20.2932C69.6138 18.9685 69.7692 17.5152 69.5159 16.105Z" fill="#F00106"/>
<path d="M79.2254 31.2249H12.4193C12.1267 31.2246 11.84 31.2699 11.5919 31.3555C11.3439 31.4411 11.1446 31.5636 11.0169 31.7088C10.8892 31.8541 10.8382 32.0163 10.8699 32.1768C10.9016 32.3374 11.0147 32.4897 11.1961 32.6164C31.3718 47.0679 4.83553 50.9012 30.9369 62.4496H60.701C86.8228 50.9012 60.2661 47.0717 80.4418 32.6164C80.6229 32.4899 80.7358 32.338 80.7678 32.1778C80.7998 32.0176 80.7494 31.8557 80.6225 31.7105C80.4957 31.5654 80.2974 31.4429 80.0503 31.357C79.8033 31.2711 79.5174 31.2253 79.2254 31.2249Z" fill="#FF6A6D"/>
<path d="M0 62.3614C0 68.0497 18.2801 72.6316 23.9684 72.6316V75.9034H67.4116V72.6316C73.0999 72.6316 91.38 68.0226 91.38 62.3342L0 62.3614Z" fill="#F00106"/>
</svg>
