<svg width="89" height="89" viewBox="0 0 89 89" fill="none" xmlns="http://www.w3.org/2000/svg">
<g clip-path="url(#clip0_37_566)">
<path d="M76.5772 38.3496C76.5772 45.9165 74.3343 53.3134 70.1321 59.6051C65.9299 65.8967 59.9571 70.8004 52.9691 73.6961C45.981 76.5919 38.2916 77.3495 30.8731 75.8733C23.4547 74.3971 16.6404 70.7533 11.292 65.4027C5.9436 60.0521 2.30129 53.235 0.82567 45.8135C-0.649952 38.3921 0.10739 30.6995 3.00193 23.7086C5.89646 16.7177 10.7982 10.7425 17.0872 6.53859C23.3763 2.33466 30.7702 0.0908203 38.334 0.0908203C48.4767 0.0908203 58.204 4.12165 65.376 11.2966C72.548 18.4715 76.5772 28.2028 76.5772 38.3496Z" fill="#F00106"/>
<path d="M65.3833 38.3496C65.3845 43.6989 63.8001 48.9286 60.8305 53.3772C57.8609 57.8257 53.6394 61.2935 48.6998 63.342C43.7602 65.3905 38.3244 65.9278 33.0796 64.8858C27.8348 63.8438 23.0167 61.2694 19.2343 57.488C15.452 53.7067 12.8754 48.8883 11.8303 43.6421C10.7852 38.3959 11.3186 32.9575 13.3629 28.0145C15.4073 23.0715 18.8708 18.846 23.3156 15.8721C27.7604 12.8983 32.9868 11.3098 38.334 11.3074C41.8851 11.3058 45.4017 12.004 48.683 13.3622C51.9643 14.7205 54.9461 16.712 57.4579 19.2232C59.9697 21.7344 61.9625 24.716 63.3224 27.9977C64.6822 31.2794 65.3825 34.797 65.3833 38.3496Z" fill="#FF6A6D"/>
<path d="M86.6813 75.5243L84.2597 77.9469C85.1041 78.7919 85.5784 79.9378 85.5784 81.1326C85.5784 82.3274 85.1041 83.4733 84.2597 84.3183C83.3908 85.1159 82.2545 85.5584 81.0753 85.5584C79.8961 85.5584 78.7598 85.1159 77.8909 84.3183C77.32 83.7476 76.9131 83.0338 76.7128 82.2517C76.5126 81.4695 76.5264 80.6479 76.7527 79.8729C77.1494 78.645 77.2046 77.3323 76.9124 76.0755C76.6201 74.8186 75.9915 73.665 75.0939 72.7383L4.84321 2.42259L0 0L2.4216 4.84519L72.6905 75.1367C73.1529 75.6342 73.4715 76.248 73.6123 76.9126C73.7531 77.5772 73.7107 78.2675 73.4896 78.9099C73.1385 80.0894 73.0687 81.3348 73.2858 82.5462C73.5028 83.7576 74.0007 84.9013 74.7395 85.8853C75.4783 86.8694 76.4374 87.6665 77.5398 88.2127C78.6422 88.7588 79.8572 89.0389 81.0874 89.0303C82.6537 89.0431 84.1881 88.588 85.4943 87.7234C86.8006 86.8588 87.8193 85.6239 88.42 84.1768C89.0207 82.7297 89.1761 81.1361 88.8664 79.6001C88.5567 78.0642 87.7958 76.6556 86.6813 75.5546V75.5243Z" fill="#F00106"/>
<path d="M21.5401 8.84237L21.2253 8.53955C22.1334 11.9796 21.2253 15.7528 17.7746 19.2959C16.429 20.6999 14.8019 21.8034 13.0001 22.5341C11.1982 23.2647 9.26226 23.606 7.31927 23.5354C11.0728 27.0058 17.4597 26.5636 21.5401 22.3241C26.0807 17.703 25.2513 12.5611 21.5401 8.84237Z" fill="#F00106"/>
<path d="M17.7746 19.2959C21.2314 15.7529 22.1334 11.9797 21.2253 8.53963C17.5506 4.99659 12.7497 2.71329 8.03971 8.84245C3.94115 14.154 3.35996 19.6048 7.07107 23.3174C7.14977 23.3962 7.24058 23.4628 7.31928 23.5355C9.26226 23.606 11.1982 23.2648 13.0001 22.5342C14.8019 21.8035 16.429 20.7 17.7746 19.2959Z" fill="#FFE0E1"/>
<path d="M44.8541 30.2341C44.6291 30.0196 44.3927 29.8174 44.1458 29.6284C45.0721 33.0685 43.9097 37.1021 40.5134 41.2387C37.8012 44.5698 32.5827 45.7811 28.4054 44.5031C28.6977 44.9337 29.0258 45.3389 29.3861 45.7144C33.0973 49.4271 40.5376 48.8214 43.8552 44.7454C48.3413 39.234 48.5652 33.9527 44.8541 30.2341Z" fill="#F00106"/>
<path d="M40.5619 41.2264C43.9279 37.0899 45.0903 33.0562 44.1943 29.6162C40.2955 26.5879 33.3879 26.9755 30.4335 31.203C27.0191 36.0905 25.9778 40.8933 28.4902 44.4909C32.613 45.7688 37.8315 44.5575 40.5619 41.2264Z" fill="#FFE0E1"/>
<path d="M67.0966 54.4355C67.7928 57.2094 66.9271 60.3588 63.5913 64.35C60.2556 68.3412 56.3265 69.1952 52.912 68.2564C56.3507 71.8903 62.1989 72.9502 66.7091 67.5418C71.5221 61.776 70.505 58.027 67.0966 54.4355Z" fill="#F00106"/>
<path d="M63.5671 64.3501C66.9029 60.3589 67.7686 57.2095 67.0724 54.4356C66.9453 54.3024 66.8242 54.1692 66.6849 54.0299C62.9738 50.3172 57.2407 49.972 53.1845 54.0299C48.4563 58.76 49.5521 64.7196 52.8878 68.2565C56.3447 69.2135 60.2798 68.3171 63.5671 64.3501Z" fill="#FFE0E1"/>
<path d="M14.2451 33.5468L13.5852 30.8456C20.9893 29.0286 29.3741 21.8214 32.28 14.7656L34.8529 15.8255C31.5959 23.7292 22.5451 31.4936 14.2451 33.5468Z" fill="#F00106"/>
<path d="M15.6072 34.9157L14.9473 32.2084C22.3514 30.3915 30.7422 23.1843 33.6421 16.1345L36.2151 17.1944C32.958 25.0981 23.9073 32.8807 15.6072 34.9157Z" fill="#FFE0E1"/>
<path d="M38.6367 57.6154L37.5349 55.0656C44.5272 52.0374 51.562 43.4796 53.2268 36.0422L55.939 36.6479C54.0623 44.9877 46.4706 54.1996 38.6367 57.6154Z" fill="#F00106"/>
<path d="M39.9988 58.984L38.8849 56.4343C45.8773 53.406 52.912 44.8482 54.5769 37.4048L57.2891 38.0104C55.4305 46.3563 47.8267 55.5682 39.9988 58.984Z" fill="#FFE0E1"/>
</g>
<defs>
<clipPath id="clip0_37_566">
<rect width="89" height="89" fill="white"/>
</clipPath>
</defs>
</svg>
