<svg width="105" height="92" viewBox="0 0 105 92" fill="none" xmlns="http://www.w3.org/2000/svg">
<path d="M22.3202 0C15.5323 3.91313 9.89536 9.54571 5.97695 16.3305C2.05853 23.1154 -0.0029886 30.8129 3.25189e-06 38.6479H7.67102C7.66933 32.1596 9.37694 25.7853 12.622 20.1667C15.867 14.5481 20.5348 9.88353 26.1557 6.6425L22.3202 0Z" fill="#F00106"/>
<path d="M26.1557 6.64258C20.5349 9.88361 15.867 14.5482 12.622 20.1668C9.37695 25.7854 7.66934 32.1596 7.67102 38.648H44.6333L26.1557 6.64258Z" fill="#FF6A6D"/>
<path d="M78.8458 15.2061C73.2291 11.9591 66.8559 10.2495 60.3682 10.2495C53.8805 10.2495 47.5073 11.9591 41.8906 15.2061L60.3682 47.2115L78.8458 15.2061Z" fill="#FF6A6D"/>
<path d="M23.4059 47.2117C23.4049 53.6999 25.1128 60.0739 28.3578 65.6923C31.6027 71.3108 36.2702 75.9755 41.8906 79.2171L60.3682 47.2117H23.4059Z" fill="#FF6A6D"/>
<path d="M78.8457 15.2063L60.3682 47.2117H97.3305C97.3321 40.7234 95.6245 34.3491 92.3795 28.7305C89.1345 23.1119 84.4666 18.4473 78.8457 15.2063Z" fill="#FF6A6D"/>
<path d="M41.8906 79.2171C47.5073 82.4641 53.8805 84.1737 60.3682 84.1737C66.8559 84.1737 73.2291 82.4641 78.8458 79.2171L60.3682 47.2117L41.8906 79.2171Z" fill="#FF6A6D"/>
<path d="M78.8457 79.2171C84.4671 75.9766 89.1354 71.3121 92.3805 65.6934C95.6255 60.0747 97.3329 53.7002 97.3304 47.2117H60.3682L78.8457 79.2171Z" fill="#FF6A6D"/>
<path d="M87.8524 58.8755C87.8581 59.9329 87.5494 60.9681 86.9657 61.8497C86.3819 62.7313 85.5493 63.4196 84.5737 63.8272C83.598 64.2347 82.5232 64.3432 81.4858 64.1388C80.4484 63.9345 79.4951 63.4265 78.7469 62.6793C77.9987 61.9321 77.4894 60.9795 77.2836 59.9423C77.0779 58.9052 77.1849 57.8303 77.5912 56.854C77.9974 55.8778 78.6846 55.0444 79.5654 54.4594C80.4463 53.8745 81.4811 53.5644 82.5384 53.5686C83.9454 53.5724 85.2938 54.1325 86.2893 55.1267C87.2849 56.1209 87.8468 57.4685 87.8524 58.8755Z" fill="#F00106"/>
<path d="M82.5384 65.4394C81.2401 65.4394 79.9711 65.0544 78.8916 64.3332C77.8122 63.6119 76.9709 62.5868 76.4741 61.3874C75.9773 60.188 75.8473 58.8682 76.1006 57.5949C76.3538 56.3216 76.979 55.152 77.897 54.2341C78.8149 53.3161 79.9845 52.6909 81.2578 52.4377C82.5311 52.1844 83.8509 52.3144 85.0503 52.8112C86.2497 53.308 87.2748 54.1493 87.9961 55.2287C88.7173 56.3082 89.1023 57.5772 89.1023 58.8755C89.1004 60.6157 88.4082 62.2842 87.1777 63.5148C85.9471 64.7453 84.2786 65.4375 82.5384 65.4394ZM82.5384 54.7757C81.7255 54.7743 80.9305 55.0141 80.254 55.4648C79.5775 55.9156 79.05 56.5569 78.7383 57.3076C78.4266 58.0584 78.3446 58.8847 78.5029 59.6821C78.6611 60.4794 79.0524 61.2118 79.6272 61.7866C80.202 62.3614 80.9344 62.7527 81.7317 62.9109C82.5291 63.0692 83.3554 62.9873 84.1062 62.6755C84.8569 62.3638 85.4982 61.8363 85.949 61.1598C86.3997 60.4834 86.6395 59.6883 86.6381 58.8755C86.6362 57.7887 86.2037 56.747 85.4353 55.9786C84.6668 55.2101 83.6251 54.7776 82.5384 54.7757Z" fill="#FFE0E1"/>
<path d="M61.4252 67.7678C61.4252 68.093 61.3287 68.4109 61.1479 68.6812C60.9671 68.9515 60.7101 69.162 60.4095 69.2862C60.1089 69.4103 59.7782 69.4424 59.4594 69.3784C59.1405 69.3145 58.8478 69.1573 58.6183 68.9268C58.3889 68.6964 58.233 68.403 58.1704 68.0839C58.1078 67.7647 58.1414 67.4342 58.2668 67.1342C58.3923 66.8341 58.6039 66.578 58.875 66.3984C59.1461 66.2187 59.4644 66.1236 59.7896 66.125C60.005 66.125 60.2183 66.1676 60.4172 66.2502C60.6161 66.3328 60.7967 66.454 60.9487 66.6066C61.1007 66.7592 61.221 66.9404 61.3028 67.1397C61.3846 67.3389 61.4262 67.5524 61.4252 67.7678Z" fill="#FFE0E1"/>
<path d="M32.0983 54.3827C32.0997 54.7079 32.0045 55.0262 31.8249 55.2973C31.6452 55.5684 31.3892 55.7801 31.0891 55.9055C30.7891 56.0309 30.4585 56.0645 30.1394 56.0019C29.8203 55.9393 29.5269 55.7835 29.2964 55.554C29.066 55.3245 28.9088 55.0318 28.8448 54.713C28.7809 54.3941 28.813 54.0635 28.9371 53.7629C29.0612 53.4623 29.2718 53.2053 29.5421 53.0244C29.8124 52.8436 30.1303 52.7471 30.4555 52.7471C30.6709 52.7461 30.8843 52.7878 31.0836 52.8695C31.2829 52.9513 31.464 53.0716 31.6167 53.2236C31.7693 53.3756 31.8904 53.5562 31.9731 53.7551C32.0557 53.954 32.0983 54.1673 32.0983 54.3827Z" fill="#FFE0E1"/>
<path d="M73.2174 53.5686C73.2174 53.8935 73.1211 54.2111 72.9406 54.4812C72.7601 54.7514 72.5035 54.9619 72.2033 55.0863C71.9031 55.2106 71.5728 55.2431 71.2542 55.1798C70.9355 55.1164 70.6428 54.9599 70.413 54.7302C70.1833 54.5004 70.0268 54.2077 69.9635 53.889C69.9001 53.5704 69.9326 53.2401 70.0569 52.9399C70.1813 52.6397 70.3918 52.3832 70.662 52.2026C70.9321 52.0221 71.2497 51.9258 71.5747 51.9258C72.0103 51.9258 72.4282 52.0989 72.7363 52.4069C73.0443 52.715 73.2174 53.1329 73.2174 53.5686Z" fill="#FF6A6D"/>
<path d="M82.1384 71.046C82.1398 71.3712 82.0446 71.6895 81.865 71.9606C81.6853 72.2317 81.4293 72.4434 81.1292 72.5688C80.8292 72.6943 80.4986 72.7278 80.1795 72.6652C79.8604 72.6027 79.567 72.4468 79.3365 72.2173C79.1061 71.9879 78.9489 71.6951 78.8849 71.3763C78.821 71.0574 78.8531 70.7268 78.9772 70.4262C79.1013 70.1256 79.3119 69.8686 79.5822 69.6878C79.8525 69.5069 80.1704 69.4104 80.4956 69.4104C80.93 69.4104 81.3468 69.5825 81.6547 69.889C81.9626 70.1956 82.1365 70.6116 82.1384 71.046Z" fill="#F00106"/>
<path d="M54.647 76.1745C54.647 76.4994 54.5506 76.817 54.3701 77.0872C54.1896 77.3573 53.9331 77.5679 53.6329 77.6922C53.3327 77.8166 53.0024 77.8491 52.6837 77.7857C52.3651 77.7223 52.0724 77.5659 51.8426 77.3361C51.6129 77.1064 51.4564 76.8137 51.393 76.495C51.3296 76.1763 51.3622 75.846 51.4865 75.5458C51.6108 75.2457 51.8214 74.9891 52.0915 74.8086C52.3617 74.6281 52.6793 74.5317 53.0042 74.5317C53.4399 74.5317 53.8578 74.7048 54.1658 75.0129C54.4739 75.321 54.647 75.7388 54.647 76.1745Z" fill="#F00106"/>
<path d="M50.5044 56.2827C50.5044 56.6076 50.4081 56.9252 50.2276 57.1953C50.047 57.4655 49.7905 57.6761 49.4903 57.8004C49.1901 57.9247 48.8598 57.9573 48.5412 57.8939C48.2225 57.8305 47.9298 57.674 47.7 57.4443C47.4703 57.2145 47.3138 56.9218 47.2504 56.6032C47.1871 56.2845 47.2196 55.9542 47.3439 55.654C47.4683 55.3538 47.6788 55.0973 47.949 54.9168C48.2191 54.7363 48.5367 54.6399 48.8616 54.6399C49.0776 54.639 49.2917 54.6808 49.4914 54.763C49.6912 54.8453 49.8726 54.9662 50.0254 55.119C50.1781 55.2717 50.2991 55.4532 50.3813 55.6529C50.4635 55.8526 50.5054 56.0667 50.5044 56.2827Z" fill="#F00106"/>
<path d="M71.8461 41.8551C71.8475 42.1803 71.7523 42.4986 71.5727 42.7697C71.393 43.0408 71.137 43.2525 70.8369 43.3779C70.5369 43.5033 70.2063 43.5369 69.8872 43.4743C69.5681 43.4117 69.2747 43.2558 69.0442 43.0264C68.8138 42.7969 68.6566 42.5042 68.5926 42.1854C68.5287 41.8665 68.5608 41.5358 68.6849 41.2353C68.809 40.9347 69.0196 40.6777 69.2899 40.4968C69.5602 40.316 69.8781 40.2195 70.2033 40.2195C70.6378 40.2195 71.0545 40.3916 71.3624 40.6981C71.6703 41.0046 71.8442 41.4207 71.8461 41.8551Z" fill="#F00106"/>
<path d="M83.3812 24.9342C83.3826 25.2594 83.2875 25.5777 83.1078 25.8488C82.9282 26.1199 82.6721 26.3316 82.3721 26.457C82.072 26.5824 81.7415 26.616 81.4224 26.5534C81.1032 26.4908 80.8099 26.335 80.5794 26.1055C80.3489 25.876 80.1918 25.5833 80.1278 25.2645C80.0638 24.9456 80.0959 24.6149 80.2201 24.3144C80.3442 24.0138 80.5547 23.7568 80.825 23.5759C81.0954 23.3951 81.4132 23.2986 81.7385 23.2986C82.1729 23.2986 82.5897 23.4707 82.8976 23.7772C83.2054 24.0837 83.3793 24.4998 83.3812 24.9342Z" fill="#FFE0E1"/>
<path d="M62.0109 23.9631C62.0109 24.288 61.9145 24.6056 61.734 24.8758C61.5535 25.1459 61.2969 25.3565 60.9968 25.4808C60.6966 25.6051 60.3663 25.6377 60.0476 25.5743C59.729 25.5109 59.4362 25.3544 59.2065 25.1247C58.9768 24.8949 58.8203 24.6022 58.7569 24.2836C58.6935 23.9649 58.7261 23.6346 58.8504 23.3344C58.9747 23.0342 59.1853 22.7777 59.4554 22.5972C59.7256 22.4167 60.0432 22.3203 60.3681 22.3203C60.8038 22.3203 61.2216 22.4934 61.5297 22.8015C61.8378 23.1095 62.0109 23.5274 62.0109 23.9631Z" fill="#F00106"/>
<path d="M17.3776 19.3203C17.379 19.6446 17.2844 19.9621 17.1057 20.2327C16.9269 20.5033 16.6721 20.7149 16.3733 20.841C16.0745 20.967 15.7451 21.0018 15.4266 20.9409C15.108 20.8801 14.8146 20.7263 14.5834 20.499C14.3521 20.2716 14.1932 19.981 14.1269 19.6635C14.0605 19.3461 14.0896 19.0161 14.2104 18.7152C14.3313 18.4143 14.5385 18.1558 14.8059 17.9724C15.0734 17.7891 15.3892 17.6889 15.7134 17.6847C15.9304 17.6819 16.1457 17.722 16.347 17.8029C16.5483 17.8837 16.7317 18.0036 16.8864 18.1557C17.0411 18.3078 17.1642 18.489 17.2485 18.6889C17.3328 18.8888 17.3767 19.1034 17.3776 19.3203Z" fill="#FF6A6D"/>
<path d="M67.1963 19.3202C67.1978 19.6454 67.1026 19.9637 66.923 20.2348C66.7433 20.5059 66.4873 20.7176 66.1872 20.843C65.8872 20.9684 65.5566 21.002 65.2375 20.9394C64.9184 20.8768 64.625 20.7209 64.3945 20.4915C64.1641 20.262 64.0069 19.9693 63.9429 19.6505C63.879 19.3316 63.9111 19.0009 64.0352 18.7003C64.1593 18.3997 64.3699 18.1428 64.6402 17.9619C64.9105 17.7811 65.2284 17.6846 65.5536 17.6846C65.988 17.6846 66.4048 17.8567 66.7127 18.1632C67.0205 18.4697 67.1945 18.8857 67.1963 19.3202Z" fill="#FFE0E1"/>
<path d="M29.7198 25.7129C29.642 26.0288 29.4722 26.3144 29.2318 26.5337C28.9915 26.7529 28.6914 26.8959 28.3698 26.9444C28.0481 26.9929 27.7192 26.9449 27.4249 26.8063C27.1306 26.6677 26.884 26.4448 26.7165 26.166C26.549 25.8871 26.468 25.5647 26.4839 25.2398C26.4998 24.9149 26.6118 24.602 26.8057 24.3408C26.9996 24.0796 27.2667 23.8818 27.5732 23.7726C27.8796 23.6634 28.2116 23.6476 28.527 23.7273C28.7359 23.7791 28.9324 23.8715 29.1055 23.9994C29.2785 24.1273 29.4246 24.2881 29.5354 24.4726C29.6463 24.657 29.7196 24.8615 29.7512 25.0743C29.7828 25.2872 29.7722 25.5042 29.7198 25.7129Z" fill="#F00106"/>
<path d="M27.7985 32.084C26.0576 32.084 24.3881 32.7755 23.1571 34.0065C21.9261 35.2375 21.2346 36.9071 21.2346 38.6479H34.3553C34.3553 36.9083 33.6647 35.2398 32.4353 34.009C31.2058 32.7783 29.5381 32.0859 27.7985 32.084Z" fill="#F00106"/>
<path d="M27.7985 30.8555C25.7318 30.8574 23.7501 31.6787 22.288 33.1395C20.8259 34.6002 20.0027 36.5811 19.999 38.6479H22.4631C22.4369 37.9313 22.5554 37.2168 22.8115 36.547C23.0676 35.8772 23.4562 35.2659 23.9539 34.7497C24.4516 34.2334 25.0482 33.8228 25.7082 33.5423C26.3681 33.2619 27.0779 33.1173 27.795 33.1173C28.5121 33.1173 29.2218 33.2619 29.8818 33.5423C30.5417 33.8228 31.1384 34.2334 31.6361 34.7497C32.1338 35.2659 32.5223 35.8772 32.7784 36.547C33.0346 37.2168 33.1531 37.9313 33.1268 38.6479H35.591C35.5891 36.5818 34.7675 34.6009 33.3065 33.1399C31.8456 31.679 29.8646 30.8574 27.7985 30.8555Z" fill="#FFE0E1"/>
<path d="M35.9124 47.2117C35.9124 48.9525 36.6039 50.6221 37.8349 51.8531C39.0659 53.084 40.7354 53.7756 42.4763 53.7756C44.2171 53.7756 45.8867 53.084 47.1177 51.8531C48.3487 50.6221 49.0402 48.9525 49.0402 47.2117H35.9124Z" fill="#F00106"/>
<path d="M47.8117 47.2117C47.8117 48.6267 47.2496 49.9838 46.249 50.9844C45.2484 51.985 43.8913 52.5471 42.4763 52.5471C41.0612 52.5471 39.7041 51.985 38.7036 50.9844C37.703 49.9838 37.1408 48.6267 37.1408 47.2117H34.6838C34.6838 49.2784 35.5048 51.2604 36.9662 52.7218C38.4276 54.1831 40.4096 55.0041 42.4763 55.0041C44.543 55.0041 46.525 54.1831 47.9864 52.7218C49.4477 51.2604 50.2687 49.2784 50.2687 47.2117H47.8117Z" fill="#FFE0E1"/>
<path d="M56.4684 20.9632C56.2583 20.964 56.0499 20.9252 55.8541 20.8489L53.3971 19.8632C53.1973 19.7835 53.0152 19.6652 52.8611 19.5151C52.7071 19.365 52.5841 19.186 52.4992 18.9883C52.4143 18.7907 52.3691 18.5783 52.3663 18.3632C52.3636 18.1481 52.4031 17.9345 52.4829 17.7348C52.5626 17.535 52.6809 17.3528 52.831 17.1988C52.9811 17.0447 53.1601 16.9217 53.3578 16.8368C53.5554 16.7519 53.7678 16.7068 53.9829 16.704C54.198 16.7012 54.4115 16.7408 54.6113 16.8205L57.0755 17.799C57.4272 17.9423 57.7185 18.2031 57.8996 18.5369C58.0808 18.8707 58.1407 19.257 58.0691 19.63C57.9975 20.003 57.7989 20.3397 57.5071 20.5827C57.2152 20.8258 56.8482 20.9602 56.4684 20.9632Z" fill="#F00106"/>
<path d="M86.9524 35.5695C86.5782 35.5703 86.2149 35.4433 85.9226 35.2095C85.6304 34.9757 85.4268 34.6492 85.3454 34.2839L84.8026 31.5697C84.7454 31.1557 84.8482 30.7354 85.09 30.3944C85.3318 30.0535 85.6946 29.8176 86.1043 29.7347C86.514 29.6519 86.9399 29.7283 87.2952 29.9485C87.6505 30.1687 87.9085 30.516 88.0167 30.9198L88.5666 33.641C88.6489 34.067 88.5601 34.5081 88.3195 34.869C88.0789 35.23 87.7058 35.4816 87.281 35.5695C87.1717 35.5796 87.0617 35.5796 86.9524 35.5695Z" fill="#F00106"/>
<path d="M65.9035 77.2671C65.7539 77.2692 65.6048 77.25 65.4607 77.21L61.4966 76.1172C61.0952 75.986 60.7596 75.7053 60.5597 75.3333C60.3598 74.9613 60.3108 74.5266 60.4229 74.1194C60.5351 73.7123 60.7997 73.3639 61.1619 73.1467C61.5241 72.9295 61.956 72.8602 62.368 72.9531L66.3321 74.0459C66.7104 74.1548 67.0371 74.3959 67.2526 74.7254C67.4681 75.055 67.5581 75.4509 67.5062 75.8412C67.4542 76.2315 67.2639 76.5901 66.9697 76.8519C66.6756 77.1136 66.2972 77.2609 65.9035 77.2671Z" fill="#F00106"/>
<path d="M34.9981 65.8537C34.6091 65.8535 34.2329 65.7145 33.937 65.4619C33.6412 65.2093 33.4451 64.8594 33.3839 64.4752L32.7411 60.5826C32.6913 60.3641 32.6866 60.1378 32.7275 59.9175C32.7684 59.6972 32.8539 59.4876 32.9788 59.3016C33.1037 59.1156 33.2653 58.957 33.4537 58.8358C33.6421 58.7145 33.8533 58.6331 34.0744 58.5965C34.2954 58.5599 34.5216 58.5689 34.7391 58.623C34.9565 58.6771 35.1606 58.775 35.3388 58.9109C35.5169 59.0467 35.6654 59.2176 35.7751 59.4129C35.8848 59.6083 35.9534 59.8241 35.9766 60.0469L36.6195 63.9467C36.6897 64.3756 36.587 64.8149 36.334 65.1684C36.081 65.5218 35.6982 65.7605 35.2695 65.8323L34.9981 65.8537Z" fill="#F00106"/>
<path d="M82.6812 43.0905H78.8457C78.41 43.0905 77.9921 42.9174 77.684 42.6093C77.376 42.3012 77.2029 41.8834 77.2029 41.4477C77.2029 41.012 77.376 40.5942 77.684 40.2861C77.9921 39.978 78.41 39.8049 78.8457 39.8049H82.6812C83.1168 39.8049 83.5347 39.978 83.8428 40.2861C84.1508 40.5942 84.3239 41.012 84.3239 41.4477C84.3239 41.8834 84.1508 42.3012 83.8428 42.6093C83.5347 42.9174 83.1168 43.0905 82.6812 43.0905Z" fill="#F00106"/>
<path d="M61.4253 32.2199C61.3208 32.2304 61.2155 32.2304 61.111 32.2199L57.9254 31.5699C57.4992 31.4847 57.1243 31.2336 56.8832 30.872C56.6421 30.5103 56.5546 30.0677 56.6398 29.6415C56.725 29.2152 56.9761 28.8403 57.3378 28.5992C57.6994 28.3581 58.1421 28.2706 58.5683 28.3558L61.7181 28.9629C62.1192 29.0386 62.4777 29.261 62.7238 29.5866C62.9699 29.9122 63.086 30.3178 63.0495 30.7243C63.0129 31.1308 62.8263 31.5091 62.5261 31.7856C62.2258 32.0621 61.8334 32.2169 61.4253 32.2199Z" fill="#F00106"/>
<path d="M22.7274 22.5346C22.3816 22.5361 22.0442 22.4281 21.7637 22.2259C21.4832 22.0238 21.274 21.7379 21.166 21.4094C21.0581 21.0809 21.0571 20.7267 21.1631 20.3976C21.2691 20.0684 21.4767 19.7814 21.756 19.5776L24.3559 17.6634C24.5281 17.5206 24.7278 17.4145 24.9426 17.3516C25.1573 17.2887 25.3827 17.2704 25.6048 17.2977C25.8269 17.325 26.0411 17.3974 26.2342 17.5105C26.4273 17.6235 26.5953 17.7748 26.7278 17.9551C26.8604 18.1354 26.9547 18.3409 27.005 18.559C27.0553 18.777 27.0605 19.0031 27.0203 19.2232C26.9801 19.4434 26.8954 19.653 26.7713 19.8392C26.6472 20.0254 26.4863 20.1843 26.2986 20.3061L23.6988 22.2203C23.417 22.4265 23.0765 22.5366 22.7274 22.5346Z" fill="#F00106"/>
<path d="M17.092 31.9126C16.6563 31.9126 16.2384 31.7396 15.9303 31.4315C15.6223 31.1234 15.4492 30.7056 15.4492 30.2699V26.5486C15.4344 26.3243 15.4658 26.0993 15.5414 25.8875C15.6171 25.6758 15.7354 25.4818 15.8891 25.3177C16.0428 25.1535 16.2285 25.0227 16.4348 24.9332C16.6411 24.8438 16.8635 24.7976 17.0884 24.7976C17.3132 24.7976 17.5357 24.8438 17.742 24.9332C17.9483 25.0227 18.134 25.1535 18.2877 25.3177C18.4413 25.4818 18.5597 25.6758 18.6353 25.8875C18.711 26.0993 18.7424 26.3243 18.7276 26.5486V30.2699C18.7285 30.4853 18.6869 30.6987 18.6051 30.898C18.5234 31.0973 18.403 31.2784 18.2511 31.431C18.0991 31.5837 17.9184 31.7048 17.7195 31.7874C17.5206 31.8701 17.3074 31.9126 17.092 31.9126Z" fill="#F00106"/>
<path d="M82.6812 8.57086C75.8986 4.64989 68.2025 2.58545 60.3681 2.58545C52.5337 2.58545 44.8376 4.64989 38.055 8.57086L41.8905 15.2134C47.3255 12.0671 53.4745 10.3624 59.7536 10.2612C66.0328 10.1599 72.2336 11.6655 77.7672 14.6348L59.661 45.9831L60.3752 47.2116H58.9467L40.8477 78.5671C35.5133 75.2559 31.1119 70.6384 28.0598 65.1517C25.0077 59.6649 23.4058 53.4902 23.4058 47.2116H15.7134C15.7129 55.0456 17.7744 62.7418 21.6907 69.5266C25.607 76.3115 31.2401 81.9461 38.0239 85.8642C44.8078 89.7822 52.5034 91.8458 60.3374 91.8474C68.1714 91.849 75.8678 89.7887 82.6533 85.8734C89.4388 81.9582 95.0742 76.326 98.9933 69.5427C102.912 62.7595 104.977 55.0642 104.98 47.2302C104.983 39.3962 102.924 31.6994 99.0094 24.9134C95.0952 18.1273 89.4638 12.491 82.6812 8.57086ZM79.8956 15.8705C85.0485 19.0729 89.3317 23.4972 92.3655 28.7512C95.3993 34.0052 97.0899 39.9265 97.2875 45.9903H62.5037L79.8956 15.8705ZM42.9762 79.8027L60.3681 49.6758L77.7672 79.8027C72.418 82.6723 66.442 84.174 60.3717 84.174C54.3014 84.174 48.3254 82.6723 42.9762 79.8027ZM79.8956 78.5671L62.5037 48.4473H97.2875C97.0899 54.511 95.3993 60.4324 92.3655 65.6863C89.3317 70.9403 85.0485 75.3646 79.8956 78.5671Z" fill="#F00106"/>
<path d="M47.2261 71.8745C50.1727 71.8745 52.5615 69.4857 52.5615 66.539C52.5615 63.5924 50.1727 61.2036 47.2261 61.2036C44.2794 61.2036 41.8906 63.5924 41.8906 66.539C41.8906 69.4857 44.2794 71.8745 47.2261 71.8745Z" fill="#F00106"/>
<path d="M47.226 73.103C45.9278 73.103 44.6587 72.718 43.5793 71.9967C42.4998 71.2755 41.6585 70.2503 41.1617 69.0509C40.6649 67.8515 40.5349 66.5317 40.7882 65.2585C41.0414 63.9852 41.6666 62.8156 42.5846 61.8976C43.5026 60.9796 44.6721 60.3545 45.9454 60.1012C47.2187 59.848 48.5385 59.9779 49.7379 60.4748C50.9373 60.9716 51.9624 61.8129 52.6837 62.8923C53.4049 63.9717 53.7899 65.2408 53.7899 66.539C53.788 68.2793 53.0959 69.9478 51.8653 71.1783C50.6347 72.4089 48.9663 73.1011 47.226 73.103ZM47.226 62.4321C46.4134 62.4307 45.6187 62.6704 44.9424 63.1208C44.266 63.5712 43.7385 64.2121 43.4266 64.9624C43.1147 65.7127 43.0323 66.5387 43.19 67.3359C43.3476 68.133 43.7382 68.8654 44.3123 69.4405C44.8864 70.0156 45.6181 70.4075 46.415 70.5665C47.2118 70.7256 48.038 70.6446 48.7888 70.334C49.5397 70.0234 50.1815 69.497 50.6331 68.8215C51.0847 68.1459 51.3258 67.3516 51.3258 66.539C51.3239 65.4516 50.8916 64.4092 50.1233 63.6396C49.3551 62.87 48.3134 62.4359 47.226 62.4321Z" fill="#FFE0E1"/>
<path d="M77.1815 30.5769C77.1815 31.6321 76.8686 32.6637 76.2824 33.5411C75.6961 34.4185 74.8628 35.1023 73.8879 35.5062C72.913 35.91 71.8402 36.0157 70.8052 35.8098C69.7702 35.6039 68.8196 35.0958 68.0734 34.3496C67.3272 33.6034 66.8191 32.6527 66.6132 31.6178C66.4073 30.5828 66.513 29.51 66.9168 28.5351C67.3206 27.5602 68.0045 26.7269 68.8819 26.1406C69.7593 25.5544 70.7909 25.2415 71.8461 25.2415C73.2606 25.2433 74.6166 25.8061 75.6167 26.8063C76.6169 27.8064 77.1796 29.1624 77.1815 30.5769Z" fill="#F00106"/>
<path d="M71.8461 37.1408C70.5479 37.1408 69.2788 36.7558 68.1994 36.0346C67.1199 35.3133 66.2786 34.2882 65.7818 33.0888C65.285 31.8894 65.155 30.5696 65.4083 29.2963C65.6616 28.023 66.2867 26.8535 67.2047 25.9355C68.1227 25.0175 69.2923 24.3923 70.5655 24.1391C71.8388 23.8858 73.1586 24.0158 74.358 24.5126C75.5574 25.0094 76.5826 25.8507 77.3038 26.9301C78.0251 28.0096 78.41 29.2786 78.41 30.5769C78.4081 32.3172 77.716 33.9856 76.4854 35.2162C75.2548 36.4467 73.5864 37.1389 71.8461 37.1408ZM71.8461 26.4771C71.0352 26.4771 70.2426 26.7175 69.5684 27.168C68.8942 27.6185 68.3687 28.2588 68.0584 29.008C67.7481 29.7571 67.6669 30.5814 67.8251 31.3767C67.9833 32.172 68.3738 32.9025 68.9471 33.4759C69.5205 34.0492 70.251 34.4397 71.0463 34.5979C71.8416 34.7561 72.6659 34.6749 73.415 34.3646C74.1642 34.0543 74.8044 33.5288 75.2549 32.8546C75.7054 32.1804 75.9459 31.3877 75.9459 30.5769C75.9459 29.4895 75.5139 28.4467 74.7451 27.6779C73.9762 26.909 72.9334 26.4771 71.8461 26.4771Z" fill="#FFE0E1"/>
<path d="M64.9465 64.8608C64.5853 64.8603 64.2343 64.7407 63.9479 64.5207C63.6615 64.3006 63.4556 63.9922 63.3621 63.6434C63.2685 63.2945 63.2926 62.9245 63.4305 62.5907C63.5685 62.2568 63.8126 61.9778 64.1251 61.7966L67.6321 59.7825C67.8197 59.6751 68.0266 59.6057 68.241 59.5783C68.4554 59.5508 68.6731 59.5659 68.8817 59.6226C69.0903 59.6793 69.2857 59.7765 69.4567 59.9087C69.6277 60.041 69.771 60.2056 69.8784 60.3932C69.9858 60.5807 70.0552 60.7877 70.0826 61.0021C70.11 61.2165 70.095 61.4342 70.0383 61.6428C69.9816 61.8514 69.8843 62.0468 69.7521 62.2178C69.6199 62.3888 69.4553 62.5321 69.2677 62.6395L65.7607 64.6394C65.5139 64.7844 65.2328 64.8608 64.9465 64.8608Z" fill="#F00106"/>
</svg>
