<svg width="88" height="86" viewBox="0 0 88 86" fill="none" xmlns="http://www.w3.org/2000/svg">
<path d="M59.8551 26.89C49.793 16.8279 18.5591 31.8204 8.51477 41.8647C6.12647 44.2529 4.23195 47.088 2.93939 50.2084C1.64684 53.3287 0.981567 56.673 0.981567 60.0505C0.981567 63.4279 1.64684 66.7723 2.93939 69.8926C4.23195 73.013 6.12647 75.8481 8.51477 78.2363C8.51477 78.2363 6.17682 44.4868 59.8551 26.89Z" fill="#F00106"/>
<path d="M59.8551 26.8901C6.17675 44.487 8.51471 78.2364 8.51471 78.2364C10.9028 80.6247 13.738 82.5192 16.8583 83.8118C19.9786 85.1044 23.323 85.7696 26.7005 85.7696C30.0779 85.7696 33.4223 85.1044 36.5426 83.8118C39.6629 82.5192 42.4981 80.6247 44.8862 78.2364C54.9306 68.1921 69.8994 36.9345 59.8551 26.8901Z" fill="#FF6A6D"/>
<path d="M85.4957 11.6965C83.937 10.1438 81.8383 9.25396 79.6386 9.21314C77.4389 9.17232 75.3087 9.98368 73.6935 11.4775L73.5514 11.3295L53.0662 29.3051C53.965 30.9971 55.3077 32.4123 56.9501 33.3988C58.5924 34.3853 60.4725 34.9058 62.3884 34.9044L73.4685 23.8183C75.076 25.4101 77.2499 26.2981 79.5121 26.287C81.7743 26.2759 83.9395 25.3666 85.5312 23.7591C87.123 22.1517 88.011 19.9777 87.9999 17.7156C87.9888 15.4534 87.0795 13.2882 85.472 11.6965H85.4957Z" fill="#FF6A6D"/>
<path d="M73.4745 11.2525C74.1699 10.0442 74.5133 8.66539 74.4658 7.27205C74.4183 5.8787 73.9818 4.52645 73.2057 3.3683C72.4296 2.21014 71.3449 1.29229 70.0742 0.718606C68.8036 0.144919 67.3977 -0.0617131 66.0158 0.122088C64.6338 0.305888 63.3308 0.872785 62.2543 1.75864C61.1777 2.6445 60.3706 3.81396 59.9242 5.13471C59.4778 6.45546 59.4099 7.87478 59.7282 9.23211C60.0466 10.5894 60.7384 11.8306 61.7255 12.8151C62.0052 13.0877 62.3082 13.3353 62.6311 13.555L51.8469 24.3392C51.8374 26.0697 52.2563 27.7757 53.0662 29.3051L73.5277 11.3295L73.4745 11.2525Z" fill="#F00106"/>
</svg>
