<svg width="79" height="89" viewBox="0 0 79 89" fill="none" xmlns="http://www.w3.org/2000/svg">
<path d="M67.2232 32.0623H11.4049C10.3546 32.0623 9.34719 32.4795 8.60446 33.2223C7.86172 33.965 7.44446 34.9724 7.44446 36.0227C7.44446 37.0731 7.86172 38.0805 8.60446 38.8232C9.34719 39.566 10.3546 39.9832 11.4049 39.9832H67.2232C67.7433 39.9832 68.2583 39.8808 68.7388 39.6818C69.2193 39.4827 69.6559 39.191 70.0237 38.8232C70.3915 38.4555 70.6832 38.0189 70.8822 37.5384C71.0813 37.0578 71.1837 36.5428 71.1837 36.0227C71.1837 35.5026 71.0813 34.9876 70.8822 34.5071C70.6832 34.0266 70.3915 33.59 70.0237 33.2223C69.6559 32.8545 69.2193 32.5628 68.7388 32.3637C68.2583 32.1647 67.7433 32.0623 67.2232 32.0623Z" fill="#FF6A6D"/>
<path d="M70.3089 51.4153H11.0754C10.7795 51.4153 10.4866 51.4736 10.2132 51.5868C9.93991 51.7 9.69156 51.8659 9.48236 52.0751C9.27316 52.2843 9.10722 52.5327 8.994 52.806C8.88078 53.0793 8.82251 53.3723 8.82251 53.6681C8.82251 53.964 8.88078 54.2569 8.994 54.5303C9.10722 54.8036 9.27316 55.052 9.48236 55.2612C9.69156 55.4704 9.93991 55.6363 10.2132 55.7495C10.4866 55.8627 10.7795 55.921 11.0754 55.921H70.3089C70.9064 55.921 71.4794 55.6837 71.9019 55.2612C72.3244 54.8387 72.5617 54.2656 72.5617 53.6681C72.5617 53.0707 72.3244 52.4976 71.9019 52.0751C71.4794 51.6526 70.9064 51.4153 70.3089 51.4153Z" fill="#FF6A6D"/>
<path d="M67.5587 46.9094H8.30725C7.70975 46.9094 7.13672 47.1468 6.71423 47.5693C6.29174 47.9918 6.05438 48.5648 6.05438 49.1623C6.05438 49.7598 6.29174 50.3328 6.71423 50.7553C7.13672 51.1778 7.70975 51.4151 8.30725 51.4151H67.5408C68.1383 51.4151 68.7113 51.1778 69.1338 50.7553C69.5563 50.3328 69.7936 49.7598 69.7936 49.1623C69.7936 48.5648 69.5563 47.9918 69.1338 47.5693C68.7113 47.1468 68.1383 46.9094 67.5408 46.9094H67.5587Z" fill="#FF6A6D"/>
<path d="M66.8816 67.0054H11.7584C10.6174 67.0054 9.52317 67.4586 8.71639 68.2654C7.90961 69.0722 7.45636 70.1664 7.45636 71.3074C7.45636 72.4483 7.90961 73.5426 8.71639 74.3494C9.52317 75.1561 10.6174 75.6094 11.7584 75.6094H66.8816C68.0226 75.6094 69.1168 75.1561 69.9236 74.3494C70.7304 73.5426 71.1836 72.4483 71.1836 71.3074C71.1836 70.1664 70.7304 69.0722 69.9236 68.2654C69.1168 67.4586 68.0226 67.0054 66.8816 67.0054Z" fill="#FF6A6D"/>
<path d="M72.5977 75.6096H6.03041C4.93553 75.6096 3.88549 76.0446 3.1113 76.8188C2.3371 77.593 1.90216 78.643 1.90216 79.7379V79.8218C1.90375 82.0105 2.77433 84.109 4.32255 85.6561C5.87077 87.2032 7.96994 88.0723 10.1587 88.0723H68.4635C69.5482 88.0731 70.6225 87.8601 71.6249 87.4455C72.6273 87.0309 73.5382 86.4229 74.3056 85.6561C75.0729 84.8893 75.6816 83.9789 76.0969 82.9768C76.5122 81.9747 76.726 80.9005 76.726 79.8158V79.7319C76.7228 78.6385 76.2866 77.5909 75.513 76.8184C74.7393 76.0458 73.6911 75.6112 72.5977 75.6096Z" fill="#F00106"/>
<path d="M6.22212 32.062H72.4179C73.0967 32.0665 73.7668 31.9094 74.3728 31.6038C74.9789 31.2981 75.5035 30.8526 75.9033 30.304C76.3031 29.7555 76.5667 29.1197 76.6722 28.4492C76.7778 27.7787 76.7222 27.0927 76.5102 26.4479C73.8279 18.7234 68.8063 12.0261 62.1431 7.28642C55.4799 2.54674 47.506 0 39.329 0C31.1521 0 23.1781 2.54674 16.5149 7.28642C9.85172 12.0261 4.83015 18.7234 2.14779 26.4479C1.93627 27.0912 1.88051 27.7756 1.98511 28.4447C2.08971 29.1139 2.35168 29.7486 2.74946 30.2967C3.14724 30.8448 3.66947 31.2907 4.27319 31.5976C4.87691 31.9045 5.54487 32.0637 6.22212 32.062Z" fill="#F00106"/>
<path d="M73.9758 39.9832H4.65233C3.13345 39.9832 1.90216 41.2144 1.90216 42.7333V44.1593C1.90216 45.6782 3.13345 46.9095 4.65233 46.9095H73.9758C75.4947 46.9095 76.726 45.6782 76.726 44.1593V42.7333C76.726 41.2144 75.4947 39.9832 73.9758 39.9832Z" fill="#F00106"/>
<path d="M72.5977 55.9209H6.03041C3.75044 55.9209 1.90216 57.7692 1.90216 60.0492V62.8772C1.90216 65.1572 3.75044 67.0055 6.03041 67.0055H72.5977C74.8777 67.0055 76.726 65.1572 76.726 62.8772V60.0492C76.726 57.7692 74.8777 55.9209 72.5977 55.9209Z" fill="#F00106"/>
<path d="M69.2364 57.2991C65.941 57.2991 62.8852 55.5016 60.6204 52.1942C58.8828 49.6777 56.6299 48.2877 54.2692 48.2877C51.9085 48.2877 49.6497 49.6777 47.9241 52.1942C45.6592 55.4836 42.5975 57.2991 39.3081 57.2991C36.0187 57.2991 32.9569 55.5016 30.6921 52.1942C28.9545 49.6777 26.7016 48.2877 24.3409 48.2877C21.9802 48.2877 19.7273 49.6777 17.9898 52.1942C15.7249 55.4836 12.6692 57.2991 9.37376 57.2991C6.07835 57.2991 3.0226 55.5016 0.763748 52.1942C0.661459 52.0455 0.589463 51.8781 0.55187 51.7016C0.514277 51.525 0.511824 51.3428 0.54465 51.1653C0.577477 50.9878 0.644939 50.8186 0.743187 50.6672C0.841435 50.5157 0.968543 50.3852 1.11726 50.2829C1.26597 50.1806 1.43337 50.1086 1.60991 50.071C1.78644 50.0334 1.96865 50.031 2.14614 50.0638C2.32362 50.0966 2.4929 50.1641 2.64432 50.2623C2.79573 50.3606 2.92631 50.4877 3.02859 50.6364C4.76617 53.1529 7.01904 54.519 9.37376 54.519C11.7285 54.519 13.9873 53.1289 15.7249 50.6124C17.9898 47.329 21.0515 45.5315 24.3409 45.5315C27.6303 45.5315 30.6921 47.329 32.9569 50.6304C34.6705 53.1529 36.9474 54.519 39.3081 54.519C41.6688 54.519 43.9216 53.1289 45.6532 50.6124C47.9181 47.329 50.9798 45.5315 54.2692 45.5315C57.5587 45.5315 60.6204 47.329 62.8852 50.6304C64.6228 53.1469 66.8757 54.537 69.2364 54.537C71.5971 54.537 73.85 53.1469 75.5816 50.6304C75.7947 50.3456 76.1096 50.1543 76.4605 50.0964C76.8114 50.0385 77.1712 50.1185 77.4644 50.3197C77.7577 50.5209 77.9619 50.8277 78.0342 51.176C78.1065 51.5242 78.0413 51.8869 77.8524 52.1882C75.5876 55.4836 72.5258 57.2991 69.2364 57.2991Z" fill="#FFE0E1"/>
<path d="M21.423 67.0054L43.3764 81.4812L58.8588 67.0054H21.423Z" fill="#FFE0E1"/>
<path d="M55.0542 32.0623H39.38L50.6024 37.6225L55.0542 32.0623Z" fill="#FF6A6D"/>
<path d="M30.6561 67.0054L54.1494 78.066L63.4784 67.0054H30.6561Z" fill="#FFE0E1"/>
<path d="M45.4734 32.0623H16.1143L37.1271 42.4698L45.4734 32.0623Z" fill="#FFE0E1"/>
<path d="M36.534 12.7929C36.5324 12.4279 36.3867 12.0783 36.1286 11.8202C35.8705 11.5621 35.5209 11.4164 35.1559 11.4148H32.3877C32.0222 11.4148 31.6717 11.56 31.4133 11.8184C31.1548 12.0769 31.0096 12.4274 31.0096 12.7929C31.0096 13.1584 31.1548 13.5089 31.4133 13.7673C31.6717 14.0258 32.0222 14.171 32.3877 14.171H35.1559C35.5214 14.171 35.8719 14.0258 36.1303 13.7673C36.3888 13.5089 36.534 13.1584 36.534 12.7929Z" fill="#FFE0E1"/>
<path d="M22.6872 11.3791H25.4553C25.6435 11.3916 25.8323 11.3652 26.0099 11.3018C26.1875 11.2383 26.3502 11.139 26.4879 11.0101C26.6256 10.8812 26.7354 10.7254 26.8104 10.5523C26.8855 10.3793 26.9242 10.1927 26.9242 10.0041C26.9242 9.81543 26.8855 9.62882 26.8104 9.45577C26.7354 9.28272 26.6256 9.12692 26.4879 8.99801C26.3502 8.8691 26.1875 8.76984 26.0099 8.70636C25.8323 8.64288 25.6435 8.61654 25.4553 8.62897H22.6872C22.4989 8.61654 22.3102 8.64288 22.1326 8.70636C21.9549 8.76984 21.7922 8.8691 21.6545 8.99801C21.5168 9.12692 21.4071 9.28272 21.332 9.45577C21.257 9.62882 21.2183 9.81543 21.2183 10.0041C21.2183 10.1927 21.257 10.3793 21.332 10.5523C21.4071 10.7254 21.5168 10.8812 21.6545 11.0101C21.7922 11.139 21.9549 11.2383 22.1326 11.3018C22.3102 11.3652 22.4989 11.3916 22.6872 11.3791Z" fill="#FFE0E1"/>
<path d="M22.6872 18.3472H19.9131C19.7248 18.3348 19.5361 18.3611 19.3585 18.4246C19.1808 18.4881 19.0181 18.5874 18.8804 18.7163C18.7427 18.8452 18.633 19.001 18.5579 19.174C18.4829 19.3471 18.4442 19.5337 18.4442 19.7223C18.4442 19.9109 18.4829 20.0976 18.5579 20.2706C18.633 20.4437 18.7427 20.5995 18.8804 20.7284C19.0181 20.8573 19.1808 20.9565 19.3585 21.02C19.5361 21.0835 19.7248 21.1098 19.9131 21.0974H22.6872C23.0362 21.0744 23.3634 20.9195 23.6024 20.6641C23.8415 20.4088 23.9745 20.0721 23.9745 19.7223C23.9745 19.3726 23.8415 19.0359 23.6024 18.7805C23.3634 18.5252 23.0362 18.3703 22.6872 18.3472Z" fill="#FFE0E1"/>
<path d="M28.2295 22.5054H25.4554C25.1063 22.5285 24.7792 22.6834 24.5401 22.9387C24.3011 23.1941 24.1681 23.5308 24.1681 23.8805C24.1681 24.2303 24.3011 24.567 24.5401 24.8223C24.7792 25.0777 25.1063 25.2326 25.4554 25.2556H28.2295C28.4177 25.268 28.6065 25.2417 28.7841 25.1782C28.9617 25.1147 29.1244 25.0155 29.2621 24.8866C29.3998 24.7577 29.5096 24.6019 29.5846 24.4288C29.6597 24.2558 29.6984 24.0691 29.6984 23.8805C29.6984 23.6919 29.6597 23.5053 29.5846 23.3322C29.5096 23.1592 29.3998 23.0034 29.2621 22.8745C29.1244 22.7456 28.9617 22.6463 28.7841 22.5828C28.6065 22.5193 28.4177 22.493 28.2295 22.5054Z" fill="#FFE0E1"/>
<path d="M44.8563 16.9632H42.0882C41.8999 16.9508 41.7112 16.9771 41.5336 17.0406C41.3559 17.1041 41.1933 17.2033 41.0555 17.3322C40.9178 17.4611 40.8081 17.6169 40.733 17.79C40.658 17.963 40.6193 18.1497 40.6193 18.3383C40.6193 18.5269 40.658 18.7135 40.733 18.8866C40.8081 19.0596 40.9178 19.2154 41.0555 19.3443C41.1933 19.4732 41.3559 19.5725 41.5336 19.636C41.7112 19.6995 41.8999 19.7258 42.0882 19.7134H44.8563C45.0445 19.7258 45.2333 19.6995 45.4109 19.636C45.5885 19.5725 45.7512 19.4732 45.8889 19.3443C46.0266 19.2154 46.1364 19.0596 46.2114 18.8866C46.2865 18.7135 46.3252 18.5269 46.3252 18.3383C46.3252 18.1497 46.2865 17.963 46.2114 17.79C46.1364 17.6169 46.0266 17.4611 45.8889 17.3322C45.7512 17.2033 45.5885 17.1041 45.4109 17.0406C45.2333 16.9771 45.0445 16.9508 44.8563 16.9632Z" fill="#FFE0E1"/>
<path d="M53.1608 11.4088C53.1608 11.0444 53.0164 10.6948 52.7593 10.4365C52.5021 10.1782 52.1531 10.0323 51.7887 10.0308H49.0146C48.6491 10.0308 48.2985 10.176 48.0401 10.4344C47.7817 10.6928 47.6365 11.0434 47.6365 11.4088C47.6365 11.7743 47.7817 12.1249 48.0401 12.3833C48.2985 12.6417 48.6491 12.7869 49.0146 12.7869H51.7887C52.1531 12.7853 52.5021 12.6394 52.7593 12.3812C53.0164 12.1229 53.1608 11.7733 53.1608 11.4088Z" fill="#FFE0E1"/>
<path d="M60.0991 14.189H57.331C56.9655 14.189 56.615 14.3342 56.3565 14.5926C56.0981 14.851 55.9529 15.2016 55.9529 15.567C55.9529 15.9325 56.0981 16.2831 56.3565 16.5415C56.615 16.7999 56.9655 16.9451 57.331 16.9451H60.0991C60.4646 16.9451 60.8151 16.7999 61.0736 16.5415C61.332 16.2831 61.4772 15.9325 61.4772 15.567C61.4772 15.2016 61.332 14.851 61.0736 14.5926C60.8151 14.3342 60.4646 14.189 60.0991 14.189Z" fill="#FFE0E1"/>
<path d="M55.9409 23.8896H53.1728C52.8073 23.8896 52.4567 24.0348 52.1983 24.2933C51.9399 24.5517 51.7947 24.9022 51.7947 25.2677C51.7947 25.6332 51.9399 25.9837 52.1983 26.2422C52.4567 26.5006 52.8073 26.6458 53.1728 26.6458H55.9409C56.3064 26.6458 56.6569 26.5006 56.9154 26.2422C57.1738 25.9837 57.319 25.6332 57.319 25.2677C57.319 24.9022 57.1738 24.5517 56.9154 24.2933C56.6569 24.0348 56.3064 23.8896 55.9409 23.8896Z" fill="#FFE0E1"/>
<path d="M67.0254 21.1214H64.2513C64.0631 21.109 63.8743 21.1353 63.6967 21.1988C63.5191 21.2623 63.3564 21.3615 63.2187 21.4904C63.081 21.6193 62.9712 21.7752 62.8962 21.9482C62.8211 22.1213 62.7824 22.3079 62.7824 22.4965C62.7824 22.6851 62.8211 22.8717 62.8962 23.0448C62.9712 23.2178 63.081 23.3736 63.2187 23.5025C63.3564 23.6314 63.5191 23.7307 63.6967 23.7942C63.8743 23.8577 64.0631 23.884 64.2513 23.8716H67.0254C67.3745 23.8485 67.7016 23.6936 67.9407 23.4383C68.1797 23.1829 68.3127 22.8463 68.3127 22.4965C68.3127 22.1467 68.1797 21.81 67.9407 21.5547C67.7016 21.2994 67.3745 21.1445 67.0254 21.1214Z" fill="#FFE0E1"/>
<path d="M39.314 4.48853H36.5459C36.1804 4.48853 35.8299 4.63372 35.5714 4.89216C35.313 5.1506 35.1678 5.50112 35.1678 5.86661C35.1678 6.2321 35.313 6.58262 35.5714 6.84106C35.8299 7.0995 36.1804 7.24469 36.5459 7.24469H39.314C39.6795 7.24469 40.03 7.0995 40.2885 6.84106C40.5469 6.58262 40.6921 6.2321 40.6921 5.86661C40.6921 5.50112 40.5469 5.1506 40.2885 4.89216C40.03 4.63372 39.6795 4.48853 39.314 4.48853Z" fill="#FFE0E1"/>
<path d="M14.3708 23.8896H11.5966C11.2312 23.8896 10.8806 24.0348 10.6222 24.2933C10.3638 24.5517 10.2186 24.9022 10.2186 25.2677C10.2186 25.6332 10.3638 25.9837 10.6222 26.2422C10.8806 26.5006 11.2312 26.6458 11.5966 26.6458H14.3708C14.7363 26.6458 15.0868 26.5006 15.3452 26.2422C15.6037 25.9837 15.7489 25.6332 15.7489 25.2677C15.7489 24.9022 15.6037 24.5517 15.3452 24.2933C15.0868 24.0348 14.7363 23.8896 14.3708 23.8896Z" fill="#FFE0E1"/>
<path d="M37.93 25.2795H35.1559C34.8068 25.3026 34.4797 25.4575 34.2406 25.7128C34.0016 25.9682 33.8686 26.3049 33.8686 26.6546C33.8686 27.0044 34.0016 27.3411 34.2406 27.5964C34.4797 27.8518 34.8068 28.0067 35.1559 28.0297H37.93C38.279 28.0067 38.6062 27.8518 38.8452 27.5964C39.0843 27.3411 39.2173 27.0044 39.2173 26.6546C39.2173 26.3049 39.0843 25.9682 38.8452 25.7128C38.6062 25.4575 38.279 25.3026 37.93 25.2795Z" fill="#FFE0E1"/>
</svg>
