<svg width="74" height="81" viewBox="0 0 74 81" fill="none" xmlns="http://www.w3.org/2000/svg">
<path d="M47.6951 7.62373C48.1691 6.45312 48.22 5.1539 47.8392 3.94977C47.4584 2.74563 46.6697 1.71194 45.6089 1.02668C44.5481 0.341413 43.2815 0.0474555 42.0273 0.195421C40.7731 0.343386 39.6097 0.924013 38.7375 1.83733C38.0922 1.04708 37.2206 0.473172 36.2397 0.192666C35.2588 -0.0878391 34.2156 -0.0615111 33.2501 0.268115C32.2846 0.597741 31.443 1.21488 30.8385 2.03668C30.2339 2.85847 29.8952 3.84556 29.8679 4.86542C29.1057 4.14199 28.1086 3.71694 27.0589 3.66795C26.0092 3.61895 24.9768 3.94927 24.1505 4.59856C23.3242 5.24785 22.7591 6.17276 22.5584 7.2043C22.3577 8.23585 22.5349 9.30516 23.0575 10.2169V14.704L46.7317 14.2745L47.6951 7.62373Z" fill="#FF6A6D"/>
<path d="M27.1097 33.1975H8.13732C6.7416 33.1901 5.4019 32.6476 4.39433 31.6817C3.38676 30.7159 2.7881 29.4003 2.72174 28.0062C2.65539 26.612 3.12639 25.2455 4.03768 24.1883C4.94896 23.1311 6.23108 22.4638 7.61979 22.3239C6.99621 21.5129 6.66542 20.5148 6.68125 19.4919C6.69707 18.469 7.05858 17.4815 7.70695 16.6902C8.35532 15.8989 9.25239 15.3503 10.2522 15.1336C11.252 14.917 12.2957 15.045 13.2135 15.4969C12.7868 14.7196 12.6315 13.8223 12.7721 12.9468C12.9127 12.0713 13.3412 11.2676 13.9898 10.663C14.7834 9.97503 15.8139 9.62352 16.8625 9.68314C17.911 9.74277 18.8951 10.2088 19.6055 10.9823C19.9719 10.1164 20.6385 9.41178 21.4829 8.99805C22.3273 8.58431 23.2926 8.48926 24.2014 8.73037C25.1103 8.97148 25.9015 9.53253 26.4298 10.3104C26.958 11.0883 27.1877 12.0307 27.0766 12.9644L27.1097 33.1975Z" fill="#F00106"/>
<path d="M69.3983 32.1184C70.349 31.3394 71.0133 30.266 71.2863 29.0676C71.5594 27.8693 71.4256 26.6141 70.9062 25.5001C70.3868 24.3862 69.5113 23.4769 68.4178 22.9157C67.3243 22.3546 66.075 22.1734 64.8672 22.401C65.5991 21.3316 65.9303 20.0384 65.8026 18.7488C65.6749 17.4593 65.0965 16.2561 64.1691 15.3511C63.2417 14.446 62.0247 13.8971 60.7325 13.8009C59.4402 13.7047 58.1554 14.0675 57.1043 14.8252C57.6548 10.8722 54.6157 6.95219 50.6627 6.40163C49.1556 6.19015 47.6202 6.46009 46.2756 7.17294C44.9309 7.88578 43.8458 9.0051 43.1751 10.3712C42.6572 9.07636 41.6615 8.03018 40.3938 7.44911C39.1261 6.86804 37.6835 6.79657 36.3646 7.2495C35.3546 7.63241 34.4913 8.32463 33.8981 9.22733C33.3049 10.13 33.012 11.1971 33.0612 12.2761C32.0559 11.5942 30.8415 11.2902 29.6335 11.4181C28.4254 11.546 27.3016 12.0974 26.4613 12.9747C25.6209 13.852 25.1183 14.9984 25.0425 16.2109C24.9667 17.4233 25.3226 18.6235 26.0471 19.5986V32.1184H69.3983Z" fill="#F00106"/>
<path d="M48.2678 40.608C49.3852 40.6153 50.4645 40.2023 51.2916 39.4509C52.1188 38.6996 52.6333 37.6648 52.733 36.5518C52.8328 35.4388 52.5106 34.329 51.8304 33.4425C51.1501 32.556 50.1615 31.9576 49.0606 31.766C49.5115 31.0763 49.7069 30.2505 49.6128 29.4319C49.5187 28.6133 49.1412 27.8534 48.5456 27.2839C47.95 26.7145 47.1739 26.3714 46.3519 26.3142C45.5299 26.2569 44.7137 26.4891 44.0449 26.9706C44.5422 26.1098 44.7123 25.0985 44.5239 24.1224C44.3355 23.1464 43.8013 22.271 43.0194 21.6571C42.2375 21.0433 41.2604 20.7321 40.2675 20.7807C39.2746 20.8294 38.3325 21.2346 37.6144 21.9219C37.5908 20.9586 37.2726 20.0256 36.7025 19.2487C36.1323 18.4719 35.3378 17.8884 34.4258 17.577C33.5139 17.2657 32.5284 17.2413 31.6022 17.5073C30.676 17.7732 29.8536 18.3167 29.2458 19.0645C28.4194 18.2186 27.3255 17.6849 26.1502 17.554C24.9748 17.4232 23.7903 17.7032 22.798 18.3466C21.8057 18.99 21.0667 19.957 20.7066 21.0835C20.3464 22.2099 20.3873 23.4263 20.8223 24.5261H20.7947C20.5065 24.4863 20.2158 24.4661 19.9248 24.4655C18.2223 24.5149 16.606 25.226 15.4192 26.4477C14.2324 27.6694 13.5685 29.3057 13.5685 31.0089C13.5685 32.7122 14.2324 34.3484 15.4192 35.5702C16.606 36.7919 18.2223 37.503 19.9248 37.5524L48.2678 40.608Z" fill="#FFE0E1"/>
<path d="M70.8077 36.4236H36.75H2.6922L12.8501 80.931H36.75H60.6498L70.8077 36.4236Z" fill="#FF6A6D"/>
<path d="M57.3796 36.4236H36.75H16.1205L22.2703 80.931H36.75H51.2298L57.3796 36.4236Z" fill="#FFE0E1"/>
<path d="M43.8412 36.4236H36.75H29.6588L31.7729 80.931H36.75H41.7271L43.8412 36.4236Z" fill="#FF6A6D"/>
<path d="M70.9234 29.9766H2.57663C1.1536 29.9766 0 31.1302 0 32.5532V33.847C0 35.27 1.1536 36.4236 2.57663 36.4236H70.9234C72.3464 36.4236 73.5 35.27 73.5 33.847V32.5532C73.5 31.1302 72.3464 29.9766 70.9234 29.9766Z" fill="#FF6A6D"/>
</svg>
