<svg width="94" height="89" viewBox="0 0 94 89" fill="none" xmlns="http://www.w3.org/2000/svg">
<path d="M47.9571 85.4467L28.4134 1.23205C28.3827 1.03522 28.312 0.846776 28.2056 0.678369C28.0992 0.509963 27.9594 0.365178 27.7948 0.252972C27.6302 0.140767 27.4444 0.0635265 27.2487 0.0260296C27.0531 -0.0114672 26.8518 -0.00842308 26.6574 0.0349738C26.463 0.0783707 26.2795 0.161197 26.1184 0.27833C25.9573 0.395462 25.8219 0.544409 25.7206 0.715957C25.6194 0.887505 25.5544 1.078 25.5297 1.27567C25.505 1.47334 25.5212 1.67397 25.5771 1.86515L45.1208 86.0671C45.1939 86.387 45.3733 86.6726 45.6298 86.8773C45.8862 87.082 46.2045 87.1937 46.5326 87.194C46.6456 87.1939 46.7581 87.1812 46.8682 87.156C47.2345 87.0655 47.552 86.8375 47.7547 86.5193C47.9575 86.201 48.0299 85.8169 47.9571 85.4467Z" fill="#F00106"/>
<path d="M38.6189 4.30882C38.5969 4.11884 38.5376 3.93507 38.4446 3.76799C38.3515 3.60091 38.2265 3.45379 38.0766 3.33504C37.9266 3.21628 37.7548 3.12822 37.5709 3.07587C37.3869 3.02353 37.1945 3.00793 37.0045 3.02996C36.8145 3.05199 36.6307 3.11123 36.4637 3.20428C36.2966 3.29734 36.1495 3.42239 36.0307 3.5723C35.912 3.72221 35.8239 3.89404 35.7716 4.07799C35.7192 4.26193 35.7036 4.45438 35.7256 4.64436L45.0891 85.9404C45.1365 86.2901 45.3087 86.6108 45.574 86.8435C45.8393 87.0762 46.1797 87.2052 46.5326 87.2066H46.7035C47.0844 87.1606 47.4315 86.9655 47.6689 86.6641C47.9062 86.3627 48.0144 85.9795 47.9697 85.5985L38.6189 4.30882Z" fill="#F00106"/>
<path d="M79.2638 35.2041H46.539H13.8079L22.1901 88.6882H46.539H70.8879L79.2638 35.2041Z" fill="#F00106"/>
<path d="M91.7485 26.923L78.4091 33.7414H78.3711L70.9069 21.5923H22.1901L14.7005 33.7414L1.32317 26.923L0 29.5123L13.6496 36.4764C13.8564 36.5785 14.0837 36.6326 14.3143 36.6347H78.7573C78.9773 36.628 79.1932 36.574 79.3904 36.4764L93.04 29.5123L91.7485 26.923Z" fill="#FF6A6D"/>
<path d="M57.4599 61.9461C57.4611 64.1078 56.8212 66.2214 55.6209 68.0193C54.4207 69.8173 52.7142 71.2188 50.7172 72.0467C48.7203 72.8745 46.5226 73.0914 44.4024 72.67C42.2821 72.2486 40.3345 71.2077 38.8059 69.6791C37.2773 68.1506 36.2364 66.2029 35.815 64.0827C35.3936 61.9624 35.6105 59.7648 36.4384 57.7678C37.2662 55.7708 38.6677 54.0643 40.4657 52.8641C42.2636 51.6639 44.3772 51.0239 46.5389 51.0251C49.4348 51.0268 52.2116 52.178 54.2594 54.2257C56.3071 56.2734 57.4582 59.0502 57.4599 61.9461Z" fill="#FF6A6D"/>
<path d="M46.539 76.5072C43.659 76.5072 40.8438 75.6532 38.4492 74.0532C36.0546 72.4532 34.1882 70.1791 33.0861 67.5184C31.984 64.8576 31.6957 61.9299 32.2575 59.1053C32.8194 56.2807 34.2062 53.6861 36.2426 51.6497C38.279 49.6132 40.8736 48.2264 43.6982 47.6646C46.5228 47.1027 49.4506 47.3911 52.1113 48.4932C54.772 49.5953 57.0462 51.4616 58.6462 53.8562C60.2462 56.2508 61.1002 59.0661 61.1002 61.946C61.1002 65.8079 59.5661 69.5116 56.8353 72.2424C54.1046 74.9731 50.4009 76.5072 46.539 76.5072ZM46.539 54.6654C45.0987 54.6641 43.6905 55.0901 42.4923 55.8893C41.2942 56.6886 40.3601 57.8252 39.808 59.1554C39.256 60.4857 39.1109 61.9498 39.3911 63.3625C39.6713 64.7752 40.3643 66.0731 41.3822 67.0919C42.4002 68.1108 43.6975 68.8048 45.1099 69.0863C46.5224 69.3677 47.9866 69.2239 49.3173 68.673C50.6481 68.1222 51.7855 67.189 52.5858 65.9916C53.3861 64.7941 53.8133 63.3863 53.8133 61.946C53.8099 60.0172 53.0426 58.1682 51.6794 56.8038C50.3161 55.4393 48.4678 54.6704 46.539 54.6654Z" fill="#FFE0E1"/>
</svg>
