<svg width="335" height="349" viewBox="0 0 335 349" fill="none" xmlns="http://www.w3.org/2000/svg">
<path d="M258.697 63.0825C243.593 59.4475 228.807 64.7835 218.35 77.3435C202.033 97.1147 185.21 119.511 159.057 120.849C123.601 122.75 84.0531 116.046 55.4007 141.183C40.275 154.355 32.3331 174.532 33.9248 195.221C35.109 210.708 40.107 224.984 47.6289 237.676C49.5093 240.848 51.5506 243.92 53.7462 246.88C60.0327 255.436 68.0208 262.212 77.7801 266.561C93.3075 273.178 109.743 276.215 122.551 287.637C138.242 301.676 155.528 317.734 177.723 315.62C183.109 315.523 188.571 314.94 194.095 313.803C212.085 310.055 228.138 301.581 241.925 289.652C271.547 264.045 293.827 230.201 307.138 193.189C309.051 187.121 310.53 180.878 311.555 174.554C315.652 149.258 312.495 122.653 300.878 100.617C297.972 95.1078 294.54 89.8844 290.559 85.0383C286.579 80.1938 282.053 75.7281 276.964 71.7396C272.329 68.8164 264.506 64.0892 258.697 63.0825Z" fill="#FEF0F0"/>
<path fill-rule="evenodd" clip-rule="evenodd" d="M238.265 17.9315C238.82 18.0081 239.023 17.6139 239.311 17.3655C241.994 14.918 244.702 12.5096 247.498 10.2C248.427 9.42059 249.363 8.66984 250.489 8.17401C251.806 7.59423 253.037 7.74457 254.14 8.69816C254.677 9.17891 255.008 9.8088 255.233 10.499C255.568 11.4964 255.724 12.5126 255.795 13.5525C255.958 15.3038 255.831 17.0585 255.687 18.8028C255.603 19.778 255.537 20.7635 255.49 21.7594C255.469 22.2105 255.71 22.374 256.102 22.2348C256.665 22.0481 257.239 21.8432 257.805 21.6096C259.514 20.8905 261.226 20.1246 262.943 19.4342C263.854 19.0589 264.774 18.7122 265.733 18.4619C268.543 17.7449 270.476 18.7144 271.709 21.3516C272.209 22.3955 272.48 23.5027 272.684 24.6439C272.805 25.3473 272.926 26.0508 273.029 26.7439C273.22 28.0728 273.852 29.0955 274.932 29.8407C275.734 30.4015 276.497 30.9884 277.289 31.5675C277.682 31.8428 278.081 32.1466 278.353 32.5473C278.709 33.0937 278.437 33.8139 277.817 34.0164C277.703 34.048 277.606 34.09 277.495 34.0746C275.409 34.1613 273.376 33.9871 271.507 32.908C269.979 32.026 268.984 30.7202 268.471 29.035C268.154 28.048 268.037 27.0056 267.863 25.979C267.715 25.1139 267.539 24.2568 267.324 23.4259C267.153 22.7668 266.848 22.5904 266.238 22.7746C265.497 22.98 264.762 23.2141 264.079 23.5262C262.588 24.2003 261.136 24.9708 259.652 25.6736C258.823 26.0721 257.991 26.5176 257.111 26.8381C253.544 28.1176 250.915 26.4045 250.568 22.6465C250.456 21.3878 250.587 20.1231 250.754 18.8792C250.974 17.1295 251.229 15.4005 251.198 13.628C251.18 13.2031 251.275 12.7467 251.003 12.346C250.355 12.5563 249.902 13.0503 249.409 13.4479C246.997 15.4671 244.823 17.6967 242.646 19.9733C241.782 20.8881 240.865 21.7718 239.94 22.6268C239.333 23.1785 238.63 23.6497 237.857 23.9099C236.11 24.4857 234.533 23.6481 234.044 21.8795C233.804 21.0095 233.871 20.1465 233.995 19.2677C234.264 17.4735 234.744 15.7282 235.142 13.9597C235.273 13.4015 235.553 12.8324 235.469 12.2722C235.333 12.2179 235.29 12.1685 235.251 12.1946C235.212 12.2208 235.162 12.2653 235.141 12.3018C234.537 13.0986 233.926 13.8667 233.358 14.6842C231.492 17.3353 229.633 20.015 228.296 22.9957C228.264 23.0505 228.261 23.0974 228.211 23.1419C227.948 23.5988 227.638 23.7613 227.301 23.6397C226.917 23.5157 226.77 23.0651 227.011 22.5223C228.391 19.4685 229.781 16.3964 231.441 13.48C232.433 11.762 233.515 10.0958 234.64 8.4791C235.032 7.92537 235.456 7.43933 235.996 7.0442C237.349 6.07069 238.862 6.60344 239.324 8.21052C239.561 9.00492 239.533 9.84175 239.422 10.6554C239.222 12.1235 238.993 13.5996 238.774 15.0574C238.561 16.0069 238.413 16.9692 238.265 17.9315Z" fill="#E91D26"/>
<path fill-rule="evenodd" clip-rule="evenodd" d="M15.0997 119.77C14.0115 119.976 13.0672 120.159 12.0779 120.024C9.63359 119.706 7.7831 117.972 7.37724 115.592C6.96917 113.298 8.13326 111.178 10.2809 110.235C12.4286 109.292 14.6838 109.947 15.9389 111.921C16.2708 112.431 16.4951 112.996 16.7943 113.54C17.7376 112.574 18.0128 111.784 18.2392 109.587C18.4598 107.41 18.0254 105.522 16.8923 103.757C16.3632 103.69 16.1027 104.115 15.7261 104.31C14.7787 104.819 13.8031 105.188 12.6735 105.143C10.6368 105.074 8.99042 103.66 8.79946 101.799C8.61433 99.9178 9.92065 98.2521 11.8725 97.9051C12.7899 97.7364 13.6796 97.8207 14.5626 98.164C14.9935 98.3327 15.3918 98.5353 15.7958 98.7179C16.2415 98.5209 16.2468 98.1092 16.3458 97.7681C16.9996 95.6737 17.3256 93.5275 17.5884 91.3631C17.6636 90.7105 17.7177 90.0518 17.814 89.4054C17.8628 89.1585 17.9654 88.8837 18.1197 88.6674C18.3684 88.2828 19.0299 88.3661 19.2528 88.7789C19.4148 89.0869 19.4328 89.4185 19.4297 89.744C19.4317 92.9643 19.3857 96.1924 18.916 99.3845C18.8197 100.031 18.4741 100.67 18.5698 101.285C18.6654 101.901 19.187 102.465 19.4746 103.049C20.4171 104.998 20.7148 107.042 20.6767 109.141C20.6521 111.745 20.089 114.236 18.746 116.5C18.607 116.742 18.4891 116.991 18.2775 117.169C17.2733 118.03 17.0735 119.19 16.9522 120.395C16.7433 122.532 15.8679 124.366 14.5558 126.052C12.8159 128.266 10.6671 130.079 8.60029 132.002C8.51376 132.064 8.4214 132.146 8.3407 132.188C8.01788 132.355 7.69951 132.35 7.40889 132.091C7.1546 131.865 7.11191 131.461 7.34682 131.203C7.59339 130.905 7.89153 130.665 8.17442 130.399C9.26744 129.389 10.3605 128.38 11.4171 127.338C11.9946 126.766 12.5473 126.121 13.0521 125.485C14.3257 123.853 15.1473 122.047 15.0997 119.77ZM12.5763 116.34C12.7086 116.357 12.8772 116.406 13.0363 116.408C13.6673 116.439 14.3636 116.402 14.768 115.954C15.2051 115.472 14.6777 114.927 14.4991 114.44C14.3358 113.979 14.0496 113.548 13.6711 113.199C13.3078 112.876 12.8594 112.767 12.4101 112.898C11.6882 113.102 11.1041 113.933 11.1495 114.642C11.2174 115.51 11.7063 116.109 12.5763 116.34Z" fill="#E91D26"/>
<path fill-rule="evenodd" clip-rule="evenodd" d="M168.564 342.702C169.53 343.866 170.604 344.866 171.677 345.845C171.999 346.131 172.343 346.417 172.665 346.723C173.352 347.356 173.524 347.866 173.159 348.234C172.815 348.581 172.472 348.703 171.484 348.152C171.14 347.968 170.797 347.785 170.475 347.58C169.015 346.682 167.555 345.805 166.116 344.886C165.709 344.621 165.365 344.56 164.893 344.764C163.562 345.315 162.166 345.682 160.706 345.886C156.992 346.397 153.75 345.335 150.765 343.335C149.628 342.58 148.898 341.498 148.575 340.212C148.361 339.273 148.189 338.334 148.017 337.395C147.974 337.191 148.017 336.966 148.082 336.762C148.168 336.497 148.404 336.313 148.704 336.313C148.94 336.313 149.134 336.436 149.263 336.619C149.348 336.762 149.413 336.905 149.456 337.048C149.52 337.313 149.563 337.579 149.585 337.844C149.778 340.457 151.324 342.008 153.814 342.845C156.498 343.763 159.16 343.886 161.822 342.743C162.66 342.376 162.724 342.335 162.209 341.641C161.157 340.212 160.813 338.62 161.071 336.926C161.415 334.701 162.66 333.068 164.936 332.292C168.543 331.068 172.171 333.864 171.677 337.477C171.462 339.008 170.775 340.314 169.745 341.477C169.358 341.865 168.972 342.253 168.564 342.702ZM166.009 338.763C166.009 338.844 166.009 338.967 166.052 339.048C166.074 339.13 166.159 339.253 166.245 339.253C166.331 339.273 166.46 339.212 166.524 339.13C166.868 338.701 167.04 338.212 167.061 337.681C167.083 337.518 166.975 337.395 166.804 337.334C166.61 337.273 166.503 337.416 166.396 337.538C166.116 337.926 166.009 338.314 166.009 338.763Z" fill="#E91D26"/>
<path fill-rule="evenodd" clip-rule="evenodd" d="M325.684 255.97C324.398 257.091 322.694 258.677 320.863 260.099C320.184 260.622 319.573 261.247 318.915 261.821C318.707 261.994 318.487 262.155 318.258 262.276C317.96 262.415 317.658 262.368 317.457 262.155C317.256 261.942 317.196 261.667 317.366 261.363C317.455 261.184 317.574 260.977 317.725 260.834C319.508 259.15 320.851 257.121 322.512 255.338C324.422 253.272 326.308 251.182 328.229 249.129C329.152 248.138 330.24 247.323 331.305 246.483C331.468 246.353 331.658 246.221 331.842 246.142C332.494 245.834 333.043 246.264 332.893 246.952C332.855 247.154 332.778 247.345 332.701 247.536C332.069 249.106 331.198 250.546 330.024 251.846C328.783 253.136 327.496 254.376 325.684 255.97Z" fill="#E91D26"/>
<path fill-rule="evenodd" clip-rule="evenodd" d="M316.525 257.123C315.75 257.752 314.913 258.44 314.078 259.1C313.801 259.31 313.501 259.465 313.21 259.252C312.919 259.038 312.995 258.709 313.195 258.417C313.848 257.44 314.46 256.45 315.206 255.539C316.276 254.246 317.543 253.099 318.846 252.022C318.985 251.917 319.123 251.812 319.269 251.777C319.475 251.711 319.687 251.716 319.857 251.864C320.014 251.999 320.067 252.18 320.044 252.408C320.035 252.493 319.979 252.623 319.914 252.711C318.894 254.215 317.939 255.786 316.525 257.123Z" fill="#E91D26"/>
<path d="M238.408 61.482L301.515 253.175C302.506 256.188 300.87 259.442 297.864 260.432L268.738 270.02C266.799 270.658 264.906 268.955 265.312 266.925C265.784 264.637 265.675 262.216 264.887 259.825C262.462 252.457 254.447 248.481 247.117 251.088C240.193 253.562 236.387 261.128 238.555 268.171C239.316 270.678 240.717 272.781 242.521 274.406C244.047 275.778 243.562 278.287 241.603 278.932L171.445 302.028C169.487 302.673 167.606 300.943 168.019 298.933C168.504 296.554 168.357 294.017 167.505 291.561C165.046 284.614 157.483 280.769 150.47 282.905C143.025 285.162 138.933 293.103 141.365 300.49C142.145 302.861 143.502 304.893 145.241 306.453C146.767 307.825 146.262 310.34 144.323 310.978L115.159 320.579C112.153 321.569 108.903 319.924 107.911 316.911L44.8047 125.217C43.8128 122.204 45.4497 118.951 48.4554 117.961L77.5812 108.373C79.5397 107.728 81.4201 109.457 81.0073 111.468C80.5224 113.847 80.6698 116.384 81.5213 118.84C83.9803 125.787 91.5435 129.632 98.5756 127.489C106.021 125.232 110.113 117.292 107.681 109.905C106.9 107.533 105.544 105.502 103.805 103.941C102.279 102.569 102.783 100.054 104.723 99.4159L174.842 76.3323C176.8 75.6875 178.674 77.3976 178.268 79.4274C177.796 81.7158 177.905 84.1362 178.692 86.5273C181.118 93.8949 189.133 97.8711 196.463 95.2639C203.386 92.7908 207.193 85.2246 205.044 78.1753C204.283 75.6679 202.882 73.5652 201.078 71.9396C199.552 70.5675 200.037 68.0592 201.996 67.4145L231.122 57.8261C234.173 56.8432 237.416 58.4688 238.408 61.482Z" fill="#E91D26" stroke="black" stroke-width="4" stroke-linejoin="round"/>
<path d="M238.809 62.7001L270.171 157.964L235.589 169.349C233.649 169.987 231.754 168.277 232.17 166.277C232.646 164.001 232.535 161.575 231.759 159.218C229.349 151.896 221.345 147.957 214.013 150.563C207.087 153.036 203.268 160.567 205.422 167.567C206.178 170.059 207.575 172.147 209.374 173.76C210.897 175.122 210.407 177.617 208.449 178.262L173.363 189.813L161.062 152.449C160.401 150.44 162.256 148.501 164.313 149.066C166.981 149.794 169.912 149.75 172.731 148.714C179.45 146.267 183.216 139.032 181.365 132.168C179.266 124.486 171.205 120.245 163.719 122.709C161.023 123.597 158.768 125.238 157.151 127.313C155.833 128.989 153.188 128.531 152.527 126.522L140.227 89.1584L175.313 77.6079C177.271 76.963 179.141 78.66 178.731 80.6794C178.255 82.9559 178.36 85.3627 179.142 87.739C181.553 95.061 189.556 99 196.889 96.3934C203.814 93.9209 207.633 86.3895 205.499 79.3834C204.743 76.8914 203.346 74.8031 201.546 73.1899C200.023 71.8284 200.513 69.333 202.472 68.6882L231.604 59.0978C234.584 58.0952 237.823 59.7056 238.809 62.7001Z" fill="#EBEBEC" stroke="black" stroke-width="4" stroke-linejoin="round"/>
<path d="M166.181 248.088C168.77 254.777 176.132 258.403 182.99 256.383C185.872 255.542 188.253 253.829 189.963 251.646C191.278 249.96 193.919 250.409 194.592 252.456L207.011 290.177L171.951 301.719C169.993 302.364 168.11 300.628 168.521 298.613C169.005 296.228 168.855 293.685 168.001 291.222C165.536 284.255 157.967 280.394 150.954 282.53C143.508 284.787 139.422 292.744 141.861 300.152C142.644 302.53 144.002 304.567 145.743 306.133C147.271 307.51 146.768 310.031 144.829 310.669L115.665 320.271C112.659 321.26 109.407 319.608 108.412 316.586L76.7602 220.44L111.335 209.058C113.274 208.42 113.777 205.899 112.249 204.522C110.508 202.956 109.15 200.918 108.367 198.54C105.934 191.152 110.014 183.175 117.46 180.918C124.499 178.796 132.061 182.637 134.507 189.61C135.387 192.087 135.51 194.617 135.027 197.002C134.616 199.017 136.498 200.752 138.457 200.108L173.517 188.566L185.935 226.287C186.602 228.315 184.751 230.264 182.691 229.689C180.135 228.974 177.364 228.979 174.669 229.867C167.229 232.337 163.29 240.613 166.181 248.088Z" fill="#EBEBEC" stroke="black" stroke-width="4" stroke-linejoin="round"/>
</svg>
