<svg width="374" height="325" viewBox="0 0 374 325" fill="none" xmlns="http://www.w3.org/2000/svg">
<path fill-rule="evenodd" clip-rule="evenodd" d="M373.986 80.2875C374.086 81.9112 373.635 83.7378 372.984 85.4629C372.533 86.7313 371.882 87.8475 370.98 88.8623C367.123 93.4287 362.012 92.9721 359.107 87.7461C358.205 86.1224 357.604 84.3466 357.453 82.4693C357.303 80.8964 357.253 79.3235 357.203 77.6999C357.053 70.3936 356.001 63.1889 354.247 56.1363C353.596 53.5486 352.744 51.0625 351.191 48.8808C350.74 48.2212 350.39 47.5108 350.139 46.7497C349.738 45.5828 350.239 44.3651 351.191 43.604C352.243 42.8429 353.395 42.7922 354.448 43.5025C354.848 43.8069 355.249 44.1621 355.6 44.568C362.764 52.7876 368.125 62.1741 372.183 72.271C373.335 74.7571 373.986 77.3447 373.986 80.2875Z" fill="#EB1C24"/>
<path fill-rule="evenodd" clip-rule="evenodd" d="M106.339 28.9776C105.047 28.9776 103.703 29.028 102.36 28.9776C100.345 28.8263 98.9497 27.4146 99.0014 25.7508C99.1047 24.1879 100.345 22.7258 102.153 22.7762C106.959 22.8771 110.989 20.7595 115.071 18.7428C120.6 16.0203 126.129 13.3985 131.709 10.7264C132.433 10.3734 133.208 10.1213 133.983 10.0205C135.791 9.81884 137.186 11.1297 136.98 12.8439C136.928 13.6002 136.618 14.3564 136.308 15.0623C133.724 20.2553 129.849 24.0366 124.165 25.9525C118.43 27.818 112.539 29.1288 106.339 28.9776Z" fill="#EB1C24"/>
<path fill-rule="evenodd" clip-rule="evenodd" d="M101.491 11.9319C95.2249 12.3918 89.3695 10.2965 83.4628 8.66122C82.9492 8.50791 82.487 8.25239 82.0761 7.89467C81.3056 7.28142 80.8434 6.4638 81.0488 5.44173C81.3056 4.31745 82.0247 3.49981 83.206 3.3465C83.9765 3.19319 84.7983 3.24428 85.5687 3.39759C88.9586 4.06194 92.2459 3.60202 95.4817 2.83546C100.721 1.60898 105.96 0.740217 111.353 0.79132C112.688 0.79132 114.024 0.535778 115.308 0.382467C116.078 0.28026 116.9 0.0758704 117.67 0.0247668C119.006 -0.128544 120.033 0.433583 120.649 1.60897C121.317 2.83545 120.958 3.95973 120.187 4.9307C119.622 5.64615 118.954 6.31051 118.235 6.92375C114.691 10.0411 110.48 11.523 105.857 11.9319C104.419 12.0852 102.929 11.9319 101.491 11.9319Z" fill="#EB1C24"/>
<path fill-rule="evenodd" clip-rule="evenodd" d="M349 65.8565C349 67.7161 348.947 69.0591 348.366 70.2988C347.415 72.21 345.038 72.5716 343.559 71.0736C343.347 70.867 343.189 70.6604 343.03 70.4538C339.543 64.8234 335.264 59.6062 333.045 53.2527C331.989 50.1534 330.193 47.4157 327.763 45.1429C327.287 44.678 326.812 44.1614 326.495 43.5932C325.755 42.4568 325.861 41.2688 326.706 40.184C327.446 39.2026 328.766 38.7377 330.034 39.1509C330.668 39.3576 331.302 39.7191 331.778 40.1323C337.43 44.9362 342.555 50.1534 346.042 56.7652C347.679 59.8129 348.947 62.9122 349 65.8565Z" fill="#EB1C24"/>
<path fill-rule="evenodd" clip-rule="evenodd" d="M21.5741 293.732C20.9956 291.596 20.9686 289.853 21.5616 288.169C22.5856 285.371 25.1886 284.675 27.456 286.5C28.8355 287.591 29.6233 289.145 30.2333 290.797C31.1607 293.324 31.993 295.875 33.1458 298.294C36.396 304.912 40.1675 311.19 45.8917 315.977C46.2035 316.218 46.4801 316.521 46.7092 316.835C47.155 317.414 47.113 318.061 46.761 318.678C46.3614 319.307 45.7907 319.448 45.1232 319.401C44.8607 319.36 44.6335 319.257 44.4063 319.154C34.6379 313.722 27.0897 306.046 22.2212 295.534C21.9057 294.869 21.7081 294.07 21.5741 293.732Z" fill="#EB1C24"/>
<path fill-rule="evenodd" clip-rule="evenodd" d="M4.1555 277.323C3.26544 274.383 3.02892 271.442 2.72858 268.463C2.53619 266.582 2.76703 264.651 3.52232 262.857C4.25123 261.177 5.27281 259.8 7.03384 258.99C8.89756 258.155 10.2143 258.633 11.0991 260.449C12.0088 262.367 12.111 264.323 11.9176 266.406C11.5198 270.307 11.4036 274.246 11.6204 278.209C11.8401 281.744 11.8934 285.265 12.793 288.685C12.9178 289.19 13.055 289.745 12.9743 290.301C12.8798 291.02 12.4148 291.564 11.696 291.741C11.1312 291.881 10.5804 291.857 10.16 291.478C9.79103 291.088 9.37071 290.709 9.19462 290.217C7.27531 285.978 5.06042 281.866 4.1555 277.323Z" fill="#EB1C24"/>
<path fill-rule="evenodd" clip-rule="evenodd" d="M45.3269 302.322C45.302 302.222 45.2171 301.657 45.1961 301.129C45.2007 299.158 46.8695 297.946 48.8446 298.417C50.3579 298.788 51.5582 299.664 52.7318 300.652C54.8873 302.516 57.082 304.317 59.1984 306.245C62.7298 309.473 66.7821 311.934 71.094 314.117C72.0921 314.616 73.0262 315.078 73.946 315.703C74.5338 316.09 74.7982 316.717 74.5473 317.472C74.2697 318.339 73.6228 318.819 72.6973 318.835C72.1572 318.862 71.619 318.675 71.0933 318.539C67.2375 317.095 63.3942 315.701 59.6167 314.131C55.8391 312.561 52.1541 310.702 49.0416 308.062C47.4099 306.548 45.9205 304.945 45.3269 302.322Z" fill="#EB1C24"/>
<path fill-rule="evenodd" clip-rule="evenodd" d="M312.351 129.613C313.783 130.512 315.149 131.412 316.282 132.611C318.547 135.043 319.214 137.875 318.247 141.04C317.981 141.94 317.515 142.806 317.081 143.805C317.215 144.039 317.415 144.405 317.681 144.771C319.047 146.77 319.513 148.869 318.581 151.168C318.314 151.834 318.381 152.267 318.947 152.734C322.912 155.999 323.545 160.063 321.912 164.728C321.812 165.061 321.779 165.427 321.579 165.727C320.68 167.193 320.713 168.426 321.812 169.925C323.078 171.624 322.978 173.689 322.112 175.655C321.979 175.955 321.846 176.321 321.612 176.555C320.446 177.787 320.413 179.02 321.279 180.519C322.312 182.385 322.479 184.484 322.379 186.616C322.245 189.481 321.113 191.88 318.681 193.446C317.615 194.145 317.348 194.845 317.614 196.011C317.914 197.31 317.781 198.61 317.481 199.909C316.915 202.441 315.449 204.34 313.05 205.339C312.117 205.739 311.718 206.272 311.684 207.272C311.651 208.304 311.518 209.37 311.284 210.37C310.252 214.801 306.82 217.433 302.289 216.833C300.29 216.567 298.924 216.6 298.358 218.799C296.659 221.297 294.36 223.063 291.362 223.263C288.497 223.463 286.065 224.296 283.633 225.828C280.567 227.727 277.103 228.16 273.605 226.961C272.438 226.561 271.406 225.928 270.406 225.195C270.006 224.896 269.607 224.596 269.207 224.329C268.974 224.529 268.807 224.596 268.74 224.729C267.508 227.261 265.342 228.26 262.677 228.627C259.112 229.093 255.914 228.227 253.215 225.895C252.316 225.129 251.683 225.129 250.717 225.562C249.784 225.962 248.751 226.195 247.752 226.495C245.153 227.261 242.554 227.094 240.089 226.128C238.856 225.629 237.79 225.695 236.624 226.328C234.992 227.194 233.193 227.594 231.394 227.894C228.362 228.36 225.463 227.927 222.931 226.128C222.065 225.529 221.266 225.329 220.266 225.495C218.734 225.728 217.168 225.828 215.602 225.662C213.337 225.395 211.404 224.596 209.805 222.997C209.572 222.763 209.305 222.53 209.039 222.297C208.972 222.23 208.872 222.23 208.739 222.197C208.606 222.364 208.439 222.53 208.306 222.73C205.774 226.628 202.076 228.36 197.545 228.56C197.012 228.594 196.512 228.594 195.979 228.627C195.613 228.66 195.346 228.86 195.18 229.16C195.146 229.227 195.08 229.293 195.046 229.393C193.447 233.458 190.382 236.256 186.917 238.655C182.486 241.753 177.722 244.219 172.791 246.484C163.63 250.682 154.135 254.08 144.606 257.345C138.543 259.444 132.446 261.509 126.15 262.809C122.818 263.508 119.486 264.108 116.122 264.508C113.856 264.774 111.591 264.908 109.458 263.842C108.892 263.575 108.492 263.675 108.059 264.108C107.16 265.041 106.094 265.84 104.961 266.473C101.196 268.672 97.3981 268.872 93.6001 266.64C93.3669 266.507 93.1337 266.374 92.8339 266.207C92.3009 266.607 91.7678 267.007 91.2014 267.406C90.1353 268.206 89.0359 268.839 87.8033 269.272C84.7382 270.338 81.7398 270.171 79.1412 268.139C77.9085 267.173 76.9424 267.14 75.643 267.773C74.8102 268.206 73.844 268.439 72.9111 268.606C69.5129 269.239 66.5479 268.372 64.0825 265.907C63.6494 265.474 63.1497 265.041 62.9165 264.508C62.0169 262.309 60.3511 262.076 58.2523 262.376C56.0867 262.676 53.9212 262.476 51.789 261.976C47.458 260.943 44.8927 258.045 44.4596 253.58C44.3596 252.614 44.3263 251.681 44.2597 250.615C43.2602 250.415 42.2275 250.249 41.228 250.016C40.2951 249.816 39.3623 249.616 38.4628 249.283C34.6981 247.85 32.5659 244.652 32.5326 240.621C32.5326 239.355 32.8324 238.222 33.3988 237.122C33.7986 236.356 34.2317 235.623 34.6315 234.89C34.6315 234.157 34.0318 234.057 33.6654 233.724C32.2328 232.425 31.0667 230.926 30.1339 229.227C28.5347 226.262 28.3681 223.196 29.934 220.231C30.6003 218.965 30.4337 218.232 29.5009 217.333C28.5681 216.4 27.9683 215.234 27.4686 214.001C26.5358 211.703 26.5691 209.404 27.7352 207.205C28.2682 206.206 28.8679 205.273 29.4675 204.24C29.0678 203.574 28.668 202.907 28.2349 202.241C25.3364 197.61 25.3031 192.913 27.8684 188.148C28.0017 187.915 28.1016 187.682 28.2682 187.482C28.9678 186.549 29.1344 185.683 28.3682 184.65C27.9017 184.051 27.6352 183.251 27.402 182.518C26.4692 179.553 26.7357 176.688 28.3682 173.989C28.6347 173.556 28.9012 173.09 29.201 172.657C30.2005 171.191 30.4671 171.357 29.1677 169.525C26.0361 165.127 27.2021 159.93 30.2671 156.865C31.4665 155.666 31.4998 154.766 30.9334 153.3C28.8012 147.637 31.1667 142.839 34.998 140.54C35.6643 140.141 35.7309 139.707 35.5643 139.041C34.5315 134.643 35.7975 130.979 39.1291 128.014C39.7288 127.481 39.9287 126.948 39.8954 126.215C39.7621 124.116 40.1619 122.05 40.8615 120.085C41.7944 117.486 43.2936 115.254 45.659 113.755C46.825 113.022 47.3581 112.155 47.5246 110.856C47.7245 109.124 48.3242 107.491 49.0572 105.892C50.0899 103.627 51.5892 101.694 53.8213 100.528C55.1206 99.862 55.7203 98.8958 56.0534 97.5299C56.5532 95.4643 57.486 93.632 58.7187 91.9329C59.7182 90.567 60.9175 89.4675 62.4167 88.7012C64.1158 87.8017 65.8482 87.5685 67.6139 88.1349C68.1803 87.7684 68.1803 87.1687 68.4135 86.7356C70.6124 82.4046 75.01 80.0392 79.8075 80.6722C80.074 80.7055 80.3405 80.7055 80.5737 80.8055C82.0063 81.3385 83.0391 80.8388 84.0386 79.7727C85.1047 78.6066 86.404 77.7404 87.8366 77.0408C90.7017 75.6082 93.5335 75.6748 96.332 77.174C96.7985 77.4073 97.2649 77.6738 97.6647 77.9736C98.2644 78.4067 98.7641 78.3068 99.3305 77.9403C100.93 76.8742 102.662 76.0413 104.561 75.6415C107.759 74.9752 110.591 75.7415 113.123 77.7071C113.523 78.0402 113.923 78.3734 114.256 78.7732C114.756 79.3729 115.355 79.5061 116.122 79.3729C118.187 79.073 120.286 79.0397 122.352 79.2396C124.417 79.4395 126.216 80.2058 127.682 81.705C128.482 82.5379 128.848 83.6373 129.381 84.5701C130.047 84.8699 130.581 84.4702 131.147 84.3036C132.413 83.8705 133.712 83.7705 135.011 83.7372C138.476 83.7039 141.242 85.0365 143.107 88.0682C143.807 89.201 143.873 89.201 145.139 88.9011C151.036 87.4019 155.134 91.1333 156.2 95.3644C156.433 96.2972 156.8 96.6637 157.733 96.7303C159.665 96.8303 161.531 97.1634 163.263 97.9297C163.696 97.6299 163.73 97.1634 163.83 96.7637C164.463 94.4316 165.928 92.7991 168.027 91.6997C169.027 91.1666 170.259 90.8668 170.959 90.0672C171.559 89.3676 171.525 88.1349 171.792 87.1354C172.791 83.6706 174.89 81.1719 178.255 79.7727C179.954 79.0731 181.653 78.4734 183.452 78.1402C184.119 78.0069 184.552 77.7071 184.752 77.0075C185.551 73.8092 187.983 72.4432 190.815 71.5437C191.315 71.3771 191.848 71.3438 192.348 71.2105C192.847 71.0773 193.281 70.9107 193.447 70.2777C194.98 65.1471 198.978 63.4813 203.842 63.1815C203.942 63.1815 204.008 63.1815 204.108 63.1815C205.208 63.4147 205.807 62.8817 206.407 61.9821C208.806 58.3174 212.37 56.7849 216.668 56.8848C217.834 56.9181 218.6 56.585 219.4 55.8187C222.598 52.6538 226.663 51.0879 230.927 50.1218C238.09 48.5559 245.286 48.5559 252.349 50.5882C262.377 53.4533 270.539 59.117 276.57 67.6791C277.369 68.8118 278.069 70.0445 278.435 71.3771C278.635 72.1434 279.035 72.4432 279.868 72.5765C284.332 73.2095 287.031 76.1746 287.364 80.5722C287.397 81.1053 287.397 81.605 287.431 82.1381C287.464 82.5046 287.63 82.8044 287.997 82.9377C288.663 83.1709 289.329 83.3708 289.962 83.6706C293.361 85.2364 295.859 87.6018 296.925 91.2999C297.225 92.3327 297.292 93.3654 297.259 94.3982C297.259 94.9646 297.359 95.3977 297.892 95.6975C300.823 97.3633 302.023 100.029 302.223 103.26C302.223 103.427 302.256 103.627 302.256 103.793C302.156 104.526 302.556 104.893 303.222 105.093C304.388 105.459 305.454 106.025 306.42 106.792C310.052 109.49 311.118 113.088 310.118 117.419C310.018 117.852 309.885 118.252 309.719 118.652C309.419 119.318 309.619 119.818 310.152 120.251C310.552 120.584 310.918 120.951 311.251 121.351C313.084 123.483 313.683 125.915 312.75 128.647C312.684 128.88 312.517 129.18 312.351 129.613ZM106.627 261.543C104.394 258.678 102.829 255.579 101.396 252.414C98.7641 246.617 96.7651 240.621 95.1993 234.457C94.533 231.825 94.0999 229.193 93.9 226.495C93.6335 222.364 94.2331 218.332 95.9322 214.534C97.7646 210.403 100.496 206.938 103.928 204.04C106.327 202.008 108.925 200.242 111.624 198.676C119.353 194.112 127.382 190.214 135.811 187.149C142.274 184.784 148.871 182.885 155.734 182.285C162.563 181.652 168.86 183.084 174.457 187.216C177.789 189.681 180.521 192.679 182.919 196.011C185.152 199.143 187.051 202.441 188.916 205.806C192.115 211.636 194.88 217.599 195.779 224.263C195.846 224.796 196.246 224.996 196.712 224.762C200.044 223.097 203.009 221.098 204.308 217.3C205.074 215.034 206.507 213.402 208.839 212.602C210.271 212.102 211.071 211.036 211.438 209.57C211.837 207.971 212.304 206.372 212.704 204.773C213.07 203.274 213.87 202.074 215.202 201.275C216.102 200.742 216.868 200.042 217.501 199.209C218.6 197.743 218.834 196.244 218.067 194.578C217.734 193.879 217.468 193.146 217.201 192.413C216.502 190.514 216.502 188.681 217.834 186.982C218.034 186.716 218.267 186.449 218.434 186.116C219.433 184.284 219.633 182.518 218.167 180.819C217.434 179.953 216.768 179.02 216.135 178.12C215.402 177.088 215.136 175.922 215.302 174.656C215.402 173.923 215.802 173.39 216.168 172.79C216.768 171.724 216.768 171.357 215.902 170.491C215.102 169.692 214.269 168.959 213.403 168.226C211.904 166.96 211.071 165.46 211.537 163.395C211.804 162.229 211.471 161.163 210.571 160.297C210.005 159.763 209.405 159.23 208.806 158.731C208.206 158.231 207.54 157.798 206.973 157.265C205.774 156.099 205.174 154.733 205.674 153C205.807 152.601 205.841 152.134 205.907 151.734C206.074 150.568 205.674 149.669 204.608 149.136C203.742 148.703 202.875 148.336 202.009 147.903C200.277 147.07 199.344 145.738 199.444 143.772C199.477 143.439 199.511 143.072 199.511 142.739C199.577 141.54 199.077 140.74 197.945 140.307C197.145 139.974 196.346 139.574 195.546 139.341C192.747 138.508 190.982 136.909 191.248 133.711C191.348 132.745 190.815 132.045 189.982 131.612C189.383 131.279 188.716 131.045 188.083 130.779C187.35 130.479 186.617 130.213 185.918 129.913C184.285 129.18 183.319 127.914 183.019 126.148C182.953 125.815 182.919 125.448 182.886 125.115C182.786 123.816 182.12 122.85 181.154 122.017C180.088 121.117 178.921 120.384 177.622 119.818C175.923 119.085 174.79 117.919 174.457 115.987C174.124 114.154 172.958 112.922 171.359 112.022C170.293 111.423 169.16 110.989 167.994 110.656C167.394 110.49 166.828 110.323 166.262 110.157C164.596 109.59 163.43 108.491 162.93 106.758C162.763 106.192 162.53 105.592 162.364 105.026C161.897 103.593 160.931 102.66 159.498 102.227C158.832 102.027 158.166 101.794 157.5 101.628C156.733 101.428 155.967 101.295 155.201 101.095C153.535 100.662 152.402 99.7621 152.136 97.963C152.069 97.4633 151.936 96.9302 151.769 96.4638C150.736 93.6653 148.971 92.5326 145.972 92.7658C145.206 92.8324 144.407 92.899 143.64 92.9324C142.408 92.999 141.441 92.4659 140.775 91.4665C140.542 91.1 140.342 90.7002 140.109 90.3337C139.009 88.568 137.41 87.7018 135.345 87.6352C133.845 87.6018 132.413 87.7018 130.947 88.0349C129.281 88.4014 127.682 88.2348 126.216 87.202C125.283 86.5357 124.317 85.9694 123.418 85.3031C121.752 84.1037 119.92 83.8039 117.987 84.4369C117.254 84.6701 116.521 85.0032 115.788 85.2698C113.689 86.0027 111.857 85.6362 110.358 83.9371C109.792 83.2708 109.192 82.6378 108.559 82.0714C107.226 80.8721 105.66 80.5722 103.928 81.0387C103.195 81.2385 102.462 81.5717 101.762 81.9049C101.129 82.2047 100.563 82.5712 99.9301 82.9043C98.5975 83.6373 97.2649 83.604 95.9989 82.7044C95.5658 82.4046 95.166 82.1048 94.7329 81.8049C92.534 80.2391 90.3352 80.3723 88.203 81.9049C87.4368 82.4712 86.7038 83.0709 86.0042 83.7372C84.405 85.1698 82.6393 85.8028 80.5071 85.0698C79.0745 84.5701 77.642 84.4702 76.1428 84.9366C74.1438 85.5696 72.6446 86.8023 71.3786 88.4347C70.9122 89.0677 70.5124 89.7007 70.6457 90.5669C70.8456 91.5331 70.146 91.9995 69.3464 92.2327C68.4135 92.4992 67.4807 92.6992 66.5812 92.9324C63.6827 93.6653 61.9836 95.5976 61.1507 98.3628C60.9175 99.0957 60.7176 99.862 60.5177 100.628C60.018 102.527 58.9186 103.893 57.1529 104.693C56.8197 104.826 56.5199 104.993 56.22 105.126C54.8208 105.759 53.8546 106.858 53.155 108.224C52.4887 109.557 52.0223 110.956 51.8557 112.422C51.5892 114.654 50.5231 116.287 48.4908 117.353C45.0593 119.185 43.6933 122.317 43.7267 126.015C43.76 128.28 43.2935 129.913 41.4279 131.445C38.9958 133.411 38.5294 137.076 39.962 140.007C40.2951 140.674 40.1619 141.173 39.8287 141.706C38.8626 143.239 37.8964 144.805 36.897 146.337C35.8309 147.97 35.4977 149.702 36.0974 151.568C36.3306 152.301 36.5638 153.067 36.8636 153.767C37.6632 155.699 37.43 157.498 36.2306 159.197C35.8309 159.763 35.4311 160.33 35.0646 160.93C33.8319 162.895 33.5321 164.961 34.4649 167.126C34.6648 167.593 34.8314 168.092 35.0313 168.592C35.7642 170.325 35.6643 171.957 34.6648 173.556C34.0651 174.522 33.5987 175.555 32.999 176.521C32.0329 178.154 32.0662 179.853 32.7658 181.519C33.1323 182.385 33.632 183.218 33.9985 184.117C34.7315 185.816 34.7314 187.482 33.9319 189.148C33.5321 189.914 33.1656 190.714 32.7325 191.447C31.1 194.378 31.2666 197.277 32.9657 200.109C33.3988 200.842 33.8319 201.608 34.265 202.374C35.0979 203.873 35.0313 205.373 34.0984 206.805C33.6653 207.471 33.2322 208.104 32.7991 208.737C31.733 210.237 31.6997 211.803 32.5326 213.402C32.9657 214.235 33.4654 215.067 33.9652 215.867C35.0646 217.566 35.2312 219.199 34.0984 220.964C32.6992 223.13 32.7991 225.362 33.9319 227.661C34.8314 229.46 35.8309 231.192 36.9969 232.791C37.53 233.524 37.7965 234.291 37.7632 235.19C37.6965 236.689 37.9964 238.122 38.1296 239.588C38.3628 241.953 39.5622 243.419 41.761 244.185C42.9271 244.585 44.0598 245.018 45.2259 245.351C47.6246 246.018 49.1571 247.45 49.4903 250.016C49.6235 250.948 49.9234 251.881 50.1899 252.781C50.6563 254.313 51.7224 255.246 53.2549 255.679C54.7874 256.112 56.32 256.212 57.8858 256.212C59.3517 256.212 60.8176 256.212 62.2834 256.545C63.9825 256.912 65.3485 257.745 66.3813 259.111C66.8144 259.677 67.1809 260.243 67.6473 260.776C68.9799 262.376 70.6457 263.109 72.7446 262.676C73.9439 262.442 75.11 262.176 76.3094 261.976C77.8086 261.709 79.2078 261.876 80.4405 263.009C82.3728 264.841 84.6383 264.941 87.0037 263.975C88.1364 263.508 89.2358 262.975 90.3019 262.442C91.7678 261.743 93.0338 261.743 94.433 262.809C96.9983 264.774 99.8635 264.908 102.795 263.675C104.161 263.142 105.327 262.576 106.627 261.543ZM212.17 216.367C212.77 216.933 213.07 217.2 213.37 217.499C214.869 218.999 216.668 219.698 218.767 219.698C219.633 219.698 220.499 219.765 221.366 219.865C222.865 220.031 224.231 220.498 225.33 221.631C226.463 222.83 227.962 223.23 229.561 223.33C231.594 223.43 233.559 223.097 235.392 222.264C237.224 221.431 239.023 221.364 240.955 222.097C243.221 222.93 245.519 223.03 247.885 222.364C249.484 221.93 251.083 221.531 252.649 221.064C254.115 220.631 255.381 220.931 256.547 221.897C257.147 222.397 257.78 222.83 258.413 223.33C259.012 223.829 259.579 223.929 260.278 223.396C261.744 222.297 263.41 221.531 265.076 220.798C267.208 219.832 269.34 219.532 271.639 220.331C274.471 221.297 277.303 221.098 280.034 219.865C280.501 219.665 281.001 219.465 281.467 219.265C283.766 218.199 286.131 218.099 288.563 218.799C291.395 219.632 293.494 218.699 294.86 216.134C295.093 215.667 295.326 215.201 295.493 214.701C296.193 212.935 297.492 211.902 299.291 211.469C300.224 211.236 301.123 210.97 302.056 210.736C303.289 210.47 304.022 209.704 304.421 208.538C304.755 207.538 305.054 206.539 305.421 205.572C306.32 203.24 307.686 201.508 310.452 201.275C311.917 201.142 312.717 200.142 312.984 198.709C313.117 197.91 313.117 197.144 312.917 196.377C312.75 195.711 312.551 195.045 312.384 194.378C311.918 192.413 312.151 190.78 314.15 189.714C315.582 188.981 316.249 187.649 316.415 186.116C316.515 185.15 316.482 184.217 316.182 183.284C315.849 182.318 315.482 181.319 315.116 180.353C314.449 178.687 314.549 177.121 315.549 175.622C315.949 175.055 316.282 174.456 316.682 173.856C317.215 173.023 317.181 172.224 316.648 171.424C316.448 171.124 316.249 170.858 316.049 170.558C315.182 169.292 315.082 167.992 315.982 166.66C316.182 166.36 316.415 166.093 316.548 165.794C318.814 160.93 318.347 158.531 315.549 155.532C313.483 153.334 313.55 153.167 314.883 150.568C314.916 150.502 314.949 150.402 315.016 150.335C315.482 149.502 315.449 148.669 314.949 147.87C314.616 147.37 314.216 146.904 313.816 146.471C311.518 143.972 311.484 143.772 313.483 140.973C314.883 139.008 314.883 137.142 313.35 135.243C312.051 133.611 310.685 132.045 308.419 131.612C307.886 131.512 307.553 131.045 307.553 130.446C307.586 129.146 307.586 127.847 307.72 126.548C307.853 125.282 307.387 124.349 306.487 123.549C306.087 123.216 305.721 122.85 305.288 122.583C303.555 121.517 303.189 119.951 303.622 118.052C303.822 117.219 303.922 116.353 304.055 115.487C304.455 112.922 303.222 111.156 301.257 109.757C300.69 109.357 300.057 109.09 299.457 108.691C298.258 107.891 297.725 106.792 297.925 105.359C297.958 105.026 298.092 104.693 298.092 104.326C298.325 101.461 297.359 100.029 294.66 98.9958C294.593 98.9625 294.493 98.9625 294.393 98.9292C293.161 98.3961 292.461 97.4966 292.494 96.0973C292.528 95.5643 292.561 95.0645 292.594 94.5315C292.761 91.7663 291.562 89.6674 289.329 88.1016C288.33 87.402 287.197 86.9355 286.065 86.5024C284.465 85.8361 283.599 84.67 283.533 82.9043C283.466 81.8715 283.399 80.8055 283.166 79.806C282.766 77.8404 281.4 76.8076 279.435 76.0746C279.368 78.6399 279.435 80.972 279.235 83.3041C278.802 88.2682 277.769 93.0989 276.703 97.9297C275.737 102.327 274.737 106.758 273.238 111.023C271.872 114.887 270.006 118.519 267.341 121.684C264.243 125.348 260.312 127.247 255.514 127.281C252.449 127.314 249.484 126.848 246.486 126.215C236.391 124.116 226.796 120.684 217.401 116.486C213.803 114.887 210.605 112.655 207.806 109.857C203.408 105.392 201.709 100.029 202.409 93.8985C202.875 89.734 203.908 85.7029 205.407 81.8049C207.573 76.2079 209.972 70.7108 212.87 65.447C213.736 63.8811 214.536 62.2486 215.369 60.5828C213.237 60.7161 212.004 61.1826 210.538 62.4486C209.672 63.1815 208.872 64.0144 208.372 65.0138C207.773 66.2465 206.773 66.7796 205.474 66.9128C204.941 66.9795 204.441 67.0794 203.942 67.1794C200.877 67.9123 198.145 69.1117 197.178 72.5432C196.812 73.8425 195.779 74.4755 194.58 74.8753C193.347 75.3084 192.115 75.7415 190.915 76.2412C189.816 76.7076 189.116 77.5072 189.049 78.8065C188.983 80.7055 187.883 81.7716 186.151 82.3713C184.918 82.8044 183.752 83.3708 182.52 83.8039C179.521 84.8367 177.889 87.0022 177.189 90.0006C177.156 90.1671 177.122 90.3337 177.089 90.5003C176.723 93.0323 175.157 94.4649 172.825 95.2645C171.925 95.5643 171.059 95.9641 170.193 96.3638C168.527 97.1967 167.794 98.8292 166.861 100.295C166.195 101.361 167.428 102.194 167.494 103.227C167.528 103.493 167.694 103.727 167.694 103.96C167.794 104.793 168.26 105.159 169.093 105.159C170.859 105.159 172.558 105.626 174.091 106.425C177.122 107.991 179.121 110.356 179.388 113.921C179.421 114.254 179.488 114.588 179.554 114.987C179.888 115.121 180.187 115.287 180.521 115.387C180.92 115.52 181.387 115.587 181.787 115.72C185.351 117.053 187.883 119.352 188.583 123.283C188.616 123.549 188.65 123.816 188.683 124.049C188.75 124.416 188.983 124.682 189.349 124.782C189.849 124.915 190.382 124.982 190.882 125.149C194.38 126.448 196.979 128.48 196.979 132.645C196.979 133.311 197.345 133.577 197.878 133.711C199.144 133.977 200.41 134.344 201.576 134.943C203.542 135.976 205.074 137.542 205.208 139.741C205.341 141.773 206.04 142.939 207.939 143.539C208.339 143.672 208.672 144.005 209.006 144.272C210.971 145.738 211.937 147.67 211.737 150.135C211.671 151.001 211.438 151.834 211.304 152.701C211.204 153.167 211.304 153.533 211.771 153.8C212.004 153.933 212.204 154.067 212.437 154.233C215.535 156.332 217.468 159.031 216.801 162.995C216.701 163.561 216.935 163.961 217.434 164.294C218.567 164.961 219.6 165.76 220.499 166.693C222.332 168.659 222.798 170.924 221.932 173.456C221.765 173.923 221.532 174.389 221.332 174.889C221.599 175.189 221.799 175.455 222.032 175.722C222.332 176.055 222.632 176.355 222.931 176.688C225.697 179.853 226.163 183.318 224.331 187.082C223.898 187.949 223.165 188.715 223.031 189.614C222.865 190.647 223.898 191.447 224.231 192.413C225.53 196.111 225.097 199.442 222.132 202.208C221.432 202.874 220.733 203.507 219.933 204.04C218.667 204.873 218.101 205.872 218.001 207.438C217.601 211.236 216.202 214.501 212.17 216.367ZM99.9301 227.261C99.6303 229.793 100.596 232.625 101.396 235.457C102.995 241.154 105.194 246.617 107.993 251.848C108.792 253.38 109.792 254.813 110.791 256.212C111.524 257.278 112.49 257.878 113.889 257.745C115.022 257.645 116.155 257.845 117.288 257.645C120.453 257.112 123.584 256.512 126.716 255.846C131.88 254.713 136.944 253.181 141.941 251.481C148.438 249.283 154.934 247.184 161.331 244.685C164.463 243.452 167.561 242.086 170.693 240.754C175.823 238.555 180.587 235.723 185.018 232.392C186.251 231.459 187.317 230.293 188.117 228.927C189.049 227.361 189.416 225.862 188.95 223.996C188.05 220.531 186.884 217.2 185.385 213.968C183.219 209.404 180.687 205.073 177.822 200.908C175.257 197.144 172.192 193.912 168.26 191.48C166.128 190.181 163.829 189.548 161.397 189.348C156.333 188.948 151.369 189.681 146.505 191.147C139.776 193.179 133.212 195.744 126.916 198.843C124.584 200.009 122.318 201.275 120.019 202.541C118.187 203.54 116.421 204.606 114.622 205.706C112.324 207.105 110.258 208.837 108.159 210.503C102.762 214.634 99.8968 219.965 99.9301 227.261ZM240.156 55.1857C238.69 55.1857 237.724 55.219 236.791 55.1857C234.492 55.0525 232.326 55.7188 230.194 56.4184C229.295 56.7182 228.395 57.0514 227.529 57.4845C224.93 58.8838 222.465 60.4163 220.766 63.0149C218.367 66.6796 216.735 70.7108 215.302 74.7753C213.07 81.072 211.071 87.402 209.872 93.9984C209.039 98.4961 209.838 102.427 213.237 105.659C214.103 106.492 214.936 107.391 215.835 108.224C216.335 108.691 216.868 109.157 217.468 109.524C222.465 112.689 227.962 114.854 233.459 117.02C237.757 118.685 242.255 119.552 246.719 120.651C249.817 121.417 252.882 121.617 255.981 121.484C257.58 121.417 259.112 121.017 260.345 119.985C261.644 118.852 262.877 117.653 263.91 116.22C266.575 112.455 267.808 108.091 268.94 103.727C269.973 99.7953 270.806 95.7975 271.539 91.8329C272.139 88.7013 272.905 85.5696 272.772 82.338C272.738 82.0048 272.772 81.6384 272.872 81.3052C273.338 79.9393 273.338 78.6066 272.872 77.2074C272.705 76.7409 272.705 76.1746 272.772 75.6415C272.872 74.0757 272.305 72.7098 271.439 71.5104C269.174 68.4454 266.542 65.6802 263.51 63.2814C261.578 61.7489 259.479 60.5828 257.346 59.4168C254.981 58.1175 252.549 56.9848 249.95 56.3185C246.552 55.4189 243.121 54.9858 240.156 55.1857Z" fill="#13110C"/>
<path fill-rule="evenodd" clip-rule="evenodd" d="M106.627 261.543C105.327 262.576 104.161 263.175 102.962 263.675C100.03 264.908 97.1649 264.774 94.5996 262.809C93.2337 261.743 91.9344 261.743 90.4685 262.442C89.3691 262.975 88.2697 263.508 87.1703 263.975C84.8049 264.941 82.5394 264.841 80.6071 263.009C79.4077 261.876 78.0085 261.709 76.476 261.976C75.2766 262.176 74.0772 262.442 72.9112 262.676C70.8123 263.109 69.1465 262.376 67.8139 260.777C67.3808 260.243 66.981 259.677 66.5479 259.111C65.5151 257.745 64.1491 256.912 62.45 256.545C60.9842 256.212 59.5183 256.212 58.0524 256.212C56.4866 256.212 54.9207 256.146 53.4215 255.679C51.889 255.213 50.8229 254.313 50.3565 252.781C50.09 251.881 49.7568 250.948 49.6569 250.016C49.2904 247.45 47.7912 246.018 45.3925 245.351C44.2264 245.018 43.0937 244.585 41.9276 244.185C39.7288 243.452 38.5294 241.953 38.2962 239.588C38.1629 238.122 37.8631 236.656 37.9297 235.19C37.9631 234.291 37.6966 233.524 37.1635 232.791C35.9975 231.159 34.998 229.46 34.0984 227.661C32.9657 225.395 32.8658 223.13 34.265 220.964C35.3978 219.199 35.2312 217.533 34.1318 215.867C33.5987 215.067 33.1323 214.235 32.6992 213.402C31.8663 211.803 31.8996 210.237 32.9657 208.738C33.4321 208.104 33.8652 207.438 34.265 206.805C35.1979 205.373 35.2645 203.873 34.4316 202.374C33.9985 201.608 33.5987 200.842 33.1323 200.109C31.3999 197.277 31.2666 194.378 32.8991 191.447C33.3322 190.68 33.6987 189.914 34.0984 189.148C34.9313 187.482 34.9314 185.783 34.1651 184.117C33.7653 183.251 33.2989 182.418 32.9324 181.519C32.2328 179.82 32.1995 178.154 33.1656 176.521C33.732 175.555 34.2317 174.522 34.8314 173.556C35.7976 171.957 35.9308 170.291 35.1979 168.592C34.998 168.126 34.8314 167.626 34.6315 167.126C33.6987 164.927 33.9985 162.895 35.2312 160.93C35.5977 160.33 35.9974 159.763 36.3972 159.197C37.5633 157.498 37.8298 155.699 37.0302 153.767C36.7304 153.034 36.4972 152.301 36.264 151.568C35.6643 149.702 35.9974 147.97 37.0635 146.337C38.063 144.805 39.0292 143.272 39.9953 141.706C40.3285 141.173 40.4617 140.674 40.1286 140.007C38.696 137.109 39.1624 133.411 41.5945 131.445C43.4601 129.946 43.8933 128.28 43.8933 126.015C43.8599 122.317 45.2259 119.185 48.6574 117.353C50.6897 116.253 51.7558 114.654 52.0223 112.422C52.1889 110.923 52.6553 109.524 53.3216 108.224C53.9879 106.858 54.954 105.759 56.3866 105.126C56.6865 104.993 57.0196 104.826 57.3195 104.693C59.1185 103.893 60.2179 102.527 60.6843 100.628C60.8842 99.862 61.1175 99.1291 61.3173 98.3628C62.1502 95.5643 63.8493 93.632 66.7478 92.9324C67.6806 92.6992 68.6135 92.4992 69.513 92.2327C70.3126 91.9995 70.9789 91.5664 70.8123 90.5669C70.6457 89.7007 71.0455 89.0344 71.5452 88.4348C72.7779 86.8023 74.3104 85.5696 76.3094 84.9366C77.7753 84.4702 79.2411 84.5701 80.6737 85.0698C82.8059 85.8028 84.5717 85.2031 86.1708 83.7372C86.8704 83.1042 87.6034 82.4712 88.3696 81.9049C90.5018 80.3723 92.7006 80.2391 94.8995 81.8049C95.3326 82.1048 95.7324 82.4046 96.1655 82.7044C97.4315 83.604 98.7308 83.6373 100.097 82.9043C100.696 82.5712 101.296 82.1714 101.929 81.9049C102.629 81.5717 103.362 81.2386 104.095 81.0387C105.794 80.5722 107.393 80.8721 108.725 82.0714C109.358 82.6378 109.958 83.3042 110.525 83.9371C112.024 85.6696 113.856 86.0027 115.955 85.2698C116.688 85.0032 117.388 84.6701 118.154 84.4369C120.086 83.8039 121.918 84.1037 123.584 85.3031C124.484 85.9694 125.483 86.5357 126.383 87.2021C127.849 88.2348 129.448 88.4014 131.114 88.0349C132.579 87.7018 134.045 87.6019 135.511 87.6352C137.577 87.7018 139.176 88.568 140.275 90.3337C140.509 90.7002 140.708 91.1 140.942 91.4665C141.641 92.4659 142.574 92.999 143.807 92.9324C144.573 92.8991 145.373 92.8324 146.139 92.7658C149.137 92.5326 150.903 93.6653 151.936 96.4638C152.102 96.9636 152.236 97.4633 152.302 97.963C152.569 99.7621 153.735 100.662 155.367 101.095C156.134 101.295 156.9 101.428 157.666 101.628C158.332 101.794 158.999 102.028 159.665 102.227C161.098 102.661 162.064 103.593 162.53 105.026C162.73 105.592 162.93 106.159 163.097 106.758C163.596 108.491 164.762 109.557 166.428 110.157C166.995 110.356 167.594 110.523 168.161 110.656C169.327 110.989 170.459 111.423 171.525 112.022C173.125 112.922 174.291 114.154 174.624 115.987C174.957 117.886 176.09 119.085 177.789 119.818C179.088 120.351 180.254 121.084 181.32 122.017C182.286 122.85 182.953 123.816 183.053 125.115C183.086 125.448 183.119 125.815 183.186 126.148C183.486 127.914 184.419 129.18 186.084 129.913C186.784 130.213 187.55 130.479 188.25 130.779C188.883 131.045 189.549 131.279 190.149 131.612C190.982 132.045 191.482 132.745 191.415 133.711C191.115 136.909 192.914 138.508 195.713 139.341C196.545 139.574 197.312 140.007 198.111 140.307C199.211 140.74 199.744 141.54 199.677 142.739C199.644 143.072 199.611 143.439 199.611 143.772C199.511 145.738 200.443 147.07 202.176 147.903C203.042 148.303 203.908 148.703 204.774 149.136C205.841 149.669 206.207 150.568 206.074 151.734C206.007 152.168 205.974 152.601 205.841 153C205.341 154.7 205.94 156.099 207.14 157.265C207.706 157.798 208.373 158.231 208.972 158.731C209.572 159.23 210.172 159.764 210.738 160.297C211.604 161.129 211.971 162.229 211.704 163.395C211.238 165.427 212.071 166.926 213.57 168.226C214.436 168.959 215.269 169.692 216.068 170.491C216.935 171.357 216.935 171.724 216.335 172.79C215.968 173.39 215.569 173.956 215.469 174.656C215.302 175.922 215.569 177.088 216.302 178.12C216.968 179.053 217.601 179.986 218.334 180.819C219.8 182.551 219.6 184.317 218.6 186.116C218.434 186.416 218.201 186.683 218.001 186.982C216.668 188.648 216.668 190.514 217.368 192.413C217.634 193.146 217.934 193.879 218.234 194.578C219 196.244 218.734 197.777 217.668 199.209C217.035 200.075 216.268 200.742 215.369 201.275C214.036 202.074 213.237 203.274 212.87 204.773C212.47 206.372 211.971 207.938 211.604 209.57C211.238 211.036 210.438 212.102 209.006 212.602C206.673 213.402 205.241 215.034 204.475 217.3C203.209 221.064 200.21 223.097 196.879 224.762C196.412 224.996 196.012 224.796 195.946 224.263C195.046 217.599 192.281 211.603 189.083 205.806C187.25 202.441 185.318 199.143 183.086 196.011C180.687 192.679 177.955 189.648 174.624 187.216C169.027 183.084 162.763 181.652 155.9 182.285C149.004 182.918 142.441 184.817 135.978 187.149C127.549 190.214 119.52 194.112 111.791 198.676C109.092 200.275 106.493 202.041 104.095 204.04C100.663 206.938 97.9312 210.403 96.0988 214.534C94.3997 218.332 93.8001 222.364 94.0666 226.495C94.2332 229.193 94.6663 231.825 95.3659 234.457C96.9651 240.621 98.964 246.617 101.563 252.414C102.829 255.579 104.394 258.678 106.627 261.543ZM130.147 136.942C130.147 142.539 134.512 147.07 139.876 147.037C145.239 147.004 149.271 142.673 149.304 137.609C149.337 132.645 145.606 127.281 139.409 127.381C133.146 127.514 129.781 132.778 130.147 136.942ZM81.9397 152.068C77.3421 151.934 72.5114 155.566 72.4114 161.396C72.3115 166.593 76.5426 170.891 81.7731 170.924C87.0037 170.958 91.2348 166.76 91.3014 161.563C91.368 156.332 87.0703 152.034 81.9397 152.068ZM151.603 153.467C151.569 155.133 151.736 156.798 152.969 158.031C154.668 159.73 156.7 160.53 159.099 159.963C160.698 159.597 162.264 159.131 163.796 158.564C165.162 158.064 166.461 157.331 167.261 155.999C168.56 153.7 168.56 151.401 167.261 149.136C166.162 147.204 163.163 145.671 161.064 146.171C159.132 146.604 157.166 147.104 155.401 147.903C153.035 148.869 151.403 150.602 151.603 153.467ZM82.2062 185.916C82.3728 184.517 82.1396 183.118 81.1068 181.918C79.6742 180.253 77.7753 179.453 75.6431 179.653C74.1105 179.786 72.6447 180.386 71.1455 180.786C69.1465 181.285 67.7806 182.685 67.0143 184.417C66.1814 186.283 66.1481 188.315 67.2808 190.147C68.9133 192.813 72.1449 193.945 75.1433 193.012C75.8763 192.779 76.6425 192.646 77.4088 192.413C80.174 191.647 82.6727 189.314 82.2062 185.916ZM205.374 177.554C205.474 175.422 204.808 173.523 203.075 172.323C198.311 169.092 192.947 172.024 191.915 177.121C191.015 181.519 195.213 185.916 200.51 184.384C203.608 183.518 205.407 180.886 205.374 177.554ZM114.356 161.729C115.822 161.796 117.121 161.396 118.287 160.563C120.886 158.764 122.152 156.199 122.385 153.1C122.485 151.968 122.052 150.902 121.619 149.835C121.385 149.269 120.553 148.936 120.086 149.169C119.586 149.402 119.253 149.835 119.32 150.402C119.386 151.002 119.553 151.601 119.62 152.201C119.853 154.2 119.287 155.966 117.921 157.465C116.854 158.597 115.589 159.197 113.989 159.097C111.691 158.931 109.892 157.964 108.492 156.132C107.759 155.166 106.893 154.966 106.327 155.499C105.827 155.966 105.827 156.798 106.393 157.631C108.326 160.43 111.058 161.663 114.356 161.729ZM54.1211 221.664C54.421 221.664 54.8874 221.731 55.2872 221.664C56.5865 221.431 57.6193 220.798 57.9524 219.498C58.5854 217 58.2856 215.534 55.8536 214.335C53.788 213.302 51.6558 213.935 50.1899 215.967C49.0239 217.566 49.4236 219.865 51.0561 220.998C51.9223 221.531 52.9218 221.831 54.1211 221.664ZM201.543 200.275C203.508 200.242 206.207 197.743 206.407 195.811C206.44 195.644 206.44 195.445 206.407 195.278C205.907 192.713 203.442 191.447 201.609 192.08C200.71 192.38 199.844 192.846 199.077 193.379C197.745 194.345 197.278 196.111 197.811 197.543C198.378 199.209 199.91 200.309 201.543 200.275ZM48.7906 228.527C48.7573 230.226 49.1571 231.559 50.723 232.292C53.4548 233.558 57.0862 231.292 57.1195 228.26C57.1195 227.827 57.0529 227.394 56.8864 226.994C56.22 225.162 54.3543 224.029 52.6219 224.329C50.7229 224.696 48.8239 226.828 48.7906 228.527ZM74.6769 112.089C75.3765 112.056 75.9096 112.122 76.376 111.789C77.4088 110.989 78.3749 110.123 78.8747 108.857C79.0746 108.357 79.1412 107.858 79.0079 107.325C78.6082 105.726 77.1423 104.493 75.5098 104.26C73.6441 103.96 72.578 105.093 71.6118 106.359C70.046 108.391 70.9455 110.157 72.4447 111.323C73.111 111.856 73.944 112.189 74.6769 112.089ZM81.973 120.451C84.3385 120.618 85.9043 119.019 85.9376 116.42C85.9376 114.588 84.505 112.855 82.0397 112.755C79.9408 112.689 78.0418 113.955 78.0418 116.853C78.0418 118.819 79.8408 120.451 81.973 120.451ZM188.683 163.728C188.616 160.963 186.917 159.897 184.552 159.664C182.686 159.464 180.854 161.529 180.854 163.528C180.854 165.727 182.72 167.459 185.085 167.426C186.951 167.393 188.683 165.594 188.683 163.728ZM82.6394 102.161C83.8054 102.394 84.6383 101.661 85.4045 100.828C86.5373 99.5955 86.6705 98.596 85.9376 97.0968C85.5045 96.2306 84.8382 95.5643 84.0386 95.0312C82.2395 93.8652 79.4077 94.8313 78.7081 96.8636C77.7086 99.7287 80.2406 102.561 82.6394 102.161Z" fill="white"/>
<path fill-rule="evenodd" clip-rule="evenodd" d="M212.17 216.367C216.202 214.534 217.568 211.236 217.901 207.438C218.034 205.872 218.6 204.873 219.833 204.04C220.633 203.507 221.332 202.874 222.032 202.208C224.997 199.442 225.43 196.111 224.131 192.413C223.798 191.447 222.765 190.614 222.931 189.614C223.065 188.715 223.831 187.949 224.231 187.082C226.063 183.318 225.597 179.853 222.831 176.688C222.532 176.355 222.232 176.055 221.932 175.722C221.699 175.455 221.499 175.189 221.232 174.889C221.432 174.389 221.665 173.923 221.832 173.456C222.732 170.924 222.232 168.659 220.399 166.693C219.5 165.727 218.467 164.961 217.334 164.294C216.801 163.995 216.601 163.561 216.701 162.995C217.368 159.031 215.435 156.332 212.337 154.233C212.137 154.1 211.904 153.933 211.671 153.8C211.204 153.567 211.138 153.167 211.204 152.701C211.371 151.834 211.571 151.001 211.637 150.135C211.837 147.67 210.871 145.738 208.906 144.272C208.572 144.005 208.239 143.672 207.839 143.539C205.974 142.939 205.241 141.773 205.108 139.741C204.974 137.575 203.475 135.976 201.476 134.943C200.31 134.344 199.077 133.977 197.778 133.711C197.245 133.577 196.845 133.311 196.879 132.645C196.879 128.48 194.313 126.448 190.782 125.149C190.282 124.982 189.749 124.915 189.249 124.782C188.883 124.682 188.65 124.416 188.583 124.049C188.55 123.783 188.516 123.516 188.483 123.283C187.783 119.352 185.251 117.053 181.687 115.72C181.287 115.554 180.854 115.52 180.421 115.387C180.088 115.287 179.788 115.121 179.455 114.987C179.388 114.621 179.321 114.288 179.288 113.921C179.055 110.356 177.056 107.991 173.991 106.425C172.425 105.626 170.759 105.159 168.993 105.159C168.161 105.159 167.694 104.793 167.594 103.96C167.561 103.693 167.394 103.46 167.394 103.227C167.328 102.194 166.095 101.361 166.761 100.295C167.661 98.8292 168.427 97.1967 170.093 96.3638C170.959 95.9307 171.825 95.5643 172.725 95.2644C175.057 94.4649 176.623 93.0323 176.989 90.5003C177.022 90.3337 177.056 90.1671 177.089 90.0005C177.789 87.0021 179.421 84.8366 182.42 83.8038C183.652 83.3707 184.818 82.8044 186.051 82.3713C187.783 81.7716 188.916 80.6722 188.949 78.8065C188.983 77.4739 189.682 76.7076 190.815 76.2412C192.015 75.7414 193.247 75.3083 194.48 74.8752C195.679 74.4421 196.712 73.8091 197.078 72.5431C198.045 69.1116 200.777 67.9456 203.842 67.1793C204.341 67.0461 204.874 66.9461 205.374 66.9128C206.673 66.7462 207.64 66.2465 208.273 65.0138C208.772 63.981 209.605 63.1815 210.438 62.4485C211.904 61.1825 213.103 60.7161 215.269 60.5828C214.403 62.2486 213.636 63.8811 212.77 65.4469C209.872 70.7108 207.506 76.2079 205.307 81.8049C203.775 85.7028 202.775 89.7673 202.309 93.8985C201.609 100.029 203.275 105.392 207.706 109.857C210.505 112.655 213.67 114.887 217.301 116.486C226.663 120.684 236.291 124.116 246.386 126.215C249.384 126.848 252.349 127.314 255.414 127.281C260.245 127.214 264.176 125.348 267.241 121.684C269.906 118.519 271.772 114.887 273.138 111.023C274.637 106.758 275.637 102.327 276.603 97.9297C277.669 93.0989 278.702 88.2348 279.135 83.3041C279.335 80.972 279.301 78.6399 279.335 76.0746C281.3 76.8075 282.666 77.8403 283.066 79.806C283.266 80.8054 283.366 81.8715 283.433 82.9043C283.533 84.67 284.365 85.8361 285.965 86.5024C287.097 86.9688 288.23 87.4019 289.23 88.1016C291.462 89.6674 292.628 91.7663 292.494 94.5315C292.461 95.0645 292.428 95.5643 292.395 96.0973C292.361 97.4966 293.027 98.3961 294.293 98.9291C294.36 98.9625 294.46 98.9624 294.56 98.9958C297.292 100.029 298.225 101.461 297.992 104.326C297.958 104.659 297.858 104.993 297.825 105.359C297.625 106.792 298.158 107.924 299.357 108.691C299.924 109.057 300.59 109.357 301.156 109.757C303.122 111.156 304.355 112.922 303.955 115.487C303.822 116.353 303.722 117.219 303.522 118.052C303.089 119.951 303.455 121.484 305.188 122.583C305.621 122.85 306.021 123.216 306.387 123.549C307.287 124.349 307.72 125.282 307.62 126.548C307.486 127.847 307.486 129.146 307.453 130.446C307.42 131.045 307.786 131.512 308.319 131.612C310.551 132.012 311.917 133.611 313.25 135.243C314.783 137.142 314.749 139.041 313.383 140.973C311.384 143.739 311.418 143.972 313.717 146.471C314.116 146.904 314.549 147.37 314.849 147.87C315.349 148.669 315.382 149.502 314.916 150.335C314.883 150.402 314.849 150.502 314.783 150.568C313.45 153.2 313.383 153.334 315.449 155.532C318.247 158.531 318.714 160.93 316.448 165.794C316.315 166.093 316.082 166.393 315.882 166.66C314.982 167.959 315.082 169.258 315.949 170.558C316.149 170.858 316.348 171.124 316.548 171.424C317.115 172.224 317.148 173.023 316.582 173.856C316.182 174.422 315.849 175.022 315.449 175.622C314.449 177.121 314.383 178.687 315.016 180.353C315.416 181.319 315.749 182.318 316.082 183.284C316.415 184.217 316.448 185.15 316.315 186.116C316.115 187.682 315.449 188.981 314.05 189.714C312.051 190.78 311.784 192.413 312.284 194.378C312.451 195.045 312.65 195.711 312.817 196.377C313.017 197.144 313.017 197.91 312.884 198.709C312.617 200.142 311.818 201.175 310.352 201.275C307.586 201.508 306.22 203.24 305.321 205.572C304.954 206.539 304.655 207.538 304.321 208.538C303.922 209.704 303.189 210.47 301.956 210.736C301.023 210.936 300.124 211.236 299.191 211.469C297.392 211.902 296.059 212.935 295.393 214.701C295.193 215.201 294.993 215.667 294.76 216.134C293.361 218.666 291.295 219.598 288.463 218.799C285.998 218.099 283.666 218.199 281.367 219.265C280.901 219.465 280.401 219.665 279.934 219.865C277.203 221.098 274.371 221.297 271.539 220.331C269.24 219.532 267.075 219.832 264.976 220.798C263.31 221.531 261.644 222.297 260.178 223.396C259.479 223.929 258.946 223.829 258.313 223.33C257.713 222.83 257.047 222.397 256.447 221.897C255.281 220.931 254.015 220.631 252.549 221.064C250.983 221.531 249.351 221.897 247.785 222.364C245.453 223.03 243.121 222.93 240.855 222.097C238.956 221.397 237.124 221.464 235.292 222.264C233.426 223.096 231.494 223.43 229.461 223.33C227.862 223.23 226.363 222.83 225.23 221.631C224.164 220.498 222.765 220.031 221.266 219.865C220.399 219.765 219.533 219.698 218.667 219.698C216.568 219.732 214.769 218.999 213.27 217.499C213.103 217.2 212.77 216.9 212.17 216.367ZM297.792 129.979C297.725 129.28 297.758 128.713 297.625 128.247C296.559 124.282 292.328 122.117 288.963 123.616C287.797 124.149 286.498 124.516 285.665 125.582C283.666 128.114 283.233 132.578 286.531 135.077C288.996 136.942 291.595 137.109 294.293 135.71C296.692 134.477 297.658 132.378 297.792 129.979ZM244.72 138.208C246.586 138.042 248.484 137.875 250.35 137.742C253.815 137.509 257.28 137.309 260.745 137.109C261.444 137.076 262.144 137.009 262.744 136.609C263.143 136.343 263.31 135.943 263.21 135.476C263.11 135.01 262.844 134.644 262.377 134.61C261.678 134.544 260.978 134.51 260.312 134.544C254.748 134.91 249.217 135.276 243.687 135.643C242.987 135.676 242.288 135.843 241.655 136.043C240.555 136.409 240.189 137.642 240.889 138.575C241.422 139.241 242.055 139.874 242.721 140.374C247.252 143.772 251.849 147.004 256.68 149.969C256.98 150.135 257.28 150.335 257.58 150.502C258.213 150.802 258.779 150.668 259.212 150.135C259.579 149.669 259.512 148.936 258.979 148.536C258.446 148.103 257.846 147.77 257.247 147.37C252.915 144.671 248.718 141.706 244.72 138.208ZM212.604 128.847C212.47 128.913 212.337 129.08 212.204 129.08C210.571 128.913 208.939 128.713 207.306 128.513C205.241 128.247 203.175 127.98 201.11 127.747C200.61 127.681 200.077 127.714 199.577 127.847C199.144 127.947 198.811 128.314 198.844 128.813C198.878 129.146 199.011 129.513 199.211 129.746C199.644 130.179 200.277 130.279 200.876 130.346C205.008 130.845 209.139 131.379 213.303 131.845C214.236 131.945 215.235 131.945 216.168 131.778C217.501 131.545 218.001 129.979 217.101 128.947C216.668 128.413 216.102 127.947 215.569 127.547C211.104 124.249 206.607 120.984 201.943 117.986C201.509 117.719 201.043 117.419 200.577 117.253C200.044 117.053 199.511 117.186 199.211 117.686C198.911 118.152 198.911 118.752 199.311 119.152C199.81 119.618 200.41 119.985 200.976 120.384C204.541 122.85 208.106 125.348 211.671 127.814C212.004 128.047 212.57 128.18 212.604 128.847ZM228.828 152.767C231.827 152.767 233.926 151.168 234.425 148.769C234.525 148.27 234.492 147.737 234.359 147.237C234.259 146.837 233.926 146.504 233.426 146.437C232.826 146.371 232.393 146.604 232.127 147.104C231.993 147.403 231.993 147.77 231.893 148.103C231.36 149.835 230.194 150.502 228.528 150.069C227.729 149.869 227.129 149.336 226.763 148.636C226.396 147.936 226.096 147.237 225.73 146.537C225.23 145.604 224.564 145.338 223.598 145.704C223.098 145.904 222.665 146.171 222.198 146.371C221.299 146.737 220.366 146.837 219.4 146.67C218.367 146.471 217.734 145.604 217.967 144.605C218.067 144.105 218.434 143.672 218.534 143.172C218.667 142.673 218.6 142.14 218.067 141.806C217.601 141.473 216.835 141.573 216.435 142.106C215.502 143.339 214.969 144.638 215.569 146.204C216.202 147.87 217.201 149.069 219.067 149.236C220.366 149.369 221.665 149.336 222.898 148.803C223.331 148.603 223.731 148.703 224.031 149.136C224.431 149.702 224.797 150.302 225.23 150.835C226.263 152.134 227.662 152.701 228.828 152.767ZM280.534 204.806C280.567 202.674 278.768 200.842 276.636 200.808C274.504 200.775 272.672 202.607 272.672 204.74C272.672 206.838 274.437 208.538 276.67 208.637C278.935 208.737 280.667 207.272 280.534 204.806ZM302.423 145.471C304.122 145.838 305.221 144.738 306.187 143.472C306.854 142.606 306.72 140.474 306.154 139.541C304.721 137.275 300.157 137.875 299.158 139.741C298.691 140.607 298.058 141.54 298.458 142.639C299.024 144.138 300.29 145.804 302.423 145.471ZM286.631 196.111C288.696 196.078 290.496 194.145 290.429 192.046C290.329 190.014 288.53 188.282 286.531 188.282C284.332 188.282 282.6 190.214 282.633 192.613C282.666 194.545 284.532 196.144 286.631 196.111ZM286.598 120.951C288.13 120.917 289.396 119.518 289.396 117.819C289.396 115.92 287.997 114.621 286.065 114.687C284.532 114.754 283.199 116.187 283.166 117.786C283.133 119.518 284.732 120.984 286.598 120.951ZM263.843 157.132C263.843 156.898 263.843 156.432 263.477 156.165C263.01 155.866 262.51 155.899 262.011 156.099C261.844 156.165 261.711 156.265 261.578 156.365C260.711 157.198 259.845 158.031 259.046 158.931C258.546 159.464 258.579 160.097 258.946 160.563C259.312 161.063 259.912 161.196 260.578 160.93C261.844 160.463 262.677 159.497 263.51 158.497C263.776 158.198 263.843 157.765 263.843 157.132ZM271.306 164.228C271.472 164.194 271.672 164.228 271.805 164.161C273.105 163.295 274.171 162.196 275.07 160.93C275.17 160.796 275.17 160.596 275.104 160.43C274.837 159.397 273.405 158.797 272.672 159.43C271.872 160.097 271.172 160.83 270.473 161.596C269.973 162.162 269.94 162.862 270.273 163.528C270.506 163.928 270.873 164.161 271.306 164.228ZM264.909 161.229C264.942 161.696 265.142 162.062 265.642 162.162C267.041 162.429 269.24 160.93 269.507 159.497C269.607 158.931 269.307 158.497 268.807 158.231C268.141 157.898 267.441 157.931 266.875 158.431C266.308 158.931 265.775 159.497 265.242 160.063C264.942 160.363 264.876 160.763 264.909 161.229Z" fill="white"/>
<path fill-rule="evenodd" clip-rule="evenodd" d="M99.9301 227.261C99.8968 219.932 102.795 214.634 108.126 210.47C110.258 208.804 112.29 207.072 114.589 205.672C116.355 204.573 118.154 203.54 119.986 202.507C122.252 201.241 124.55 199.975 126.882 198.809C133.179 195.678 139.742 193.146 146.472 191.113C151.303 189.648 156.267 188.915 161.364 189.314C163.796 189.514 166.095 190.147 168.227 191.447C172.158 193.845 175.223 197.11 177.789 200.875C180.621 205.039 183.186 209.37 185.351 213.935C186.884 217.133 188.017 220.498 188.916 223.963C189.416 225.828 189.016 227.361 188.083 228.893C187.284 230.259 186.218 231.425 184.985 232.358C180.521 235.69 175.79 238.522 170.659 240.72C167.561 242.053 164.463 243.419 161.298 244.652C154.934 247.184 148.404 249.283 141.908 251.448C136.91 253.147 131.847 254.68 126.683 255.812C123.551 256.512 120.419 257.078 117.254 257.611C116.155 257.811 114.989 257.611 113.856 257.711C112.49 257.845 111.491 257.212 110.758 256.179C109.758 254.746 108.792 253.314 107.959 251.815C105.161 246.584 102.962 241.12 101.363 235.423C100.596 232.625 99.6303 229.793 99.9301 227.261ZM169.093 200.675C169.06 198.476 168.527 196.777 167.061 195.478C164.562 193.279 161.431 193.012 158.332 192.746C157.933 192.713 157.533 193.012 157.333 193.446C157.1 193.945 157.166 194.478 157.466 194.911C157.6 195.111 157.833 195.311 158.033 195.411C159.698 196.311 160.798 197.743 161.864 199.209C162.83 200.542 164.096 201.575 165.529 202.474C167.528 203.74 169.127 203.274 169.093 200.675Z" fill="#EB1C24"/>
<path fill-rule="evenodd" clip-rule="evenodd" d="M240.156 55.1857C243.154 54.9858 246.585 55.4189 249.95 56.2852C252.549 56.9515 255.014 58.0842 257.346 59.3835C259.479 60.5495 261.577 61.7489 263.51 63.2481C266.542 65.6468 269.14 68.3787 271.439 71.4771C272.305 72.6764 272.905 74.0424 272.772 75.6082C272.738 76.108 272.738 76.6743 272.872 77.174C273.305 78.54 273.338 79.9059 272.872 81.2719C272.772 81.605 272.772 81.9715 272.772 82.3047C272.938 85.5363 272.139 88.6679 271.539 91.7996C270.806 95.7975 269.94 99.762 268.94 103.693C267.808 108.058 266.575 112.389 263.91 116.187C262.877 117.619 261.644 118.852 260.345 119.951C259.145 120.984 257.58 121.417 255.98 121.451C252.849 121.55 249.784 121.351 246.719 120.618C242.254 119.518 237.757 118.652 233.459 116.986C227.962 114.821 222.465 112.689 217.468 109.49C216.901 109.124 216.335 108.691 215.835 108.191C214.936 107.358 214.103 106.458 213.237 105.626C209.838 102.394 209.039 98.4627 209.872 93.9651C211.071 87.3686 213.07 81.0386 215.302 74.742C216.735 70.6442 218.367 66.6463 220.766 62.9816C222.465 60.383 224.93 58.8505 227.529 57.4512C228.362 56.9848 229.261 56.6849 230.194 56.3851C232.326 55.6854 234.492 55.0192 236.791 55.1524C237.724 55.219 238.69 55.1857 240.156 55.1857ZM267.541 78.0402C267.541 75.9747 266.608 74.3755 264.976 73.1762C264.076 72.5099 263.043 72.0101 262.077 71.5104C261.444 71.1772 260.745 71.1106 260.145 71.6103C259.545 72.1434 259.445 72.843 259.812 73.5093C260.445 74.7087 260.545 75.9747 260.745 77.2407C261.011 79.073 261.777 80.7055 262.677 82.3047C263.31 83.4374 264.376 83.604 265.276 82.8044C266.675 81.5384 267.541 79.9725 267.541 78.0402Z" fill="#EB1C24"/>
<path fill-rule="evenodd" clip-rule="evenodd" d="M130.147 136.942C129.814 132.778 133.146 127.514 139.409 127.414C145.606 127.314 149.337 132.678 149.304 137.642C149.271 142.706 145.239 147.037 139.876 147.07C134.478 147.07 130.147 142.539 130.147 136.942Z" fill="#13110C"/>
<path fill-rule="evenodd" clip-rule="evenodd" d="M81.9397 152.068C87.0703 152.034 91.368 156.332 91.3014 161.563C91.2348 166.793 87.0036 170.991 81.7731 170.924C76.5425 170.891 72.3115 166.593 72.4114 161.396C72.5113 155.566 77.3421 151.934 81.9397 152.068Z" fill="#13110C"/>
<path fill-rule="evenodd" clip-rule="evenodd" d="M151.603 153.467C151.403 150.635 153.069 148.903 155.367 147.836C157.166 147.037 159.132 146.537 161.031 146.104C163.13 145.604 166.128 147.137 167.228 149.069C168.527 151.368 168.527 153.667 167.228 155.932C166.461 157.265 165.162 157.998 163.763 158.497C162.23 159.064 160.665 159.53 159.065 159.897C156.667 160.463 154.601 159.664 152.935 157.964C151.736 156.798 151.536 155.133 151.603 153.467Z" fill="#FEF1ED"/>
<path fill-rule="evenodd" clip-rule="evenodd" d="M82.2062 185.916C82.6393 189.348 80.1406 191.647 77.3421 192.446C76.6092 192.646 75.8429 192.813 75.0767 193.046C72.0782 193.979 68.8466 192.846 67.2142 190.181C66.0814 188.348 66.1147 186.316 66.9476 184.45C67.7472 182.718 69.0798 181.319 71.0788 180.819C72.578 180.419 74.0439 179.853 75.5764 179.686C77.7086 179.486 79.6076 180.286 81.0402 181.952C82.1396 183.084 82.4061 184.517 82.2062 185.916Z" fill="#FEF1ED"/>
<path fill-rule="evenodd" clip-rule="evenodd" d="M205.374 177.554C205.374 180.886 203.608 183.484 200.477 184.417C195.179 185.95 190.982 181.519 191.881 177.154C192.947 172.024 198.278 169.092 203.042 172.357C204.808 173.523 205.507 175.422 205.374 177.554Z" fill="#EBEBEC"/>
<path fill-rule="evenodd" clip-rule="evenodd" d="M113.917 149.13C117.216 149.23 119.947 150.43 121.913 153.195C122.513 154.028 122.479 154.861 121.98 155.327C121.413 155.86 120.547 155.694 119.814 154.694C118.415 152.862 116.616 151.862 114.317 151.729C112.718 151.629 111.452 152.229 110.386 153.362C109.02 154.861 108.454 156.593 108.687 158.625C108.753 159.225 108.92 159.825 108.987 160.424C109.053 160.991 108.687 161.424 108.22 161.657C107.754 161.89 106.921 161.591 106.688 160.991C106.255 159.958 105.855 158.892 105.922 157.726C106.155 154.628 107.387 152.062 110.019 150.263C111.152 149.464 112.451 149.064 113.917 149.13Z" fill="#13110C"/>
<path fill-rule="evenodd" clip-rule="evenodd" d="M54.1211 221.664C52.9218 221.83 51.9223 221.564 51.0228 220.931C49.3904 219.832 48.9906 217.499 50.1566 215.9C51.6558 213.868 53.7547 213.235 55.8203 214.268C58.2523 215.501 58.5855 216.933 57.9191 219.432C57.586 220.731 56.5532 221.397 55.2539 221.597C54.8874 221.731 54.4543 221.664 54.1211 221.664Z" fill="#EBEBEC"/>
<path fill-rule="evenodd" clip-rule="evenodd" d="M201.543 200.275C199.91 200.309 198.378 199.209 197.778 197.577C197.245 196.144 197.711 194.378 199.044 193.412C199.81 192.846 200.677 192.413 201.576 192.113C203.408 191.48 205.874 192.779 206.373 195.311C206.407 195.478 206.407 195.644 206.373 195.844C206.174 197.743 203.475 200.242 201.543 200.275Z" fill="#EBEBEC"/>
<path fill-rule="evenodd" clip-rule="evenodd" d="M48.7907 228.527C48.824 226.828 50.723 224.696 52.622 224.362C54.3544 224.029 56.2201 225.195 56.8864 227.028C57.0197 227.428 57.1196 227.861 57.1196 228.294C57.0863 231.325 53.4549 233.591 50.723 232.325C49.1572 231.559 48.7574 230.226 48.7907 228.527Z" fill="#EBEBEC"/>
<path fill-rule="evenodd" clip-rule="evenodd" d="M74.6768 112.089C73.9439 112.155 73.111 111.856 72.4113 111.323C70.8788 110.123 70.0126 108.357 71.5785 106.359C72.5446 105.093 73.6107 103.993 75.4764 104.26C77.1089 104.526 78.6081 105.726 78.9746 107.325C79.1078 107.824 79.0412 108.357 78.8413 108.857C78.3415 110.123 77.4087 110.989 76.3426 111.789C75.9095 112.155 75.3765 112.089 74.6768 112.089Z" fill="#EBEBEC"/>
<path fill-rule="evenodd" clip-rule="evenodd" d="M81.973 120.451C79.8408 120.451 78.0417 118.819 78.0417 116.853C78.0417 113.954 79.9407 112.689 82.0396 112.755C84.505 112.855 85.9375 114.588 85.9375 116.42C85.9042 119.018 84.3384 120.584 81.973 120.451Z" fill="#EBEBEC"/>
<path fill-rule="evenodd" clip-rule="evenodd" d="M188.683 163.728C188.683 165.594 186.951 167.393 185.085 167.426C182.686 167.459 180.854 165.727 180.854 163.528C180.854 161.529 182.686 159.497 184.552 159.664C186.917 159.897 188.583 160.963 188.683 163.728Z" fill="#EBEBEC"/>
<path fill-rule="evenodd" clip-rule="evenodd" d="M82.6393 102.161C80.2405 102.561 77.7085 99.6954 78.708 96.8303C79.4076 94.798 82.2395 93.8318 84.0385 94.9979C84.8381 95.5309 85.5044 96.1972 85.9375 97.0634C86.7037 98.5627 86.5372 99.5955 85.4044 100.795C84.6382 101.661 83.8053 102.427 82.6393 102.161Z" fill="#EBEBEC"/>
<path fill-rule="evenodd" clip-rule="evenodd" d="M297.792 129.979C297.658 132.378 296.692 134.477 294.293 135.71C291.595 137.109 288.996 136.942 286.531 135.077C283.233 132.578 283.666 128.114 285.665 125.582C286.498 124.516 287.797 124.149 288.963 123.616C292.328 122.117 296.559 124.282 297.625 128.247C297.792 128.713 297.758 129.246 297.792 129.979Z" fill="#EBEBEC"/>
<path fill-rule="evenodd" clip-rule="evenodd" d="M244.72 138.208C248.718 141.74 252.882 144.672 257.213 147.403C257.813 147.77 258.413 148.136 258.946 148.569C259.479 149.003 259.545 149.735 259.179 150.169C258.746 150.702 258.179 150.835 257.546 150.535C257.246 150.402 256.947 150.202 256.647 150.002C251.849 147.037 247.218 143.805 242.688 140.407C241.988 139.907 241.355 139.274 240.855 138.608C240.156 137.675 240.522 136.443 241.621 136.076C242.254 135.843 242.954 135.71 243.654 135.676C249.184 135.276 254.748 134.91 260.278 134.577C260.978 134.544 261.677 134.544 262.344 134.643C262.81 134.71 263.077 135.077 263.177 135.51C263.277 135.976 263.077 136.343 262.71 136.642C262.111 137.042 261.411 137.109 260.711 137.142C257.246 137.342 253.782 137.542 250.317 137.775C248.484 137.842 246.619 138.042 244.72 138.208Z" fill="#13110C"/>
<path fill-rule="evenodd" clip-rule="evenodd" d="M212.604 128.847C212.57 128.214 212.004 128.047 211.604 127.747C208.039 125.249 204.475 122.783 200.91 120.318C200.344 119.918 199.744 119.552 199.244 119.085C198.844 118.685 198.844 118.086 199.144 117.619C199.444 117.153 199.977 116.986 200.51 117.186C200.977 117.353 201.443 117.653 201.876 117.919C206.54 120.951 211.038 124.182 215.502 127.481C216.068 127.88 216.602 128.347 217.035 128.88C217.934 129.913 217.434 131.478 216.102 131.712C215.169 131.878 214.203 131.878 213.237 131.778C209.106 131.312 204.974 130.779 200.81 130.279C200.21 130.213 199.577 130.113 199.144 129.679C198.911 129.446 198.778 129.08 198.778 128.747C198.744 128.28 199.078 127.914 199.511 127.78C200.01 127.647 200.543 127.647 201.043 127.681C203.109 127.914 205.174 128.18 207.24 128.447C208.872 128.647 210.505 128.847 212.137 129.013C212.337 129.08 212.47 128.913 212.604 128.847Z" fill="#13110C"/>
<path fill-rule="evenodd" clip-rule="evenodd" d="M228.828 152.767C227.696 152.734 226.296 152.134 225.23 150.835C224.797 150.302 224.431 149.702 224.031 149.136C223.731 148.703 223.365 148.603 222.898 148.803C221.666 149.336 220.366 149.369 219.067 149.236C217.201 149.036 216.202 147.87 215.569 146.204C214.969 144.605 215.502 143.306 216.435 142.106C216.835 141.606 217.601 141.507 218.067 141.806C218.567 142.14 218.634 142.673 218.534 143.172C218.434 143.672 218.067 144.105 217.967 144.605C217.734 145.638 218.367 146.504 219.4 146.67C220.366 146.837 221.299 146.704 222.199 146.371C222.665 146.171 223.131 145.904 223.598 145.704C224.564 145.338 225.23 145.604 225.73 146.537C226.097 147.237 226.396 147.936 226.763 148.636C227.129 149.336 227.729 149.869 228.529 150.069C230.194 150.502 231.36 149.802 231.893 148.103C231.993 147.77 231.96 147.403 232.127 147.104C232.36 146.604 232.826 146.371 233.426 146.437C233.926 146.504 234.259 146.804 234.359 147.237C234.492 147.737 234.525 148.27 234.425 148.769C233.892 151.168 231.827 152.767 228.828 152.767Z" fill="#13110C"/>
<path fill-rule="evenodd" clip-rule="evenodd" d="M280.534 204.806C280.667 207.272 278.902 208.737 276.67 208.638C274.437 208.538 272.672 206.838 272.672 204.74C272.672 202.607 274.504 200.808 276.636 200.808C278.768 200.842 280.567 202.674 280.534 204.806Z" fill="#EBEBEC"/>
<path fill-rule="evenodd" clip-rule="evenodd" d="M302.423 145.471C300.29 145.804 299.024 144.138 298.458 142.673C298.025 141.573 298.691 140.607 299.158 139.774C300.157 137.908 304.721 137.275 306.154 139.574C306.72 140.507 306.887 142.639 306.187 143.505C305.221 144.738 304.122 145.871 302.423 145.471Z" fill="#EBEBEC"/>
<path fill-rule="evenodd" clip-rule="evenodd" d="M286.631 196.111C284.499 196.144 282.666 194.512 282.633 192.579C282.566 190.214 284.332 188.282 286.531 188.248C288.53 188.248 290.362 189.981 290.429 192.013C290.529 194.145 288.696 196.111 286.631 196.111Z" fill="#EBEBEC"/>
<path fill-rule="evenodd" clip-rule="evenodd" d="M286.598 120.951C284.732 120.984 283.133 119.518 283.166 117.786C283.199 116.187 284.532 114.754 286.065 114.687C287.997 114.621 289.396 115.92 289.396 117.819C289.396 119.485 288.13 120.917 286.598 120.951Z" fill="#EBEBEC"/>
<path fill-rule="evenodd" clip-rule="evenodd" d="M263.843 157.132C263.843 157.798 263.776 158.198 263.51 158.564C262.677 159.564 261.811 160.496 260.578 160.996C259.912 161.229 259.345 161.096 258.946 160.63C258.579 160.13 258.579 159.53 259.046 158.997C259.845 158.131 260.711 157.298 261.578 156.432C261.711 156.299 261.844 156.232 262.011 156.165C262.51 155.932 263.043 155.899 263.477 156.232C263.843 156.432 263.843 156.898 263.843 157.132Z" fill="#FEF1ED"/>
<path fill-rule="evenodd" clip-rule="evenodd" d="M271.306 164.228C270.839 164.161 270.506 163.928 270.306 163.528C269.973 162.862 270.006 162.162 270.506 161.596C271.206 160.83 271.905 160.097 272.705 159.43C273.471 158.797 274.904 159.397 275.137 160.43C275.17 160.596 275.17 160.796 275.104 160.93C274.204 162.196 273.138 163.295 271.839 164.161C271.672 164.228 271.472 164.194 271.306 164.228Z" fill="#FEF1ED"/>
<path fill-rule="evenodd" clip-rule="evenodd" d="M264.909 161.229C264.876 160.796 264.942 160.363 265.276 160.03C265.809 159.464 266.342 158.897 266.908 158.398C267.474 157.898 268.174 157.865 268.84 158.198C269.34 158.431 269.64 158.897 269.54 159.464C269.273 160.896 267.041 162.429 265.675 162.129C265.142 162.029 264.942 161.696 264.909 161.229Z" fill="#FEF1ED"/>
<path fill-rule="evenodd" clip-rule="evenodd" d="M169.093 200.675C169.127 203.274 167.528 203.74 165.495 202.474C164.096 201.575 162.83 200.575 161.831 199.209C160.764 197.743 159.665 196.311 157.999 195.411C157.766 195.278 157.566 195.111 157.433 194.911C157.133 194.445 157.066 193.945 157.3 193.446C157.5 193.012 157.899 192.713 158.299 192.746C161.397 193.012 164.529 193.279 167.028 195.478C168.527 196.744 169.06 198.443 169.093 200.675Z" fill="white"/>
<path fill-rule="evenodd" clip-rule="evenodd" d="M267.541 78.0402C267.541 79.9725 266.642 81.5384 265.242 82.8044C264.343 83.604 263.277 83.4374 262.644 82.3047C261.744 80.7055 260.978 79.073 260.711 77.2407C260.545 75.9413 260.412 74.6754 259.779 73.5093C259.412 72.843 259.512 72.1434 260.112 71.6103C260.711 71.0773 261.411 71.1772 262.044 71.5104C263.044 72.0434 264.043 72.5432 264.942 73.1762C266.642 74.3755 267.574 75.9747 267.541 78.0402Z" fill="white"/>
<path d="M86.937 158.864C87.037 160.83 85.5045 162.529 83.5388 162.629C81.5732 162.729 79.8741 161.196 79.7742 159.23C79.6742 157.265 81.2068 155.566 83.1724 155.466C85.1713 155.366 86.8371 156.865 86.937 158.864Z" fill="white"/>
<path d="M81.0069 163.561C82.0064 163.528 82.8393 164.261 82.8726 165.261C82.9059 166.26 82.1729 167.093 81.1735 167.126C80.174 167.16 79.3411 166.427 79.3078 165.427C79.2745 164.461 80.0407 163.628 81.0069 163.561Z" fill="white"/>
<path d="M144.04 134.177C144.14 136.143 142.608 137.842 140.642 137.942C138.676 138.042 136.977 136.509 136.877 134.544C136.777 132.578 138.31 130.879 140.276 130.779C142.274 130.679 143.974 132.211 144.04 134.177Z" fill="white"/>
<path d="M138.143 138.908C139.143 138.875 139.976 139.608 140.009 140.607C140.042 141.606 139.309 142.439 138.31 142.473C137.31 142.506 136.477 141.773 136.444 140.774C136.377 139.774 137.144 138.941 138.143 138.908Z" fill="white"/>
</svg>
