<svg width="445" height="367" viewBox="0 0 445 367" fill="none" xmlns="http://www.w3.org/2000/svg">
<rect x="27" y="70" width="418" height="297" fill="white"/>
<path fill-rule="evenodd" clip-rule="evenodd" d="M85.7884 97.1121C83.6287 93.543 81.6604 90.288 79.722 86.949C77.0998 82.4961 74.4499 78.0146 71.9427 73.4511C69.4632 68.9164 69.5229 68.7483 72.6238 64.5478C78.3921 56.6747 84.1327 48.7728 89.9851 40.9295C91.9259 38.3431 93.9497 35.8429 96.0289 33.4003C98.2528 30.7629 99.9816 30.3733 103.171 31.7898C105.968 33.0293 108.535 34.5465 110.032 37.3691C110.412 38.1101 110.793 38.8512 111.06 39.6464C111.539 41.123 111.342 42.53 110.275 43.7226C109.323 44.8045 108.37 45.9429 107.39 46.996C102.807 51.9577 98.445 57.1494 94.3067 62.4583C92.9752 64.1819 91.7831 65.9928 90.4793 67.7451C89.6974 68.7739 89.6776 69.7893 90.2475 70.9572C91.8485 74.2333 93.3644 77.536 94.9379 80.7833C96.3486 83.6888 97.7881 86.5667 99.2564 89.417C99.8008 90.4433 99.8008 90.4434 100.936 90.1269C101.333 90.0217 101.731 89.8601 102.1 89.7262C110.225 86.8933 118.583 86.6044 127.04 87.0511C129.717 87.1878 131.813 88.2726 133.349 90.5034C135.709 93.9353 138.155 97.2843 140.487 100.744C142.324 103.46 143.057 106.409 141.95 109.632C141.56 110.838 141.91 111.72 142.509 112.804C144.936 117.168 147.049 121.667 149.447 126.059C157.181 140.431 165.001 154.72 172.621 169.146C181.031 185.026 189.214 201.015 197.481 216.977C198.242 218.459 198.889 219.995 199.395 221.557C200.489 224.823 200.061 227.947 198.171 230.817C197.27 232.182 196.256 233.545 195.16 234.765C183.545 247.265 169.574 256.163 153.493 261.833C150.141 263.009 146.684 263.732 143.175 264.284C140.996 264.609 138.85 264.68 136.654 264.411C134.402 264.142 132.444 263.257 130.839 261.646C129.289 260.092 127.739 258.538 126.389 256.847C120.187 249.305 114.071 241.681 108.128 233.89C100.121 223.379 92.4863 212.621 84.7373 201.917C78.5539 193.416 72.6271 184.78 66.5576 176.225C65.7887 175.138 65.0794 173.882 64.0506 173.1C63.0495 172.347 61.6293 172.828 60.3905 172.691C59.4613 172.588 58.5299 172.598 57.5997 172.552C56.0489 172.493 54.8475 171.877 53.9713 170.506C51.0117 165.99 48.4237 161.228 46.0349 156.384C44.1085 152.425 43.932 148.443 45.2266 144.264C47.0022 138.57 49.6726 133.289 52.8453 128.3C57.4744 120.969 63.0758 114.419 69.5645 108.676C73.6986 105.032 78.1912 101.818 82.8751 98.9178C83.8164 98.4 84.7023 97.8246 85.7884 97.1121ZM95.4658 40.5846C93.7649 42.4421 92.1469 44.3858 90.9748 46.6203C88.3228 49.5033 86.0325 52.6472 83.8816 55.8785C82.0657 57.8466 80.3614 59.8733 79.1584 62.2483C77.2362 63.8757 76.063 66.1667 74.3908 67.9965C73.7848 68.6901 73.713 69.4788 74.1766 70.3061C75.0739 72.0447 75.7423 73.9483 77.0389 75.469C77.8434 77.6291 78.9896 79.6266 80.3925 81.4879C80.8673 83.1902 81.9117 84.6213 82.7858 86.1056C84.452 88.9315 85.7754 91.9764 87.8697 94.5567C88.7018 96.7455 89.9908 98.6612 91.2797 100.577C92.6716 103.002 94.0358 105.399 95.4277 107.825C95.7275 108.366 96.0274 108.908 96.356 109.423C96.6027 109.794 96.9953 109.915 97.4223 109.726C99.5857 108.752 101.585 107.493 103.284 105.748C103.6 105.444 103.778 104.996 103.447 104.651C101.956 102.929 101.152 100.769 99.7767 98.9362C98.9103 97.057 98.0439 95.1778 96.807 93.489C95.29 90.2428 93.773 86.9965 92.1996 83.7492C91.6021 82.5525 91.1473 81.2739 90.2357 80.2686C89.7089 78.3396 88.8967 76.5743 87.6863 74.9707C87.3909 74.2031 87.2094 73.3812 86.8564 72.669C85.5795 70.1328 85.6543 67.7358 87.3928 65.3994C88.1459 64.3983 88.815 63.3673 89.5117 62.3651C90.9604 60.4181 92.3803 58.4987 93.8567 56.5805C96.3406 53.6378 98.8532 50.6675 101.337 47.7248C103.003 46.2335 104.252 44.3673 105.697 42.6459C107.481 40.8748 107.516 40.5086 106.336 38.7645C105.268 37.1353 103.678 36.1732 101.944 35.4059C100.545 34.7579 100.262 34.8088 99.1971 35.8886C97.7849 37.413 96.5142 38.912 95.4658 40.5846ZM140.09 116.792C139.646 117.827 139.147 118.861 138.731 119.925C136.063 126.533 132.307 132.47 127.687 137.91C124.336 141.908 120.515 145.418 116.445 148.668C109.482 154.148 102.328 159.257 94.5139 163.507C86.2154 168.001 77.5981 171.473 68.1509 172.644C66.765 172.815 66.6456 173.151 67.6656 174.384C72.9296 180.835 77.7931 187.561 82.7993 194.204C87.5035 200.419 92.1502 206.689 96.8544 212.903C101.972 219.606 107.205 226.197 112.296 232.871C118.211 240.633 124.327 248.257 130.529 255.799C131.383 256.86 132.352 257.81 133.293 258.787C134.511 259.996 135.993 260.674 137.711 260.848C139.485 261.024 141.237 260.889 142.991 260.641C146.926 260.012 150.726 259.014 154.422 257.618C167.898 252.406 179.812 244.822 190.055 234.637C191.523 233.17 192.88 231.588 194.181 229.949C196.437 227.115 196.749 224.158 195.373 220.886C194.645 219.151 193.86 217.471 193.074 215.791C186.726 202.688 179.921 189.858 173.06 177.027C164.975 161.886 156.745 146.884 148.601 131.799C145.96 126.866 143.406 121.85 140.822 116.862C140.771 116.579 140.721 116.239 140.383 116.233C140.102 116.171 140.095 116.509 140.09 116.792ZM105.866 102.102C106.352 101.801 106.61 101.609 106.838 101.444C107.383 101.031 107.709 100.219 108.607 100.462C109.14 100.614 109.291 101.576 108.902 102.725C108.663 103.398 108.368 104.069 107.961 104.682C104.9 109.73 100.084 112.148 94.5293 113.394C94.047 113.526 93.5138 113.374 93.0072 113.308C92.5294 113.214 92.2638 112.362 92.6365 112.059C92.8665 111.838 93.1508 111.731 93.4085 111.538C94.3818 110.823 94.4127 110.683 93.865 109.826C92.825 108.169 91.7573 106.483 90.6886 104.854C89.8942 103.625 89.1275 102.425 88.2756 101.252C87.6151 100.393 87.0244 100.296 86.1108 100.843C85.0269 101.443 83.9696 102.128 82.9399 102.841C79.738 104.98 76.7563 107.405 73.6927 109.687C69.1117 113.097 65.5297 117.373 61.92 121.62C58.3678 125.811 55.4262 130.523 52.8486 135.382C50.71 139.432 48.8236 143.572 48.029 148.156C47.7461 149.646 47.8038 151.029 48.2277 152.448C49.3145 156.053 51.0847 159.332 52.8827 162.64C53.7269 164.209 54.6574 165.694 55.5591 167.207C56.5704 168.892 57.9654 169.709 59.9762 169.325C60.7693 169.171 61.6177 169.075 62.4362 169.062C72.3746 168.748 81.6557 165.965 90.6234 161.879C95.2644 159.74 99.4671 156.916 103.644 153.949C106.763 151.725 109.773 149.328 112.755 146.903C114.703 145.361 116.404 143.504 118.491 142.105C119.664 141.31 120.59 140.086 121.57 139.033C122.29 138.285 122.844 137.365 123.563 136.673C125.375 134.931 126.825 132.871 128.275 130.868C132.047 125.523 135.123 119.742 137.667 113.697C138.524 111.71 139.325 109.666 139.734 107.501C139.953 106.405 139.83 105.471 139.256 104.529C138.927 104.015 138.656 103.445 138.271 102.93C135.854 99.5532 133.408 96.2043 130.99 92.8277C129.919 91.3114 128.524 90.4942 126.64 90.2036C123.911 89.7837 121.253 90.0706 118.572 90.1031C115.016 90.0904 111.508 90.5864 108.079 91.338C106.265 91.7542 104.476 92.3684 102.715 92.9549C101.55 93.3555 101.372 93.8035 101.889 94.8012C103.17 97.1117 104.45 99.4785 105.866 102.102Z" fill="#13110C"/>
<path fill-rule="evenodd" clip-rule="evenodd" d="M140.881 116.75C143.464 121.739 145.991 126.726 148.632 131.659C156.776 146.744 165.004 161.802 173.091 176.886C179.952 189.717 186.757 202.547 193.105 215.65C193.918 217.359 194.704 219.039 195.404 220.746C196.808 223.99 196.468 226.974 194.212 229.809C192.911 231.448 191.554 233.03 190.086 234.497C179.843 244.681 167.929 252.266 154.453 257.478C150.729 258.901 146.928 259.899 143.022 260.5C141.296 260.777 139.516 260.884 137.742 260.708C136.024 260.533 134.513 259.883 133.324 258.647C132.383 257.669 131.414 256.719 130.56 255.658C124.358 248.117 118.214 240.52 112.327 232.73C107.237 226 101.976 219.436 96.8854 212.763C92.1524 206.576 87.5345 200.279 82.8303 194.064C77.8241 187.42 72.9606 180.695 67.6967 174.244C66.6766 173.01 66.7673 172.702 68.182 172.504C77.6292 171.333 86.2741 167.889 94.5449 163.366C102.33 159.144 109.54 154.036 116.476 148.528C120.573 145.306 124.367 141.768 127.718 137.77C132.338 132.329 136.094 126.392 138.762 119.785C139.178 118.721 139.677 117.686 140.121 116.651C140.372 116.797 140.626 116.774 140.881 116.75ZM143.806 130.267C143.308 129.749 142.839 129.204 142.313 128.714C141.591 128.079 140.342 128.506 140.069 129.489C139.978 129.797 139.915 130.135 139.966 130.418C140.299 132.146 140.661 133.846 141.051 135.574C141.284 136.623 141.946 137.426 142.55 138.284C143.208 139.256 144.213 139.84 145.335 140.144C146.655 140.48 147.6 139.793 147.766 138.47C147.934 137.091 147.621 135.787 146.967 134.589C146.068 132.963 145.081 131.477 143.806 130.267Z" fill="#EB1B28"/>
<path fill-rule="evenodd" clip-rule="evenodd" d="M105.866 102.102C104.45 99.4785 103.17 97.1116 101.89 94.7447C101.373 93.7471 101.551 93.2991 102.716 92.8985C104.477 92.312 106.266 91.6978 108.08 91.2816C111.538 90.5024 115.018 90.034 118.573 90.0467C121.282 90.0429 123.94 89.7561 126.641 90.1472C128.526 90.4378 129.921 91.2549 130.992 92.7713C133.409 96.1479 135.855 99.4969 138.273 102.873C138.63 103.36 138.901 103.93 139.257 104.473C139.831 105.415 139.926 106.376 139.736 107.445C139.327 109.61 138.525 111.654 137.668 113.641C135.124 119.686 132.049 125.467 128.276 130.811C126.854 132.843 125.376 134.874 123.564 136.617C122.817 137.336 122.235 138.228 121.571 138.976C120.591 140.03 119.665 141.253 118.492 142.049C116.433 143.476 114.704 145.305 112.756 146.847C109.746 149.243 106.737 151.639 103.646 153.893C99.5247 156.86 95.2932 159.713 90.6246 161.823C81.6568 165.909 72.3758 168.691 62.4373 169.006C61.6188 169.018 60.7704 169.114 59.9773 169.268C57.9665 169.652 56.5428 168.863 55.5603 167.151C54.6586 165.638 53.7281 164.152 52.8839 162.584C51.1136 159.305 49.3433 156.025 48.2288 152.392C47.805 150.973 47.7472 149.589 48.0302 148.099C48.8248 143.515 50.7676 139.377 52.8497 135.326C55.3997 130.438 58.3402 125.783 61.9211 121.563C65.5308 117.316 69.114 112.984 73.6939 109.631C76.7575 107.348 79.7668 104.952 82.9411 102.785C83.9707 102.071 84.9994 101.414 86.112 100.787C87.0256 100.24 87.6439 100.365 88.2767 101.196C89.1286 102.369 89.923 103.598 90.6897 104.798C91.7585 106.427 92.8262 108.113 93.8662 109.769C94.4138 110.626 94.3829 110.767 93.4097 111.482C93.152 111.674 92.8677 111.782 92.6376 112.003C92.2926 112.335 92.5018 113.185 93.0084 113.252C93.515 113.318 94.0481 113.469 94.5304 113.338C100.085 112.091 104.873 109.645 107.962 104.626C108.312 104.012 108.664 103.342 108.903 102.669C109.321 101.492 109.198 100.558 108.608 100.406C107.71 100.163 107.384 100.975 106.84 101.387C106.61 101.609 106.324 101.772 105.866 102.102ZM109.278 122.569C113.756 118.649 117.868 113.199 121.369 107.285C123.061 104.44 124.698 101.537 125.608 98.2817C125.851 97.3835 126.151 96.4864 126.028 95.5529C126.006 95.2421 125.843 94.9003 125.504 94.8937C125.222 94.8882 124.827 94.8805 124.627 95.0177C123.912 95.5399 123.754 96.4116 123.401 97.1384C119.309 105.891 113.574 113.454 106.893 120.378C104.157 123.231 101.146 125.741 98.1055 128.277C94.8937 130.924 91.6002 133.427 88.0864 135.645C79.3445 141.174 70.0338 145.48 60.13 148.363C57.4058 149.156 54.7125 149.809 51.8632 149.782C51.4683 149.774 51.0435 149.851 50.6464 149.956C50.3345 150.034 50.0757 150.283 50.2096 150.653C50.2628 150.823 50.3701 151.107 50.5106 151.138C50.8745 151.286 51.2949 151.436 51.661 151.471C53.944 151.6 56.2071 151.306 58.4458 150.813C62.3005 149.929 66.049 148.704 69.7432 147.365C84.4062 142.063 97.372 134.076 109.278 122.569Z" fill="#9A3A16"/>
<path fill-rule="evenodd" clip-rule="evenodd" d="M89.4531 62.4768C88.7564 63.479 88.0863 64.5664 87.3343 65.5112C85.5682 67.8188 85.4933 70.2158 86.7978 72.7807C87.1508 73.493 87.3887 74.3159 87.6277 75.0824C84.3536 75.1316 81.1083 75.1531 77.8342 75.2023C77.5522 75.1968 77.238 75.3882 76.9825 75.4679C75.6859 73.9472 75.0739 72.0447 74.1202 70.305C73.6566 69.4777 73.7283 68.689 74.3344 67.9953C76.0066 66.1656 77.1798 63.8746 79.102 62.2472C79.7712 62.6553 80.5068 62.5567 81.1848 62.5134C82.9358 62.4346 84.6591 62.3271 86.4112 62.1918C87.4554 62.1839 88.4752 61.9781 89.4531 62.4768Z" fill="#FDFBFC"/>
<path fill-rule="evenodd" clip-rule="evenodd" d="M87.8122 94.612C85.7179 92.0318 84.3945 88.9868 82.7283 86.161C81.8542 84.6767 80.8098 83.2455 80.335 81.5433C82.6789 81.4478 85.0227 81.3523 87.3389 81.228C88.3554 81.1914 89.3996 81.1835 90.1771 80.3803C91.0887 81.3856 91.5435 82.6643 92.141 83.861C93.7432 87.0807 95.2038 90.3258 96.7484 93.6007C94.7652 94.0136 92.7322 94.0869 90.729 94.0762C89.7147 94 88.6992 93.9803 87.8122 94.612Z" fill="#FDFBFC"/>
<path fill-rule="evenodd" clip-rule="evenodd" d="M83.8529 55.9062C86.0038 52.6749 88.294 49.5309 90.9461 46.648C91.7238 47.2839 92.6839 47.2461 93.6152 47.236C95.0543 47.2358 96.4934 47.2356 97.9313 47.2918C99.0308 47.3414 100.22 47.1387 101.222 47.8354C98.7382 50.7781 96.2256 53.7484 93.7417 56.6911C92.464 55.6504 90.9718 55.4803 89.3591 55.7029C87.5772 55.9222 85.7377 56.1968 83.8529 55.9062Z" fill="#FDFBFC"/>
<path fill-rule="evenodd" clip-rule="evenodd" d="M99.7192 98.9915C101.067 100.795 101.899 102.984 103.389 104.706C103.692 105.079 103.514 105.527 103.227 105.804C101.557 107.52 99.557 108.78 97.3648 109.781C96.9091 109.998 96.5452 109.85 96.2985 109.478C95.9699 108.964 95.67 108.422 95.3702 107.88C93.9783 105.454 92.6141 103.058 91.2222 100.632C92.3349 100.005 93.6003 100.227 94.7872 100.137C96.4817 100.057 98.2072 99.8368 99.7192 98.9915Z" fill="#FDFBFC"/>
<path fill-rule="evenodd" clip-rule="evenodd" d="M101.251 47.8078C100.22 47.1388 99.0596 47.3137 97.9601 47.2641C96.5221 47.2079 95.083 47.2081 93.644 47.2083C92.7126 47.2184 91.7525 47.2562 90.9748 46.6203C92.2034 44.3869 93.7649 42.4421 95.4658 40.5846C96.1064 41.0203 96.8131 40.9494 97.5177 40.9913C98.927 41.0752 100.365 41.1314 101.774 41.2152C103.211 41.3278 104.587 41.665 105.638 42.7577C104.194 44.479 102.944 46.3453 101.251 47.8078Z" fill="#EB1B28"/>
<path fill-rule="evenodd" clip-rule="evenodd" d="M83.8529 55.9062C85.709 56.2245 87.5484 55.9499 89.4155 55.704C91.0282 55.4814 92.5204 55.6515 93.7982 56.6922C92.3495 58.6392 90.9295 60.5585 89.4531 62.4768C88.504 61.9504 87.4554 62.184 86.4389 62.2206C84.688 62.2995 82.9635 62.4634 81.2126 62.5422C80.5069 62.5567 79.7713 62.6553 79.1297 62.276C80.3615 59.8733 82.0657 57.8466 83.8529 55.9062Z" fill="#EB1B28"/>
<path fill-rule="evenodd" clip-rule="evenodd" d="M90.2058 80.3527C89.4284 81.1558 88.3842 81.1637 87.3677 81.2004C85.0238 81.2959 82.68 81.3913 80.3638 81.5156C78.9609 79.6542 77.8147 77.6568 77.0102 75.4966C77.2945 75.3893 77.5798 75.2255 77.8619 75.231C81.136 75.1818 84.41 75.1327 87.6554 75.1111C88.8668 76.6584 89.679 78.4237 90.2058 80.3527Z" fill="#EB1B28"/>
<path fill-rule="evenodd" clip-rule="evenodd" d="M99.7192 98.9915C98.1796 99.8081 96.4818 100.057 94.7584 100.165C93.5716 100.255 92.3338 100.061 91.1935 100.66C89.9045 98.7442 88.6156 96.8285 87.7835 94.6397C88.6705 94.0079 89.6572 94.0553 90.7013 94.0474C92.7045 94.0582 94.7376 93.9849 96.7208 93.572C97.9864 95.2332 98.8528 97.1124 99.7192 98.9915Z" fill="#EB1B28"/>
<path fill-rule="evenodd" clip-rule="evenodd" d="M105.638 42.7577C104.587 41.665 103.211 41.3279 101.774 41.2153C100.337 41.1027 98.9558 41.0475 97.5178 40.9913C96.8132 40.9494 96.1064 41.0203 95.4659 40.5846C96.5143 38.912 97.7849 37.413 99.1674 35.9726C100.176 34.8918 100.459 34.8409 101.914 35.4899C103.648 36.2573 105.238 37.2194 106.307 38.8485C107.457 40.6204 107.394 40.9577 105.638 42.7577Z" fill="#FDFBFC"/>
<path fill-rule="evenodd" clip-rule="evenodd" d="M140.09 116.792C140.068 116.481 140.073 116.199 140.44 116.178C140.779 116.184 140.857 116.496 140.88 116.807C140.626 116.774 140.372 116.797 140.09 116.792Z" fill="#F3A35C"/>
<path fill-rule="evenodd" clip-rule="evenodd" d="M109.278 122.569C97.3719 134.076 84.4062 142.063 69.7432 147.365C66.0202 148.731 62.2717 149.956 58.4458 150.813C56.2071 151.306 53.944 151.6 51.6609 151.471C51.2661 151.463 50.8457 151.314 50.5105 151.138C50.3424 151.079 50.2627 150.823 50.2096 150.653C50.1045 150.256 50.3622 150.063 50.6464 149.956C51.0435 149.851 51.4682 149.774 51.8631 149.782C54.7125 149.809 57.4058 149.156 60.13 148.363C70.0625 145.452 79.3732 141.147 88.0863 135.645C91.6001 133.427 94.8937 130.924 98.1055 128.277C101.146 125.741 104.157 123.231 106.893 120.378C113.546 113.482 119.309 105.891 123.401 97.1384C123.754 96.4116 123.912 95.5399 124.627 95.0177C124.856 94.8528 125.195 94.8594 125.504 94.8937C125.87 94.929 126.006 95.2421 126.028 95.5529C126.151 96.4864 125.851 97.3835 125.608 98.2817C124.727 101.51 123.09 104.412 121.369 107.285C117.897 113.171 113.756 118.649 109.278 122.569Z" fill="#13110C"/>
<path fill-rule="evenodd" clip-rule="evenodd" d="M158.687 171.809C159.487 172.756 159.488 174.139 158.678 175.139C158.216 175.694 156.663 175.748 156.166 175.174C155.035 173.883 155.529 171.691 157.12 171.102C157.83 170.861 158.272 171.378 158.687 171.809Z" fill="#FAD5DC"/>
<path fill-rule="evenodd" clip-rule="evenodd" d="M162.281 168.352C163.14 169.187 163.147 170.231 162.312 171.09C161.622 171.753 160.661 171.848 160.079 171.3C159.303 170.608 159.307 168.943 160.054 168.224C160.573 167.67 161.616 167.718 162.281 168.352Z" fill="#FAD5DC"/>
<path fill-rule="evenodd" clip-rule="evenodd" d="M170.881 234.166C170.754 233.974 170.69 233.719 170.498 233.559C167.303 230.588 165.833 226.754 165.035 222.568C164.3 218.766 164.236 214.964 164.843 211.131C164.971 210.332 164.811 210.108 163.948 210.044C162.351 209.917 160.817 209.629 159.38 208.926C156.983 207.744 155.929 205.571 156.376 202.952C156.568 201.865 156.92 200.875 157.399 199.885C158.261 198.063 159.316 196.37 160.562 194.805C162.798 191.993 165.258 189.405 168.23 187.36C169.156 186.721 169.156 186.69 168.645 185.571C168.134 184.421 167.878 183.207 167.718 181.961C167.623 181.354 167.303 181.13 166.696 181.226C164.619 181.514 162.543 181.514 160.498 181.035C153.884 179.533 151.52 174.006 152.255 168.926C152.67 166.082 153.884 163.526 155.642 161.226C157.846 158.383 160.306 155.795 163.629 154.165C163.853 154.07 163.98 153.846 164.204 153.654C163.98 153.271 163.757 152.919 163.533 152.568C159.571 146.498 158.453 139.82 159.316 132.727C160.21 125.475 162.894 118.925 166.856 112.823C170.849 106.689 175.865 101.481 181.552 96.9126C194.811 86.2735 209.508 78.3182 225.834 73.43C232.383 71.4491 239.061 70.1712 245.866 69.4683C250.019 69.0529 254.109 68.4139 258.294 68.1903C263.054 67.9028 267.783 68.1903 272.511 68.7015C273.757 68.8293 274.972 68.989 276.122 69.1168C276.729 68.6376 276.761 67.9986 276.888 67.4555C279.317 56.1455 282.512 45.0272 285.227 33.7811C287.815 23.1101 290.435 12.4391 292.543 1.67229C292.607 1.25695 292.735 0.873554 292.895 0.490165C293.023 0.170674 293.342 -0.0529698 293.694 0.0109285C294.141 0.0748267 294.397 0.45822 294.428 0.873558C294.46 1.19305 294.365 1.54448 294.301 1.86397C294.077 3.07804 293.853 4.32405 293.63 5.53812C293.534 6.1132 293.758 6.52854 294.205 6.81608C294.844 7.19947 295.483 7.58287 296.186 7.90236C301.617 10.5541 307.304 12.3752 313.247 13.3657C320.243 14.5478 327.272 15.2187 334.397 14.9312C335.898 14.8673 337.4 14.7075 338.87 14.5797C340.052 14.4839 341.266 14.3561 342.033 15.5062C342.927 16.8162 342.16 17.9024 341.458 18.9567C340.627 20.2028 339.732 21.4168 338.774 22.567C335.068 27.0399 330.723 30.7779 325.803 33.7811C318.71 38.0943 311.17 41.2892 302.927 42.6949C299.221 43.3339 295.483 43.6534 291.745 43.4297C290.595 43.3659 289.444 43.1422 288.294 42.9505C286.984 42.7588 286.857 42.7908 286.601 44.0368C285.994 46.9761 285.451 49.9154 284.812 52.8547C283.694 57.9666 282.511 63.0784 281.329 68.1903C281.234 68.6056 281.138 68.989 281.042 69.4044C280.978 69.7878 281.17 70.0753 281.489 70.2031C281.872 70.3309 282.288 70.3948 282.703 70.4907C291.585 72.5674 300.084 75.6025 308.071 80.0754C313.63 83.1745 318.774 86.8167 323.183 91.4173C328.678 97.1682 332.735 103.782 334.684 111.577C335.771 115.986 335.962 119.692 335.259 125.188C335.898 125.858 336.761 125.763 337.56 125.922C342.16 126.753 346.282 128.638 349.796 131.769C352.32 134.037 353.79 136.849 354.333 140.172C355.228 145.603 352.001 150.363 346.633 151.482C345.675 151.673 344.684 151.833 343.726 151.993C343.375 152.568 343.854 152.951 343.982 153.399C344.365 154.485 344.812 155.571 345.196 156.657C346.346 159.756 346.218 162.855 345.132 165.955C344.844 166.817 344.493 167.68 344.173 168.542C344.365 169.149 345.004 169.245 345.483 169.501C346.857 170.172 348.039 171.098 348.966 172.28C349.988 173.59 351.074 174.868 351.969 176.274C353.407 178.479 354.109 180.939 354.046 183.622C353.982 186.53 352.768 188.734 350.212 190.172C349.764 190.428 349.349 190.651 348.934 190.907C348.87 190.939 348.838 191.035 348.742 191.226C349.125 192.153 349.509 193.143 349.892 194.134C351.138 197.329 351.937 200.619 352.065 204.07C352.224 207.872 351.617 211.546 350.18 215.06C350.02 215.444 349.892 215.827 349.764 216.179C350.212 216.69 350.819 216.754 351.362 216.945C357.177 218.766 360.244 223.399 359.732 229.501C359.477 232.536 358.455 235.348 356.953 237.968C356.633 238.543 356.25 239.086 355.962 239.693C355.771 240.045 355.962 240.332 356.378 240.364C358.71 240.556 361.042 240.652 363.343 240.907C367.464 241.386 371.618 241.93 375.675 242.888C379.509 243.815 383.119 245.284 386.314 247.616C388.231 248.99 389.86 250.62 391.266 252.537C393.567 255.7 394.11 259.214 393.279 262.984C392.512 266.466 390.787 269.502 388.455 272.153C386.027 274.933 383.183 277.233 380.084 279.246C375.675 282.122 370.947 284.39 366.09 286.371C356.378 290.364 346.314 293.304 336.09 295.732C326.186 298.064 316.186 299.757 306.09 300.971C294.588 302.377 283.087 303.4 271.521 304.039C259.444 304.71 247.399 305.061 235.323 304.678C227.655 304.454 220.019 304.102 212.383 303.304C197.048 301.738 181.872 299.246 167.047 294.837C163.469 293.783 159.923 292.537 156.536 290.939C153.501 289.502 150.658 287.84 148.038 285.732C146.344 284.358 144.843 282.824 143.693 280.939C141.68 277.649 141.456 274.23 143.054 270.684C144.076 268.383 145.546 266.371 147.239 264.518C151.233 260.204 155.769 256.594 161.009 253.91C162.702 253.048 164.46 252.217 166.185 251.418C166.792 251.131 167.079 250.779 166.888 250.077C165.769 245.54 166.824 241.322 168.932 237.329C169.476 236.275 170.21 235.252 170.881 234.166ZM275.579 72.2159C275.323 72.1201 275.099 71.9923 274.876 71.9284C274.301 71.8006 273.725 71.6728 273.15 71.5769C267.623 70.8102 262.064 70.3948 256.473 70.874C254.237 71.0657 252 71.2255 249.764 71.513C245.642 72.0242 241.489 72.4396 237.399 73.1744C226.664 75.0594 216.473 78.5738 206.76 83.5579C197.239 88.4461 188.294 94.2288 180.402 101.481C175.035 106.433 170.466 112.024 167.239 118.606C164.268 124.676 162.543 131.066 162.99 137.903C163.469 145.252 166.632 151.13 172.575 155.475C174.747 157.073 177.079 158.287 179.54 159.373C187.08 162.664 195.067 164.325 203.15 165.475C209.092 166.306 215.099 166.657 221.073 166.785C230.243 167.009 239.38 166.498 248.518 165.667C257.495 164.836 266.377 163.494 275.131 161.482C284.652 159.277 293.949 156.466 302.895 152.504C308.071 150.204 313.119 147.616 317.719 144.293C321.33 141.705 324.525 138.67 327.144 135.06C329.828 131.354 331.521 127.264 332.192 122.696C332.799 118.638 332.32 114.74 331.202 110.842C329.317 104.197 325.675 98.5739 320.946 93.6538C317.112 89.6601 312.671 86.4333 307.943 83.6217C299.54 78.6696 290.499 75.4108 281.042 73.1424C280.818 73.0785 280.563 73.1424 280.211 73.1424C280.051 73.7175 279.86 74.2607 279.732 74.8038C278.997 77.7112 278.518 80.6824 277.527 83.5259C277.368 83.9732 277.527 84.2927 277.975 84.5163C278.326 84.708 278.678 84.9316 278.997 85.2192C279.54 85.6665 279.764 86.4333 279.476 86.7528C279.093 87.2001 278.55 87.1362 278.103 86.9125C276.601 86.2735 275.099 85.986 273.47 86.4013C272.895 86.561 272 87.0083 271.713 86.2096C271.361 85.2192 272.384 84.9955 273.023 84.8038C273.885 84.5163 274.077 83.9093 274.173 83.1106C274.428 80.8102 274.78 78.4779 275.067 76.1776C275.227 74.8677 275.706 73.5897 275.579 72.2159ZM246.441 300.173C253.118 299.981 260.435 299.949 267.783 299.566C279.668 298.927 291.553 297.904 303.374 296.531C314.301 295.253 325.132 293.463 335.835 290.939C345.643 288.607 355.292 285.764 364.621 281.93C368.934 280.173 373.151 278.16 377.113 275.668C379.924 273.879 382.576 271.834 384.844 269.374C386.985 267.073 388.487 264.454 389.19 261.355C389.669 259.214 389.349 257.233 388.295 255.348C387.273 253.495 385.867 251.994 384.237 250.652C381.49 248.415 378.327 246.946 374.94 245.955C372.384 245.188 369.764 244.645 367.145 244.262C363.119 243.655 359.062 243.144 355.036 242.537C354.141 242.409 353.47 242.696 352.831 243.335C352.033 244.166 351.106 244.901 350.212 245.636C349.732 246.019 349.445 246.434 349.509 247.105C349.924 252.409 347.752 256.626 343.95 260.172C342.352 261.642 340.531 262.824 338.614 263.815C335.643 265.348 332.544 266.53 329.317 267.457C321.234 269.757 313.023 271.514 304.716 272.952C297.432 274.23 290.083 275.348 282.735 276.275C277.368 276.946 271.968 277.489 266.569 277.904C261.84 278.288 257.08 278.447 252.352 278.671C244.939 279.022 237.527 278.799 230.115 278.288C224.971 277.936 219.859 277.233 214.747 276.435C208.07 275.38 201.489 273.974 195.067 271.93C191.904 270.907 188.805 269.725 185.897 268C184.108 266.914 182.415 265.7 180.977 264.166C179.987 263.112 179.124 261.962 179.028 260.492C178.964 259.502 178.453 259.246 177.623 259.118C173.661 258.543 170.338 256.882 168.134 253.367C167.782 252.824 167.367 252.824 166.856 253.048C159.252 256.434 152.862 261.387 147.846 268.064C146.888 269.342 146.121 270.716 145.546 272.185C144.619 274.613 144.907 276.914 146.344 279.086C147.271 280.492 148.453 281.674 149.795 282.697C151.776 284.23 153.98 285.412 156.249 286.467C160.178 288.32 164.268 289.725 168.421 290.908C185.163 295.604 202.255 298.16 219.572 299.374C228.294 300.013 237.048 300.173 246.441 300.173ZM188.006 210.396C182.191 210.396 176.345 210.396 170.53 210.396C170.37 210.396 170.21 210.396 170.019 210.396C167.399 210.364 167.463 210.364 167.495 213.048C167.495 214.134 167.495 215.22 167.527 216.306C167.591 219.757 168.262 223.08 169.571 226.274C170.945 229.597 173.118 232.057 176.696 233.112C178.294 233.591 179.859 234.102 181.488 234.453C186.121 235.444 190.85 235.923 195.546 236.466C197.687 236.722 199.859 236.882 202 237.073C204.811 237.329 207.623 237.68 210.434 237.872C212.83 238.032 215.259 238.128 217.655 238.287C221.712 238.607 225.802 238.703 229.859 238.767C239.348 238.926 248.837 239.214 258.294 238.511C261.361 238.287 264.428 238.319 267.495 238.032C271.457 237.68 275.451 237.425 279.412 236.945C282.703 236.53 286.026 236.275 289.317 235.795C294.748 234.965 300.147 234.166 305.515 232.952C314.205 230.971 322.831 228.798 331.042 225.316C334.493 223.846 337.847 222.185 340.755 219.757C345.036 216.242 347.336 211.77 347.624 206.178C347.879 201.61 346.729 197.265 345.771 192.888C345.579 191.961 345.196 191.769 344.109 191.801C342.129 191.865 340.148 192.089 338.135 192.249C334.301 192.568 330.563 193.303 326.857 194.166C316.985 196.53 308.199 201.067 300.052 207.041C295.131 210.619 290.627 214.677 285.994 218.607C283.853 220.428 281.681 222.249 279.285 223.814C275.579 226.243 271.521 227.584 267.016 227.329C264.332 227.201 261.745 226.498 259.316 225.444C255.578 223.814 251.84 222.185 248.166 220.396C242.671 217.744 236.984 215.699 231.041 214.326C226.025 213.175 220.978 212.185 215.866 211.45C211.169 210.811 206.473 210.268 201.712 210.3C197.143 210.428 192.575 210.396 188.006 210.396ZM342.512 171.003C342.384 171.162 342.192 171.45 341.969 171.705C339.221 175.06 335.803 177.52 331.969 179.437C329.956 180.428 327.879 181.29 325.739 182.025C318.933 184.357 311.969 185.891 304.812 186.626C295.483 187.584 286.186 187.265 276.984 185.38C275.674 185.124 274.301 184.836 273.214 184.166C271.649 183.175 270.531 183.59 269.221 184.549C267.24 185.987 265.003 186.881 262.575 187.233C261.521 187.392 260.403 187.36 259.348 187.392C258.709 187.392 258.23 187.552 257.911 188.127C257.719 188.479 257.431 188.798 257.176 189.15C253.853 193.91 249.38 197.009 243.789 198.575C237.335 200.396 230.754 201.29 224.077 201.45C219.827 201.546 215.578 201.45 211.361 201.035C203.917 200.268 196.505 199.182 189.22 197.424C184.843 196.338 180.562 194.964 176.568 192.888C174.715 191.929 172.958 190.811 171.456 189.341C171.105 189.022 170.849 188.543 170.274 188.511C167.047 191.226 163.405 195.507 161.456 198.958C160.913 199.885 160.434 200.875 160.051 201.865C158.964 204.709 159.635 205.891 162.575 206.498C164.3 206.849 166.057 206.913 167.782 206.913C175.354 206.945 182.926 206.434 190.498 206.178C197.335 205.955 204.172 205.987 210.977 206.626C217.112 207.201 223.182 208.223 229.22 209.469C236.089 210.875 242.767 212.856 249.093 215.987C251.265 217.073 253.438 218.064 255.642 219.054C258.07 220.172 260.499 221.258 263.023 222.089C267.847 223.687 272.416 223.048 276.633 220.268C278.358 219.15 280.019 217.84 281.617 216.498C284.301 214.262 286.92 211.929 289.604 209.693C294.972 205.156 300.563 201.035 306.697 197.584C316.889 191.865 327.911 188.958 339.477 187.936C341.553 187.744 343.63 187.648 345.707 187.456C349.317 187.073 350.851 185.188 350.595 181.578C350.563 181.162 350.531 180.747 350.435 180.332C349.381 176.977 347.56 174.165 344.748 172.025C344.109 171.61 343.502 171.13 342.512 171.003ZM244.268 273.943C250.019 273.974 255.77 273.815 261.489 273.463C267.815 273.08 274.109 272.537 280.403 271.77C288.007 270.843 295.579 269.725 303.151 268.511C311.521 267.137 319.86 265.444 328.071 263.399C331.394 262.569 334.62 261.482 337.656 259.917C339.892 258.767 341.905 257.297 343.534 255.348C345.068 253.527 345.994 251.418 346.537 249.118C346.601 248.926 346.506 248.575 346.378 248.447C346.25 248.319 345.898 248.351 345.707 248.447C344.557 248.894 343.406 249.438 342.256 249.885C335.898 252.185 329.381 252.185 322.799 251.163C319.828 250.716 316.985 249.725 314.173 248.703C312.128 247.968 310.084 247.361 307.975 246.818C303.183 245.604 298.742 246.243 294.684 249.182C293.342 250.14 291.905 251.035 290.435 251.802C286.601 253.879 282.511 254.741 278.134 254.038C275.131 253.559 272.352 252.537 269.636 251.259C268.039 250.524 266.473 249.757 264.844 249.182C260.722 247.712 256.665 248.032 252.735 249.981C250.786 250.939 248.997 252.153 247.208 253.399C244.684 255.188 242.16 256.946 239.508 258.511C233.885 261.77 227.91 263.942 221.329 264.134C214.62 264.358 208.453 262.792 203.054 258.639C202.191 257.968 201.361 257.297 200.53 256.594C198.453 254.805 196.121 254.39 193.533 255.252C192.671 255.54 191.776 255.795 190.945 256.147C188.006 257.329 185.131 258.607 181.936 259.022C181.297 259.118 181.169 259.534 181.456 260.109C181.84 260.971 182.479 261.61 183.182 262.217C184.556 263.463 186.057 264.454 187.687 265.348C190.051 266.626 192.543 267.553 195.099 268.319C202.926 270.716 210.977 272.026 219.124 272.76C227.463 273.623 235.866 274.006 244.268 273.943ZM315.579 166.146C321.873 166.274 324.557 164.517 326.697 159.533C327.144 158.447 327.56 157.36 328.007 156.274C329.413 152.696 331.969 150.395 335.675 149.341C337.911 148.702 340.212 148.319 342.512 147.967C343.758 147.776 344.972 147.584 346.186 147.232C348.87 146.434 350.276 144.453 350.595 141.737C350.915 138.862 350.084 136.306 348.103 134.165C346.793 132.759 345.323 131.545 343.598 130.651C341.458 129.501 339.189 128.702 336.825 128.159C334.557 127.648 334.652 127.711 333.95 129.66C332.128 134.676 329.157 138.958 325.451 142.76C321.33 146.945 316.505 150.204 311.362 152.983C303.215 157.392 294.588 160.747 285.706 163.367C276.026 166.21 266.217 168.287 256.185 169.565C249.157 170.459 242.128 171.13 235.067 171.386C229.923 171.578 224.748 171.514 219.572 171.514C211.137 171.546 202.798 170.587 194.524 168.958C188.23 167.712 182.095 165.891 176.281 163.079C172.734 161.354 169.444 159.277 166.696 156.402C166.472 156.146 166.217 155.923 165.993 155.699C165.578 155.284 165.099 155.284 164.619 155.571C164.108 155.859 163.597 156.146 163.15 156.53C160.274 158.734 158.038 161.514 156.376 164.741C155.578 166.306 155.098 167.999 155.067 169.757C154.971 174.261 157.91 177.328 162.415 177.488C164.428 177.552 166.377 177.137 168.325 176.689C169.859 176.306 171.393 175.955 172.99 175.827C176.409 175.539 179.22 176.721 181.425 179.245C182.447 180.428 183.31 181.769 184.268 183.047C184.907 183.91 185.514 184.836 186.249 185.603C188.901 188.351 192.159 189.661 195.929 189.309C199.444 188.99 202.798 188.095 205.929 186.402C207.175 185.731 208.39 185.028 209.636 184.325C212.671 182.6 215.738 180.907 219.093 179.82C226.984 177.233 235.035 176.594 243.246 177.616C246.888 178.063 250.435 179.054 253.693 180.811C254.268 181.13 254.907 181.354 255.515 181.61C259.285 183.079 262.991 182.983 266.601 181.098C268.294 180.204 269.924 179.182 271.393 177.967C274.173 175.699 276.952 173.463 279.668 171.13C285.163 166.434 291.585 164.357 298.678 163.974C302.384 163.782 305.994 164.261 309.54 165.22C311.809 165.795 314.109 166.146 315.579 166.146ZM330.595 247.233C335.579 247.265 340.339 246.434 344.812 244.07C347.975 242.409 350.659 240.268 352.768 237.393C354.557 234.933 355.867 232.249 356.218 229.214C356.665 225.38 355.292 221.61 351.458 219.885C350.691 219.533 349.924 219.214 349.189 218.83C348.518 218.479 348.135 218.734 347.72 219.246C344.269 223.687 339.7 226.658 334.62 228.958C328.358 231.77 321.841 233.687 315.227 235.412C307.975 237.329 300.627 238.703 293.214 239.789C289.029 240.396 284.812 240.907 280.595 241.354C275.802 241.866 270.978 242.217 266.154 242.569C260.339 242.984 254.524 243.016 248.677 243.207C242.192 243.399 235.706 243.303 229.188 243.016C223.853 242.76 218.549 242.568 213.214 242.313C211.233 242.217 209.22 242.025 207.239 241.866C205.163 241.674 203.086 241.546 201.041 241.227C195.866 240.492 190.658 239.725 185.482 238.894C182.127 238.351 178.773 237.616 175.546 236.466C174.555 236.115 173.597 235.06 172.575 235.636C171.648 236.147 171.456 237.425 171.009 238.415C170.69 239.086 170.434 239.821 170.242 240.524C169.539 242.76 169.156 245.061 169.476 247.425C169.891 250.62 171.424 253.048 174.364 254.486C176.76 255.636 179.252 256.051 181.872 255.7C184.012 255.38 186.121 254.869 188.166 254.198C189.763 253.687 191.361 253.208 192.958 252.792C196.536 251.834 199.859 252.249 202.958 254.358C204.268 255.252 205.61 256.083 206.984 256.85C211.616 259.438 216.664 260.428 221.872 260.3C226.409 260.172 230.754 259.022 234.939 257.297C238.645 255.763 242.096 253.783 245.482 251.642C247.655 250.268 249.86 248.894 252.192 247.776C256.856 245.54 261.713 244.805 266.761 246.179C268.454 246.626 270.083 247.233 271.745 247.744C273.246 248.223 274.748 248.767 276.249 249.182C279.508 250.077 282.799 250.268 286.122 249.406C288.135 248.894 290.051 248.064 291.936 247.201C293.598 246.434 295.227 245.636 296.921 244.901C300.275 243.431 303.758 242.984 307.4 243.303C310.499 243.591 313.502 244.166 316.441 245.029C321.17 246.37 325.803 247.201 330.595 247.233ZM292.256 183.75C295.259 183.622 298.262 183.654 301.234 183.335C308.965 182.504 316.473 180.747 323.758 177.967C327.272 176.626 330.755 175.316 333.95 173.303C336.505 171.705 338.774 169.756 340.499 167.233C342.001 165.06 342.927 162.632 342.831 159.98C342.736 157.584 342.065 155.22 341.234 152.951C341.01 152.344 340.595 151.993 339.924 152.057C338.518 152.216 337.081 152.28 335.739 152.6C333.502 153.111 331.841 154.453 331.01 156.657C330.659 157.584 330.339 158.542 330.02 159.469C329.732 160.332 329.477 161.226 329.157 162.089C327.336 167.36 323.374 170.427 317.24 170.587C314.301 170.651 311.425 170.204 308.646 169.277C307.08 168.766 305.483 168.255 303.885 167.808C299.796 166.657 295.643 166.689 291.553 167.648C287.559 168.574 284.173 170.619 281.265 173.495C278.901 175.827 276.569 178.223 274.237 180.587C274.077 180.747 273.917 180.971 273.789 181.162C273.63 181.418 273.757 181.642 273.981 181.769C274.205 181.865 274.46 181.929 274.684 181.961C280.435 183.207 286.345 183.654 292.256 183.75ZM287.527 40.2348C288.262 40.778 289.029 40.6502 289.764 40.6502C294.109 40.8099 298.39 40.2349 302.607 39.2125C310.531 37.2955 317.783 33.845 324.62 29.468C328.934 26.7204 332.704 23.3657 336.122 19.5957C336.378 19.3082 336.761 19.0526 336.474 18.4775C336.09 18.4775 335.675 18.4775 335.259 18.4775C327.751 18.7331 320.307 17.9663 312.959 16.4967C306.218 15.1548 299.764 13.1101 293.917 9.37201C293.726 9.24422 293.47 9.24422 293.214 9.18033C291.298 19.2443 289.381 29.2763 287.496 39.3083C287.464 39.6278 287.527 39.9473 287.527 40.2348ZM219.029 196.945C224.204 196.945 227.783 196.881 231.361 196.53C235.003 196.178 238.613 195.603 242.192 194.805C246.856 193.75 250.818 191.386 254.237 188.095C254.46 187.872 254.716 187.616 254.907 187.36C255.131 187.041 255.099 186.721 254.748 186.53C253.438 185.827 252.064 185.188 250.786 184.421C248.486 183.047 246.026 182.089 243.438 181.386C239.604 180.332 235.706 180.268 231.808 180.364C226.281 180.491 221.137 181.961 216.345 184.709C213.981 186.083 211.648 187.52 209.284 188.958C206.409 190.715 203.278 191.865 199.955 192.281C196.632 192.696 193.31 192.76 190.115 191.418C187.559 190.332 185.195 188.958 183.246 186.977C182.191 185.923 181.169 184.836 180.083 183.782C179.188 182.92 178.23 182.089 177.271 181.322C176.472 180.683 175.514 180.364 174.492 180.3C173.246 180.204 172 180.364 170.754 180.555C170.242 180.619 170.051 181.003 170.115 181.45C170.178 181.865 170.274 182.249 170.402 182.664C171.201 185.156 172.83 187.009 175.003 188.383C176.249 189.182 177.591 189.884 178.964 190.491C184.076 192.792 189.54 194.006 195.035 194.9C203.501 196.306 212.064 196.849 219.029 196.945Z" fill="#13110C"/>
<path fill-rule="evenodd" clip-rule="evenodd" d="M275.578 72.2159C275.738 73.5897 275.227 74.8357 275.067 76.1456C274.78 78.446 274.46 80.7783 274.173 83.0786C274.077 83.8773 273.885 84.4844 273.023 84.7719C272.384 84.9955 271.329 85.1872 271.713 86.1777C272 87.0083 272.895 86.5291 273.47 86.3694C275.099 85.954 276.601 86.2096 278.102 86.8805C278.55 87.0722 279.093 87.1681 279.476 86.7208C279.764 86.4013 279.508 85.6345 278.997 85.1873C278.678 84.9317 278.326 84.676 277.975 84.4843C277.527 84.2607 277.368 83.9412 277.527 83.4939C278.518 80.6505 278.997 77.6792 279.732 74.7719C279.86 74.2287 280.051 73.6536 280.211 73.1105C280.563 73.1105 280.786 73.0785 281.042 73.1105C290.499 75.3469 299.54 78.6057 307.943 83.5898C312.703 86.4013 317.112 89.6282 320.946 93.6218C325.675 98.5739 329.317 104.197 331.202 110.81C332.32 114.676 332.799 118.606 332.192 122.664C331.489 127.2 329.796 131.29 327.144 135.028C324.556 138.638 321.33 141.673 317.719 144.261C313.119 147.584 308.071 150.172 302.895 152.472C293.949 156.434 284.652 159.245 275.131 161.45C266.345 163.463 257.463 164.804 248.518 165.635C239.38 166.466 230.243 166.977 221.073 166.753C215.067 166.625 209.092 166.306 203.15 165.443C195.035 164.293 187.079 162.664 179.54 159.341C177.079 158.255 174.747 157.041 172.575 155.443C166.632 151.066 163.469 145.22 162.99 137.871C162.543 131.034 164.268 124.644 167.239 118.574C170.466 111.961 175.035 106.37 180.402 101.449C188.325 94.1969 197.239 88.4141 206.76 83.5259C216.441 78.5418 226.664 75.0594 237.399 73.1424C241.489 72.4076 245.642 71.9923 249.764 71.4811C252 71.1935 254.237 71.0338 256.473 70.8421C262.064 70.3629 267.623 70.7782 273.15 71.545C273.725 71.6089 274.301 71.7367 274.876 71.8964C275.099 71.9923 275.323 72.1201 275.578 72.2159ZM316.058 97.5835C316.058 95.6346 315.291 94.2927 314.237 93.0787C313.023 91.641 311.393 90.8422 309.668 90.1713C307.176 89.2128 304.524 88.9573 301.905 88.51C301.745 88.478 301.585 88.51 301.393 88.51C300.85 88.51 300.435 88.7655 300.179 89.2448C299.956 89.6921 300.275 90.331 300.882 90.6825C301.234 90.9061 301.617 91.0339 302 91.2256C302.735 91.5771 303.502 91.9285 304.237 92.3119C306.505 93.494 308.39 95.0595 309.508 97.3918C309.796 97.9988 310.179 98.542 310.563 99.0851C311.106 99.8519 311.873 100.331 312.703 100.746C313.438 101.098 314.141 100.97 314.78 100.459C315.802 99.6282 316.122 98.542 316.058 97.5835ZM217.399 92.0244C217.463 92.0244 217.367 91.9924 217.303 92.0244C216.025 92.4078 214.524 94.6442 214.715 95.9221C214.811 96.5931 215.099 97.1682 215.642 97.6474C216.025 97.9669 216.696 97.903 216.952 97.4877C217.846 96.0499 217.974 94.3566 218.358 92.7592C218.454 92.4077 217.942 91.9924 217.399 92.0244ZM273.981 92.5036C273.949 92.5036 273.534 92.5355 273.118 92.5675C272.959 92.5994 272.799 92.6633 272.639 92.7272C272.096 92.9509 271.84 93.8454 272.256 94.1649C273.31 94.9637 274.492 95.6026 275.834 95.8263C276.537 95.9541 277.24 95.5068 277.464 94.9317C277.687 94.3247 277.464 93.6218 276.952 93.1426C276.186 92.5356 275.291 92.4717 273.981 92.5036ZM240.818 95.4429C240.818 95.3471 240.818 95.2831 240.786 95.1873C240.466 93.9413 238.965 92.7272 237.687 92.6314C237.24 92.5994 236.728 93.0787 236.665 93.5579C236.473 94.9956 237.655 96.5611 239.125 96.8487C239.923 97.0084 240.882 96.2097 240.818 95.4429ZM263.693 79.9156C261.777 79.8837 260.403 80.8421 260.019 82.4077C259.892 82.9188 260.243 83.462 260.722 83.5259C262.384 83.7176 264.045 82.823 264.844 81.2575C265.067 80.8102 264.812 80.1712 264.332 80.0435C264.109 79.9796 263.853 79.9476 263.693 79.9156ZM254.396 92.8231C254.332 92.6953 254.268 92.3438 254.109 92.0882C253.406 91.0659 252.288 90.7464 251.137 90.6505C250.403 90.5866 249.859 91.4493 250.051 92.2161C250.339 93.3023 251.681 94.3247 252.799 94.2927C253.502 94.2927 254.3 93.6538 254.396 92.8231ZM244.396 82.2479C243.278 82.4077 241.936 83.5259 241.681 84.5483C241.553 85.0595 241.84 85.6665 242.383 86.0179C242.863 86.3374 243.342 86.2415 243.789 85.9221C244.62 85.315 245.099 84.4205 245.355 83.43C245.482 82.8869 244.907 82.184 244.396 82.2479ZM316.665 104.612C315.962 104.676 315.195 105.443 315.259 106.114C315.355 106.849 315.515 107.584 316.026 108.159C316.409 108.574 317.176 108.574 317.592 108.127C318.039 107.615 318.294 107.008 318.358 106.338C318.486 105.443 317.528 104.516 316.665 104.612Z" fill="#F4A45D"/>
<path fill-rule="evenodd" clip-rule="evenodd" d="M246.441 300.173C237.048 300.173 228.294 300.013 219.572 299.374C202.255 298.128 185.163 295.604 168.421 290.908C164.268 289.725 160.146 288.32 156.249 286.467C153.98 285.412 151.776 284.23 149.795 282.697C148.453 281.674 147.271 280.524 146.344 279.086C144.907 276.914 144.619 274.613 145.546 272.185C146.121 270.684 146.888 269.31 147.846 268.064C152.862 261.419 159.252 256.466 166.856 253.048C167.367 252.824 167.782 252.824 168.134 253.367C170.338 256.882 173.661 258.543 177.623 259.118C178.453 259.246 178.964 259.47 179.028 260.492C179.124 261.962 179.987 263.112 180.977 264.166C182.415 265.7 184.076 266.914 185.897 268C188.773 269.725 191.872 270.907 195.067 271.93C201.489 273.974 208.102 275.38 214.747 276.435C219.859 277.233 224.971 277.936 230.115 278.288C237.527 278.799 244.939 279.022 252.352 278.671C257.08 278.447 261.84 278.288 266.569 277.904C271.968 277.457 277.336 276.946 282.735 276.275C290.083 275.348 297.4 274.23 304.716 272.952C312.991 271.514 321.202 269.757 329.317 267.457C332.512 266.53 335.643 265.38 338.614 263.815C340.531 262.824 342.352 261.642 343.95 260.172C347.752 256.658 349.924 252.441 349.509 247.105C349.445 246.434 349.732 246.019 350.212 245.636C351.106 244.901 352.033 244.166 352.831 243.335C353.47 242.696 354.109 242.409 355.036 242.537C359.062 243.112 363.119 243.623 367.145 244.262C369.764 244.677 372.384 245.188 374.94 245.955C378.327 246.977 381.49 248.415 384.237 250.652C385.867 251.962 387.273 253.495 388.295 255.348C389.349 257.233 389.669 259.214 389.19 261.355C388.487 264.454 386.953 267.073 384.844 269.374C382.576 271.834 379.956 273.879 377.113 275.668C373.151 278.16 368.966 280.173 364.621 281.93C355.292 285.732 345.643 288.607 335.835 290.939C325.132 293.495 314.301 295.285 303.374 296.531C291.553 297.904 279.668 298.927 267.783 299.566C260.467 299.949 253.118 299.981 246.441 300.173ZM376.474 259.725C376.41 256.914 374.94 254.901 372.864 253.208C372.448 252.856 371.905 252.92 371.49 253.271C371.138 253.527 370.947 253.942 371.042 254.358C371.234 255.093 371.49 255.795 371.713 256.498C371.841 256.914 371.937 257.297 371.777 257.712C371.011 259.565 370.18 261.387 368.487 262.601C366.186 264.23 363.918 265.891 361.522 267.393C358.678 269.15 356.09 271.195 353.502 273.24C352.736 273.847 352.065 274.645 351.394 275.348C351.106 275.668 350.978 276.083 351.106 276.498C351.33 277.393 352.32 278.032 353.215 277.808C355.132 277.297 357.081 276.882 358.934 276.179C363.247 274.582 367.209 272.409 370.851 269.566C372.832 268.032 374.205 266.115 375.324 264.006C375.995 262.728 376.538 261.291 376.474 259.725ZM154.555 277.233C154.46 278.096 154.651 278.927 155.162 279.598C156.185 281.003 157.367 282.249 159.092 282.888C161.648 283.847 164.396 284.134 167.016 284.805C167.654 284.965 168.134 284.614 168.549 284.166C169.028 283.655 169.06 283.048 168.485 282.665C167.527 282.026 166.504 281.451 165.514 280.876C163.789 279.885 162.063 278.927 160.37 277.904C158.932 277.042 157.559 276.179 157.399 274.23C157.367 273.719 156.824 273.431 156.281 273.463C155.833 273.463 155.45 273.719 155.29 274.102C154.875 275.125 154.428 276.115 154.555 277.233Z" fill="#E6E0E0"/>
<path fill-rule="evenodd" clip-rule="evenodd" d="M188.006 210.396C192.575 210.396 197.175 210.428 201.744 210.396C206.505 210.364 211.201 210.907 215.898 211.546C221.009 212.249 226.057 213.271 231.073 214.421C237.016 215.795 242.703 217.84 248.198 220.492C251.872 222.281 255.578 223.91 259.348 225.54C261.809 226.594 264.364 227.297 267.048 227.425C271.521 227.648 275.579 226.338 279.317 223.91C281.681 222.377 283.853 220.556 286.026 218.703C290.659 214.773 295.163 210.715 300.084 207.137C308.231 201.194 317.048 196.626 326.889 194.262C330.595 193.367 334.333 192.632 338.167 192.345C340.148 192.185 342.129 191.929 344.141 191.897C345.228 191.865 345.611 192.089 345.803 192.984C346.761 197.361 347.879 201.706 347.656 206.274C347.368 211.865 345.068 216.338 340.787 219.853C337.847 222.249 334.525 223.942 331.074 225.412C322.831 228.894 314.237 231.067 305.547 233.048C300.179 234.262 294.78 235.092 289.349 235.891C286.058 236.37 282.735 236.626 279.444 237.041C275.483 237.521 271.489 237.776 267.527 238.128C264.46 238.415 261.393 238.383 258.326 238.607C248.837 239.31 239.348 239.022 229.891 238.862C225.834 238.799 221.744 238.703 217.687 238.383C215.291 238.192 212.862 238.128 210.466 237.968C207.655 237.776 204.843 237.425 202.032 237.169C199.891 236.977 197.719 236.786 195.578 236.562C190.881 236.019 186.153 235.54 181.52 234.549C179.891 234.198 178.325 233.687 176.728 233.207C173.182 232.153 170.977 229.693 169.603 226.37C168.293 223.175 167.623 219.853 167.559 216.402C167.527 215.316 167.527 214.23 167.527 213.143C167.527 210.46 167.431 210.46 170.051 210.492C170.21 210.492 170.37 210.492 170.562 210.492C176.345 210.396 182.159 210.396 188.006 210.396Z" fill="#9A3A16"/>
<path fill-rule="evenodd" clip-rule="evenodd" d="M342.512 171.003C343.502 171.13 344.109 171.61 344.684 172.057C347.464 174.197 349.317 177.041 350.371 180.364C350.499 180.747 350.499 181.194 350.531 181.61C350.819 185.22 349.253 187.105 345.643 187.488C343.566 187.712 341.49 187.808 339.413 187.967C327.847 188.958 316.825 191.897 306.633 197.616C300.499 201.035 294.876 205.188 289.54 209.725C286.857 211.993 284.269 214.294 281.553 216.53C279.956 217.84 278.294 219.15 276.569 220.3C272.352 223.048 267.815 223.687 262.959 222.121C260.435 221.29 258.007 220.204 255.578 219.086C253.374 218.096 251.169 217.073 249.029 216.019C242.735 212.888 236.057 210.875 229.156 209.501C223.118 208.287 217.048 207.233 210.914 206.658C204.108 206.019 197.271 205.987 190.434 206.21C182.862 206.466 175.29 206.945 167.718 206.945C165.961 206.945 164.236 206.881 162.511 206.53C159.571 205.923 158.9 204.741 159.987 201.897C160.37 200.907 160.849 199.916 161.392 198.99C163.341 195.539 166.984 191.258 170.21 188.543C170.785 188.575 171.041 189.054 171.392 189.373C172.926 190.843 174.651 191.929 176.504 192.92C180.53 194.996 184.779 196.37 189.156 197.456C196.441 199.246 203.853 200.3 211.297 201.067C215.546 201.514 219.763 201.578 224.013 201.482C230.69 201.322 237.272 200.428 243.725 198.607C249.316 197.009 253.789 193.942 257.112 189.182C257.336 188.83 257.623 188.511 257.847 188.159C258.166 187.584 258.645 187.424 259.284 187.424C260.371 187.424 261.457 187.424 262.511 187.265C264.939 186.913 267.208 186.051 269.157 184.581C270.467 183.622 271.585 183.207 273.15 184.198C274.237 184.868 275.642 185.156 276.92 185.412C286.122 187.265 295.419 187.584 304.748 186.658C311.905 185.923 318.87 184.389 325.675 182.057C327.815 181.322 329.892 180.459 331.905 179.469C335.771 177.552 339.157 175.092 341.905 171.737C342.192 171.45 342.384 171.162 342.512 171.003ZM266.633 215.859C270.179 215.955 274.971 212.536 275.962 209.405C276.377 208.095 275.61 207.233 274.237 207.52C273.662 207.648 273.118 207.84 272.575 208.063C271.329 208.543 270.115 209.086 268.869 209.533C267.304 210.108 265.674 210.524 263.981 210.332C262.352 210.108 260.722 209.725 259.093 209.405C258.677 209.309 258.294 209.118 257.879 209.086C257.112 208.99 256.377 209.917 256.665 210.587C256.792 210.875 256.984 211.226 257.24 211.386C259.157 212.696 260.978 214.166 263.182 215.028C264.396 215.476 265.61 215.667 266.633 215.859ZM170.658 202.025C171.392 202.057 171.744 201.897 171.968 201.514C172.223 201.035 172.031 200.396 171.456 200.012C170.626 199.469 169.763 198.99 169.06 198.287C168.741 197.968 168.293 197.936 167.91 198.095C167.399 198.287 167.143 198.702 167.111 199.246C167.015 200.3 167.559 201.162 168.517 201.642C169.188 201.929 169.955 201.929 170.658 202.025Z" fill="#FECB4B"/>
<path fill-rule="evenodd" clip-rule="evenodd" d="M244.268 273.943C235.866 273.974 227.463 273.591 219.061 272.824C210.914 272.089 202.894 270.78 195.035 268.383C192.479 267.617 189.987 266.69 187.623 265.412C185.993 264.55 184.492 263.527 183.118 262.281C182.447 261.674 181.808 261.003 181.393 260.172C181.105 259.565 181.265 259.15 181.872 259.086C185.067 258.671 187.942 257.393 190.881 256.211C191.712 255.859 192.607 255.604 193.469 255.316C196.057 254.454 198.39 254.869 200.466 256.658C201.297 257.361 202.128 258.032 202.99 258.703C208.39 262.856 214.556 264.422 221.265 264.198C227.847 264.006 233.821 261.834 239.444 258.575C242.096 257.041 244.652 255.252 247.144 253.463C248.901 252.217 250.722 251.003 252.671 250.045C256.601 248.064 260.626 247.776 264.78 249.246C266.409 249.821 268.007 250.588 269.572 251.323C272.288 252.601 275.067 253.623 278.071 254.102C282.448 254.773 286.505 253.91 290.371 251.866C291.841 251.067 293.278 250.204 294.62 249.246C298.678 246.307 303.119 245.668 307.911 246.882C310.02 247.425 312.064 248.032 314.109 248.767C316.921 249.757 319.764 250.779 322.735 251.227C329.317 252.217 335.835 252.249 342.192 249.949C343.375 249.533 344.493 248.99 345.643 248.511C345.835 248.415 346.186 248.415 346.314 248.511C346.474 248.639 346.537 248.958 346.474 249.182C345.93 251.482 345.004 253.591 343.47 255.412C341.841 257.361 339.828 258.799 337.592 259.981C334.557 261.546 331.298 262.633 328.007 263.463C319.764 265.508 311.457 267.201 303.087 268.575C295.515 269.789 287.943 270.907 280.339 271.834C274.045 272.601 267.751 273.144 261.425 273.527C255.77 273.815 250.019 274.006 244.268 273.943Z" fill="#F3A35C"/>
<path fill-rule="evenodd" clip-rule="evenodd" d="M315.579 166.146C314.109 166.146 311.809 165.795 309.54 165.156C305.994 164.197 302.384 163.718 298.678 163.91C291.585 164.293 285.131 166.37 279.668 171.066C276.952 173.399 274.141 175.635 271.393 177.904C269.892 179.118 268.294 180.14 266.601 181.035C262.959 182.92 259.285 183.015 255.515 181.546C254.907 181.29 254.268 181.067 253.693 180.747C250.403 179.022 246.888 178.031 243.246 177.552C235.035 176.53 226.984 177.169 219.093 179.757C215.738 180.843 212.671 182.536 209.636 184.261C208.422 184.964 207.176 185.667 205.93 186.338C202.83 188.063 199.444 188.926 195.929 189.245C192.128 189.597 188.901 188.287 186.249 185.539C185.514 184.773 184.907 183.846 184.268 182.983C183.31 181.705 182.479 180.364 181.425 179.181C179.22 176.658 176.409 175.443 172.99 175.763C171.393 175.891 169.859 176.242 168.325 176.626C166.377 177.105 164.428 177.488 162.415 177.424C157.91 177.265 154.971 174.197 155.067 169.693C155.098 167.903 155.578 166.242 156.376 164.677C158.038 161.45 160.274 158.67 163.15 156.466C163.597 156.114 164.108 155.827 164.619 155.507C165.099 155.22 165.578 155.252 165.993 155.635C166.217 155.859 166.472 156.082 166.696 156.338C169.444 159.213 172.734 161.29 176.281 163.015C182.095 165.827 188.198 167.648 194.524 168.894C202.799 170.555 211.137 171.482 219.572 171.45C224.748 171.45 229.891 171.514 235.067 171.322C242.128 171.066 249.189 170.396 256.185 169.501C266.186 168.223 276.026 166.146 285.706 163.303C294.588 160.683 303.183 157.36 311.362 152.919C316.505 150.14 321.33 146.881 325.451 142.696C329.189 138.926 332.128 134.644 333.95 129.597C334.652 127.648 334.557 127.584 336.825 128.095C339.189 128.638 341.458 129.437 343.598 130.587C345.323 131.481 346.793 132.696 348.103 134.101C350.084 136.242 350.915 138.798 350.595 141.673C350.276 144.389 348.902 146.338 346.186 147.169C345.004 147.52 343.758 147.712 342.512 147.903C340.212 148.255 337.911 148.606 335.675 149.277C331.969 150.363 329.445 152.664 328.007 156.21C327.592 157.296 327.176 158.383 326.697 159.469C324.557 164.549 321.873 166.274 315.579 166.146ZM344.94 137.871C344.94 136.625 344.109 135.699 342.959 135.539C342.288 135.443 341.521 135.922 341.553 136.593C341.585 137.903 341.426 139.213 341.234 140.491C341.17 140.906 341.458 141.29 341.873 141.45C342.288 141.609 342.736 141.609 343.023 141.29C344.045 140.331 344.748 139.149 344.94 137.871ZM258.677 177.999C259.348 177.904 259.924 177.872 260.467 177.744C260.978 177.616 261.329 177.233 261.329 176.689C261.329 176.242 261.042 175.923 260.658 175.731C259.764 175.348 258.773 175.188 257.783 175.156C256.984 175.124 256.441 175.603 256.377 176.242C256.313 176.881 256.697 177.616 257.336 177.808C257.783 177.904 258.294 177.935 258.677 177.999Z" fill="#8FB624"/>
<path fill-rule="evenodd" clip-rule="evenodd" d="M330.595 247.233C325.803 247.201 321.17 246.402 316.569 245.029C313.63 244.166 310.595 243.559 307.528 243.303C303.885 242.984 300.371 243.399 297.048 244.901C295.387 245.636 293.726 246.466 292.064 247.201C290.179 248.064 288.262 248.894 286.25 249.406C282.927 250.268 279.636 250.077 276.377 249.182C274.844 248.767 273.374 248.224 271.872 247.744C270.211 247.201 268.55 246.626 266.888 246.179C261.84 244.805 256.984 245.54 252.32 247.776C249.987 248.894 247.815 250.268 245.61 251.642C242.224 253.783 238.773 255.764 235.067 257.297C230.882 259.022 226.537 260.172 222 260.3C216.76 260.428 211.712 259.438 207.112 256.85C205.738 256.083 204.364 255.252 203.086 254.358C199.987 252.249 196.632 251.802 193.086 252.792C191.489 253.24 189.891 253.719 188.294 254.198C186.217 254.869 184.14 255.38 182 255.7C179.348 256.083 176.856 255.636 174.492 254.486C171.52 253.048 169.987 250.62 169.603 247.425C169.316 245.061 169.699 242.792 170.37 240.524C170.594 239.821 170.849 239.086 171.137 238.415C171.584 237.425 171.776 236.147 172.702 235.636C173.725 235.061 174.683 236.115 175.674 236.466C178.901 237.616 182.223 238.351 185.61 238.894C190.786 239.725 195.961 240.492 201.169 241.227C203.214 241.514 205.291 241.674 207.367 241.866C209.348 242.025 211.361 242.217 213.342 242.313C218.677 242.569 223.981 242.76 229.316 243.016C235.802 243.335 242.288 243.431 248.805 243.208C254.62 243.016 260.435 242.984 266.281 242.569C271.106 242.217 275.898 241.866 280.722 241.354C284.94 240.907 289.157 240.396 293.342 239.789C300.754 238.703 308.103 237.329 315.355 235.412C321.969 233.687 328.486 231.77 334.748 228.958C339.828 226.658 344.397 223.719 347.847 219.246C348.263 218.703 348.646 218.479 349.317 218.83C350.052 219.214 350.819 219.533 351.585 219.885C355.387 221.61 356.761 225.38 356.346 229.214C355.994 232.249 354.684 234.965 352.895 237.393C350.787 240.268 348.071 242.409 344.94 244.07C340.339 246.402 335.547 247.233 330.595 247.233ZM214.204 252.281C214.172 254.198 215.067 255.54 216.696 255.795C218.517 256.083 220.147 255.476 221.648 254.518C222.032 254.262 222.128 253.847 222.064 253.399C222 252.952 221.712 252.632 221.265 252.537C220.85 252.441 220.434 252.409 220.019 252.409C218.581 252.377 217.239 252.281 216.089 251.163C215.386 250.492 214.236 251.195 214.204 252.281ZM346.474 235.923C346.506 236.115 346.506 236.307 346.537 236.434C346.665 236.85 346.921 237.169 347.368 237.265C347.815 237.361 348.231 237.169 348.391 236.754C348.902 235.604 349.445 234.485 349.637 233.239C349.669 232.92 349.637 232.568 349.573 232.249C349.445 231.706 349.093 231.386 348.518 231.354C347.975 231.322 347.464 231.514 347.304 232.025C346.953 233.335 346.506 234.613 346.474 235.923Z" fill="#8FB624"/>
<path fill-rule="evenodd" clip-rule="evenodd" d="M292.256 183.75C286.313 183.686 280.435 183.239 274.652 181.993C274.396 181.929 274.141 181.897 273.949 181.801C273.725 181.674 273.566 181.45 273.757 181.194C273.885 180.971 274.045 180.779 274.205 180.619C276.537 178.255 278.869 175.891 281.234 173.527C284.141 170.651 287.527 168.606 291.521 167.68C295.643 166.721 299.764 166.689 303.853 167.84C305.451 168.287 307.048 168.798 308.614 169.309C311.393 170.236 314.269 170.715 317.208 170.619C323.374 170.459 327.304 167.392 329.125 162.121C329.413 161.258 329.668 160.363 329.988 159.501C330.307 158.542 330.627 157.616 330.978 156.689C331.809 154.485 333.47 153.175 335.707 152.632C337.081 152.312 338.518 152.248 339.892 152.089C340.563 151.993 340.978 152.344 341.202 152.983C342.033 155.252 342.704 157.616 342.799 160.012C342.895 162.664 341.969 165.06 340.467 167.265C338.742 169.788 336.473 171.705 333.918 173.335C330.723 175.348 327.208 176.658 323.726 177.999C316.441 180.779 308.933 182.536 301.202 183.367C298.262 183.622 295.259 183.59 292.256 183.75ZM295.93 176.881C295.93 176.913 295.93 176.945 295.93 176.945C295.355 176.945 294.78 176.945 294.173 176.945C293.151 176.945 292.192 177.233 291.265 177.584C290.754 177.776 290.499 178.191 290.531 178.766C290.563 179.213 290.818 179.533 291.202 179.725C291.489 179.852 291.809 179.948 292.128 180.044C294.46 180.683 296.505 179.565 298.646 178.958C299.061 178.862 299.221 178.383 299.157 177.935C299.093 177.488 298.805 177.137 298.39 177.073C297.591 176.945 296.761 176.913 295.93 176.881Z" fill="#EB1B28"/>
<path fill-rule="evenodd" clip-rule="evenodd" d="M287.527 40.2348C287.527 39.9473 287.464 39.6278 287.527 39.3083C289.444 29.2763 291.329 19.2762 293.246 9.18033C293.502 9.24423 293.758 9.24422 293.949 9.37202C299.796 13.1101 306.25 15.1548 312.991 16.4967C320.339 17.9663 327.783 18.7331 335.291 18.4775C335.707 18.4775 336.122 18.4775 336.505 18.4775C336.793 19.0526 336.41 19.3082 336.154 19.5957C332.735 23.3657 328.934 26.7204 324.652 29.468C317.815 33.845 310.563 37.2955 302.639 39.2125C298.422 40.2349 294.141 40.778 289.796 40.6502C289.029 40.6182 288.262 40.778 287.527 40.2348ZM312.863 23.4296C312.767 22.0558 312.416 20.9056 311.362 20.043C310.403 19.2762 309.125 19.2443 308.135 19.9791C307.592 20.3625 307.176 20.9056 306.857 21.4807C306.537 22.0558 306.25 22.6628 305.93 23.2379C305.707 23.6533 305.323 23.7811 304.876 23.5894C304.269 23.3338 303.63 23.1101 303.023 22.8545C302.256 22.535 301.425 22.4072 300.595 22.4711C299.508 22.535 298.678 23.0143 298.198 24.0047C297.719 24.9951 297.879 25.9536 298.518 26.8162C299.253 27.8386 300.243 28.6054 301.361 29.1805C302.703 29.8833 304.109 30.2987 305.579 30.6182C308.231 31.1933 308.262 31.2572 310.147 29.3722C311.841 27.7428 312.608 25.6341 312.863 23.4296Z" fill="#EB1B28"/>
<path fill-rule="evenodd" clip-rule="evenodd" d="M219.029 196.945C212.064 196.849 203.501 196.306 195.035 194.932C189.54 194.038 184.076 192.824 178.964 190.523C177.591 189.916 176.249 189.245 175.003 188.415C172.862 187.041 171.201 185.188 170.402 182.696C170.274 182.312 170.178 181.897 170.115 181.482C170.051 181.003 170.242 180.651 170.754 180.587C172 180.396 173.214 180.236 174.492 180.332C175.514 180.396 176.472 180.715 177.271 181.354C178.23 182.121 179.188 182.951 180.083 183.814C181.169 184.836 182.191 185.923 183.246 187.009C185.226 188.99 187.559 190.364 190.115 191.45C193.31 192.792 196.632 192.728 199.955 192.313C203.31 191.897 206.409 190.747 209.284 188.99C211.616 187.552 213.949 186.114 216.345 184.741C221.105 181.993 226.281 180.523 231.808 180.396C235.738 180.3 239.636 180.364 243.438 181.418C246.026 182.121 248.486 183.079 250.786 184.453C252.064 185.22 253.438 185.859 254.748 186.562C255.099 186.753 255.131 187.073 254.908 187.392C254.716 187.648 254.46 187.904 254.237 188.127C250.818 191.418 246.856 193.782 242.192 194.837C238.613 195.635 235.003 196.242 231.361 196.562C227.783 196.881 224.236 196.945 219.029 196.945ZM231.01 193.431C233.374 193.303 235.514 192.568 237.527 191.258C237.655 191.162 237.783 191.035 237.879 190.907C238.166 190.587 238.294 190.172 238.134 189.757C237.974 189.341 237.655 189.054 237.208 189.022C236.537 189.022 235.898 189.086 235.227 189.118C232.064 189.213 229.029 190.204 225.866 190.491C225.61 190.523 225.355 190.587 225.163 190.683C224.78 190.875 224.524 191.226 224.524 191.674C224.556 192.025 224.748 192.313 225.067 192.44C225.291 192.536 225.514 192.664 225.77 192.696C227.527 192.952 229.252 193.175 231.01 193.431Z" fill="#EB1B28"/>
<path fill-rule="evenodd" clip-rule="evenodd" d="M272.671 9.18032C272.543 9.37201 272.352 9.59566 272.128 9.40397C271.904 9.21227 272.064 8.98863 272.224 8.76498C272.352 8.92473 272.511 9.05252 272.671 9.18032Z" fill="#D88454"/>
<path fill-rule="evenodd" clip-rule="evenodd" d="M316.058 97.5835C316.122 98.5419 315.834 99.6282 314.844 100.427C314.205 100.938 313.502 101.066 312.767 100.714C311.937 100.299 311.17 99.8199 310.627 99.0532C310.243 98.51 309.86 97.9669 309.572 97.3598C308.454 94.9956 306.569 93.4301 304.301 92.2799C303.566 91.8965 302.799 91.5451 302.064 91.1936C301.681 91.002 301.298 90.8742 300.946 90.6505C300.339 90.2991 300.02 89.6601 300.243 89.2128C300.467 88.7336 300.914 88.478 301.457 88.478C301.617 88.478 301.777 88.446 301.968 88.478C304.588 88.9253 307.24 89.1489 309.732 90.1394C311.457 90.8103 313.087 91.609 314.301 93.0467C315.291 94.2927 316.058 95.6346 316.058 97.5835Z" fill="#FDFBFC"/>
<path fill-rule="evenodd" clip-rule="evenodd" d="M217.399 92.0244C217.942 91.9924 218.454 92.4397 218.39 92.7592C218.006 94.3566 217.846 96.018 216.984 97.4877C216.728 97.903 216.057 97.9669 215.674 97.6474C215.131 97.2001 214.843 96.5931 214.747 95.9221C214.556 94.6122 216.057 92.3758 217.335 92.0244C217.399 91.9924 217.463 92.0244 217.399 92.0244Z" fill="#FDFBFC"/>
<path fill-rule="evenodd" clip-rule="evenodd" d="M273.981 92.5036C275.291 92.4717 276.186 92.5036 276.92 93.1745C277.464 93.6538 277.687 94.3566 277.432 94.9637C277.208 95.5388 276.505 95.9541 275.802 95.8583C274.46 95.6346 273.31 94.9956 272.224 94.1969C271.809 93.8774 272.064 92.9509 272.607 92.7592C272.767 92.6953 272.927 92.6314 273.087 92.5994C273.534 92.5355 273.949 92.5036 273.981 92.5036Z" fill="#FDFBFC"/>
<path fill-rule="evenodd" clip-rule="evenodd" d="M240.818 95.4429C240.882 96.2097 239.923 97.0084 239.125 96.8487C237.655 96.5611 236.505 94.9956 236.665 93.5579C236.728 93.0787 237.272 92.5994 237.687 92.6314C238.965 92.7272 240.434 93.9413 240.786 95.1873C240.786 95.2831 240.818 95.379 240.818 95.4429Z" fill="#FDFBFC"/>
<path fill-rule="evenodd" clip-rule="evenodd" d="M263.693 79.9156C263.853 79.9476 264.077 79.9795 264.332 80.0434C264.812 80.1712 265.067 80.8102 264.844 81.2575C264.045 82.791 262.415 83.7176 260.722 83.5259C260.211 83.462 259.891 82.9508 260.019 82.4076C260.403 80.8421 261.776 79.8837 263.693 79.9156Z" fill="#FDFBFC"/>
<path fill-rule="evenodd" clip-rule="evenodd" d="M254.396 92.8231C254.269 93.6538 253.502 94.2927 252.767 94.3247C251.649 94.3566 250.307 93.3343 250.019 92.248C249.828 91.4812 250.371 90.6186 251.106 90.6825C252.256 90.7783 253.374 91.0659 254.077 92.1202C254.3 92.3438 254.364 92.6634 254.396 92.8231Z" fill="#FDFBFC"/>
<path fill-rule="evenodd" clip-rule="evenodd" d="M244.396 82.2479C244.907 82.184 245.483 82.8869 245.323 83.462C245.067 84.4524 244.62 85.315 243.757 85.954C243.342 86.2735 242.863 86.3374 242.351 86.0498C241.808 85.6984 241.521 85.0914 241.649 84.5802C241.936 83.5259 243.278 82.3757 244.396 82.2479Z" fill="#FDFBFC"/>
<path fill-rule="evenodd" clip-rule="evenodd" d="M316.665 104.612C317.528 104.516 318.486 105.475 318.39 106.338C318.294 107.008 318.071 107.616 317.624 108.127C317.24 108.574 316.441 108.574 316.058 108.159C315.515 107.584 315.355 106.849 315.291 106.114C315.195 105.443 315.962 104.676 316.665 104.612Z" fill="#FDFBFC"/>
<path fill-rule="evenodd" clip-rule="evenodd" d="M154.555 277.233C154.428 276.115 154.875 275.125 155.29 274.134C155.45 273.719 155.833 273.495 156.281 273.495C156.824 273.463 157.367 273.783 157.399 274.262C157.527 276.211 158.932 277.106 160.37 277.936C162.063 278.959 163.821 279.917 165.514 280.907C166.504 281.483 167.527 282.058 168.485 282.697C169.028 283.048 169.028 283.687 168.549 284.198C168.134 284.646 167.654 284.997 167.015 284.837C164.396 284.166 161.648 283.879 159.092 282.92C157.367 282.281 156.185 281.035 155.162 279.63C154.651 278.927 154.459 278.096 154.555 277.233Z" fill="white"/>
<path fill-rule="evenodd" clip-rule="evenodd" d="M266.633 215.859C265.642 215.699 264.396 215.476 263.246 215.028C261.042 214.166 259.221 212.696 257.304 211.386C257.048 211.226 256.856 210.875 256.729 210.587C256.441 209.948 257.176 209.022 257.943 209.086C258.358 209.118 258.741 209.309 259.157 209.405C260.786 209.725 262.415 210.108 264.045 210.332C265.738 210.556 267.336 210.108 268.933 209.533C270.179 209.086 271.393 208.543 272.639 208.063C273.182 207.84 273.725 207.648 274.301 207.52C275.642 207.233 276.409 208.095 276.026 209.405C274.971 212.536 270.147 215.955 266.633 215.859Z" fill="white"/>
<path fill-rule="evenodd" clip-rule="evenodd" d="M170.658 202.025C169.955 201.929 169.188 201.929 168.517 201.61C167.559 201.162 167.015 200.3 167.111 199.214C167.143 198.67 167.399 198.255 167.91 198.063C168.325 197.904 168.741 197.968 169.06 198.255C169.763 198.958 170.626 199.469 171.456 199.98C172.031 200.364 172.223 200.971 171.968 201.482C171.744 201.897 171.393 202.057 170.658 202.025Z" fill="#FDFBFC"/>
<path fill-rule="evenodd" clip-rule="evenodd" d="M344.94 137.871C344.748 139.149 344.045 140.299 343.023 141.29C342.704 141.577 342.256 141.609 341.873 141.45C341.458 141.258 341.202 140.875 341.234 140.491C341.426 139.181 341.585 137.903 341.553 136.593C341.553 135.922 342.288 135.443 342.959 135.539C344.077 135.699 344.94 136.625 344.94 137.871Z" fill="#FDFBFC"/>
<path fill-rule="evenodd" clip-rule="evenodd" d="M258.677 177.999C258.262 177.935 257.783 177.935 257.304 177.776C256.665 177.584 256.281 176.849 256.345 176.21C256.409 175.571 256.984 175.092 257.751 175.124C258.741 175.156 259.7 175.316 260.626 175.699C261.01 175.859 261.297 176.21 261.297 176.657C261.297 177.201 260.946 177.584 260.435 177.712C259.923 177.872 259.348 177.904 258.677 177.999Z" fill="#FDFBFC"/>
<path fill-rule="evenodd" clip-rule="evenodd" d="M214.204 252.281C214.236 251.227 215.354 250.492 216.121 251.227C217.271 252.313 218.613 252.441 220.051 252.473C220.466 252.473 220.882 252.505 221.297 252.601C221.744 252.696 222.032 252.984 222.096 253.463C222.16 253.91 222.064 254.326 221.68 254.581C220.179 255.54 218.517 256.147 216.728 255.859C215.067 255.54 214.172 254.198 214.204 252.281Z" fill="#FDFBFC"/>
<path fill-rule="evenodd" clip-rule="evenodd" d="M346.474 235.923C346.474 234.613 346.921 233.335 347.304 232.089C347.464 231.578 347.975 231.386 348.518 231.418C349.093 231.45 349.445 231.77 349.573 232.313C349.637 232.632 349.7 232.984 349.637 233.303C349.445 234.549 348.902 235.668 348.391 236.818C348.199 237.233 347.815 237.425 347.368 237.329C346.921 237.233 346.665 236.914 346.537 236.498C346.506 236.275 346.506 236.115 346.474 235.923Z" fill="#FDFBFC"/>
<path fill-rule="evenodd" clip-rule="evenodd" d="M295.93 176.881C296.761 176.945 297.591 176.945 298.39 177.073C298.806 177.137 299.093 177.488 299.157 177.935C299.221 178.383 299.029 178.862 298.646 178.958C296.505 179.565 294.46 180.683 292.128 180.044C291.809 179.948 291.489 179.884 291.202 179.725C290.818 179.533 290.563 179.213 290.531 178.766C290.499 178.223 290.786 177.776 291.266 177.584C292.192 177.233 293.151 176.977 294.173 176.945C294.748 176.945 295.323 176.945 295.93 176.945C295.93 176.913 295.93 176.881 295.93 176.881Z" fill="#FDFBFC"/>
<path fill-rule="evenodd" clip-rule="evenodd" d="M312.863 23.4296C312.608 25.6341 311.841 27.7108 310.179 29.3722C308.294 31.2572 308.262 31.1932 305.611 30.6182C304.141 30.2987 302.703 29.8833 301.393 29.1805C300.275 28.6054 299.285 27.8386 298.55 26.8162C297.911 25.9536 297.751 24.9951 298.23 24.0047C298.71 23.0143 299.54 22.535 300.627 22.4711C301.457 22.4392 302.288 22.535 303.055 22.8545C303.662 23.1101 304.269 23.3657 304.908 23.5894C305.355 23.7811 305.707 23.6533 305.962 23.2379C306.282 22.6628 306.569 22.0558 306.889 21.4807C307.208 20.9056 307.623 20.3625 308.167 19.9791C309.157 19.2443 310.435 19.2762 311.393 20.043C312.416 20.9056 312.767 22.0558 312.863 23.4296Z" fill="#FDFBFC"/>
<path fill-rule="evenodd" clip-rule="evenodd" d="M231.01 193.431C229.252 193.175 227.527 192.952 225.802 192.696C225.546 192.664 225.323 192.536 225.099 192.44C224.779 192.281 224.588 191.993 224.556 191.674C224.524 191.226 224.779 190.875 225.195 190.683C225.418 190.587 225.674 190.523 225.898 190.491C229.029 190.204 232.096 189.245 235.259 189.118C235.93 189.086 236.569 188.99 237.24 189.022C237.687 189.022 238.006 189.341 238.166 189.757C238.326 190.172 238.198 190.587 237.911 190.907C237.815 191.035 237.687 191.162 237.559 191.258C235.514 192.568 233.374 193.303 231.01 193.431Z" fill="#FDFBFC"/>
<path fill-rule="evenodd" clip-rule="evenodd" d="M283.981 116.242C283.981 121.865 279.125 126.561 273.31 126.497C267.879 126.434 263.502 122.057 263.502 116.625C263.502 110.938 268.294 106.401 274.173 106.369C279.157 106.369 283.949 110.491 283.981 116.242Z" fill="#13110C"/>
<path fill-rule="evenodd" clip-rule="evenodd" d="M223.981 111.993C228.997 111.993 233.949 115.89 233.917 121.993C233.885 127.648 229.348 131.929 223.565 131.897C217.879 131.833 213.533 127.392 213.629 121.897C213.693 115.826 218.709 111.929 223.981 111.993Z" fill="#13110C"/>
<path fill-rule="evenodd" clip-rule="evenodd" d="M210.179 142.983C208.613 143.079 207.239 142.664 206.025 141.961C202.255 139.788 203.278 135.699 205.642 133.91C207.751 132.312 211.041 131.769 213.757 133.59C215.386 134.708 216.249 136.21 216.057 138.223C215.866 140.236 214.652 141.545 212.958 142.408C212.064 142.855 211.073 143.143 210.179 142.983Z" fill="#FAD5DC"/>
<path fill-rule="evenodd" clip-rule="evenodd" d="M294.141 119.501C296.154 119.309 297.528 120.459 298.646 121.993C299.54 123.207 299.093 126.018 297.911 127.36C296.825 128.574 295.387 129.149 293.821 129.565C292.671 129.852 291.617 130.044 290.435 129.565C288.869 128.926 287.847 127.807 287.208 126.274C286.952 125.699 287.08 125.156 287.24 124.58C288.135 121.034 291.329 119.373 294.141 119.501Z" fill="#FAD5DC"/>
<path fill-rule="evenodd" clip-rule="evenodd" d="M260.058 147.374C254.339 150.569 247.885 149.77 243.252 145.297C242.837 144.882 242.422 144.498 242.198 143.923C241.751 142.709 242.07 141.367 243.061 140.505C243.891 139.77 245.233 139.642 246.352 140.281C246.927 140.601 247.438 141.048 247.949 141.463C250.441 143.604 254.179 144.115 257.662 141.783C258.588 141.144 259.163 140.249 259.642 139.259C259.898 138.748 260.026 138.141 260.281 137.629C260.92 136.383 262.358 135.744 263.636 136.096C265.042 136.479 265.872 137.565 265.809 139.067C265.777 139.802 265.585 140.569 265.329 141.24C264.403 143.508 262.837 145.904 260.058 147.374Z" fill="#13110C"/>
<path d="M375.07 72.5768L375.593 71.851C376.789 70.1877 377.876 68.9579 378.853 68.1616C379.83 67.3653 380.794 66.8577 381.744 66.6388C382.702 66.4098 383.733 66.326 384.839 66.3874C385.8 66.4357 386.677 66.4474 387.472 66.4227C388.277 66.4054 388.988 66.2818 389.604 66.052C390.23 65.8295 390.747 65.436 391.153 64.8715C391.515 64.3675 391.712 63.8355 391.741 63.2756C391.771 62.7157 391.652 62.1788 391.385 61.665C391.117 61.1512 390.727 60.7101 390.215 60.3416C389.662 59.9437 389.059 59.7013 388.407 59.6143C387.765 59.5347 387.141 59.6135 386.535 59.8507C385.939 60.0953 385.431 60.51 385.01 61.0946L377.144 55.4353C378.76 53.2323 380.567 51.8014 382.564 51.1426C384.569 50.4736 386.633 50.4134 388.756 50.9621C390.887 51.5006 392.946 52.4846 394.933 53.9142C397.125 55.4911 398.852 57.2161 400.116 59.0892C401.387 60.9522 402.062 62.8761 402.142 64.861C402.229 66.8359 401.591 68.7708 400.227 70.666C399.35 71.8857 398.362 72.8045 397.265 73.4224C396.185 74.0376 395.012 74.4254 393.746 74.5857C392.498 74.7433 391.166 74.7484 389.749 74.6008C388.707 74.4936 387.771 74.4863 386.943 74.5788C386.122 74.6613 385.377 74.8977 384.708 75.2881C384.045 75.6684 383.424 76.2617 382.844 77.0682L382.322 77.7939L375.07 72.5768ZM371.508 85.4349C370.32 84.5801 369.595 83.4386 369.332 82.0105C369.087 80.5796 369.394 79.2782 370.253 78.1061C371.069 76.9496 372.191 76.2652 373.619 76.0529C375.056 75.848 376.369 76.173 377.557 77.0278C378.684 77.8384 379.383 78.9614 379.656 80.3969C379.939 81.8398 379.673 83.1395 378.856 84.296C378.28 85.0749 377.555 85.6396 376.681 85.99C375.825 86.3377 374.936 86.4709 374.016 86.3897C373.102 86.2985 372.266 85.9802 371.508 85.4349Z" fill="#F1F1F1"/>
<path d="M206.511 47.9662L206.197 47.5258C205.476 46.5165 204.982 45.6545 204.716 44.9397C204.449 44.2248 204.346 43.5738 204.405 42.9865C204.46 42.3932 204.612 41.7855 204.862 41.1634C205.077 40.6225 205.254 40.1217 205.394 39.6613C205.541 39.1964 205.608 38.765 205.596 38.3671C205.591 37.9648 205.465 37.5924 205.221 37.2499C205.002 36.944 204.736 36.7282 204.42 36.6023C204.105 36.4763 203.774 36.4401 203.428 36.4937C203.081 36.5472 202.753 36.6849 202.442 36.9068C202.106 37.1465 201.85 37.4449 201.673 37.8019C201.503 38.1546 201.427 38.5276 201.445 38.921C201.469 39.31 201.608 39.6819 201.862 40.0366L197.089 43.4453C196.14 42.0907 195.671 40.777 195.682 39.504C195.688 38.2249 196.055 37.0302 196.782 35.9197C197.505 34.8031 198.469 33.8143 199.675 32.9532C201.005 32.0034 202.329 31.3484 203.649 30.9881C204.964 30.6217 206.198 30.6086 207.351 30.9488C208.5 31.2828 209.485 32.0249 210.306 33.1748C210.835 33.9149 211.169 34.6596 211.31 35.4087C211.453 36.1473 211.447 36.8949 211.293 37.6515C211.141 38.3976 210.885 39.1624 210.525 39.9461C210.261 40.5225 210.075 41.0571 209.967 41.5499C209.854 42.0365 209.845 42.5096 209.939 42.9692C210.028 43.4227 210.247 43.8941 210.597 44.3835L210.911 44.8239L206.511 47.9662ZM213.189 52.5075C212.468 53.0223 211.673 53.2162 210.803 53.0892C209.935 52.9515 209.249 52.5227 208.744 51.8026C208.24 51.1097 208.066 50.3335 208.221 49.4741C208.383 48.6103 208.825 47.921 209.546 47.4061C210.229 46.9179 211.009 46.7351 211.885 46.8577C212.767 46.9759 213.46 47.3815 213.965 48.0743C214.299 48.5559 214.482 49.0812 214.513 49.6502C214.546 50.2086 214.449 50.7439 214.224 51.2559C213.994 51.7619 213.649 52.1791 213.189 52.5075Z" fill="#F1F1F1"/>
<path d="M149.964 84.2858L149.871 83.9417C149.66 83.1531 149.555 82.5077 149.556 82.0054C149.556 81.5032 149.643 81.0779 149.815 80.7296C149.986 80.3765 150.22 80.037 150.518 79.7113C150.775 79.4273 151 79.1596 151.193 78.9081C151.39 78.6554 151.531 78.405 151.616 78.1569C151.705 77.9076 151.714 77.6491 151.642 77.3815C151.578 77.1425 151.464 76.9478 151.299 76.7974C151.133 76.647 150.938 76.5483 150.712 76.5013C150.486 76.4543 150.251 76.4633 150.008 76.5284C149.746 76.5986 149.519 76.7234 149.328 76.9028C149.142 77.0808 149.009 77.2932 148.929 77.5399C148.854 77.7854 148.854 78.0467 148.928 78.3239L145.199 79.3232C144.927 78.2691 144.941 77.3509 145.241 76.5686C145.54 75.7815 146.042 75.1296 146.747 74.613C147.451 74.0915 148.273 73.7046 149.215 73.4521C150.255 73.1737 151.223 73.0757 152.119 73.1582C153.014 73.2359 153.778 73.5128 154.41 73.9888C155.042 74.46 155.478 75.1449 155.718 76.0434C155.873 76.6218 155.908 77.1581 155.822 77.6525C155.739 78.1407 155.563 78.6003 155.293 79.0312C155.027 79.4559 154.692 79.8683 154.29 80.2682C153.994 80.5627 153.756 80.8493 153.575 81.1281C153.394 81.4022 153.279 81.6917 153.23 81.9966C153.181 82.2968 153.207 82.6381 153.309 83.0204L153.402 83.3646L149.964 84.2858ZM153.032 88.6273C152.468 88.7782 151.933 88.7141 151.427 88.435C150.923 88.1498 150.599 87.7269 150.454 87.1664C150.304 86.6228 150.375 86.1042 150.67 85.6103C150.969 85.1152 151.4 84.7921 151.964 84.6412C152.498 84.4981 153.021 84.5654 153.532 84.8433C154.049 85.1198 154.383 85.5298 154.533 86.0734C154.629 86.4475 154.62 86.8135 154.508 87.1715C154.399 87.5233 154.216 87.831 153.959 88.0946C153.7 88.3534 153.391 88.531 153.032 88.6273Z" fill="#F1F1F1"/>
<path d="M31.5519 91.7734L31.6658 91.3485C31.9267 90.3747 32.2126 89.6194 32.5235 89.0828C32.8344 88.5462 33.1894 88.1447 33.5886 87.8785C33.9893 87.6063 34.4495 87.388 34.9691 87.2236C35.4193 87.0786 35.8252 86.9311 36.1867 86.7813C36.5542 86.6331 36.8597 86.4524 37.1032 86.2393C37.3527 86.0278 37.5217 85.7568 37.6103 85.4263C37.6893 85.1312 37.6869 84.8522 37.6031 84.5894C37.5193 84.3265 37.3711 84.1002 37.1584 83.9104C36.9458 83.7206 36.6895 83.5855 36.3897 83.5052C36.0659 83.4184 35.7463 83.4118 35.4309 83.4855C35.1215 83.5607 34.8481 83.7057 34.6106 83.9204C34.3791 84.1367 34.2175 84.416 34.1257 84.7583L29.5203 83.5243C29.8802 82.2291 30.4623 81.2559 31.2667 80.6048C32.0726 79.9478 33.0119 79.5605 34.0845 79.4431C35.1588 79.3198 36.2776 79.414 37.4409 79.7257C38.7242 80.0696 39.8198 80.5624 40.7276 81.2041C41.637 81.84 42.2829 82.6077 42.6653 83.5072C43.0493 84.4008 43.0926 85.4024 42.7953 86.512C42.6039 87.2261 42.3096 87.821 41.9122 88.2965C41.5225 88.7677 41.0504 89.1504 40.4959 89.4446C39.949 89.7346 39.3367 89.969 38.6589 90.148C38.1607 90.2802 37.7291 90.4397 37.3641 90.6265C37.0007 90.8075 36.6989 91.0461 36.4589 91.3423C36.2204 91.6327 36.0379 92.0139 35.9114 92.4861L35.7975 92.9111L31.5519 91.7734ZM32.1526 98.3108C31.457 98.1244 30.9244 97.7255 30.5547 97.114C30.1927 96.4983 30.1072 95.846 30.2982 95.1571C30.4725 94.4826 30.8695 93.9723 31.4894 93.6259C32.1152 93.2812 32.7759 93.2021 33.4715 93.3885C34.1311 93.5652 34.6488 93.9601 35.0244 94.5732C35.406 95.1878 35.5097 95.8323 35.3354 96.5068C35.206 96.9655 34.9708 97.3516 34.6297 97.6651C34.2962 97.9742 33.9106 98.1903 33.4727 98.3134C33.0364 98.4305 32.5963 98.4297 32.1526 98.3108Z" fill="#F1F1F1"/>
<path d="M23.8418 213.254L23.4978 212.658C22.7094 211.293 22.1904 210.141 21.9408 209.204C21.6911 208.267 21.6398 207.43 21.7867 206.694C21.9289 205.95 22.1964 205.2 22.5893 204.443C22.9267 203.785 23.2125 203.173 23.4466 202.608C23.6891 202.037 23.8272 201.5 23.8608 200.995C23.9028 200.485 23.79 199.998 23.5224 199.535C23.2835 199.121 22.9724 198.815 22.589 198.617C22.2056 198.419 21.7914 198.333 21.3463 198.358C20.9012 198.383 20.4684 198.517 20.048 198.76C19.5939 199.022 19.2332 199.369 18.9659 199.799C18.707 200.224 18.5649 200.687 18.5397 201.187C18.5229 201.682 18.653 202.17 18.9302 202.65L12.4723 206.378C11.438 204.548 11.0055 202.828 11.1749 201.218C11.3396 199.6 11.9501 198.133 13.0065 196.817C14.0582 195.493 15.3996 194.36 17.0309 193.418C18.8303 192.379 20.5869 191.712 22.3006 191.418C24.0095 191.116 25.5728 191.25 26.9905 191.822C28.4034 192.386 29.559 193.446 30.4573 195.001C31.0354 196.003 31.3677 196.986 31.4541 197.951C31.5442 198.904 31.4453 199.849 31.1576 200.788C30.8734 201.713 30.4555 202.649 29.9038 203.597C29.4991 204.294 29.1982 204.948 29.0012 205.558C28.7994 206.16 28.7296 206.758 28.7917 207.351C28.8491 207.936 29.0689 208.559 29.4511 209.221L29.7951 209.817L23.8418 213.254ZM31.7357 219.82C30.7603 220.383 29.7302 220.531 28.6452 220.263C27.5639 219.983 26.7479 219.356 26.1973 218.383C25.6442 217.444 25.5189 216.44 25.8213 215.372C26.1322 214.299 26.7754 213.481 27.7508 212.917C28.6757 212.383 29.6849 212.248 30.7782 212.51C31.88 212.768 32.7074 213.366 33.2606 214.305C33.6248 214.955 33.7917 215.642 33.7612 216.366C33.7343 217.077 33.5467 217.742 33.1985 218.363C32.8456 218.975 32.358 219.46 31.7357 219.82Z" fill="#F1F1F1"/>
<path d="M393.631 175.538L393.95 174.985C394.683 173.716 395.368 172.764 396.006 172.128C396.644 171.491 397.293 171.061 397.954 170.838C398.619 170.606 399.347 170.473 400.138 170.438C400.824 170.404 401.449 170.349 402.013 170.275C402.584 170.205 403.081 170.066 403.503 169.859C403.933 169.656 404.272 169.339 404.52 168.909C404.742 168.524 404.844 168.132 404.825 167.731C404.806 167.331 404.683 166.957 404.456 166.611C404.229 166.265 403.92 165.979 403.53 165.753C403.108 165.51 402.662 165.38 402.192 165.365C401.729 165.354 401.291 165.455 400.877 165.667C400.47 165.883 400.139 166.215 399.881 166.661L393.881 163.197C394.874 161.514 396.057 160.367 397.43 159.756C398.809 159.137 400.273 158.947 401.822 159.185C403.376 159.416 404.911 159.969 406.427 160.844C408.098 161.809 409.451 162.913 410.483 164.155C411.521 165.389 412.138 166.71 412.337 168.116C412.54 169.515 412.224 170.937 411.389 172.382C410.852 173.313 410.215 174.037 409.479 174.555C408.755 175.069 407.948 175.429 407.059 175.633C406.183 175.835 405.235 175.934 404.217 175.93C403.468 175.928 402.802 175.99 402.219 176.115C401.641 176.232 401.128 176.453 400.68 176.779C400.236 177.097 399.836 177.563 399.481 178.178L399.162 178.732L393.631 175.538ZM392.015 184.94C391.109 184.416 390.511 183.656 390.223 182.659C389.946 181.659 390.071 180.711 390.599 179.816C391.097 178.935 391.846 178.368 392.846 178.115C393.854 177.866 394.811 178.004 395.717 178.527C396.577 179.023 397.155 179.772 397.451 180.774C397.756 181.78 397.659 182.724 397.161 183.605C396.807 184.2 396.331 184.653 395.735 184.965C395.15 185.273 394.528 185.432 393.867 185.44C393.211 185.44 392.593 185.273 392.015 184.94Z" fill="#F1F1F1"/>
</svg>
