<svg width="122" height="122" viewBox="0 0 122 122" fill="none" xmlns="http://www.w3.org/2000/svg">
<path fill-rule="evenodd" clip-rule="evenodd" d="M109.154 14.2359C109.595 12.4923 109.982 10.8544 110.405 9.21649C110.687 8.10695 111.021 7.01502 111.462 5.9407C111.708 5.34189 111.99 4.7607 112.377 4.24995C113.575 2.66489 115.371 2.25982 117.15 3.14041C118.031 3.58071 118.718 4.24995 119.281 5.04249C120.127 6.22248 120.602 7.56097 120.849 8.96992C121.166 10.643 121.201 12.3514 121.06 14.0421C120.761 17.8111 119.986 21.4743 118.806 25.0671C118.136 27.1101 117.379 29.1355 116.904 31.2489C116.569 32.7459 116.534 34.2429 116.763 35.7575C116.851 36.3915 117.097 36.9903 117.344 37.5891C117.45 37.8357 117.591 38.0823 117.661 38.3464C117.749 38.7163 117.696 39.0861 117.344 39.3327C117.045 39.544 116.745 39.5264 116.446 39.3503C116.358 39.3151 116.287 39.2799 116.199 39.227C114.174 38.047 112.113 36.9551 110.141 35.7047C104.734 32.2704 101.176 27.3919 99.2742 21.2982C98.7811 19.7131 98.6402 18.0576 98.7987 16.4021C98.8691 15.7152 99.0453 15.046 99.3447 14.4296C100.26 12.5627 102.127 11.5941 104.241 11.8583C105.685 12.052 106.953 12.6508 108.133 13.4962C108.45 13.7427 108.785 13.9717 109.154 14.2359ZM115.371 36.8318C115.389 36.867 115.407 36.9023 115.442 36.9199C115.459 36.9375 115.512 36.9199 115.512 36.9023C115.495 36.8142 115.459 36.7966 115.371 36.8494C115.548 36.5853 115.442 36.3035 115.371 36.0569C115.125 35.1235 115.09 34.1548 115.072 33.1862C114.984 30.3154 115.477 27.5152 116.076 24.7325C116.798 21.3686 117.485 18.0048 117.767 14.5529C117.925 12.7212 117.943 10.8896 117.59 9.05798C117.379 8.00127 117.062 6.9974 116.428 6.13442C115.442 4.79592 114.456 4.84875 113.681 6.24009C113.346 6.83889 113.117 7.49053 112.923 8.15978C112.131 10.8016 112.201 13.5138 112.483 16.2084C112.571 17.0714 112.747 17.9343 112.659 18.8149C112.518 20.2767 111.127 21.1397 109.753 20.6113C109.225 20.4176 108.785 20.083 108.397 19.6955C107.781 19.0791 107.164 18.4627 106.53 17.8639C106.002 17.3531 105.421 16.9129 104.751 16.5958C103.431 15.9618 102.902 16.226 102.709 17.6878C102.55 18.7797 102.55 19.9069 102.814 20.9812C104.558 28.1844 108.82 33.4151 115.371 36.8318Z" fill="#13110C"/>
<path fill-rule="evenodd" clip-rule="evenodd" d="M115.371 36.8318C108.82 33.4151 104.54 28.1844 102.779 20.9812C102.515 19.9069 102.532 18.7973 102.673 17.6878C102.867 16.226 103.378 15.9618 104.716 16.5959C105.385 16.9129 105.967 17.3532 106.495 17.8639C107.129 18.4627 107.745 19.0791 108.362 19.6955C108.749 20.083 109.19 20.4176 109.718 20.6114C111.092 21.1397 112.501 20.2767 112.624 18.8149C112.694 17.9344 112.536 17.0714 112.448 16.2084C112.166 13.4962 112.096 10.8016 112.888 8.1598C113.082 7.50816 113.311 6.85652 113.645 6.2401C114.42 4.84877 115.407 4.79594 116.393 6.13444C117.027 6.99742 117.362 8.00128 117.555 9.05799C117.908 10.872 117.89 12.7213 117.731 14.5529C117.45 17.9872 116.763 21.351 116.041 24.7325C115.442 27.5152 114.949 30.3155 115.037 33.1862C115.072 34.1548 115.09 35.1059 115.336 36.0569C115.407 36.3211 115.495 36.5853 115.336 36.8495L115.371 36.8318Z" fill="#EE0202"/>
<path fill-rule="evenodd" clip-rule="evenodd" d="M14.2132 94.617C14.1712 97.3229 14.7944 99.8567 15.9961 102.24C16.5899 103.414 17.2258 104.557 17.9859 105.637C18.95 106.988 20.1552 108.093 21.4517 109.121C21.7119 109.329 21.9557 109.53 22.2277 109.733C22.3871 109.859 22.5044 110.016 22.5678 110.207C22.6735 110.505 22.4255 110.835 22.1209 110.821C21.9968 110.817 21.8515 110.794 21.7366 110.745C19.3273 109.689 17.1473 108.323 15.6037 106.105C14.8906 105.074 14.3437 103.949 13.9021 102.782C12.8805 100.068 12.4609 97.2627 12.8073 94.3667C12.8515 93.9687 12.7716 93.702 12.4785 93.4123C11.4725 92.431 10.8622 91.1822 10.4159 89.8675C9.70412 87.7903 9.47957 85.6396 9.56892 83.4579C9.64449 81.5806 9.96609 79.7402 10.522 77.9416C10.5851 77.7262 10.6434 77.499 10.6948 77.2883C10.5846 77.1831 10.4908 77.085 10.3899 77.0032C8.79814 75.8498 7.72607 74.2975 7.00284 72.4964C6.5379 71.3386 6.15493 70.1479 5.74854 68.9666C5.71097 68.873 5.69682 68.7701 5.68736 68.6788C5.68486 68.5033 5.74798 68.3557 5.92362 68.2851C6.09926 68.2146 6.25862 68.2729 6.34779 68.4272C6.49094 68.6821 6.60365 68.9627 6.71166 69.2317C7.1766 70.3895 7.77034 71.4956 8.42494 72.5501C9.17572 73.7425 10.1629 74.677 11.3981 75.3489C11.7214 75.2735 11.768 74.9831 11.8872 74.7723C12.5282 73.7272 13.2793 72.7872 14.2907 72.0552C14.5857 71.8416 14.8995 71.6749 15.2391 71.5385C17.2976 70.7391 19.1683 72.0114 19.1727 74.2233C19.1813 75.9039 18.3132 77.0945 16.906 77.8905C15.6767 78.5879 14.3484 78.7002 12.9893 78.3632C12.762 78.3051 12.5534 78.2259 12.3261 78.1678C12.2207 78.1422 12.1317 78.1915 12.106 78.2969C12.0757 78.3906 12.0453 78.4843 12.0313 78.585C11.3295 82.1534 11.5459 85.6383 12.8961 89.0345C12.9947 89.2801 13.0934 89.5257 13.2224 89.7455C13.382 90.0074 13.4058 90.4731 13.7806 90.4584C14.0594 90.4415 14.1176 90.0107 14.279 89.7694C14.5621 89.3569 14.8546 88.9678 15.2315 88.6535C16.2756 87.7997 17.4565 87.9638 18.1838 89.0977C18.3245 89.3128 18.4513 89.5607 18.5101 89.8087C18.804 90.9808 18.6668 92.0952 17.9883 93.1146C17.3029 94.1504 16.3311 94.6764 15.073 94.6248C14.8153 94.5925 14.5598 94.4643 14.2132 94.617ZM12.9497 76.0297C13.8566 76.3581 14.7515 76.2839 15.5921 75.8377C16.3508 75.4244 16.8609 74.7985 16.8343 73.8857C16.822 73.2116 16.3859 72.8707 15.7231 73.0146C15.5333 73.0501 15.346 73.1253 15.175 73.2076C14.2383 73.6516 13.2392 74.922 12.9497 76.0297ZM16.549 89.5641C16.4692 89.4331 16.3309 89.3936 16.2138 89.4406C16.0616 89.5017 15.9352 89.5932 15.8181 89.7081C15.3828 90.1138 15.1185 90.6409 14.8707 91.1751C14.6369 91.6764 14.8503 91.903 15.3891 91.8904C15.7007 91.8875 15.9465 91.7209 16.1361 91.4818C16.5292 90.9708 16.6856 90.3784 16.6311 89.7348C16.6076 89.6763 16.5724 89.6225 16.549 89.5641Z" fill="#EE0202"/>
<path fill-rule="evenodd" clip-rule="evenodd" d="M32.8248 26.3703C33.6878 26.2822 34.4803 26.5992 35.2904 26.7049C36.2063 26.8282 37.1045 26.8986 38.0379 26.9339C42.5113 27.0572 46.9318 26.5993 51.3348 25.8948C60.9156 24.3802 70.2323 21.7912 79.4961 18.9381C81.3453 18.3745 83.1241 17.6701 84.8677 16.8247C86.1886 16.1731 87.4566 15.451 88.6366 14.5528C88.848 14.3943 89.0417 14.1653 89.394 14.2005C90.0456 15.0811 90.4507 16.1026 90.8029 17.1417C91.9124 20.4527 92.8987 23.7814 93.6384 27.198C94.7655 32.4464 95.699 37.7299 96.4563 43.0487C96.967 46.6767 97.5834 50.3048 98.1294 53.9328C98.7282 57.8778 99.1861 61.8405 99.4855 65.8208C99.7849 69.6778 99.8378 73.5171 99.7145 77.3741C99.6264 79.8926 99.3094 82.4111 99.0276 84.912C98.7458 87.3777 98.376 89.8257 98.147 92.2913C97.7772 96.0427 98.2351 99.7059 99.556 103.264C100.031 104.549 100.525 105.835 101.018 107.121C101.74 109.005 102.321 110.942 102.603 112.95C102.779 114.271 102.832 115.592 102.462 116.913C102.303 117.494 102.074 118.04 101.757 118.551C100.754 120.171 99.1685 120.611 97.4954 119.713C96.3858 119.114 95.5229 118.216 94.8712 117.142C94.2196 116.085 93.7617 114.923 93.3918 113.743C92.9163 112.157 92.6345 110.537 92.5289 108.882C92.4408 107.279 92.3703 105.676 92.2647 104.074C92.2118 103.246 92.0709 102.436 91.9653 101.626C91.9124 101.309 91.8244 100.992 91.7011 100.692C91.0847 98.9662 89.8166 98.5964 88.3901 99.7235C88.0731 99.9877 87.7913 100.287 87.5095 100.587C87.2629 100.851 87.0163 101.132 86.7874 101.414C85.8716 102.577 84.9382 102.383 83.9871 101.467C83.4235 100.921 83.0009 100.252 82.631 99.565C81.9441 98.2617 81.4158 96.888 80.9755 95.4967C80.4295 93.7884 79.9188 92.08 79.3552 90.3893C79.1086 89.6496 78.8269 88.9275 78.4922 88.223C78.2809 87.7651 77.9991 87.3424 77.6997 86.9374C76.9248 85.9511 75.8857 85.5812 74.6529 85.775C74.195 85.8454 73.7546 85.9863 73.3144 86.0744C72.6803 86.2153 72.0639 86.3914 71.4299 86.4794C70.2323 86.6556 69.7392 86.3209 69.4574 85.1233C69.1756 83.9081 69.1227 82.6753 69.2636 81.4249C69.3869 80.1392 69.4574 78.8535 69.4221 77.5679C69.3693 75.8243 68.8586 74.2392 67.9075 72.7775C66.8332 71.1043 65.2305 70.7169 63.7511 71.2628C62.8882 71.5798 62.0428 71.9145 61.1974 72.2667C59.718 72.8655 59.2601 72.7774 58.1858 71.5798C57.816 71.1748 57.4989 70.7169 57.1467 70.2942C56.5655 69.5721 55.8963 68.9557 55.0861 68.4802C53.959 67.8461 53.0255 67.9518 52.0745 68.8324C51.4933 69.3784 51.0706 70.0476 50.7888 70.7697C50.4366 71.6679 50.102 72.5661 49.8554 73.4995C49.3623 75.3664 48.9396 77.2332 48.4817 79.1177C48.1999 80.2801 47.8301 81.4072 47.3193 82.4992C46.9671 83.2389 46.5444 83.9609 45.928 84.5421C44.9241 85.4932 43.8498 85.6165 42.6522 84.9296C41.7188 84.3836 41.0495 83.5559 40.5212 82.6401C39.6406 81.1078 39.165 79.4347 38.848 77.7088C38.3021 74.6619 38.3725 71.5975 38.7071 68.5154C39.0241 65.7327 39.6229 62.9853 40.0632 60.2378C40.345 58.5119 40.5564 56.7859 40.6268 55.0423C40.6973 53.563 40.5916 52.1012 40.257 50.657C39.8695 48.9134 39.0241 47.4164 37.7737 46.1308C36.8755 45.1973 35.854 44.44 34.7973 43.6827C33.8991 43.0311 33.0009 42.3971 32.226 41.6221C31.0636 40.4598 30.2358 39.1213 29.8836 37.501C29.6723 36.5499 29.6547 35.5813 29.8308 34.6302C30.1126 33.0452 30.7994 31.5658 31.2397 30.0336C31.2926 29.8574 31.4334 29.7694 31.6448 29.7165C32.6487 29.4524 32.6663 29.4348 32.6663 28.4837C32.631 27.744 32.5958 27.0396 32.8248 26.3703ZM88.8656 90.583C89.3411 90.4069 89.7638 90.6534 90.1865 90.7767C90.7501 90.9528 91.3312 91.129 91.93 91.0761C94.0259 90.9 95.7694 90.0723 96.8085 88.1878C98.0061 86.0215 97.9357 84.0842 96.5443 82.1117C95.3996 80.4738 93.7793 79.7341 91.7011 79.7341C89.6229 79.7341 86.9811 81.6538 86.4175 83.8729C86.1886 84.7711 86.171 85.6869 86.1534 86.6027C85.8892 86.2329 85.6074 85.863 85.3432 85.4932C84.04 83.732 82.7543 81.9356 81.3982 80.192C78.9149 76.9867 76.009 74.1864 72.9621 71.527C67.9427 67.1417 62.7473 63.0029 57.6398 58.7408C52.9375 54.831 48.3584 50.7979 44.2196 46.3069C40.3098 42.0448 36.4704 37.7123 33.7406 32.552C33.6702 32.4288 33.5821 32.3231 33.494 32.2174C33.3531 32.0589 33.1594 32.0589 33.0009 32.1646C32.9128 32.235 32.8424 32.4288 32.8776 32.5168C33.0009 32.8514 33.1594 33.1861 33.3355 33.5207C34.6916 36.0392 36.3119 38.3639 38.0555 40.6183C43.568 47.663 49.8554 53.9504 56.6888 59.6919C61.0918 63.3727 65.5123 67.0184 69.8977 70.7169C73.5081 73.7637 77.0128 76.9515 79.954 80.6852C84.7268 86.7436 89.0241 93.1367 92.793 99.882C93.1805 100.569 93.5327 101.256 93.9378 101.925C94.2372 102.436 94.607 102.911 95.1354 103.246C95.7694 103.651 96.4387 103.492 96.7381 102.788C97.0551 102.066 97.196 101.291 97.0903 100.498C97.0727 100.322 96.9318 100.164 96.7205 100.164C96.5267 100.164 96.3682 100.252 96.3154 100.463C96.1921 101.009 96.104 101.538 95.9808 102.084C95.9455 102.26 95.6814 102.33 95.5405 102.224C95.0473 101.837 94.7656 101.309 94.5014 100.78C92.8635 97.5397 91.0142 94.4224 89.1298 91.3227C89.0065 91.1113 88.7951 90.9 88.8656 90.583ZM57.5518 36.9726C57.5342 36.3914 57.587 35.8278 57.4109 35.2995C56.1428 31.5482 52.3563 30.5619 49.6617 31.7947C48.5874 32.2879 47.7244 33.0628 47.0551 33.9786C45.8575 35.6165 45.382 37.3953 46.1217 39.4207C47.0199 41.8863 49.5208 43.6827 52.5852 43.0839C55.2094 42.5732 57.7807 39.5263 57.5518 36.9726ZM91.6306 69.167C92.2294 69.1142 92.8459 69.1494 93.3918 68.9733C95.8399 68.1984 97.3369 66.2435 97.4249 63.7954C97.5658 59.6919 93.8674 57.4375 90.4507 57.8778C88.9713 58.0716 87.7737 58.8113 86.8402 59.956C84.4979 62.8268 85.7835 66.49 87.756 67.9342C88.936 68.7972 90.2041 69.2023 91.6306 69.167ZM71.6765 29.3819C70.5141 29.3115 69.4045 29.6109 68.3126 29.9631C67.7666 30.1392 67.3439 30.4386 67.0445 30.9494C66.1463 32.4992 66.6219 33.9434 68.2774 34.6479C68.7177 34.8416 69.1404 34.912 69.6159 34.7887C69.9681 34.6831 70.3556 34.7007 70.6902 34.5774C71.4651 34.278 72.2224 34.3837 72.9621 34.6831C73.6138 34.9473 74.3006 34.9649 74.9875 34.9296C75.463 34.912 75.8857 34.7359 76.2379 34.4189C77.5764 33.2213 77.277 31.0022 75.6567 30.2625C74.3887 29.6989 73.0854 29.2586 71.6765 29.3819ZM86.6641 71.7912C86.1534 71.7912 85.8364 71.7736 85.5017 71.7912C83.7758 71.8792 82.7191 73.6933 83.4588 75.2607C83.8638 76.1413 84.6035 76.5816 85.4841 76.7225C87.0164 76.9691 88.5662 77.11 90.0984 77.2861C90.2745 77.3037 90.4683 77.3213 90.6444 77.2685C91.6483 77.0219 92.5289 76.6344 92.8811 75.5073C93.2333 74.3801 92.8283 73.5524 92.0357 72.8127C91.5778 72.3724 90.9966 72.2139 90.4154 72.1258C89.1122 71.9849 87.7913 71.8969 86.6641 71.7912ZM78.7564 64.9578C78.774 64.4999 78.7564 64.042 78.5098 63.6369C77.6997 62.3512 76.7663 61.1713 75.6919 60.0969C75.2517 59.6566 74.6529 59.4453 74.0541 59.5157C72.3985 59.6919 70.9192 61.5587 71.9582 63.2495C72.1344 63.5136 72.2929 63.7954 72.4866 64.042C73.0502 64.7641 73.6138 65.4861 74.1773 66.2082C74.4943 66.6309 74.9346 66.8599 75.3573 67.1241C76.7134 67.9694 79.003 66.4548 78.7564 64.9578ZM92.2471 49.0896C91.3312 49.0543 89.9751 49.7764 89.482 50.5689C88.619 51.925 89.1298 53.5806 90.5916 54.2146C91.6835 54.6901 93.1453 54.3203 94.0611 53.2812C94.7656 52.4886 94.9064 51.5904 94.519 50.6042C94.1139 49.6179 93.2862 49.2128 92.2471 49.0896ZM77.6292 23.7109C77.5412 24.7852 78.2457 25.9476 79.4961 26.2999C80.6409 26.6169 81.8209 26.0885 82.3668 24.979C82.7543 24.1864 82.8952 23.3235 82.5606 22.4605C82.1731 21.4742 81.4686 20.9106 80.3943 20.8402C79.32 20.7697 78.3689 21.3157 77.9463 22.2667C77.7349 22.7423 77.594 23.2178 77.6292 23.7109ZM56.7945 46.712C56.6888 46.712 56.4422 46.7119 56.2309 46.7472C54.5402 46.9937 53.5891 48.9839 54.4697 50.428C55.2798 51.7665 57.27 52.1892 58.5556 51.291C59.4362 50.6922 59.8941 49.4066 59.4891 48.3851C59.0488 47.3284 58.2034 46.7296 56.7945 46.712ZM87.1925 32.4464C88.5486 32.5697 89.8695 31.284 89.9399 29.7518C90.0104 28.4485 88.7247 27.1804 87.3862 27.2157C85.8364 27.2509 84.7268 28.7127 84.7444 29.875C84.762 31.3897 85.7307 32.4288 87.1925 32.4464ZM79.1791 68.7443C77.8582 68.762 77.0833 69.2375 76.6254 70.1885C76.2027 71.1043 76.326 71.9849 76.9248 72.7775C77.7701 73.9046 79.6546 74.0983 80.7465 73.2177C81.6095 72.5133 81.9089 71.4213 81.5038 70.3822C81.0988 69.3255 80.1654 68.7267 79.1791 68.7443ZM43.4623 32.781C43.4447 31.3721 42.3176 30.2273 40.9438 30.2449C39.482 30.2625 38.3901 31.4953 38.4429 33.098C38.4782 34.5774 39.5173 35.5108 40.9967 35.5284C42.4056 35.5637 43.568 34.0843 43.4623 32.781ZM41.3137 76.2822C41.2961 76.2822 41.2785 76.2822 41.2608 76.2822C41.2608 76.6873 41.2608 77.11 41.2608 77.515C41.2785 78.1667 41.4898 78.7655 41.754 79.3643C41.9829 79.8574 42.3528 80.1744 42.8635 80.3329C43.4799 80.5267 44.1316 80.2801 44.431 79.787C44.7304 79.2762 44.5895 78.6246 44.0963 78.1843C44.0259 78.1314 43.9555 78.061 43.885 78.0258C43.251 77.7088 43.022 77.1276 42.8283 76.4935C42.6874 76.0004 42.6346 75.5073 42.5993 74.9965C42.5817 74.7324 42.5465 74.4506 42.4585 74.1864C42.388 73.9574 42.1943 73.8165 41.9301 73.8165C41.7364 73.8342 41.5779 73.9398 41.5074 74.1336C41.4193 74.3977 41.3313 74.6619 41.3137 74.9261C41.2961 75.3664 41.3137 75.8243 41.3137 76.2822ZM98.1646 115.645C98.3408 115.645 98.4816 115.662 98.6225 115.645C98.7987 115.609 98.9748 115.557 99.0452 115.363C99.1157 115.169 99.0981 114.993 98.9748 114.852C98.8339 114.694 98.6578 114.517 98.464 114.412C97.7596 114.024 97.2664 113.461 96.9494 112.703C96.8966 112.58 96.8261 112.457 96.7557 112.351C96.5972 112.175 96.4035 112.069 96.1569 112.105C95.8575 112.175 95.6285 112.386 95.6285 112.651C95.6637 113.514 95.7342 114.377 96.4387 115.028C96.9318 115.504 97.5658 115.609 98.1646 115.645ZM72.6627 83.961C73.0854 83.961 73.4905 83.9433 73.8427 83.6968C74.0717 83.5383 74.3006 83.3621 74.2478 83.0451C74.2126 82.7986 74.0188 82.6401 73.7899 82.6048C73.1382 82.4639 72.6275 82.1645 72.2048 81.6362C71.9582 81.3192 71.5003 81.4601 71.3066 81.8123C70.7254 82.8338 71.4123 83.9257 72.6627 83.961Z" fill="#FECB4B"/>
<path fill-rule="evenodd" clip-rule="evenodd" d="M30.3239 29.2939C30.2358 29.2234 30.1301 29.1178 30.0068 29.0649C28.0167 28.0963 26.6958 26.476 25.6391 24.6268C24.6705 22.936 24.5472 21.1572 25.234 19.3256C25.6743 18.1456 26.3084 17.1065 27.1009 16.1379C28.3866 14.5528 29.9188 13.2495 31.5743 12.0695C34.8501 9.76238 38.4077 7.96597 42.1414 6.50419C47.4073 4.46122 52.8494 2.99944 58.3795 1.83706C61.7433 1.13259 65.1424 0.586623 68.5767 0.287222C72.6979 -0.0826262 76.8367 -0.170679 80.9402 0.480958C82.948 0.797971 84.9029 1.27348 86.7521 2.13646C87.8441 2.64721 88.8655 3.26363 89.7285 4.09138C92.1942 6.46898 92.5112 9.77999 90.5739 12.5803C90.4506 12.774 90.2921 12.9501 90.1512 13.1262C89.9927 13.3376 90.0103 13.5313 90.1688 13.7427C91.1727 14.9755 91.7363 16.4373 92.2646 17.899C93.8849 22.3901 95.0649 27.0044 96.0864 31.6715C97.601 38.4873 98.8162 45.3383 99.8905 52.2245C100.613 56.8564 101.211 61.4883 101.528 66.173C101.916 71.7736 101.916 77.3565 101.123 82.9395C100.771 85.4404 100.401 87.9412 100.067 90.4421C99.9081 91.5869 99.7849 92.7141 99.6968 93.8588C99.4502 97.2051 99.9962 100.446 101.176 103.581C101.634 104.831 102.127 106.064 102.55 107.314C103.448 109.886 104.047 112.51 104.047 115.257C104.047 116.754 103.712 118.163 102.99 119.484C102.427 120.523 101.599 121.298 100.472 121.703C99.1332 122.196 97.8476 121.967 96.6324 121.316C95.1706 120.541 94.1139 119.343 93.3389 117.899C92.5464 116.384 92.0181 114.782 91.6834 113.109C91.2784 111.118 91.1375 109.111 91.1199 107.085C91.1199 105.747 91.0846 104.426 90.8733 103.105C90.7852 102.524 90.6619 101.925 90.4682 101.361C90.2569 100.71 89.9575 100.639 89.5172 101.115C89.1825 101.485 88.8831 101.89 88.5485 102.277C88.1963 102.7 87.8617 103.14 87.4566 103.51C86.6112 104.267 85.625 104.496 84.5154 104.162C83.5996 103.88 82.8775 103.352 82.2611 102.647C81.4334 101.714 80.8522 100.622 80.3766 99.477C79.5489 97.5221 79.0205 95.4967 78.457 93.4538C78.1047 92.1681 77.7701 90.8824 77.3826 89.6144C77.2417 89.1389 77.048 88.6633 76.8014 88.223C76.2379 87.1839 75.6919 86.9374 74.5471 87.1487C73.737 87.3072 72.9445 87.5186 72.1343 87.6771C71.7292 87.7651 71.3242 87.818 70.9015 87.8356C69.8272 87.8708 69.0522 87.3601 68.5767 86.409C68.1717 85.5813 68.0131 84.6654 67.9779 83.7496C67.9427 82.2878 67.9779 80.8085 68.1364 79.3467C68.2421 78.29 68.1893 77.2333 67.9955 76.1942C67.8194 75.1903 67.4143 74.2569 66.7979 73.4467C66.1287 72.5661 65.4242 72.3548 64.3851 72.7775C63.9272 72.9536 63.4869 73.2178 63.0466 73.4643C62.5711 73.7285 62.0956 74.0279 61.6024 74.2745C59.8941 75.1022 58.4147 74.8204 57.1466 73.3763C56.7064 72.8655 56.3365 72.2667 55.9667 71.6855C55.544 71.0163 55.1213 70.3823 54.5401 69.8539C53.7652 69.1494 53.2544 69.2023 52.5676 69.9948C52.0744 70.5584 51.7574 71.2276 51.5285 71.9321C51.1939 73.024 50.8945 74.1336 50.6479 75.2607C50.2604 77.0043 49.9434 78.7655 49.556 80.5091C49.2742 81.7595 48.8515 82.9747 48.2351 84.1195C47.8476 84.8592 47.3721 85.5461 46.7381 86.0744C45.3467 87.2544 43.8145 87.5186 42.1238 86.7965C40.7677 86.2153 39.799 85.1938 39.0065 83.9786C38.0907 82.5696 37.5447 81.0198 37.1572 79.4171C36.5584 76.8634 36.3823 74.2569 36.4704 71.6327C36.5761 68.1808 37.2101 64.7993 37.8089 61.4002C38.1787 59.2692 38.4957 57.1382 38.6366 54.9895C38.7071 53.7919 38.6542 52.5943 38.4781 51.4143C38.2844 50.0758 37.7737 48.8606 36.9635 47.7687C36.3823 46.9938 35.7131 46.3069 34.9734 45.6729C34.2337 45.0565 33.494 44.4401 32.7543 43.806C32.0146 43.1896 31.3277 42.5204 30.7113 41.7631C28.6507 39.227 28.0519 36.3738 28.9854 33.2389C29.2319 32.4112 29.5842 31.601 29.8659 30.7733C30.0068 30.2802 30.2886 29.8399 30.3239 29.2939ZM32.8247 26.3703C32.5958 27.0396 32.631 27.7264 32.631 28.4133C32.6134 29.3643 32.6134 29.3643 31.6095 29.6461C31.4158 29.699 31.2573 29.787 31.2044 29.9631C30.7641 31.513 30.0773 32.9748 29.7955 34.5598C29.6194 35.5109 29.637 36.4795 29.8483 37.4306C30.2006 39.0508 31.0283 40.3893 32.1907 41.5517C32.9832 42.3266 33.8814 42.9607 34.762 43.6123C35.8011 44.3696 36.8402 45.1269 37.7384 46.0603C38.9712 47.346 39.8166 48.843 40.2217 50.5866C40.5387 52.0308 40.662 53.4925 40.5915 54.9719C40.5035 56.7155 40.2921 58.4415 40.028 60.1674C39.5877 62.9325 38.9889 65.6623 38.6719 68.445C38.3196 71.5094 38.2492 74.5739 38.8127 77.6383C39.1298 79.3643 39.6053 81.0374 40.4859 82.5696C41.0142 83.5031 41.6835 84.3132 42.6169 84.8592C43.7969 85.546 44.8888 85.4228 45.8927 84.4717C46.5091 83.8905 46.9318 83.1861 47.284 82.4287C47.7948 81.3544 48.1646 80.2097 48.4464 79.0473C48.9043 77.1804 49.327 75.296 49.8201 73.4291C50.0667 72.4957 50.3837 71.5975 50.7536 70.6993C51.0354 69.9772 51.458 69.3079 52.0392 68.762C52.9903 67.8814 53.9237 67.7581 55.0508 68.4097C55.861 68.8676 56.5302 69.5017 57.1114 70.2238C57.4637 70.6464 57.7807 71.1044 58.1505 71.5094C59.2072 72.707 59.6651 72.8127 61.1621 72.1963C62.0075 71.844 62.8529 71.5094 63.7159 71.1924C65.1952 70.6464 66.7979 71.0339 67.8723 72.707C68.8233 74.1688 69.3516 75.7539 69.3869 77.4974C69.4221 78.7831 69.3693 80.0688 69.2284 81.3544C69.1051 82.5873 69.1403 83.8377 69.4221 85.0529C69.7039 86.2505 70.197 86.5852 71.3946 86.409C72.0286 86.321 72.6451 86.1448 73.2791 86.004C73.7194 85.8983 74.1773 85.775 74.6176 85.7046C75.8504 85.4932 76.8895 85.8807 77.6644 86.8669C77.9814 87.2544 78.2456 87.6947 78.457 88.1526C78.7916 88.8571 79.0734 89.5791 79.3199 90.3188C79.8835 92.0096 80.3943 93.7355 80.9402 95.4263C81.3981 96.8176 81.9089 98.1913 82.5957 99.4946C82.9656 100.181 83.3883 100.851 83.9518 101.397C84.9029 102.33 85.8187 102.506 86.7521 101.344C86.9811 101.062 87.2276 100.78 87.4742 100.516C87.756 100.217 88.0378 99.9173 88.3548 99.6531C89.7814 98.526 91.0494 98.8958 91.6658 100.622C91.7715 100.921 91.8772 101.238 91.93 101.555C92.0533 102.365 92.1766 103.193 92.2294 104.003C92.3351 105.606 92.4055 107.209 92.4936 108.811C92.5992 110.467 92.881 112.087 93.3566 113.672C93.7088 114.852 94.1843 116.014 94.8359 117.071C95.4876 118.146 96.333 119.044 97.4601 119.643C99.1332 120.541 100.736 120.1 101.722 118.48C102.039 117.969 102.251 117.423 102.427 116.842C102.796 115.539 102.744 114.2 102.568 112.88C102.286 110.872 101.705 108.935 100.982 107.05C100.489 105.764 99.9962 104.479 99.5207 103.193C98.1998 99.6531 97.7419 95.9899 98.1117 92.2209C98.3583 89.7553 98.7105 87.3072 98.9923 84.8416C99.2741 82.3407 99.5911 79.8222 99.6792 77.3037C99.8201 73.4467 99.7496 69.5897 99.4502 65.7504C99.1332 61.7701 98.6753 57.8074 98.0941 53.8624C97.5482 50.2343 96.9317 46.6063 96.421 42.9783C95.6637 37.6595 94.7303 32.376 93.6031 27.1276C92.8634 23.7109 91.8948 20.3647 90.7676 17.0713C90.4154 16.0322 89.9927 15.0107 89.3587 14.1301C89.0064 14.0949 88.8127 14.3238 88.6014 14.4824C87.439 15.3982 86.1709 16.1202 84.8324 16.7543C83.0889 17.5996 81.3101 18.3041 79.4608 18.8677C70.2146 21.7208 60.898 24.3097 51.2995 25.8244C46.8966 26.5112 42.476 26.9867 38.0026 26.8635C37.0868 26.8282 36.171 26.7578 35.2552 26.6345C34.4626 26.6169 33.6877 26.2823 32.8247 26.3703ZM31.3101 28.4838C31.3453 28.0258 31.3629 27.6208 31.3982 27.2157C31.4158 26.8458 31.7152 26.5112 31.5567 26.159C31.3629 25.7187 30.817 25.8772 30.4647 25.6835C30.3767 25.6306 30.3062 25.5954 30.2182 25.5426C30.0421 25.4369 29.9716 25.2608 30.0068 25.0671C30.0421 24.8909 30.2006 24.7324 30.3943 24.7324C30.7642 24.7148 31.134 24.7148 31.4862 24.75C32.9128 24.8557 34.3217 24.9614 35.7307 25.1023C37.5095 25.2784 39.3059 25.2784 41.1023 25.1903C46.2449 24.9262 51.3171 24.1689 56.3717 23.165C61.5496 22.1435 66.657 20.8402 71.7292 19.4137C74.8994 18.5155 78.0871 17.6349 81.1692 16.4549C82.9304 15.7856 84.6387 15.0107 86.2238 13.9892C87.122 13.408 87.9497 12.774 88.6366 11.9462C90.3801 9.86805 90.204 7.2615 88.1787 5.44748C87.527 4.86629 86.7697 4.426 85.9772 4.05616C84.0399 3.15795 81.9793 2.70004 79.8835 2.43587C75.6215 1.87229 71.3594 2.04841 67.1149 2.50632C63.0466 2.94661 59.0311 3.70392 55.0685 4.63734C49.5736 5.94062 44.1844 7.57852 39.0065 9.86806C36.3119 11.0657 33.7229 12.4394 31.363 14.2006C30.0597 15.1692 28.8797 16.2259 27.8758 17.5116C27.3122 18.2337 26.8191 19.0086 26.5021 19.8892C26.0266 21.1396 25.9737 22.3901 26.5373 23.6405C27.2066 25.1199 28.14 26.4232 29.3552 27.4975C29.9188 27.9378 30.5176 28.3252 31.3101 28.4838Z" fill="#13110C"/>
<path fill-rule="evenodd" clip-rule="evenodd" d="M39.3411 96.3421C39.4115 95.0565 39.6229 93.6475 40.2569 92.3443C40.8205 91.1995 41.4721 90.09 42.0885 88.9628C42.159 88.8395 42.2646 88.7515 42.3527 88.6634C42.4936 88.5225 42.881 88.6282 42.9163 88.8395C42.9691 89.1037 43.0395 89.3855 43.0572 89.6497C43.1276 90.5831 43.4622 91.4285 43.9554 92.221C44.3428 92.855 44.6951 93.489 45.0297 94.1407C45.4171 94.8804 45.6637 95.6553 45.8222 96.483C46.0159 97.4517 45.9103 98.4027 45.5052 99.3185C44.4661 101.643 41.8243 101.925 40.3097 99.8821C39.6052 98.8607 39.3411 97.7159 39.3411 96.3421ZM42.1766 90.9882C42.0004 91.0938 41.9124 91.1291 41.8772 91.1995C40.8733 93.0135 40.521 94.9508 40.7324 97.0114C40.8028 97.6983 41.0494 98.3323 41.4897 98.8959C42.3527 99.9702 43.4975 99.8117 44.0434 98.5436C44.1667 98.2618 44.2372 97.9272 44.2724 97.6278C44.3252 96.9938 44.2724 96.3598 44.1139 95.7257C43.8849 94.8804 43.5855 94.0878 43.2157 93.2953C42.8634 92.538 42.5464 91.7983 42.1766 90.9882Z" fill="#13110C"/>
<path fill-rule="evenodd" clip-rule="evenodd" d="M31.3101 28.4837C30.5176 28.3428 29.9188 27.9377 29.3552 27.4446C28.14 26.3703 27.2066 25.067 26.5373 23.5876C25.9737 22.3372 26.0266 21.0867 26.5021 19.8363C26.8367 18.9733 27.3122 18.1984 27.8758 17.4587C28.8797 16.1906 30.0773 15.1163 31.3629 14.1477C33.7405 12.3865 36.3295 11.0128 39.0065 9.81517C44.1843 7.52564 49.5736 5.88773 55.0685 4.58446C59.0487 3.65103 63.0642 2.89372 67.1149 2.45342C71.3594 1.99552 75.6214 1.8194 79.8835 2.38298C81.9793 2.66477 84.0399 3.10507 85.9772 4.00327C86.7697 4.37312 87.527 4.81341 88.1787 5.3946C90.204 7.20862 90.3801 9.81517 88.6366 11.8934C87.9497 12.7035 87.122 13.3551 86.2238 13.9363C84.6387 14.9578 82.9127 15.7327 81.1692 16.402C78.0871 17.5996 74.8994 18.4626 71.7292 19.3608C66.657 20.8049 61.5496 22.0906 56.3717 23.1121C51.3171 24.116 46.2449 24.8557 41.1023 25.1375C39.3235 25.2255 37.5271 25.2431 35.7307 25.0494C34.3217 24.9085 32.8952 24.8028 31.4862 24.6972C31.1164 24.6619 30.7465 24.6795 30.3943 24.6795C30.2006 24.6795 30.0421 24.8381 30.0068 25.0142C29.9716 25.1903 30.0421 25.3664 30.2182 25.4897C30.2886 25.5425 30.3767 25.5777 30.4647 25.6306C30.817 25.8243 31.3453 25.6658 31.5567 26.1061C31.7152 26.4583 31.4158 26.8106 31.3982 27.1628C31.3629 27.6207 31.3453 28.0258 31.3101 28.4837ZM79.2671 4.10894C78.4041 4.32028 77.4355 4.21461 76.4844 4.35551C75.3925 4.4964 74.3182 4.72535 73.2439 4.9367C72.874 5.00714 72.6451 5.28893 72.6627 5.60594C72.6627 5.95818 72.9797 6.22236 73.4376 6.22236C73.8074 6.22236 74.1597 6.16953 74.5295 6.11669C76.6958 5.8349 78.7211 6.20474 80.5704 7.38473C80.993 7.64891 81.451 7.87787 81.9089 8.0716C82.2611 8.2301 82.6486 8.07159 82.8599 7.73697C83.0536 7.45518 83.1241 7.15579 83.0889 6.82116C83.0008 5.95818 82.6486 5.25371 81.8736 4.7958C81.0811 4.32028 80.2005 4.30267 79.2671 4.10894Z" fill="#F3A35C"/>
<path fill-rule="evenodd" clip-rule="evenodd" d="M42.1765 90.988C42.5288 91.7806 42.8634 92.5379 43.2156 93.2776C43.5855 94.0701 43.8849 94.8626 44.1138 95.708C44.29 96.342 44.3428 96.9584 44.2724 97.6101C44.2371 97.9271 44.1667 98.2441 44.0434 98.5259C43.4974 99.7939 42.3527 99.9524 41.4897 98.8781C41.0494 98.3322 40.8028 97.6981 40.7324 96.9937C40.521 94.9507 40.8557 92.9958 41.8771 91.1818C41.9124 91.1465 42.018 91.1113 42.1765 90.988Z" fill="#FECB4B"/>
<path fill-rule="evenodd" clip-rule="evenodd" d="M88.8655 90.5831C88.7774 90.9001 89.0064 91.0938 89.1473 91.3227C91.0317 94.4224 92.881 97.5397 94.5189 100.78C94.7831 101.309 95.0649 101.837 95.558 102.224C95.6989 102.33 95.9631 102.26 95.9983 102.084C96.1216 101.555 96.2096 101.009 96.3329 100.463C96.3857 100.252 96.5442 100.164 96.738 100.164C96.9493 100.164 97.0902 100.322 97.1078 100.499C97.2135 101.291 97.0726 102.066 96.7556 102.788C96.4562 103.475 95.7869 103.633 95.1529 103.246C94.6422 102.911 94.2723 102.453 93.9553 101.925C93.5502 101.256 93.198 100.569 92.8105 99.8821C89.0416 93.1368 84.7443 86.7437 79.9715 80.6852C77.0304 76.9515 73.5256 73.7638 69.9152 70.7169C65.5298 67.0184 61.0917 63.3728 56.7063 59.6919C49.8553 53.9505 43.5855 47.663 38.073 40.6183C36.3118 38.3816 34.6915 36.0392 33.353 33.5208C33.1769 33.2037 33.0184 32.8691 32.8951 32.5169C32.8599 32.4288 32.9304 32.2351 33.0184 32.1646C33.1769 32.0414 33.3706 32.059 33.5115 32.2175C33.5996 32.3231 33.6877 32.4288 33.7581 32.5521C36.4879 37.7124 40.3273 42.0449 44.2371 46.3069C48.3759 50.8156 52.9726 54.8311 57.6574 58.7409C62.7648 63.0029 67.9779 67.1593 72.9796 71.5271C76.0265 74.1864 78.9324 76.9867 81.4157 80.1921C82.7718 81.9356 84.0399 83.7321 85.3607 85.4932C85.6249 85.8631 85.9067 86.2329 86.1709 86.6028C86.9106 87.7299 87.6503 88.8571 88.3724 89.9842C88.39 90.1428 88.4604 90.266 88.6365 90.2837L88.6189 90.266C88.6189 90.4422 88.6365 90.6183 88.9007 90.5654L88.8655 90.5831Z" fill="#13110C"/>
<path fill-rule="evenodd" clip-rule="evenodd" d="M57.5517 36.9727C57.7983 39.5264 55.227 42.5732 52.5676 43.084C49.5031 43.6828 46.9846 41.8688 46.1041 39.4207C45.382 37.413 45.8575 35.6166 47.0375 33.9787C47.7067 33.0628 48.5697 32.2879 49.644 31.7948C52.3563 30.5444 56.1428 31.5482 57.3932 35.2995C57.5694 35.8279 57.5341 36.3915 57.5517 36.9727Z" fill="#EE0202"/>
<path fill-rule="evenodd" clip-rule="evenodd" d="M91.6307 69.1672C90.1865 69.22 88.9184 68.7973 87.7561 67.952C85.7835 66.5078 84.4979 62.8445 86.8403 59.9738C87.7737 58.829 88.9713 58.0893 90.4507 57.8956C93.8674 57.4553 97.5659 59.7096 97.425 63.8132C97.3369 66.2612 95.8399 68.2161 93.3918 68.9911C92.8459 69.1496 92.2295 69.0967 91.6307 69.1672Z" fill="#EE0202"/>
<path fill-rule="evenodd" clip-rule="evenodd" d="M88.39 90.0019C87.6503 88.8747 86.9106 87.7476 86.1885 86.6204C86.2061 85.7046 86.2237 84.7888 86.4527 83.8906C87.0162 81.6715 89.6404 79.7518 91.7362 79.7518C93.8144 79.7518 95.4347 80.4915 96.5795 82.1294C97.9532 84.102 98.0412 86.0393 96.8436 88.2055C95.8045 90.09 94.061 90.9177 91.9652 91.0938C91.3487 91.1467 90.7852 90.9529 90.2216 90.7944C89.7813 90.6712 89.3762 90.4246 88.9007 90.6007H88.9359C88.9535 90.3894 88.8302 90.3189 88.6541 90.3013L88.6717 90.3189C88.5661 90.2133 88.478 90.1076 88.39 90.0019Z" fill="#EE0202"/>
<path fill-rule="evenodd" clip-rule="evenodd" d="M71.6764 29.3819C73.0854 29.2586 74.3887 29.6989 75.6567 30.2625C77.277 31.0022 77.5764 33.2213 76.2379 34.4189C75.8857 34.7359 75.463 34.912 74.9875 34.9297C74.3006 34.9649 73.6137 34.9473 72.9621 34.6831C72.2224 34.3837 71.4651 34.278 70.6902 34.5774C70.3555 34.7007 69.9681 34.7007 69.6158 34.7888C69.1403 34.9297 68.7176 34.8416 68.2774 34.6479C66.6218 33.9434 66.1463 32.4992 67.0445 30.9494C67.3439 30.4386 67.7666 30.1216 68.3126 29.9631C69.4045 29.6109 70.4964 29.3115 71.6764 29.3819Z" fill="#8FB624"/>
<path fill-rule="evenodd" clip-rule="evenodd" d="M86.6641 71.7913C87.7912 71.8969 89.1121 71.985 90.433 72.1611C91.0142 72.2316 91.5954 72.4077 92.0533 72.848C92.8458 73.5877 93.2509 74.3978 92.8986 75.5426C92.5464 76.6697 91.6658 77.0572 90.6619 77.3038C90.4858 77.339 90.2921 77.339 90.116 77.3214C88.5837 77.1453 87.0339 77.0044 85.5017 76.7578C84.6211 76.6169 83.8814 76.1766 83.4763 75.296C82.7366 73.7286 83.7933 71.9145 85.5193 71.8265C85.8363 71.7913 86.1533 71.7913 86.6641 71.7913Z" fill="#8FB624"/>
<path fill-rule="evenodd" clip-rule="evenodd" d="M78.7563 64.9579C79.0205 66.4725 76.7309 67.9696 75.3572 67.1242C74.9169 66.86 74.4766 66.6311 74.1772 66.2084C73.6312 65.4863 73.0501 64.7642 72.4865 64.0421C72.2928 63.7956 72.1342 63.5138 71.9581 63.2496C70.9014 61.5589 72.3984 59.7096 74.0539 59.5159C74.6527 59.4454 75.2515 59.6568 75.6918 60.0971C76.7661 61.1538 77.6996 62.3514 78.5097 63.637C78.7563 64.0421 78.7739 64.5 78.7563 64.9579Z" fill="#8FB624"/>
<path fill-rule="evenodd" clip-rule="evenodd" d="M92.2471 49.0896C93.2862 49.2305 94.1139 49.6356 94.519 50.6218C94.9065 51.5905 94.748 52.5063 94.0611 53.2988C93.1453 54.3379 91.7011 54.7078 90.5916 54.2323C89.1298 53.5806 88.619 51.9427 89.482 50.5866C89.9752 49.7765 91.3313 49.0544 92.2471 49.0896Z" fill="#9B3A16"/>
<path fill-rule="evenodd" clip-rule="evenodd" d="M77.6292 23.711C77.594 23.2179 77.7525 22.7424 77.9462 22.2844C78.3689 21.3334 79.3199 20.7874 80.3943 20.8579C81.4686 20.9283 82.1731 21.4919 82.5605 22.4782C82.8951 23.3412 82.7719 24.2041 82.3668 24.9967C81.8208 26.1062 80.6232 26.6346 79.4961 26.3175C78.2456 25.9477 77.5411 24.7853 77.6292 23.711Z" fill="#9B3A16"/>
<path fill-rule="evenodd" clip-rule="evenodd" d="M56.7944 46.712C58.1858 46.7296 59.0488 47.3284 59.4714 48.3852C59.8941 49.4066 59.4186 50.6747 58.538 51.2911C57.2524 52.1893 55.2622 51.7666 54.4521 50.4281C53.5715 49.0016 54.5401 46.9938 56.2133 46.7473C56.4598 46.712 56.6888 46.7296 56.7944 46.712Z" fill="#9B3A16"/>
<path fill-rule="evenodd" clip-rule="evenodd" d="M87.1924 32.4465C85.7306 32.4289 84.762 31.3722 84.7443 29.8928C84.7267 28.7128 85.8539 27.2686 87.3861 27.2334C88.7246 27.1982 90.0103 28.4486 89.9398 29.7695C89.8694 31.2841 88.5485 32.5698 87.1924 32.4465Z" fill="#9B3A16"/>
<path fill-rule="evenodd" clip-rule="evenodd" d="M79.179 68.7444C80.1652 68.7268 81.1163 69.3256 81.5213 70.3823C81.9264 71.4214 81.627 72.5133 80.764 73.2178C79.6721 74.0984 77.7876 73.9047 76.9423 72.7775C76.3435 71.985 76.2202 71.1044 76.6429 70.1886C77.0655 69.2375 77.8405 68.762 79.179 68.7444Z" fill="#9B3A16"/>
<path fill-rule="evenodd" clip-rule="evenodd" d="M43.4622 32.781C43.5679 34.0667 42.4055 35.5461 40.9966 35.5285C39.4996 35.4933 38.4781 34.5775 38.4429 33.0981C38.39 31.513 39.482 30.2626 40.9438 30.245C42.2999 30.2273 43.427 31.3721 43.4622 32.781Z" fill="#9B3A16"/>
<path fill-rule="evenodd" clip-rule="evenodd" d="M41.3137 76.2822C41.3137 75.8243 41.2961 75.3664 41.3313 74.9085C41.3489 74.6443 41.4546 74.3801 41.525 74.116C41.5954 73.9222 41.754 73.8166 41.9477 73.7989C42.1943 73.7813 42.4056 73.9398 42.476 74.1688C42.5641 74.433 42.5993 74.6971 42.6169 74.9789C42.6522 75.4897 42.705 75.9828 42.8459 76.4759C43.022 77.11 43.2686 77.6911 43.9026 78.0082C43.9907 78.0434 44.0611 78.1138 44.1139 78.1667C44.6071 78.607 44.748 79.2586 44.4486 79.7693C44.1492 80.2801 43.4975 80.509 42.8811 80.3153C42.388 80.1568 42.0005 79.8398 41.7716 79.3467C41.5074 78.7655 41.2961 78.1491 41.2784 77.4974C41.2784 77.0924 41.2784 76.6697 41.2784 76.2646C41.2784 76.2822 41.2961 76.2822 41.3137 76.2822Z" fill="#FDFBFC"/>
<path fill-rule="evenodd" clip-rule="evenodd" d="M72.6628 83.961C71.4123 83.9434 70.7255 82.8515 71.289 81.7948C71.4828 81.4249 71.9407 81.3016 72.1873 81.6186C72.6099 82.1646 73.1207 82.464 73.7723 82.5873C74.0013 82.6401 74.195 82.7986 74.2302 83.0276C74.2831 83.3446 74.0717 83.5207 73.8252 83.6792C73.4729 83.9258 73.0678 83.961 72.6628 83.961Z" fill="#FDFBFC"/>
<path fill-rule="evenodd" clip-rule="evenodd" d="M79.2672 4.10901C80.2006 4.30274 81.0812 4.30274 81.8737 4.77826C82.6662 5.23616 83.0008 5.94064 83.0889 6.80362C83.1241 7.13824 83.0537 7.43764 82.86 7.71943C82.6486 8.03644 82.2612 8.21257 81.9089 8.05406C81.451 7.86033 80.9931 7.63137 80.5704 7.3672C78.7036 6.20482 76.6782 5.83496 74.5296 6.09914C74.1597 6.15198 73.8075 6.20482 73.4376 6.20482C72.9973 6.20482 72.6803 5.94064 72.6627 5.58841C72.6627 5.28901 72.8917 4.9896 73.2439 4.91915C74.3182 4.70781 75.3925 4.49647 76.4845 4.33796C77.4355 4.23229 78.4218 4.32035 79.2672 4.10901Z" fill="#FDFBFC"/>
<path fill-rule="evenodd" clip-rule="evenodd" d="M88.39 90.0018C88.4781 90.1075 88.5661 90.1956 88.6542 90.3012C88.4605 90.2836 88.4076 90.1603 88.39 90.0018Z" fill="#FECB4B"/>
<path fill-rule="evenodd" clip-rule="evenodd" d="M88.619 90.2837C88.7951 90.3013 88.9184 90.3717 88.9008 90.5831C88.6542 90.6359 88.6366 90.4774 88.619 90.2837Z" fill="#FECB4B"/>
<path fill-rule="evenodd" clip-rule="evenodd" d="M64.9839 47.2404C64.9839 47.1347 65.0015 46.8705 65.0367 46.5887C65.3009 44.264 67.203 43.084 69.4221 43.8941C69.8448 44.0526 70.2674 44.264 70.6549 44.4929C71.7292 45.127 72.5922 46.0252 73.3847 46.9762C73.6841 47.3284 73.9131 47.7335 73.825 48.2266C73.6665 49.2129 72.5217 49.6884 71.7116 49.0896C71.4122 48.8783 71.1832 48.5789 70.9367 48.3147C70.4083 47.7335 69.8624 47.1875 69.1755 46.7825C68.8937 46.624 68.6295 46.4478 68.2949 46.4302C68.0307 46.4126 67.8546 46.5007 67.8018 46.7825C67.6609 47.5222 67.7489 48.2443 68.0307 48.9311C68.2597 49.4771 68.4886 50.023 68.7176 50.569C68.8585 50.9212 68.9113 51.2559 68.7528 51.6257C68.3654 52.5415 67.3263 52.7881 66.6218 52.1189C66.5161 52.0308 66.4281 51.9251 66.3576 51.8018C65.5827 50.4457 64.9663 49.0192 64.9839 47.2404Z" fill="#13110C"/>
<path fill-rule="evenodd" clip-rule="evenodd" d="M79.3904 40.3365C79.408 39.6849 79.5137 38.8747 79.8659 38.1174C80.6056 36.5147 82.1202 35.9159 83.7581 36.5676C84.3217 36.7789 84.8148 37.1312 85.2551 37.5186C86.3118 38.452 86.9635 39.6673 87.4742 40.9529C87.6856 41.4813 87.5447 41.9568 87.1748 42.3443C86.7873 42.7669 86.2942 42.8022 85.7835 42.6613C85.4136 42.5556 85.1671 42.2738 84.9909 41.9568C84.762 41.5517 84.5683 41.1467 84.3569 40.7416C84.0047 40.0899 83.5292 39.5264 82.8599 39.1741C82.6486 39.0685 82.4196 39.1741 82.3139 39.4031C82.0498 40.0195 82.0674 40.6711 82.1907 41.3052C82.2787 41.7983 82.4548 42.2738 82.5957 42.7669C82.6838 43.0663 82.8071 43.3657 82.8775 43.6828C83.0184 44.3872 82.7014 44.9684 82.0674 45.2502C81.451 45.5144 80.8169 45.2854 80.4119 44.669C80.359 44.5986 80.3238 44.5105 80.271 44.4225C79.8659 43.5243 79.3904 41.5165 79.3904 40.3365Z" fill="#13110C"/>
<path fill-rule="evenodd" clip-rule="evenodd" d="M92.5112 43.4715C92.4936 44.7571 91.4897 45.6906 90.204 45.6377C89.0945 45.6025 88.1082 44.6691 88.1258 43.6652C88.1611 42.538 89.4996 41.1467 90.521 41.2876C91.7715 41.4813 92.4936 42.1506 92.5112 43.4715Z" fill="#FAD5DC"/>
<path fill-rule="evenodd" clip-rule="evenodd" d="M67.8546 58.054C66.7275 58.054 65.8293 57.191 65.7588 56.1343C65.6884 54.9543 66.9388 53.7215 67.9251 53.6687C68.929 53.6158 70.197 54.9191 70.1618 55.9054C70.1089 56.9268 68.8937 58.054 67.8546 58.054Z" fill="#FAD5DC"/>
<path fill-rule="evenodd" clip-rule="evenodd" d="M82.314 52.5944C82.226 52.612 81.9794 52.7352 81.7857 52.6824C80.9403 52.4535 80.5176 52.9114 80.0245 53.5102C79.1967 54.514 77.7349 54.5669 76.8367 53.7567C76.5902 53.5278 76.4141 53.2812 76.3964 52.929C76.3612 52.5063 76.8191 52.1188 77.2066 52.2773C77.4179 52.3654 77.5941 52.5063 77.7878 52.6296C78.3514 52.9466 78.8445 52.8233 79.1791 52.2597C79.2848 52.066 79.3376 51.837 79.4257 51.6257C79.7427 50.8508 79.9364 50.7627 80.7994 50.9917C80.9755 51.0445 81.134 51.115 81.3101 51.1678C81.9618 51.3087 82.3669 51.0797 82.5958 50.4633C82.6839 50.2168 82.6839 49.9174 82.7719 49.6708C82.8776 49.3538 83.177 49.1601 83.5116 49.1953C83.8286 49.2305 84.0048 49.4418 84.0752 49.7236C84.357 50.7627 83.5821 52.1364 82.314 52.5944Z" fill="#13110C"/>
</svg>
