<svg width="340" height="342" viewBox="0 0 340 342" fill="none" xmlns="http://www.w3.org/2000/svg">
<path fill-rule="evenodd" clip-rule="evenodd" d="M304.26 238.473C311.982 242.284 316.254 248.46 318.448 256.251C319.17 258.863 319.412 261.505 319.174 264.177C318.981 266.203 318.384 268.093 317.225 269.807C314.899 273.199 310.787 274.249 307.116 272.358C305.097 271.341 303.619 269.718 302.423 267.847C300.488 264.827 299.416 261.469 298.835 257.965C298.219 254.469 298.305 250.932 298.736 247.431C298.785 246.971 298.826 246.476 298.947 246C299.461 243.904 298.894 243.878 297.205 243.687C295.56 243.523 293.976 243.983 292.534 244.748C288.089 247.181 285.543 251.108 284.022 255.783C283.838 256.31 284.031 256.679 284.657 256.804C284.93 256.856 285.22 256.98 285.493 257.033C294.171 259.399 299.272 268.5 298.545 276.632C298.397 278.348 297.976 280.013 297.273 281.589C296.535 283.173 295.527 284.554 294.148 285.605C291.198 287.861 287.51 287.77 284.662 285.362C282.957 283.902 281.904 281.999 281.042 279.942C279.451 276.098 278.968 272.012 278.778 267.899C278.695 266.494 278.719 265.067 278.707 263.647C273.395 262.977 267.391 266.837 264.077 273.066C264.638 273.579 265.279 274.112 265.856 274.697C269.494 278.317 271.409 282.614 271.052 287.82C270.906 290.06 270.162 292.132 268.832 293.921C268.02 294.997 267.062 295.918 265.846 296.521C262.248 298.208 258.461 296.642 256.958 292.854C256.214 290.995 255.891 289.007 255.933 286.977C255.968 284.574 256.24 282.231 256.814 279.897C256.955 279.342 257.095 278.787 257.2 278.24C257.349 277.384 257.136 277.094 256.221 276.845C255.183 276.549 254.116 276.633 253.123 276.887C252.024 277.166 250.948 277.551 249.963 278.179C246.423 280.302 243.773 283.24 242.171 287.035C241.284 289.138 240.651 291.373 240.124 293.584C239.964 294.218 239.934 294.936 239.441 295.418C239.166 295.703 238.833 295.889 238.421 295.717C238.052 295.573 237.712 295.385 237.654 294.949C237.611 294.584 237.676 294.196 237.748 293.843C238.336 291.057 238.994 288.255 239.935 285.541C241.455 281.203 244.079 277.634 247.538 274.63C248.703 273.626 249.943 272.793 251.329 272.115C253.617 270.94 256.034 270.523 258.539 271.022C259.676 271.26 260.3 270.861 260.834 269.883C262.286 267.282 264.101 264.975 266.265 262.892C269.789 259.5 273.833 257.116 278.792 256.517C279.701 256.392 280.123 255.926 280.359 255.125C280.836 253.374 281.516 251.69 282.325 250.091C284.021 246.725 286.168 243.709 289.129 241.339C292.183 238.873 295.61 237.261 299.646 237.575C300.903 237.674 301.468 237.176 301.927 236.027C303.646 231.571 305.987 227.39 308.414 223.265C308.797 222.619 309.259 221.994 309.772 221.433C309.983 221.199 310.527 221.118 310.816 221.241C311.299 221.398 311.587 221.858 311.475 222.37C311.37 222.917 311.194 223.479 310.931 223.986C310.336 225.202 309.69 226.354 309.088 227.534C307.64 230.322 306.322 233.193 305.171 236.14C304.768 236.865 304.552 237.586 304.26 238.473ZM302.59 246.4C302.074 250.705 302.276 254.704 303.91 258.575C304.615 260.255 305.554 261.808 306.847 263.097C307.563 263.801 308.316 265.021 309.397 264.485C310.207 264.083 309.961 262.789 309.908 261.865C309.505 256.264 307.422 251.368 303.659 247.177C303.445 246.886 303.077 246.743 302.59 246.4ZM283.293 264.589C282.783 266.872 283.33 270.907 284.621 274.067C285.432 276.061 286.187 278.141 288.376 279.421C289.903 276.99 289.763 274.475 289.065 271.971C288.147 268.803 286.477 266.137 283.293 264.589ZM261.184 281.56C260.818 283.137 260.881 284.62 261.166 286.093C261.323 286.807 261.237 287.612 261.914 288.137C262.27 288.396 262.737 287.283 262.792 285.998C262.832 284.642 262.558 283.392 261.955 282.177C261.829 281.942 261.54 281.819 261.184 281.56Z" fill="#EB1C24"/>
<path fill-rule="evenodd" clip-rule="evenodd" d="M248.711 30.177C246.686 32.0428 245.163 33.462 243.632 34.8455C242.129 36.1854 240.61 37.4538 238.783 38.3407C237.631 38.8924 236.468 39.222 235.192 39.2023C231.19 39.218 228.046 36.3135 227.575 32.1122C227.346 30.2158 227.562 28.297 227.937 26.4183C228.299 24.6546 228.653 22.8551 228.98 21.0992C229.032 20.8257 229.005 20.5322 229.058 20.2587C229.118 20.0209 229.079 19.8424 228.849 19.8179C228.69 19.7777 228.46 19.7532 228.333 19.856C227.241 20.5071 226.433 21.4326 225.581 22.3303C222.923 25.2333 220.701 28.4151 218.632 31.7878C218.214 32.4409 217.875 33.1141 217.413 33.7393C216.509 34.9105 215.473 35.1374 214.421 34.4323C213.455 33.783 213.292 32.6958 213.978 31.3852C214.054 31.2188 214.173 31.0804 214.285 30.9062C216.719 27.1539 219.146 23.3659 221.616 19.6057C223.11 17.3695 224.794 15.3163 226.746 13.4661C227.86 12.3987 229.048 11.502 230.604 11.0863C233.017 10.4829 235.196 11.2033 236.654 13.2422C237.455 14.3391 237.88 15.5936 238.17 16.9151C238.722 19.2646 238.758 21.6522 238.866 24.0241C238.892 24.6547 239.319 24.8979 239.8 24.5306C240.691 23.8115 241.53 23.0287 242.377 22.2817C243.888 20.9776 245.383 19.6019 246.946 18.3614C247.681 17.7885 248.547 17.2993 249.393 16.8894C252.67 15.2733 256.031 15.9219 258.525 18.5945C259.996 20.1813 260.827 22.0954 261.388 24.1435C262.11 26.7552 262.244 29.4207 262.308 32.1018C262.366 33.7359 262.346 35.3499 262.396 36.9483C262.445 38.0232 262.694 38.3055 263.804 38.2494C265.875 38.1327 267.965 37.9367 270.056 37.7408C271.187 37.6054 272.322 37.3193 273.452 37.1839C274.218 37.091 274.992 37.0338 275.733 37.1709C277.632 37.4661 278.402 39.618 277.196 41.1174C276.902 41.4814 276.571 41.8532 276.174 42.0899C272.395 44.4898 268.683 47.0247 264.534 48.7572C262.747 49.4855 260.905 49.9638 258.974 49.8628C254.676 49.719 251.15 47.1226 249.719 42.9819C248.999 40.8937 248.637 38.7272 248.676 36.5104C248.618 34.5392 248.655 32.6595 248.711 30.177Z" fill="#EB1C24"/>
<path fill-rule="evenodd" clip-rule="evenodd" d="M172.605 307.103C172.926 308.23 172.887 309.586 172.688 310.902C172.562 311.866 172.27 312.753 171.784 313.608C169.738 317.425 166.024 317.902 163.147 314.677C162.254 313.675 161.551 312.519 161.155 311.221C160.805 310.137 160.527 309.038 160.241 307.902C159.007 302.783 157.146 297.875 154.808 293.185C153.945 291.465 152.954 289.848 151.51 288.554C151.087 288.161 150.728 287.715 150.432 287.219C149.966 286.46 150.135 285.524 150.697 284.84C151.329 284.14 152.143 283.924 153.003 284.26C153.335 284.412 153.676 284.599 153.988 284.83C160.363 289.497 165.633 295.268 170.083 301.741C171.287 303.312 172.151 305.031 172.605 307.103Z" fill="#EB1C24"/>
<path fill-rule="evenodd" clip-rule="evenodd" d="M152.465 300.772C152.747 302.058 152.914 302.994 152.709 303.938C152.356 305.4 150.803 306.002 149.577 305.185C149.402 305.074 149.264 304.954 149.125 304.835C145.915 301.458 142.232 298.485 139.77 294.42C138.586 292.434 136.957 290.807 134.97 289.595C134.578 289.344 134.178 289.057 133.878 288.712C133.205 288.035 133.097 287.198 133.504 286.323C133.856 285.535 134.678 285.018 135.598 285.116C136.058 285.165 136.541 285.321 136.925 285.536C141.474 288.021 145.729 290.869 149.088 294.924C150.657 296.789 151.983 298.744 152.465 300.772Z" fill="#EB1C24"/>
<path fill-rule="evenodd" clip-rule="evenodd" d="M40.1986 229.806C39.8319 227.79 41.1071 225.752 43.0916 225.242C45.1832 224.709 47.4875 226.001 47.9134 228.116C48.175 229.481 48.1073 230.881 48.9047 232.128C49.2006 232.625 48.9173 233.211 48.452 233.65C47.9866 234.089 47.423 234.25 46.9083 233.951C45.7405 233.233 44.4401 233.106 43.1598 232.9C41.5981 232.606 40.4915 231.314 40.1986 229.806Z" fill="#EB1C24"/>
<path fill-rule="evenodd" clip-rule="evenodd" d="M56.8808 238.466C58.3373 238.11 59.629 238.538 60.4185 239.75C61.2672 241.061 62.319 242.103 63.5616 242.991C63.7871 243.167 63.949 243.393 64.1109 243.62C64.7586 244.526 64.2232 245.841 63.0725 246.056C62.7153 246.134 62.2432 246.2 61.9462 246.04C60.4893 245.199 58.8753 245.178 57.2813 245.078C55.2631 244.922 54.0548 243.165 54.3422 241.231C54.5606 239.835 55.4957 238.807 56.8808 238.466Z" fill="#EB1C24"/>
<path fill-rule="evenodd" clip-rule="evenodd" d="M49.4366 249.08C48.4488 249.184 47.3192 248.983 46.2096 248.702C45.1 248.421 43.9825 248.104 42.9488 247.657C41.4596 247.01 40.9289 245.442 41.5714 244.103C42.1582 242.852 43.5957 242.237 44.9543 242.801C46.4357 243.412 47.8769 244.182 49.3104 244.916C49.8172 245.179 50.2761 245.565 50.6635 245.967C51.2408 246.551 51.4687 247.25 51.1609 248.066C50.8932 248.724 50.2738 248.972 49.4366 249.08Z" fill="#EB1C24"/>
<path fill-rule="evenodd" clip-rule="evenodd" d="M73.8807 253.532C74.6587 253.324 75.4557 253.374 76.0251 253.923C77.0099 254.83 78.162 255.476 79.3978 255.992C79.6434 256.088 79.8768 256.299 80.0666 256.482C80.5768 256.931 80.7489 257.717 80.4656 258.303C80.1544 258.933 79.6455 259.344 78.8842 259.286C78.8049 259.266 78.6978 259.289 78.6107 259.233C77.0814 258.745 75.4918 258.494 73.8744 258.287C72.6811 258.137 71.9351 256.953 72.014 255.775C72.1364 254.625 72.7814 253.81 73.8807 253.532Z" fill="#EB1C24"/>
<path fill-rule="evenodd" clip-rule="evenodd" d="M287.322 183.194C287.491 183.456 287.59 183.734 287.787 183.952C291.459 188.239 291.302 192.989 289.506 197.949C288.706 200.108 287.321 201.984 285.686 203.577C284.361 204.878 283.612 206.24 284.026 208.133C284.183 208.847 284.061 209.66 284.039 210.413C283.981 212.709 283.221 214.71 281.725 216.423C280.412 217.946 278.908 219.285 277.141 220.272C276.31 220.753 275.968 221.24 276.052 222.307C276.806 229.852 272.405 236.244 265.07 238.3C264.613 238.437 264.157 238.575 263.677 238.605C262.788 238.65 262.367 239.117 262.051 239.897C260.68 243.379 257.91 245.258 254.473 246.311C252.539 246.884 250.603 247.271 248.541 247.086C248.469 247.439 248.309 247.736 248.364 247.986C248.982 252.342 245.543 257.662 240.168 259.438C236.639 260.586 233.021 260.817 229.519 259.525C228.299 259.081 227.327 259.257 226.239 259.757C222.057 261.684 217.704 262.488 213.174 261.459C212.31 261.274 211.762 261.506 211.149 262.127C209.467 263.843 207.511 265.17 205.299 266.178C203.699 266.903 202.064 267.299 200.307 267.309C196.75 267.303 193.297 266.749 190.042 265.216C189.622 265.009 189.174 264.845 188.747 264.602C188.022 264.199 187.345 264.01 186.617 264.619C186.49 264.722 186.275 264.769 186.113 264.879C182.462 266.839 178.771 266.562 175.071 265.052C173.669 264.461 172.343 263.704 171.266 262.891C170.684 262.794 170.639 263.104 170.507 263.357C168.333 267.614 164.53 269.046 160.092 269.12C157.26 269.179 154.625 268.259 152.198 266.919C151.438 266.524 150.733 266.042 149.993 265.568C149.217 265.101 148.425 264.901 147.547 265.168C147.369 265.207 147.19 265.246 146.976 265.293C142.611 266.212 139.113 264.769 136.2 261.552C135.9 261.206 135.592 260.825 135.283 260.443C134.88 259.97 134.397 259.814 133.754 259.955C131.805 260.456 129.814 260.593 127.815 260.694C125.808 260.76 123.813 260.71 121.84 260.244C118.483 259.445 115.676 257.739 113.511 255.032C112.587 253.887 111.94 252.643 111.627 251.215C111.455 250.429 110.996 250.043 110.243 250.021C107.522 249.905 105.381 248.503 103.224 247.029C101.859 246.093 100.684 245.003 100.01 243.466C99.605 242.469 98.9798 242.007 97.8535 241.992C96.0452 241.939 94.258 241.47 92.5824 240.826C89.7224 239.731 87.4793 237.864 85.9326 235.246C84.808 233.359 83.8821 231.353 83.4483 229.203C83.2918 228.488 83.0115 228.063 82.219 227.862C77.2805 226.848 74.8596 223.486 73.9418 218.783C73.8635 218.426 73.8132 218.025 73.7707 217.66C72.9356 217.095 72.0695 217.584 71.2882 217.605C68.9085 217.678 66.7807 217.021 64.8136 215.73C62.5338 214.208 61.2752 212.051 60.7677 209.392C60.373 207.42 60.3791 205.397 60.6152 203.399C60.7253 202.364 60.5097 201.551 59.4681 201.068C56.0107 199.467 55.0042 196.581 55.4194 193.009C55.5497 191.895 55.2225 191.255 54.2166 190.765C52.6604 189.983 51.3351 188.888 50.1571 187.611C47.6705 184.974 46.8112 181.906 47.5 178.387C47.8744 176.508 48.5738 174.745 49.5187 173.078C50.3721 171.507 50.4079 171.499 49.3013 170.207C48.6057 169.423 48.0094 168.581 47.6675 167.533C46.948 165.444 46.9898 163.414 47.8565 161.39C48.3797 160.19 48.9821 159.01 49.6045 157.751C49.0038 157.059 48.4544 156.43 47.933 155.759C44.0371 150.96 43.724 145.601 46.9997 140.392C47.9681 138.832 49.1776 137.519 50.5614 136.318C51.0624 135.871 51.2264 135.424 50.8355 134.836C50.7842 134.772 50.725 134.673 50.7093 134.601C49.033 131.562 49.5333 128.72 51.6154 126.093C51.7906 125.868 51.9579 125.606 52.1409 125.417C53.2824 124.306 53.7576 123.228 52.5327 121.737C51.8214 120.883 51.5275 119.712 51.1778 118.628C50.227 115.655 50.5331 112.78 51.9175 110.044C53.3856 107.177 55.3282 104.768 58.1014 103.075C59.2576 102.372 59.8702 101.752 59.5617 100.172C59.0194 97.1844 60.0467 94.5264 62.0641 92.2878C62.6968 91.5877 63.3808 90.9513 64.0571 90.2791C63.7264 89.4532 62.9059 89.2961 62.3164 88.8264C60.0299 86.9317 58.9743 84.5054 59.2134 81.496C59.3947 79.2479 60.2256 77.2318 61.3815 75.3316C62.8642 72.8733 64.8415 70.7932 66.9572 68.8325C71.0214 65.1723 75.5277 62.1639 80.2552 59.4813C86.9134 55.7021 93.8944 52.713 101.112 50.1212C107.675 47.7853 114.344 45.7629 121.15 44.1971C130.548 41.9886 140.085 40.7601 149.725 39.996C167.615 38.6221 185.327 39.6828 202.925 43.1266C225.446 47.5132 246.11 56.2369 264.792 69.5868C273.534 75.8316 281.369 83.0611 288.205 91.3704C294.235 98.7333 298.866 106.889 302.206 115.815C304.091 120.829 305.626 125.958 306.59 131.211C307.776 137.652 308.137 144.085 307.202 150.579C305.407 163.062 299.337 173.113 289.767 181.198C288.801 181.746 287.856 182.216 287.322 183.194ZM114.609 53.6399C113.788 53.8199 112.915 53.9362 112.109 54.1876C103.837 56.7485 95.6779 59.6587 87.9248 63.5655C82.8368 66.1399 77.8906 69.0201 73.4458 72.6513C71.7284 74.0382 70.1415 75.5087 68.7166 77.2058C67.7972 78.3055 66.9727 79.4968 66.5601 80.8598C66.1274 82.3021 66.4782 83.0487 67.849 83.497C69.6675 84.1093 71.6064 84.246 73.4984 84.1684C77.9565 84.0152 82.4268 83.7471 86.8771 83.5583C88.8997 83.5643 90.9222 83.5705 92.9448 83.5765C93.0319 83.6323 93.119 83.6881 93.1982 83.7082C98.5394 83.9979 103.816 84.6761 109.072 85.4335C121.009 87.1232 132.249 90.7621 142.625 96.9483C143.357 97.3868 144.137 97.7024 144.926 98.0538C146.853 99.5032 148.947 100.691 151.089 101.757C151.453 102.051 151.789 102.389 152.181 102.64C156.361 105.318 160.29 108.388 164.036 111.647C172.722 119.176 180.506 127.54 187.987 136.232C188.647 137.023 189.187 137.953 190.094 138.503C191.404 140.724 193.024 142.652 194.779 144.513C194.906 144.748 195.04 145.018 195.202 145.244C200.096 151.696 204.99 158.147 210.393 164.188C214.302 168.534 218.534 172.473 223.195 175.981C242.284 190.327 268.589 189.094 285.803 173.869C294.774 165.953 299.606 156.06 300.011 144.069C300.077 141.808 300.279 139.481 299.643 137.262C299.887 136.498 299.723 135.747 299.638 135.018C298.996 130.891 298.096 126.784 296.883 122.782C296.396 121.242 296.051 119.671 295.08 118.311C294.978 117.847 294.912 117.375 294.739 116.926C292.52 110.899 289.599 105.251 285.839 100.049C277.972 89.083 268.163 80.1898 256.919 72.7715C256.642 72.5327 256.393 72.2503 256.08 72.0194C247.935 66.6171 239.275 62.1136 230.192 58.4138C229.412 58.0982 228.556 57.9489 227.755 57.7125C227.335 57.505 226.936 57.2182 226.496 57.09C222.982 55.9135 219.488 54.6577 215.89 53.6117C198.269 48.526 180.222 46.453 161.903 46.7231C159.25 46.7429 156.558 46.584 153.93 47.2345C153.523 46.912 153.043 46.9423 152.571 47.0083C141.777 47.8007 131.073 49.1724 120.52 51.7462C118.536 52.2558 116.516 52.7732 114.609 53.6399ZM283.188 186.195C282.161 186.121 281.604 186.654 280.937 187.025C273.381 191.151 265.272 193.601 256.696 194.095C243.091 194.867 230.641 191.343 219.453 183.501C213.793 179.538 208.767 174.875 204.134 169.788C198.719 163.863 193.812 157.526 188.977 151.174C181.349 141.13 172.839 131.84 163.871 123.024C153.056 112.443 140.648 104.156 127.053 97.6272C124.463 96.3979 121.749 95.4578 118.983 94.7911C114.437 93.6908 109.839 92.8639 105.217 92.267C98.3229 91.3817 91.3887 90.6549 84.4237 90.9829C79.8662 91.1953 75.2765 91.6018 70.6888 91.3342C70.2367 91.3209 69.6932 91.4026 69.3394 91.6672C67.4679 92.8633 65.9759 94.4253 64.8793 96.4247C64.0738 97.8738 64.2875 99.3617 64.7311 100.874C64.7545 100.981 64.7702 101.053 64.7937 101.16C65.1301 102.696 64.6305 104.003 63.509 105.034C62.8249 105.671 62.0616 106.287 61.3262 106.86C59.7918 108.057 58.7006 109.569 57.7635 111.271C56.5073 113.568 56.4767 115.82 57.9374 118.046C58.3953 118.769 58.8531 119.492 59.311 120.215C60.5506 122.115 60.4774 124.002 59.191 125.819C58.5338 126.749 57.6947 127.531 56.8991 128.342C56.3222 128.955 55.6146 129.484 55.0456 130.133C54.3292 130.963 54.3707 131.666 55.0228 132.421C55.2718 132.703 55.5566 132.978 55.8334 133.217C57.6132 134.848 57.8214 136.824 56.9782 138.955C56.5744 140.016 55.9251 140.982 55.3985 141.996C54.872 143.009 54.2662 144.003 53.7753 145.009C52.8974 146.811 53.1223 148.521 54.2278 150.15C54.6622 150.766 55.1323 151.374 55.5667 151.99C56.0011 152.606 56.4712 153.214 56.8063 153.89C57.8159 155.765 57.5764 157.576 56.2073 159.186C55.7019 159.784 55.0937 160.254 54.6161 160.808C53.8719 161.682 53.0841 162.528 52.4704 163.486C51.6895 164.705 51.9286 165.626 53.0841 166.458C53.5352 166.809 54.0699 167.028 54.5846 167.327C56.6432 168.523 57.4865 170.322 57.0909 172.617C56.9015 173.632 56.5614 174.642 56.2569 175.645C55.9202 176.842 55.5042 178.018 55.2389 179.199C54.9736 180.38 55.3155 181.428 56.2846 182.264C57.2973 183.128 58.3936 183.861 59.5893 184.534C63.0457 186.472 63.7216 188.533 62.1879 192.125C61.9124 192.747 61.5933 193.341 61.3535 193.955C61.2018 194.287 61.1014 194.684 60.9933 195.044C60.8929 195.441 61.0147 195.826 61.3631 196.049C61.7549 196.3 62.1825 196.543 62.6023 196.75C65.1732 197.722 66.4162 199.808 67.0788 202.32C67.3806 203.527 67.6466 204.741 67.8055 205.979C68.0538 207.796 68.9906 208.826 70.702 209.462C72.6511 210.158 74.5556 211.163 76.4289 212.025C77.3834 212.452 77.9049 213.124 77.711 214.289C77.3722 216.16 78.0056 217.856 78.8455 219.468C79.9378 221.55 81.4406 222.942 83.9588 222.99C86.247 223.012 87.675 224.234 88.3387 226.409C88.751 227.779 89.2983 229.081 89.9528 230.36C91.9163 234.197 95.2083 235.385 99.2344 235.139C99.9008 235.106 100.564 234.886 101.23 234.852C103.416 234.747 104.892 235.846 105.425 237.938C105.601 238.573 105.678 239.267 105.819 239.91C105.944 240.482 106.133 241.002 106.592 241.388C108.072 242.673 109.611 243.721 111.71 243.561C114.645 243.292 116.612 244.583 117.675 247.382C119.063 251.158 121.961 252.769 125.907 252.84C128.497 252.872 131.052 252.574 133.56 252.062C137.619 251.285 138.958 251.928 140.834 255.709C142.324 258.751 143.52 259.425 146.726 258.685C149.298 258.122 151.613 258.438 153.922 259.579C155.015 260.126 156.199 260.577 157.368 260.958C159.25 261.519 161.07 261.457 162.957 260.669C164.799 259.854 166.531 258.875 168.145 257.698C169.695 256.573 169.846 256.577 171.345 257.783C173.478 259.487 175.914 260.526 178.557 261.144C180.53 261.61 182.36 261.247 184.123 260.412C184.564 260.203 184.954 259.93 185.343 259.658C186.646 258.773 188.031 258.77 189.453 259.282C190.261 259.554 191.077 259.862 191.857 260.177C193.83 260.98 195.887 261.316 198.005 261.413C200.459 261.512 202.722 260.904 204.642 259.248C205.644 258.355 206.559 257.406 207.415 256.357C209.155 254.217 210.647 253.853 213.226 254.86C213.507 254.948 213.76 255.08 214.014 255.211C216.033 256.229 218.202 256.39 220.416 256.242C222.3 256.128 223.924 255.511 225.15 253.932C226.432 252.266 228.194 251.768 230.228 251.996C231.457 252.139 232.69 252.13 233.94 252.194C237.73 252.411 240.555 250.782 242.468 247.555C242.962 246.736 243.334 245.869 243.741 244.993C243.948 244.574 244.069 244.098 244.312 243.67C244.874 242.649 245.609 242.413 246.682 243.039C247.196 243.338 247.576 243.704 248.219 243.563C250.592 243.118 252.882 242.467 254.983 241.295C256.616 240.376 257.834 239.099 258.026 237.073C258.203 234.975 259.393 233.742 261.483 233.546C263.903 233.315 265.787 232.004 267.473 230.474C269.604 228.585 270.571 226.165 270.132 223.304C270.003 222.546 269.91 221.781 269.861 221.043C269.729 218.901 270.626 217.357 272.552 216.411C273.227 216.076 273.946 215.769 274.637 215.505C275.919 215.037 277.04 214.342 278.034 213.413C279.247 212.287 279.723 210.872 279.256 209.253C279.02 208.518 278.757 207.828 278.414 207.117C277.48 205.075 277.593 203.029 278.575 201.018C279.066 200.012 279.794 199.066 280.416 198.144C281.129 197.127 281.929 196.166 282.554 195.093C284.038 192.297 284.234 189.26 283.188 186.195Z" fill="#13110C"/>
<path fill-rule="evenodd" clip-rule="evenodd" d="M283.188 186.195C284.242 189.296 284.046 192.333 282.392 195.203C281.766 196.276 280.958 197.202 280.253 198.254C279.596 199.184 278.903 200.122 278.412 201.128C277.458 203.096 277.309 205.15 278.251 207.227C278.55 207.91 278.857 208.629 279.093 209.363C279.56 210.983 279.12 212.389 277.871 213.524C276.877 214.453 275.756 215.147 274.474 215.616C273.747 215.887 273.064 216.186 272.389 216.521C270.463 217.467 269.566 219.011 269.698 221.153C269.755 221.927 269.876 222.649 269.969 223.415C270.416 226.311 269.441 228.696 267.31 230.585C265.588 232.122 263.697 233.398 261.32 233.656C259.23 233.852 258.04 235.086 257.863 237.183C257.671 239.209 256.445 240.451 254.821 241.406C252.727 242.613 250.429 243.229 248.056 243.674C247.405 243.779 247.033 243.449 246.519 243.15C245.446 242.524 244.711 242.76 244.149 243.781C243.942 244.201 243.821 244.676 243.578 245.104C243.171 245.979 242.764 246.854 242.305 247.666C240.4 250.928 237.567 252.522 233.777 252.304C232.528 252.241 231.294 252.249 230.065 252.107C228.023 251.843 226.261 252.341 224.987 254.043C223.796 255.613 222.165 256.195 220.253 256.352C218.039 256.5 215.87 256.339 213.851 255.322C213.597 255.19 213.344 255.058 213.063 254.97C210.484 253.963 208.992 254.328 207.252 256.468C206.396 257.516 205.517 258.457 204.479 259.359C202.559 261.014 200.332 261.615 197.842 261.524C195.724 261.426 193.667 261.091 191.694 260.288C190.914 259.972 190.098 259.664 189.29 259.392C187.868 258.88 186.484 258.884 185.18 259.768C184.791 260.041 184.401 260.313 183.96 260.522C182.197 261.358 180.368 261.721 178.394 261.255C175.751 260.636 173.35 259.59 171.182 257.894C169.647 256.696 169.532 256.683 167.982 257.809C166.368 258.986 164.636 259.964 162.794 260.78C160.915 261.603 159.087 261.629 157.205 261.068C156.008 260.732 154.859 260.272 153.759 259.69C151.45 258.548 149.091 258.204 146.563 258.796C143.357 259.535 142.153 258.826 140.671 255.819C138.795 252.038 137.484 251.352 133.397 252.173C130.845 252.657 128.334 252.982 125.744 252.951C121.842 252.907 118.944 251.296 117.512 247.493C116.485 244.686 114.526 243.43 111.547 243.671C109.456 243.867 107.909 242.784 106.429 241.498C105.97 241.112 105.782 240.592 105.656 240.021C105.516 239.378 105.438 238.684 105.262 238.049C104.729 235.957 103.217 234.866 101.067 234.962C100.401 234.996 99.7379 235.216 99.0715 235.25C95.0376 235.46 91.7534 234.308 89.7899 230.471C89.1354 229.192 88.5881 227.889 88.1758 226.52C87.5121 224.345 86.0841 223.123 83.7959 223.1C81.2777 223.053 79.7749 221.66 78.6826 219.579C77.8349 217.93 77.2093 216.271 77.5481 214.4C77.7419 213.235 77.2205 212.563 76.266 212.136C74.3492 211.245 72.4882 210.268 70.539 209.572C68.792 208.944 67.8552 207.914 67.6426 206.089C67.4837 204.852 67.2176 203.637 66.9159 202.431C66.2532 199.918 65.0181 197.868 62.4394 196.861C61.9917 196.697 61.5998 196.446 61.2001 196.159C60.8518 195.936 60.73 195.551 60.8304 195.155C60.9385 194.794 61.0389 194.398 61.1906 194.065C61.4661 193.443 61.7494 192.857 62.025 192.236C63.5587 188.643 62.8827 186.583 59.4264 184.645C58.2742 183.999 57.1422 183.274 56.1217 182.374C55.1526 181.539 54.8107 180.491 55.076 179.31C55.3335 178.093 55.7495 176.916 56.094 175.755C56.3984 174.753 56.7821 173.771 56.928 172.728C57.3158 170.397 56.4725 168.598 54.4217 167.438C53.907 167.139 53.408 166.911 52.9212 166.569C51.7735 165.772 51.5265 164.816 52.3075 163.597C52.9212 162.639 53.709 161.792 54.4532 160.918C54.9665 160.356 55.5668 159.851 56.0444 159.297C57.4135 157.687 57.653 155.875 56.6434 154C56.2726 153.333 55.8025 152.725 55.4038 152.101C54.9694 151.485 54.4993 150.877 54.0649 150.261C52.9594 148.631 52.7345 146.921 53.6124 145.119C54.1032 144.114 54.709 143.12 55.2356 142.106C55.7621 141.093 56.4115 140.127 56.8152 139.065C57.6585 136.934 57.4503 134.959 55.6705 133.327C55.3858 133.053 55.1089 132.814 54.8599 132.532C54.2 131.74 54.1585 131.038 54.8827 130.243C55.4517 129.595 56.1235 129.073 56.7361 128.452C57.5318 127.642 58.3631 126.823 59.0281 125.929C60.3581 124.141 60.3877 122.225 59.1481 120.326C58.6902 119.602 58.2324 118.879 57.7745 118.156C56.3138 115.931 56.3879 113.706 57.6006 111.382C58.5377 109.679 59.6289 108.168 61.1633 106.971C61.8987 106.398 62.662 105.781 63.3461 105.145C64.4675 104.113 64.9315 102.814 64.6307 101.27C64.6073 101.163 64.5916 101.092 64.5682 100.985C64.1603 99.4644 63.9187 98.0201 64.7164 96.5353C65.7851 94.5794 67.3128 93.0095 69.1765 91.7778C69.5381 91.5488 70.0738 91.4315 70.5259 91.4447C75.1136 91.7124 79.6676 91.3136 84.2607 91.0935C91.2615 90.7576 98.1599 91.4922 105.054 92.3776C109.676 92.9745 114.274 93.8013 118.82 94.9016C121.622 95.5605 124.3 96.5084 126.89 97.7377C140.485 104.267 152.929 112.545 163.708 123.135C172.712 131.943 181.222 141.232 188.814 151.285C193.657 157.673 198.556 163.973 203.971 169.899C208.604 174.985 213.631 179.648 219.29 183.611C230.478 191.454 242.928 194.977 256.533 194.205C265.145 193.704 273.226 191.297 280.774 187.136C281.604 186.654 282.189 186.077 283.188 186.195ZM142.926 188.025C143.691 187.933 144.441 187.768 145.187 187.755C147.523 187.655 149.706 187.027 151.842 186.184C153.979 185.342 155.922 184.13 157.754 182.756C158.108 182.491 158.474 182.112 159.048 182.51C158.975 182.863 158.938 183.208 158.83 183.568C158.04 186.623 158.721 189.394 160.24 192.055C161.092 193.553 162.143 194.932 163.405 196.078C167.874 200.078 173.074 202.457 178.965 203.375C181.676 203.791 184.279 203.371 186.761 202.228C190.772 200.377 193.514 197.343 194.958 193.171C197.111 186.935 196.661 180.783 194.284 174.716C192.855 171.099 190.485 168.137 187.323 165.835C182.998 162.665 178.437 162.691 174.136 165.954C172.013 167.542 169.95 169.229 167.843 170.889C167.399 170.911 166.867 171.215 166.583 170.603C167.271 168.618 167.765 166.601 167.934 164.468C168.558 156.209 165.225 150.052 158.007 145.981C156.428 145.092 154.736 144.377 152.993 143.935C142.277 141.155 131.685 141.155 121.289 145.303C113.749 148.303 108.387 153.557 105.291 161.123C103.821 164.664 103.485 168.256 104.164 172.037C104.62 174.632 105.883 176.639 108.139 178.054C109.917 179.162 111.75 180.182 113.694 181.029C117.822 182.782 121.949 184.536 126.212 185.885C126.151 186.46 125.532 186.371 125.222 186.663C121.495 186.394 117.873 185.578 114.371 184.287C112.861 183.719 111.304 183.274 109.699 182.952C107.555 182.561 105.302 183.728 104.81 186.606C104.576 187.93 104.608 189.27 104.861 190.6C105.576 194.373 106.846 197.951 108.743 201.315C111.643 206.519 115.946 210.443 120.81 213.682C127.677 218.203 135.107 221.704 142.804 224.547C145.771 225.619 148.826 226.409 151.926 226.89C155.918 227.513 159.915 227.648 163.801 226.422C168.315 224.985 170.969 221.895 171.579 217.158C171.96 214.117 171.335 211.26 170.03 208.551C167.05 202.466 162.639 197.706 156.684 194.444C153.409 192.653 149.991 191.231 146.365 190.229C144.693 189.772 143.036 189.386 141.372 188.965C141.716 188.141 142.532 188.449 142.926 188.025ZM237.186 239.505C241.599 238.463 244.953 236.344 247.106 232.503C249.092 228.924 250.099 225.147 250.103 221.067C250.098 218.822 249.708 216.699 248.639 214.725C247.511 212.651 245.681 211.817 243.395 212.318C242.359 212.544 241.383 212.871 240.414 213.233C236.412 214.783 232.621 214.565 228.984 212.143C228.671 211.912 228.359 211.681 228.026 211.53C226.498 210.704 225.553 210.836 224.589 212.245C221.753 216.385 219.741 220.868 219.67 226.012C219.6 230.818 221.507 234.742 225.664 237.313C229.234 239.6 233.246 240.143 237.186 239.505ZM104.519 129.064C109.42 128.028 112.294 123.206 110.809 118.478C109.819 115.327 105.5 112.867 102.34 113.821C99.1804 114.775 97.1351 117.057 96.1783 120.037C94.5133 125.08 99.3324 130.163 104.519 129.064ZM179.117 252.937C180.279 252.944 181.595 251.945 182.728 250.798C184.741 248.71 185.348 246.182 184.48 243.415C183.702 240.89 182.057 239.192 179.323 238.668C178.034 238.426 176.871 238.756 175.669 238.907C172.678 239.263 171.117 241.364 170.273 243.832C169.388 246.459 169.96 249.066 171.972 251.246C173.822 253.198 176.05 253.459 179.117 252.937ZM74.0029 128.675C73.5743 128.769 73.36 128.816 73.1814 128.855C70.5462 129.47 67.9396 132.436 67.6938 135.073C67.6648 135.453 67.7074 135.818 67.7577 136.219C68.4187 140.603 70.8046 142.439 74.6858 142.899C76.5332 143.13 78.6003 142.827 80.0086 141.396C82.0573 139.3 83.5278 136.957 82.4787 133.705C81.634 131.046 80.1801 129.193 77.3504 128.578C76.1258 128.285 74.9672 128.464 74.0029 128.675ZM91.5737 108.244C91.0389 104.094 87.0121 101.944 83.2071 102.516C79.6242 103.076 76.6833 107.763 77.5093 111.363C78.3744 115.141 82.0274 117.634 86.1348 116.735C90.0636 115.874 92.7045 112.039 91.5737 108.244ZM203.134 234.762C202.572 230.319 198.652 228.145 195.006 228.757C190.387 229.544 188.127 233.408 188.94 237.123C189.892 241.294 193.322 243.799 197.231 243.017C201.426 242.173 203.915 238.671 203.134 234.762ZM253.114 197.05C251.117 197.675 249.329 198.74 248.114 200.541C247.234 201.82 246.686 203.25 246.694 204.82C246.679 205.609 247.252 206.345 247.938 206.569C248.738 206.805 249.727 206.364 250.078 205.576C250.286 205.156 250.37 204.688 250.491 204.213C250.94 202.505 252.184 201.521 253.757 200.84C254.44 200.54 255.074 200.701 255.676 201.056C256.539 201.578 257.02 202.408 257.16 203.388C257.253 204.154 257.231 204.907 257.324 205.673C257.451 206.768 258.21 207.5 259.186 207.511C260.09 207.537 260.965 206.747 261.075 205.712C261.349 203.032 260.773 200.575 258.745 198.662C257.175 197.134 255.3 196.609 253.114 197.05ZM217.607 204.978C217.615 205.014 217.681 205.486 217.819 205.943C218.094 206.856 218.877 207.358 219.778 207.198C220.679 207.038 221.284 206.381 221.33 205.398C221.457 202.9 220.678 200.712 218.895 198.895C216.871 196.83 214.341 196.561 211.858 198.041C209.347 199.564 208.38 201.984 207.769 204.663C207.556 205.571 208.137 206.342 209.024 206.634C209.876 206.934 210.666 206.611 211.173 205.677C211.512 205.004 211.764 204.275 212.059 203.574C212.423 202.67 212.925 201.887 213.775 201.326C214.689 200.714 215.581 200.856 216.321 201.667C217.103 202.506 217.43 203.483 217.607 204.978ZM261.301 213.748C260.658 213.888 260.079 213.978 259.551 214.131C258.396 214.496 257.328 216.115 257.384 217.226C257.487 218.551 258.989 220.28 260.373 220.277C261.801 220.301 263.224 220.476 264.637 220.091C265.478 219.832 266.217 219.445 266.83 218.825C268.222 217.322 267.899 215.334 266.193 214.21C264.539 213.151 262.905 213.209 261.301 213.748ZM210.749 213.48C210.489 212.639 209.905 211.681 208.923 211.298C207.204 210.626 205.405 209.935 203.437 210.516C202.067 210.928 201.382 211.902 201.002 213.07C200.621 214.239 201.368 215.086 202.1 215.862C202.634 216.418 203.279 216.801 204.064 216.966C205.193 217.168 206.303 217.449 207.417 217.579C209.55 217.748 211.229 215.845 210.749 213.48Z" fill="white"/>
<path fill-rule="evenodd" clip-rule="evenodd" d="M256.926 72.8072C268.163 80.1897 277.944 89.1266 285.847 100.084C289.607 105.287 292.528 110.935 294.747 116.962C294.92 117.411 294.986 117.883 295.088 118.347C294.54 118.579 293.993 118.475 293.438 118.334C292.372 118.081 291.278 117.872 290.176 117.626C290.101 117.456 290.026 117.285 289.952 117.114C287.908 112.397 285.458 107.88 282.087 103.94C278.167 99.3711 273.403 95.7359 268.372 92.4211C268.147 92.246 267.866 92.1579 267.612 92.0262C267.042 91.8143 266.518 91.8167 266.017 92.2634C265.452 92.7614 265.32 93.3519 265.476 94.0662C265.625 94.7448 266.107 95.238 266.518 95.7469C267.573 96.9755 268.529 98.2633 269.294 99.7053C271.128 103.121 272.998 106.53 274.776 110.033C275.781 112.059 276.659 114.187 276.866 116.5C274.384 116.445 271.937 116.382 269.47 116.398C264.421 116.419 259.404 116.582 254.417 117.225C250.267 117.76 246.106 118.073 241.991 118.937C235.554 120.309 229.169 121.746 222.834 123.583C220.194 124.348 217.586 125.256 214.977 126.165C212.02 127.187 209.168 128.523 206.262 129.609C200.977 131.627 196.056 134.277 191.556 137.659C191.103 137.982 190.598 138.243 190.102 138.539C189.187 137.953 188.655 137.059 187.995 136.268C180.514 127.576 172.73 119.212 164.044 111.683C160.298 108.423 156.377 105.389 152.189 102.676C151.797 102.425 151.461 102.087 151.097 101.792C151.709 101.509 152.269 101.161 152.904 100.985C157.076 99.6966 161.036 97.7811 165.035 96.0442C168.422 94.591 171.86 93.2013 175.374 91.9825C177.875 91.0977 180.467 90.4551 183.051 89.7768C187.818 88.4705 192.6 87.2357 197.375 85.9651C206.039 83.6553 214.887 82.3534 223.481 79.7221C232.04 77.0987 241.009 76.1818 249.807 74.4792C250.342 74.3618 250.961 74.4509 251.512 74.405C253.401 74.141 255.297 73.9127 256.926 72.8072Z" fill="#EE704A"/>
<path fill-rule="evenodd" clip-rule="evenodd" d="M299.643 137.262C300.251 139.525 300.077 141.808 300.011 144.069C299.606 156.06 294.774 165.953 285.803 173.869C268.589 189.094 242.284 190.327 223.195 175.981C218.534 172.473 214.295 168.498 210.393 164.188C204.954 158.155 200.096 151.696 195.202 145.244C195.04 145.018 194.906 144.748 194.779 144.513C198.181 143.469 201.63 142.638 205.125 142.359C208.727 142.057 212.228 140.953 215.885 140.901C218.645 140.857 221.336 140.156 224.085 139.89C228.338 139.483 232.603 138.96 236.854 138.89C241.63 138.817 246.308 137.792 251.025 137.282C254.79 136.869 258.575 136.377 262.367 136.258C269.197 135.997 276.046 135.993 282.905 136.55C283.587 136.587 284.234 136.633 284.829 136.278C285.591 136.336 286.352 136.393 287.113 136.451C288.555 137.221 290.224 137.155 291.758 137.492C294.437 138.103 297.039 138.02 299.643 137.262ZM282.618 150.275C282.906 152.27 284.308 152.861 285.58 151.834C286.089 151.423 286.582 150.941 286.952 150.411C287.589 149.56 287.572 148.628 287.04 147.734C286.61 146.967 285.417 146.48 284.525 146.675C283.596 146.879 282.983 147.5 282.806 148.399C282.669 149.14 282.683 149.886 282.618 150.275Z" fill="#EE704A"/>
<path fill-rule="evenodd" clip-rule="evenodd" d="M153.938 47.2702C156.566 46.6197 159.23 46.8221 161.911 46.7588C180.23 46.4888 198.277 48.5617 215.898 53.6474C219.452 54.6655 222.99 55.9492 226.504 57.1257C226.951 57.2897 227.343 57.5407 227.763 57.7482C227.414 57.8621 227.06 58.1268 226.723 58.1258C223.138 58.1626 219.697 59.0287 216.39 60.1648C213.325 61.2105 210.19 61.9348 207.14 63.0519C203.571 64.3579 199.919 65.4573 196.417 66.8983C191.156 69.024 185.942 71.364 180.838 73.867C176.31 76.0941 171.767 78.2497 167.476 80.8741C164.071 82.9301 160.689 85.0932 157.403 87.3478C154.506 89.3299 151.549 91.2128 148.984 93.6837C147.532 95.0872 146.255 96.6023 144.933 98.0895C144.181 97.7303 143.365 97.4225 142.633 96.984C132.257 90.7978 121.009 87.1232 109.08 85.4692C103.788 84.7196 98.5115 84.0414 93.206 83.7439C93.1268 83.7238 93.0397 83.668 92.9526 83.6122C94.3065 83.1285 95.5341 82.4104 96.7025 81.593C101.32 78.4104 105.843 75.1363 110.58 72.1524C118.55 67.1873 126.698 62.5202 135.158 58.4212C139.181 56.4543 143.11 54.396 146.778 51.8332C149.123 50.234 151.578 48.7978 153.938 47.2702Z" fill="#EE704A"/>
<path fill-rule="evenodd" clip-rule="evenodd" d="M144.926 98.0538C146.247 96.5666 147.516 95.0158 148.976 93.648C151.549 91.2128 154.498 89.2942 157.395 87.3121C160.681 85.0575 164.063 82.8944 167.468 80.8384C171.767 78.2497 176.338 76.0505 180.83 73.8313C185.934 71.3283 191.148 68.9883 196.409 66.8625C199.919 65.4573 203.563 64.3221 207.133 63.0162C210.182 61.8991 213.317 61.1748 216.382 60.1291C219.697 59.0287 223.13 58.1269 226.715 58.0901C227.052 58.0911 227.414 57.8622 227.755 57.7125C228.556 57.9489 229.412 58.0982 230.192 58.4138C239.275 62.1136 247.899 66.6249 256.08 72.0194C256.385 72.2146 256.634 72.4969 256.919 72.7714C255.281 73.8413 253.393 74.1052 251.481 74.2621C250.929 74.308 250.319 74.2546 249.775 74.3363C240.978 76.0389 232.044 76.948 223.45 79.5792C214.856 82.2105 205.972 83.5202 197.344 85.8222C192.569 87.0928 187.786 88.3276 183.019 89.6339C180.479 90.3401 177.852 90.9906 175.343 91.8396C171.865 93.0507 168.426 94.4403 165.003 95.9013C161.004 97.6382 157.08 99.5458 152.873 100.842C152.238 101.018 151.65 101.409 151.066 101.649C148.947 100.691 146.825 99.5467 144.926 98.0538Z" fill="#F8C1B3"/>
<path fill-rule="evenodd" clip-rule="evenodd" d="M284.865 136.27C284.269 136.625 283.587 136.587 282.941 136.542C276.089 136.021 269.24 136.025 262.403 136.25C258.619 136.405 254.834 136.897 251.061 137.275C246.344 137.784 241.701 138.801 236.89 138.882C232.639 138.952 228.366 139.439 224.121 139.882C221.372 140.148 218.645 140.857 215.921 140.893C212.272 140.981 208.798 142.041 205.161 142.352C201.666 142.631 198.181 143.469 194.815 144.506C193.068 142.68 191.44 140.716 190.13 138.495C190.626 138.199 191.131 137.939 191.584 137.615C196.076 134.198 200.997 131.548 206.29 129.565C209.224 128.436 212.083 127.136 215.005 126.121C217.614 125.213 220.186 124.312 222.861 123.539C229.197 121.702 235.582 120.266 242.019 118.893C246.126 117.994 250.287 117.681 254.445 117.182C259.476 116.566 264.493 116.403 269.498 116.355C271.965 116.338 274.455 116.429 276.894 116.456C277.934 118.811 278.466 121.24 278.744 123.874C279.229 128.484 280.592 132.827 284.577 135.809C284.708 135.893 284.755 136.107 284.865 136.27Z" fill="#F8C1B3"/>
<path fill-rule="evenodd" clip-rule="evenodd" d="M153.938 47.2702C151.534 48.77 149.079 50.2061 146.778 51.8332C143.11 54.396 139.181 56.4543 135.158 58.4212C126.698 62.5202 118.55 67.1873 110.58 72.1524C105.836 75.1006 101.285 78.4182 96.7025 81.593C95.5341 82.4104 94.3064 83.1285 92.9526 83.6122C90.93 83.6062 88.9075 83.6001 86.8849 83.594C87.0254 83.0392 87.0866 82.4643 87.2706 81.9374C88.5098 78.709 90.3585 75.871 92.6348 73.2762C95.3886 70.1277 98.3758 67.19 101.43 64.3874C104.238 61.826 106.958 59.2088 110.169 57.1205C111.742 56.102 113.103 54.7934 114.609 53.6399C116.523 52.8089 118.536 52.2558 120.564 51.7741C131.081 49.2081 141.821 47.8286 152.614 47.0362C153.094 47.0059 153.566 46.9399 153.938 47.2702Z" fill="#F8C1B3"/>
<path fill-rule="evenodd" clip-rule="evenodd" d="M114.609 53.6399C113.146 54.8213 111.742 56.102 110.169 57.1205C106.958 59.2088 104.245 61.8617 101.43 64.3874C98.3401 67.1979 95.3886 70.1277 92.6348 73.2762C90.3585 75.871 88.5098 78.709 87.2706 81.9374C87.0866 82.4643 86.9897 83.047 86.8849 83.594C82.4425 83.8186 77.9643 84.051 73.5062 84.2041C71.6142 84.2817 69.711 84.1372 67.8568 83.5327C66.4503 83.0922 66.0917 82.3099 66.5679 80.8955C67.0084 79.489 67.805 78.3412 68.7245 77.2415C70.1493 75.5444 71.7362 74.0739 73.4536 72.6871C77.8984 69.0558 82.8446 66.1756 87.9326 63.6012C95.6779 59.6586 103.844 56.7842 112.117 54.2234C112.915 53.9363 113.788 53.8199 114.609 53.6399Z" fill="#EE704A"/>
<path fill-rule="evenodd" clip-rule="evenodd" d="M299.643 137.262C297.039 138.02 294.429 138.067 291.786 137.449C290.245 137.075 288.618 137.17 287.141 136.408C288.163 135.435 289.414 134.824 290.275 133.625C292.183 130.886 292.644 127.866 292.134 124.684C291.752 122.259 291.221 119.831 290.168 117.591C291.27 117.836 292.328 118.053 293.43 118.299C293.985 118.439 294.532 118.544 295.08 118.311C296.079 119.627 296.431 121.234 296.883 122.782C298.132 126.776 298.988 130.855 299.638 135.018C299.766 135.775 299.895 136.533 299.643 137.262Z" fill="#F8C1B3"/>
<path fill-rule="evenodd" clip-rule="evenodd" d="M167.907 170.837C170.014 169.178 172.085 167.526 174.2 165.903C178.5 162.64 183.054 162.578 187.386 165.784C190.513 168.094 192.883 171.055 194.348 174.665C196.76 180.724 197.174 186.884 195.022 193.12C193.578 197.292 190.836 200.325 186.825 202.177C184.343 203.32 181.704 203.748 179.028 203.323C173.146 202.441 167.902 200.034 163.468 196.027C162.171 194.889 161.156 193.502 160.304 192.004C158.749 189.35 158.096 186.536 158.894 183.517C159.002 183.156 159.031 182.776 159.111 182.459C158.537 182.06 158.171 182.44 157.818 182.705C155.985 184.079 154.042 185.291 151.906 186.133C149.77 186.975 147.587 187.603 145.251 187.703C144.513 187.753 143.755 187.881 142.989 187.974C142.07 187.539 141.157 187.814 140.205 187.91C139.057 187.451 137.886 187.745 136.323 187.787C137.71 188.307 138.676 188.619 139.759 188.607C140.37 188.66 140.908 189.066 141.571 188.846C143.235 189.268 144.9 189.689 146.564 190.111C150.182 191.077 153.6 192.499 156.882 194.326C162.845 197.623 167.257 202.384 170.229 208.433C171.569 211.134 172.167 214.034 171.777 217.039C171.168 221.777 168.513 224.866 164 226.304C160.078 227.538 156.081 227.403 152.125 226.772C149.017 226.255 145.97 225.5 143.002 224.428C135.27 221.593 127.876 218.085 121.009 213.563C116.109 210.332 111.841 206.401 108.942 201.197C107.045 197.832 105.774 194.255 105.06 190.481C104.806 189.152 104.774 187.811 105.009 186.488C105.501 183.61 107.789 182.435 109.898 182.834C111.495 183.12 113.06 183.601 114.569 184.169C118.071 185.46 121.694 186.276 125.421 186.545C126.541 187.048 127.771 186.854 128.929 187.012C130.07 187.436 131.216 187.372 132.87 187.234C131.824 186.901 131.298 186.717 130.743 186.577C130.275 186.492 129.815 186.443 129.355 186.394C128.376 186.197 127.47 185.647 126.411 185.767C122.147 184.417 118.02 182.664 113.893 180.911C111.956 180.1 110.123 179.079 108.338 177.935C106.125 176.549 104.862 174.542 104.362 171.919C103.684 168.137 104.02 164.545 105.49 161.004C108.586 153.439 113.948 148.184 121.488 145.185C131.883 141.036 142.476 141.036 153.191 143.817C154.943 144.294 156.626 144.974 158.206 145.863C165.388 149.941 168.748 156.055 168.133 164.35C167.956 166.447 167.47 168.5 166.782 170.485C166.313 170.737 166.264 171.197 166.171 171.629C166.131 171.788 166.142 172.01 166.237 172.101C166.332 172.193 166.59 172.174 166.725 172.107C167.15 171.826 167.675 171.487 167.907 170.837ZM127.673 149.669C125.522 150.103 123.426 150.787 121.405 151.641C116.366 153.756 112.608 157.274 109.933 161.977C109.558 162.658 109.262 163.36 109.204 164.121C109.101 165.528 108.97 166.98 108.91 168.415C108.863 170.933 109.849 172.701 112.328 173.767C117.41 175.948 122.539 178.006 127.881 179.493C132.105 180.664 136.442 181.323 140.888 181.285C145.413 181.267 149.576 180.28 153.189 177.468C157.637 174.023 160.28 169.513 160.773 163.903C161.176 159.249 159.466 155.543 155.261 153.096C153.674 152.171 151.978 151.606 150.247 151.05C142.853 148.739 135.32 148.181 127.673 149.669ZM110.774 189.567C110.997 193.148 112.361 197.154 114.347 199.901C117.467 204.233 121.339 207.726 126.012 210.259C131.713 213.389 137.662 215.941 143.887 217.872C148.301 219.225 152.844 219.802 157.428 219.883C158.971 219.92 160.458 219.706 161.919 219.199C163.309 218.707 164.109 217.746 164.391 216.299C164.718 214.543 164.393 212.893 163.633 211.3C161.327 206.415 157.901 202.562 153.189 199.851C150.616 198.356 147.899 197.229 145.022 196.4C141.908 195.51 138.737 194.707 135.538 194.285C131.677 193.746 127.796 193.286 123.915 192.826C119.918 192.354 116.03 191.522 112.307 189.904C111.88 189.661 111.385 189.283 110.774 189.567ZM188.856 179.498C188.778 179.141 188.692 178.748 188.614 178.391C187.822 175.121 186.046 172.478 183.391 170.44C181.586 169.038 179.608 168.723 177.491 169.823C176.653 170.269 175.779 170.722 175.036 171.259C173.303 172.575 171.637 174.025 169.904 175.341C167.825 176.956 166.343 179.078 165.246 181.414C163.258 185.668 163.22 187.547 166.957 191.108C170.512 194.521 175.009 196.082 179.922 196.465C182.285 196.659 184.16 195.649 185.794 194.056C186.689 193.186 187.315 192.113 187.81 190.957C189.471 187.261 189.717 183.427 188.856 179.498Z" fill="#13110C"/>
<path fill-rule="evenodd" clip-rule="evenodd" d="M237.186 239.505C233.246 240.143 229.234 239.6 225.628 237.32C221.472 234.75 219.6 230.818 219.634 226.019C219.705 220.876 221.717 216.393 224.553 212.253C225.517 210.844 226.462 210.712 227.99 211.537C228.331 211.725 228.643 211.956 228.948 212.151C232.55 214.581 236.384 214.827 240.378 213.24C241.347 212.878 242.359 212.544 243.359 212.325C245.681 211.817 247.511 212.651 248.603 214.733C249.672 216.707 250.062 218.83 250.067 221.074C250.063 225.155 249.064 228.967 247.07 232.511C244.953 236.344 241.599 238.463 237.186 239.505ZM236.507 235.723C240.452 234.934 242.777 233.077 244.462 229.489C245.208 227.941 245.709 226.296 246.051 224.612C246.522 222.15 246.427 219.664 245.601 217.262C245.224 216.221 244.681 215.966 243.625 216.272C242.534 216.586 241.458 216.972 240.33 217.293C238.104 217.893 235.902 218.264 233.551 217.955C231.509 217.691 229.655 217.087 227.893 216.05C227.327 215.688 226.804 215.69 226.457 216.328C224.706 219.443 223.432 222.68 223.405 226.316C223.382 229.802 225.307 233.461 229.208 235.039C231.577 235.942 234.007 236.271 236.507 235.723Z" fill="#13110C"/>
<path fill-rule="evenodd" clip-rule="evenodd" d="M104.519 129.064C99.3324 130.163 94.5211 125.116 96.1783 120.037C97.1351 117.057 99.2083 114.731 102.34 113.821C105.5 112.867 109.819 115.327 110.809 118.478C112.286 123.171 109.412 127.992 104.519 129.064Z" fill="#EBEBEC"/>
<path fill-rule="evenodd" clip-rule="evenodd" d="M179.117 252.937C176.042 253.423 173.814 253.163 171.999 251.202C169.995 249.058 169.416 246.415 170.301 243.789C171.117 241.364 172.67 239.227 175.697 238.863C176.899 238.712 178.062 238.383 179.35 238.625C182.085 239.148 183.694 240.855 184.508 243.371C185.376 246.138 184.769 248.667 182.756 250.755C181.595 251.945 180.279 252.944 179.117 252.937Z" fill="#EBEBEC"/>
<path fill-rule="evenodd" clip-rule="evenodd" d="M74.0029 128.675C74.9594 128.428 76.1258 128.285 77.386 128.57C80.2237 129.221 81.6418 131.081 82.5144 133.698C83.5557 136.913 82.093 139.292 80.0443 141.388C78.6361 142.819 76.5689 143.122 74.7215 142.891C70.8325 142.395 68.4187 140.603 67.7934 136.211C67.7509 135.846 67.7005 135.446 67.7294 135.065C67.9675 132.393 70.5462 129.47 73.2171 128.847C73.3957 128.808 73.5743 128.769 74.0029 128.675Z" fill="#EBEBEC"/>
<path fill-rule="evenodd" clip-rule="evenodd" d="M91.5737 108.244C92.7123 112.075 90.0635 115.874 86.1425 116.77C82.0352 117.67 78.41 115.133 77.5171 111.398C76.6911 107.799 79.632 103.112 83.2149 102.552C87.0121 101.944 91.0389 104.094 91.5737 108.244Z" fill="#EBEBEC"/>
<path fill-rule="evenodd" clip-rule="evenodd" d="M203.133 234.762C203.915 238.671 201.426 242.173 197.231 243.017C193.322 243.799 189.892 241.294 188.94 237.123C188.091 233.416 190.387 229.544 195.006 228.757C198.66 228.181 202.572 230.319 203.133 234.762Z" fill="#EBEBEC"/>
<path fill-rule="evenodd" clip-rule="evenodd" d="M253.114 197.05C255.3 196.609 257.175 197.134 258.729 198.59C260.758 200.504 261.333 202.961 261.059 205.641C260.957 206.711 260.11 207.458 259.17 207.439C258.23 207.421 257.471 206.689 257.308 205.602C257.215 204.836 257.237 204.082 257.144 203.317C257.004 202.337 256.523 201.506 255.66 200.984C255.094 200.622 254.424 200.469 253.741 200.768C252.212 201.478 250.96 202.426 250.475 204.141C250.347 204.581 250.27 205.085 250.062 205.504C249.711 206.293 248.722 206.734 247.922 206.497C247.244 206.309 246.671 205.574 246.678 204.749C246.671 203.178 247.218 201.748 248.099 200.47C249.329 198.74 251.117 197.675 253.114 197.05Z" fill="#13110C"/>
<path fill-rule="evenodd" clip-rule="evenodd" d="M217.607 204.978C217.429 203.483 217.068 202.514 216.328 201.703C215.589 200.891 214.697 200.75 213.783 201.362C212.925 201.887 212.431 202.706 212.067 203.609C211.772 204.31 211.555 205.032 211.18 205.713C210.71 206.639 209.884 206.97 209.032 206.67C208.145 206.378 207.564 205.606 207.777 204.699C208.396 202.056 209.355 199.6 211.866 198.076C214.341 196.561 216.878 196.866 218.903 198.93C220.642 200.72 221.429 202.944 221.338 205.434C221.291 206.417 220.687 207.074 219.786 207.234C218.885 207.394 218.101 206.891 217.826 205.978C217.681 205.486 217.615 205.014 217.607 204.978Z" fill="#13110C"/>
<path fill-rule="evenodd" clip-rule="evenodd" d="M261.301 213.748C262.94 213.201 264.582 213.178 266.15 214.183C267.856 215.306 268.179 217.294 266.786 218.797C266.209 219.41 265.478 219.832 264.593 220.063C263.188 220.483 261.757 220.273 260.329 220.249C258.973 220.209 257.443 218.523 257.34 217.198C257.249 216.095 258.36 214.504 259.507 214.103C260.071 213.942 260.658 213.888 261.301 213.748Z" fill="#FEF1ED"/>
<path fill-rule="evenodd" clip-rule="evenodd" d="M210.749 213.48C211.186 215.818 209.55 217.748 207.409 217.543C206.259 217.421 205.157 217.176 204.056 216.93C203.279 216.801 202.634 216.418 202.092 215.826C201.361 215.05 200.614 214.203 200.994 213.035C201.41 211.858 202.051 210.857 203.429 210.48C205.398 209.899 207.196 210.591 208.915 211.262C209.905 211.681 210.525 212.631 210.749 213.48Z" fill="#FEF1ED"/>
<path fill-rule="evenodd" clip-rule="evenodd" d="M126.275 185.834C127.327 185.678 128.233 186.228 129.22 186.461C129.081 186.679 128.933 186.861 128.794 187.079C127.636 186.921 126.406 187.115 125.286 186.612C125.596 186.32 126.214 186.409 126.275 185.834Z" fill="#B5BF89"/>
<path fill-rule="evenodd" clip-rule="evenodd" d="M141.507 188.898C140.88 189.11 140.306 188.712 139.695 188.658C139.835 188.441 140.002 188.179 140.142 187.962C141.058 187.873 142.007 187.59 142.926 188.025C142.532 188.449 141.716 188.141 141.507 188.898Z" fill="#B5BF89"/>
<path fill-rule="evenodd" clip-rule="evenodd" d="M167.907 170.837C167.675 171.487 167.142 171.791 166.582 172.138C166.447 172.205 166.189 172.224 166.094 172.133C165.999 172.041 165.988 171.819 166.028 171.66C166.121 171.228 166.17 170.769 166.639 170.516C166.974 171.191 167.463 170.86 167.907 170.837Z" fill="#848E5B"/>
<path fill-rule="evenodd" clip-rule="evenodd" d="M290.168 117.591C291.221 119.831 291.788 122.252 292.134 124.684C292.644 127.866 292.183 130.886 290.275 133.625C289.422 134.86 288.171 135.471 287.141 136.408C286.38 136.35 285.619 136.292 284.857 136.234C284.747 136.071 284.7 135.857 284.561 135.738C280.541 132.763 279.178 128.42 278.728 123.803C278.458 121.204 277.926 118.775 276.878 116.385C276.671 114.072 275.793 111.944 274.788 109.918C273.053 106.443 271.184 103.034 269.306 99.5903C268.541 98.1484 267.586 96.8606 266.53 95.6319C266.084 95.1309 265.637 94.6298 265.489 93.9512C265.332 93.2369 265.465 92.6464 266.029 92.1484C266.538 91.7374 267.054 91.6994 267.624 91.9113C267.87 92.0072 268.159 92.131 268.385 92.3062C273.407 95.5852 278.171 99.2204 282.1 103.825C285.471 107.765 287.912 112.246 289.964 116.999C290.019 117.249 290.094 117.42 290.168 117.591Z" fill="white"/>
<path fill-rule="evenodd" clip-rule="evenodd" d="M282.618 150.275C282.647 149.894 282.661 149.105 282.842 148.391C283.063 147.52 283.667 146.863 284.56 146.667C285.453 146.472 286.61 146.967 287.075 147.726C287.608 148.62 287.625 149.552 286.988 150.403C286.582 150.941 286.124 151.415 285.616 151.826C284.343 152.854 282.906 152.27 282.618 150.275Z" fill="#FEF1ED"/>
<path fill-rule="evenodd" clip-rule="evenodd" d="M127.673 149.669C135.32 148.181 142.853 148.739 150.283 151.042C152.006 151.563 153.71 152.163 155.297 153.088C159.494 155.5 161.212 159.241 160.809 163.895C160.316 169.506 157.673 174.015 153.225 177.46C149.576 180.28 145.413 181.267 140.923 181.277C136.513 181.308 132.176 180.648 127.917 179.485C122.575 177.998 117.446 175.94 112.364 173.759C109.884 172.693 108.898 170.925 108.946 168.407C108.97 166.979 109.109 165.564 109.24 164.113C109.298 163.352 109.593 162.651 109.968 161.97C112.679 157.258 116.445 153.776 121.441 151.633C123.434 150.822 125.53 150.139 127.673 149.669Z" fill="#CE5534"/>
<path fill-rule="evenodd" clip-rule="evenodd" d="M110.774 189.567C111.385 189.283 111.88 189.661 112.371 189.853C116.058 191.478 119.982 192.303 123.978 192.775C127.859 193.235 131.741 193.695 135.602 194.234C138.809 194.692 141.971 195.459 145.086 196.348C147.927 197.186 150.644 198.312 153.253 199.8C157.964 202.511 161.355 206.372 163.696 211.249C164.457 212.841 164.817 214.484 164.455 216.248C164.165 217.659 163.373 218.656 161.983 219.148C160.522 219.655 158.991 219.84 157.492 219.832C152.907 219.751 148.364 219.174 143.95 217.82C137.726 215.89 131.777 213.338 126.075 210.207C121.395 207.639 117.523 204.146 114.411 199.849C112.397 197.146 111.032 193.141 110.774 189.567Z" fill="#FECC4B"/>
<path fill-rule="evenodd" clip-rule="evenodd" d="M188.856 179.498C189.717 183.427 189.471 187.261 187.81 190.957C187.307 192.077 186.681 193.15 185.794 194.056C184.16 195.649 182.285 196.659 179.921 196.465C175.009 196.082 170.548 194.514 166.957 191.108C163.22 187.547 163.258 185.668 165.246 181.414C166.343 179.078 167.825 176.956 169.904 175.341C171.629 173.989 173.303 172.575 175.036 171.259C175.772 170.686 176.653 170.269 177.491 169.823C179.573 168.731 181.551 169.046 183.391 170.44C186.046 172.478 187.858 175.113 188.614 178.391C188.7 178.784 188.778 179.141 188.856 179.498Z" fill="#B5BF89"/>
<path fill-rule="evenodd" clip-rule="evenodd" d="M140.142 187.962C140.002 188.179 139.835 188.441 139.695 188.658C138.648 188.663 137.646 188.359 136.259 187.839C137.858 187.788 138.993 187.502 140.142 187.962Z" fill="#848E5B"/>
<path fill-rule="evenodd" clip-rule="evenodd" d="M128.794 187.079C128.934 186.861 129.081 186.679 129.22 186.461C129.68 186.51 130.176 186.551 130.608 186.644C131.163 186.784 131.689 186.968 132.735 187.301C131.073 187.403 129.935 187.503 128.794 187.079Z" fill="#848E5B"/>
<path fill-rule="evenodd" clip-rule="evenodd" d="M236.507 235.723C234.007 236.271 231.577 235.942 229.244 235.031C225.307 233.461 223.382 229.802 223.44 226.309C223.495 222.628 224.778 219.428 226.492 216.32C226.839 215.682 227.363 215.68 227.929 216.043C229.655 217.087 231.545 217.683 233.586 217.947C235.937 218.256 238.14 217.886 240.366 217.286C241.466 217.007 242.534 216.586 243.661 216.264C244.753 215.95 245.295 216.206 245.637 217.254C246.463 219.656 246.55 222.107 246.087 224.604C245.78 226.281 245.244 227.933 244.498 229.481C242.778 233.077 240.452 234.934 236.507 235.723Z" fill="#F8C1B3"/>
</svg>
