<svg width="389" height="341" viewBox="0 0 389 341" fill="none" xmlns="http://www.w3.org/2000/svg">
<rect y="34.1615" width="389" height="306.351" fill="white"/>
<path d="M266.697 49.0825C251.593 45.4475 236.807 50.7835 226.35 63.3435C210.033 83.1147 193.21 105.511 167.057 106.849C131.601 108.75 92.0531 102.046 63.4007 127.183C48.275 140.355 40.3331 160.532 41.9248 181.221C43.109 196.708 48.107 210.984 55.6289 223.676C57.5093 226.848 59.5506 229.92 61.7462 232.88C68.0327 241.436 76.0208 248.212 85.7801 252.561C101.307 259.178 117.743 262.215 130.551 273.637C146.242 287.676 163.528 303.734 185.723 301.62C191.109 301.523 196.571 300.94 202.095 299.803C220.085 296.055 236.138 287.581 249.925 275.652C279.547 250.045 301.827 216.201 315.138 179.189C317.051 173.121 318.53 166.878 319.555 160.554C323.652 135.258 320.495 108.653 308.878 86.6166C305.972 81.1078 302.54 75.8844 298.559 71.0383C294.579 66.1938 290.053 61.7281 284.964 57.7396C280.329 54.8164 272.506 50.0892 266.697 49.0825Z" fill="#FEF0F0"/>
<path d="M140.606 45.5363C121.104 48.1456 96.429 58.0851 92.7895 79.6018C90.4096 94.6046 109.713 99.9358 122.185 99.92C142.627 100.072 169.769 97.6372 178.277 75.022C181.899 65.4265 176.01 55.1381 167.845 50.441C160.732 46.1085 151.175 44.2189 140.606 45.5363Z" fill="#E91D26"/>
<path d="M242.792 138.806C242.478 138.806 242.178 138.622 242.036 138.31L240.962 135.95L242.471 135.219L243.546 137.581C243.741 138.01 243.562 138.523 243.145 138.724C243.031 138.779 242.911 138.806 242.792 138.806ZM240.254 134.391L239.179 132.031C238.984 131.601 239.163 131.089 239.58 130.886C239.694 130.831 239.815 130.806 239.934 130.806C240.247 130.806 240.547 130.988 240.69 131.3L241.763 133.662L240.254 134.391Z" fill="#DDE0F2"/>
<path d="M238.318 137.139C238.006 137.139 237.705 136.956 237.564 136.644C237.367 136.214 237.548 135.702 237.965 135.499L240.254 134.391L240.962 135.95L238.673 137.058C238.558 137.113 238.437 137.139 238.318 137.139ZM242.472 135.219L241.763 133.662L244.054 132.554C244.168 132.499 244.288 132.472 244.407 132.472C244.719 132.472 245.021 132.654 245.162 132.966C245.358 133.397 245.178 133.909 244.762 134.111L242.472 135.219Z" fill="#DDE0F2"/>
<path d="M240.963 135.95L240.254 134.391L241.763 133.662L242.472 135.219L240.963 135.95Z" fill="#DEE1F2"/>
<path d="M182.925 258.72C182.611 258.72 182.311 258.536 182.168 258.225L181.3 256.315L182.81 255.586L183.678 257.494C183.874 257.924 183.695 258.436 183.278 258.637C183.162 258.693 183.042 258.72 182.925 258.72ZM180.591 254.758L179.722 252.849C179.527 252.42 179.707 251.908 180.123 251.705C180.239 251.649 180.36 251.624 180.477 251.624C180.791 251.624 181.09 251.806 181.233 252.119L182.102 254.027L180.591 254.758Z" fill="#DDE0F2"/>
<path d="M179.096 257.293C178.782 257.293 178.483 257.109 178.34 256.798C178.145 256.367 178.324 255.855 178.741 255.654L180.591 254.758L181.3 256.315L179.45 257.21C179.336 257.266 179.215 257.293 179.096 257.293ZM182.81 255.586L182.102 254.027L183.952 253.132C184.066 253.076 184.186 253.051 184.305 253.051C184.619 253.051 184.919 253.233 185.062 253.545C185.257 253.975 185.077 254.487 184.66 254.69L182.81 255.586Z" fill="#DDE0F2"/>
<path d="M181.3 256.315L180.591 254.758L182.102 254.027L182.811 255.585L181.3 256.315Z" fill="#DEE1F2"/>
<path d="M135.81 121.009C135.496 121.009 135.196 120.826 135.054 120.514L134.186 118.605L135.695 117.875L136.564 119.783C136.759 120.213 136.58 120.725 136.163 120.928C136.049 120.983 135.928 121.009 135.81 121.009ZM133.477 117.049L132.609 115.14C132.413 114.709 132.593 114.197 133.009 113.996C133.124 113.94 133.244 113.913 133.363 113.913C133.676 113.913 133.977 114.097 134.119 114.409L134.987 116.318L133.477 117.049Z" fill="#DDE0F2"/>
<path d="M131.981 119.582C131.668 119.582 131.368 119.4 131.226 119.087C131.03 118.658 131.21 118.146 131.627 117.944L133.477 117.049L134.186 118.605L132.335 119.501C132.221 119.557 132.1 119.582 131.981 119.582ZM135.696 117.875L134.987 116.318L136.838 115.422C136.952 115.367 137.073 115.34 137.191 115.34C137.505 115.34 137.805 115.524 137.947 115.834C138.143 116.266 137.963 116.778 137.546 116.979L135.696 117.875Z" fill="#DDE0F2"/>
<path d="M134.185 118.605L133.477 117.049L134.987 116.318L135.695 117.875L134.185 118.605Z" fill="#DEE1F2"/>
<path d="M165.338 76.8689C163.873 76.8689 162.574 75.8068 162.297 74.2738C161.982 72.5285 163.112 70.8259 164.815 70.4756C165.022 70.4343 165.229 70.4137 165.433 70.4137C166.899 70.4137 168.198 71.4743 168.474 73.0072C168.789 74.7526 167.659 76.4567 165.956 76.8055C165.749 76.8483 165.542 76.8689 165.338 76.8689Z" fill="#DDE0F2"/>
<path d="M263.853 91.4469L255.845 99.4555C254.423 100.878 252.116 100.878 250.694 99.4555L240.875 89.6365C239.453 88.2145 237.147 88.2145 235.725 89.6365L225.906 99.4555C224.484 100.878 222.179 100.878 220.755 99.4555L211.003 89.7031C209.581 88.2811 207.274 88.2811 205.852 89.7031L196.1 99.4555C194.676 100.878 192.371 100.878 190.949 99.4555L181.13 89.6365C179.708 88.2145 177.402 88.2145 175.98 89.6365L166.161 99.4555C164.738 100.878 162.433 100.878 161.01 99.4555L151.257 89.7031C149.835 88.2811 147.529 88.2811 146.107 89.7031L136.354 99.4555C134.931 100.878 132.626 100.878 131.203 99.4555L123.367 91.6196C121.668 89.9202 118.764 91.1234 118.764 93.5267V160.331V192.611V257.306C118.764 260.551 122.686 262.175 124.98 259.882L131.375 253.487C132.798 252.065 135.103 252.065 136.525 253.487L146.345 263.306C147.767 264.728 150.073 264.728 151.495 263.306L161.314 253.487C162.736 252.065 165.042 252.065 166.464 253.487L176.217 263.239C177.639 264.661 179.946 264.661 181.368 263.239L191.12 253.487C192.542 252.065 194.849 252.065 196.271 253.487L206.09 263.306C207.512 264.728 209.818 264.728 211.24 263.306L221.06 253.487C222.481 252.065 224.786 252.065 226.21 253.487L235.962 263.239C237.384 264.661 239.691 264.661 241.113 263.239L250.867 253.487C252.289 252.065 254.594 252.065 256.016 253.487L262.24 259.709C264.533 262.003 268.455 260.378 268.455 257.134V192.611V160.331V93.3539C268.455 90.9523 265.551 89.7491 263.853 91.4469Z" fill="#EBEBEC"/>
<path d="M232.854 72.2414L232.854 72.2413C230.455 69.8425 226.568 69.8439 224.169 72.2403L224.168 72.2414L214.349 82.0619C213.903 82.5076 213.181 82.5076 212.736 82.0619L202.982 72.3078C200.583 69.9096 196.694 69.9096 194.296 72.3078L194.295 72.308L184.543 82.0619C184.543 82.062 184.543 82.062 184.543 82.0621C184.097 82.5076 183.374 82.5075 182.928 82.0619L173.109 72.2414L173.109 72.2413C170.711 69.843 166.822 69.8431 164.423 72.2412L164.423 72.2414L154.604 82.0618C154.604 82.0619 154.604 82.0619 154.604 82.0619C154.604 82.062 154.604 82.062 154.604 82.0621C154.158 82.5076 153.435 82.5076 152.989 82.0617L143.236 72.3079L143.236 72.3077C140.838 69.9096 136.949 69.9096 134.551 72.3077L134.551 72.3079L124.797 82.0618C124.352 82.5076 123.628 82.5077 123.182 82.0617L115.346 74.2245L115.346 74.224C112.073 70.9532 106.475 73.2671 106.475 77.8993V144.703V176.984V241.678C106.475 247.15 113.09 249.891 116.96 246.022L116.96 246.022L123.354 239.627C123.355 239.627 123.355 239.627 123.355 239.627C123.8 239.181 124.523 239.181 124.969 239.627C124.969 239.627 124.969 239.627 124.969 239.627L134.788 249.446L134.788 249.446C137.187 251.844 141.075 251.844 143.474 249.446L143.474 249.446L153.293 239.627C153.739 239.181 154.462 239.181 154.908 239.627L164.66 249.379C167.059 251.78 170.949 251.78 173.348 249.378M232.854 72.2414L173.348 249.378M232.854 72.2414L242.673 82.0619C242.673 82.062 242.673 82.062 242.673 82.0621C243.119 82.5077 243.842 82.5076 244.288 82.0619L252.296 74.054C252.296 74.0537 252.296 74.0535 252.297 74.0532C255.569 70.7788 261.168 73.0977 261.168 77.7265V144.703V176.984V241.507C261.168 246.979 254.552 249.72 250.683 245.849C250.683 245.849 250.683 245.849 250.682 245.849L244.459 239.627L244.459 239.627C244.014 239.181 243.292 239.181 242.846 239.627L242.846 239.627L233.093 249.378C230.695 251.779 226.804 251.78 224.406 249.379C224.405 249.379 224.405 249.379 224.405 249.378L214.653 239.627C214.208 239.181 213.484 239.181 213.038 239.627L203.219 249.446C200.821 251.844 196.932 251.844 194.533 249.446L184.714 239.627C184.269 239.182 183.547 239.18 183.099 239.627C183.099 239.627 183.099 239.627 183.099 239.627C183.099 239.627 183.099 239.628 183.098 239.628M232.854 72.2414L183.098 239.628M173.348 249.378L183.098 239.628M173.348 249.378L183.098 239.628" fill="white" stroke="black" stroke-width="5"/>
<path d="M218.753 202.976H207.857V198.771H218.634C219.446 198.771 220.112 198.625 220.631 198.334C221.15 198.043 221.533 197.631 221.779 197.098C222.026 196.565 222.149 195.935 222.149 195.207C222.149 194.496 222.026 193.854 221.779 193.28C221.533 192.707 221.157 192.25 220.651 191.911C220.145 191.571 219.512 191.402 218.753 191.402H215.058V211.957H210.764V187.136H218.753C220.371 187.136 221.756 187.487 222.908 188.19C224.066 188.885 224.952 189.838 225.565 191.05C226.177 192.254 226.48 193.62 226.473 195.147C226.48 196.747 226.17 198.132 225.545 199.304C224.919 200.476 224.027 201.38 222.868 202.019C221.71 202.657 220.338 202.976 218.753 202.976ZM219.522 204.576V208.782H207.857V204.576H219.522Z" fill="#E91D26"/>
<path d="M239.852 202.976H228.956V198.771H239.732C240.544 198.771 241.21 198.625 241.729 198.334C242.249 198.043 242.631 197.631 242.878 197.098C243.124 196.565 243.247 195.935 243.247 195.207C243.247 194.496 243.124 193.854 242.878 193.28C242.631 192.707 242.255 192.25 241.749 191.911C241.243 191.571 240.611 191.402 239.852 191.402H236.157V211.957H231.862V187.136H239.852C241.47 187.136 242.855 187.487 244.006 188.19C245.165 188.885 246.05 189.838 246.663 191.05C247.275 192.254 247.578 193.62 247.572 195.147C247.578 196.747 247.269 198.132 246.643 199.304C246.017 200.476 245.125 201.38 243.966 202.019C242.808 202.657 241.436 202.976 239.852 202.976ZM240.621 204.576V208.782H228.956V204.576H240.621Z" fill="#E91D26"/>
<path d="M176.468 113.379H126.718C125.246 113.379 124.052 112.185 124.052 110.714C124.052 109.241 125.246 108.048 126.718 108.048H176.468C177.941 108.048 179.135 109.241 179.135 110.714C179.135 112.185 177.941 113.379 176.468 113.379Z" fill="#EBEBEC"/>
<path d="M239.896 113.379H221.207C219.736 113.379 218.542 112.185 218.542 110.714C218.542 109.241 219.736 108.048 221.207 108.048H239.896C241.367 108.048 242.561 109.241 242.561 110.714C242.561 112.185 241.367 113.379 239.896 113.379Z" fill="#EBEBEC"/>
<path d="M239.896 125.16H221.207C219.736 125.16 218.542 123.967 218.542 122.494C218.542 121.023 219.736 119.829 221.207 119.829H239.896C241.367 119.829 242.561 121.023 242.561 122.494C242.561 123.967 241.367 125.16 239.896 125.16Z" fill="#EBEBEC"/>
<path d="M239.896 136.94H221.207C219.736 136.94 218.542 135.748 218.542 134.276C218.542 132.805 219.736 131.611 221.207 131.611H239.896C241.367 131.611 242.561 132.805 242.561 134.276C242.561 135.748 241.367 136.94 239.896 136.94Z" fill="#EBEBEC"/>
<path d="M239.896 160.504H221.207C219.736 160.504 218.542 159.31 218.542 157.839C218.542 156.366 219.736 155.174 221.207 155.174H239.896C241.367 155.174 242.561 156.366 242.561 157.839C242.561 159.31 241.367 160.504 239.896 160.504Z" fill="#EBEBEC"/>
<path d="M239.896 172.285H221.207C219.736 172.285 218.542 171.092 218.542 169.62C218.542 168.148 219.736 166.954 221.207 166.954H239.896C241.367 166.954 242.561 168.148 242.561 169.62C242.561 171.092 241.367 172.285 239.896 172.285Z" fill="#EBEBEC"/>
<path d="M157.193 125.16H126.718C125.246 125.16 124.052 123.967 124.052 122.494C124.052 121.023 125.246 119.829 126.718 119.829H157.193C158.665 119.829 159.859 121.023 159.859 122.494C159.859 123.967 158.665 125.16 157.193 125.16Z" fill="#EBEBEC"/>
<path d="M164.529 136.94H126.718C125.246 136.94 124.052 135.748 124.052 134.276C124.052 132.805 125.246 131.611 126.718 131.611H164.529C166.001 131.611 167.194 132.805 167.194 134.276C167.194 135.748 166.001 136.94 164.529 136.94Z" fill="#EBEBEC"/>
<path d="M168.307 160.504H126.718C125.246 160.504 124.052 159.31 124.052 157.839C124.052 156.366 125.246 155.174 126.718 155.174H168.307C169.78 155.174 170.974 156.366 170.974 157.839C170.974 159.31 169.78 160.504 168.307 160.504Z" fill="#EBEBEC"/>
<path d="M173.198 172.285H126.718C125.246 172.285 124.052 171.092 124.052 169.62C124.052 168.148 125.246 166.954 126.718 166.954H173.198C174.67 166.954 175.863 168.148 175.863 169.62C175.863 171.092 174.67 172.285 173.198 172.285Z" fill="#EBEBEC"/>
<path d="M189.025 187.447H128.638C126.105 187.447 124.052 189.5 124.052 192.033V204.796C124.052 207.327 126.105 209.38 128.638 209.38H189.025C191.557 209.38 193.61 207.327 193.61 204.796V192.033C193.61 189.5 191.557 187.447 189.025 187.447Z" fill="#EBEBEC"/>
<path fill-rule="evenodd" clip-rule="evenodd" d="M289.965 17.9315C290.52 18.0081 290.723 17.6139 291.01 17.3655C293.693 14.918 296.402 12.5096 299.197 10.2C300.127 9.42059 301.063 8.66984 302.188 8.17401C303.505 7.59423 304.737 7.74457 305.84 8.69816C306.377 9.17891 306.708 9.8088 306.933 10.499C307.267 11.4964 307.424 12.5126 307.494 13.5525C307.657 15.3038 307.531 17.0585 307.387 18.8028C307.303 19.778 307.237 20.7635 307.189 21.7594C307.169 22.2105 307.41 22.374 307.802 22.2348C308.365 22.0481 308.938 21.8432 309.504 21.6096C311.214 20.8905 312.926 20.1246 314.643 19.4342C315.554 19.0589 316.473 18.7122 317.433 18.4619C320.243 17.7449 322.175 18.7144 323.409 21.3516C323.908 22.3955 324.18 23.5027 324.384 24.6439C324.505 25.3473 324.626 26.0508 324.729 26.7439C324.92 28.0728 325.552 29.0955 326.631 29.8407C327.434 30.4015 328.197 30.9884 328.989 31.5675C329.381 31.8428 329.781 32.1466 330.053 32.5473C330.409 33.0937 330.137 33.8139 329.516 34.0164C329.402 34.048 329.306 34.09 329.195 34.0746C327.108 34.1613 325.076 33.9871 323.207 32.908C321.679 32.026 320.684 30.7202 320.171 29.035C319.854 28.048 319.737 27.0056 319.563 25.979C319.415 25.1139 319.239 24.2568 319.024 23.4259C318.853 22.7668 318.548 22.5904 317.938 22.7746C317.196 22.98 316.462 23.2141 315.779 23.5262C314.287 24.2003 312.836 24.9708 311.352 25.6736C310.523 26.0721 309.69 26.5176 308.81 26.8381C305.244 28.1176 302.614 26.4045 302.268 22.6465C302.156 21.3878 302.287 20.1231 302.454 18.8792C302.673 17.1295 302.929 15.4005 302.898 13.628C302.879 13.2031 302.975 12.7467 302.703 12.346C302.054 12.5563 301.602 13.0503 301.108 13.4479C298.696 15.4671 296.523 17.6967 294.345 19.9733C293.482 20.8881 292.564 21.7718 291.639 22.6268C291.033 23.1785 290.33 23.6497 289.556 23.9099C287.81 24.4857 286.233 23.6481 285.744 21.8795C285.504 21.0095 285.571 20.1465 285.694 19.2677C285.964 17.4735 286.444 15.7282 286.842 13.9597C286.973 13.4015 287.253 12.8324 287.169 12.2722C287.033 12.2179 286.989 12.1685 286.95 12.1946C286.911 12.2208 286.862 12.2653 286.841 12.3018C286.237 13.0986 285.626 13.8667 285.058 14.6842C283.192 17.3353 281.333 20.015 279.995 22.9957C279.964 23.0505 279.961 23.0974 279.911 23.1419C279.647 23.5988 279.338 23.7613 279.001 23.6397C278.617 23.5157 278.47 23.0651 278.711 22.5223C280.091 19.4685 281.481 16.3964 283.141 13.48C284.133 11.762 285.215 10.0958 286.34 8.4791C286.731 7.92537 287.156 7.43933 287.695 7.0442C289.048 6.07069 290.562 6.60344 291.024 8.21052C291.26 9.00492 291.232 9.84175 291.122 10.6554C290.922 12.1235 290.692 13.5996 290.474 15.0574C290.261 16.0069 290.113 16.9692 289.965 17.9315Z" fill="#E91D26"/>
<path fill-rule="evenodd" clip-rule="evenodd" d="M23.0997 105.77C22.0115 105.976 21.0672 106.159 20.0779 106.024C17.6336 105.706 15.7831 103.972 15.3772 101.592C14.9692 99.298 16.1333 97.1777 18.2809 96.2349C20.4286 95.2921 22.6838 95.9468 23.9389 97.9211C24.2708 98.4308 24.4951 98.9963 24.7943 99.54C25.7376 98.5739 26.0128 97.7835 26.2392 95.5868C26.4598 93.4101 26.0254 91.5218 24.8923 89.757C24.3632 89.6904 24.1027 90.1152 23.7261 90.3104C22.7787 90.8185 21.8031 91.1879 20.6735 91.1427C18.6368 91.0735 16.9904 89.66 16.7995 87.7989C16.6143 85.9178 17.9207 84.2521 19.8725 83.9051C20.7899 83.7364 21.6796 83.8207 22.5626 84.164C22.9935 84.3327 23.3918 84.5353 23.7958 84.7179C24.2415 84.5209 24.2468 84.1092 24.3458 83.7681C24.9996 81.6737 25.3256 79.5275 25.5884 77.3631C25.6636 76.7105 25.7177 76.0518 25.814 75.4054C25.8628 75.1585 25.9654 74.8837 26.1197 74.6674C26.3684 74.2828 27.0299 74.3661 27.2528 74.7789C27.4148 75.0869 27.4328 75.4185 27.4297 75.744C27.4317 78.9643 27.3857 82.1924 26.916 85.3845C26.8197 86.0309 26.4741 86.6703 26.5698 87.2854C26.6654 87.9006 27.187 88.4653 27.4746 89.0492C28.4171 90.9979 28.7148 93.0423 28.6767 95.1415C28.6521 97.7449 28.089 100.236 26.746 102.5C26.607 102.742 26.4891 102.991 26.2775 103.169C25.2733 104.03 25.0735 105.19 24.9522 106.395C24.7433 108.532 23.8679 110.366 22.5558 112.052C20.8159 114.266 18.6671 116.079 16.6003 118.002C16.5138 118.064 16.4214 118.146 16.3407 118.188C16.0179 118.355 15.6995 118.35 15.4089 118.091C15.1546 117.865 15.1119 117.461 15.3468 117.203C15.5934 116.905 15.8915 116.665 16.1744 116.399C17.2674 115.389 18.3605 114.38 19.4171 113.338C19.9946 112.766 20.5473 112.121 21.0521 111.485C22.3257 109.853 23.1473 108.047 23.0997 105.77ZM20.5763 102.34C20.7086 102.357 20.8772 102.406 21.0363 102.408C21.6673 102.439 22.3636 102.402 22.768 101.954C23.2051 101.472 22.6777 100.927 22.4991 100.44C22.3358 99.9792 22.0496 99.5481 21.6711 99.1989C21.3078 98.8758 20.8594 98.7674 20.4101 98.898C19.6882 99.1017 19.1041 99.9329 19.1495 100.642C19.2174 101.51 19.7063 102.109 20.5763 102.34Z" fill="#E91D26"/>
<path fill-rule="evenodd" clip-rule="evenodd" d="M137.374 308.237C138.34 309.401 139.414 310.401 140.487 311.381C140.81 311.667 141.153 311.952 141.475 312.259C142.162 312.891 142.334 313.402 141.969 313.769C141.625 314.116 141.282 314.238 140.294 313.687C139.951 313.504 139.607 313.32 139.285 313.116C137.825 312.218 136.365 311.34 134.927 310.422C134.519 310.156 134.175 310.095 133.703 310.299C132.372 310.85 130.976 311.218 129.516 311.422C125.802 311.932 122.56 310.871 119.576 308.87C118.438 308.115 117.708 307.033 117.386 305.747C117.171 304.808 116.999 303.869 116.828 302.931C116.785 302.726 116.828 302.502 116.892 302.298C116.978 302.032 117.214 301.849 117.515 301.849C117.751 301.849 117.944 301.971 118.073 302.155C118.159 302.298 118.223 302.441 118.266 302.584C118.33 302.849 118.373 303.114 118.395 303.38C118.588 305.992 120.134 307.543 122.624 308.38C125.308 309.299 127.97 309.421 130.633 308.278C131.47 307.911 131.535 307.87 131.019 307.176C129.967 305.747 129.624 304.155 129.881 302.461C130.225 300.236 131.47 298.603 133.746 297.828C137.353 296.603 140.981 299.399 140.487 303.012C140.273 304.543 139.586 305.849 138.555 307.013C138.169 307.401 137.782 307.788 137.374 308.237ZM134.819 304.298C134.819 304.38 134.819 304.502 134.862 304.584C134.884 304.666 134.97 304.788 135.056 304.788C135.141 304.808 135.27 304.747 135.335 304.665C135.678 304.237 135.85 303.747 135.871 303.216C135.893 303.053 135.786 302.931 135.614 302.869C135.421 302.808 135.313 302.951 135.206 303.073C134.927 303.461 134.819 303.849 134.819 304.298Z" fill="#E91D26"/>
<path fill-rule="evenodd" clip-rule="evenodd" d="M333.684 241.97C332.398 243.091 330.694 244.677 328.863 246.099C328.184 246.622 327.573 247.247 326.915 247.821C326.707 247.994 326.487 248.155 326.258 248.276C325.96 248.415 325.658 248.368 325.457 248.155C325.256 247.942 325.196 247.667 325.366 247.363C325.455 247.184 325.574 246.977 325.725 246.834C327.508 245.15 328.851 243.121 330.512 241.338C332.422 239.272 334.308 237.182 336.229 235.129C337.152 234.138 338.24 233.323 339.305 232.483C339.468 232.353 339.658 232.221 339.842 232.142C340.494 231.834 341.043 232.264 340.893 232.952C340.855 233.154 340.778 233.345 340.701 233.536C340.069 235.106 339.198 236.546 338.024 237.846C336.783 239.136 335.496 240.376 333.684 241.97Z" fill="#E91D26"/>
<path fill-rule="evenodd" clip-rule="evenodd" d="M324.525 243.123C323.75 243.752 322.913 244.44 322.078 245.1C321.801 245.31 321.501 245.465 321.21 245.252C320.919 245.038 320.995 244.709 321.195 244.417C321.848 243.44 322.46 242.45 323.206 241.539C324.276 240.246 325.543 239.099 326.846 238.022C326.985 237.917 327.123 237.812 327.269 237.777C327.475 237.711 327.687 237.716 327.857 237.864C328.014 237.999 328.067 238.18 328.044 238.408C328.035 238.493 327.979 238.623 327.914 238.711C326.894 240.215 325.939 241.786 324.525 243.123Z" fill="#E91D26"/>
</svg>
